%TF.GenerationSoftware,KiCad,Pcbnew,7.0.1*%
%TF.CreationDate,2023-04-07T11:41:16-04:00*%
%TF.ProjectId,smart penetrometer update,736d6172-7420-4706-956e-6574726f6d65,rev?*%
%TF.SameCoordinates,Original*%
%TF.FileFunction,Legend,Bot*%
%TF.FilePolarity,Positive*%
%FSLAX46Y46*%
G04 Gerber Fmt 4.6, Leading zero omitted, Abs format (unit mm)*
G04 Created by KiCad (PCBNEW 7.0.1) date 2023-04-07 11:41:16*
%MOMM*%
%LPD*%
G01*
G04 APERTURE LIST*
%ADD10C,0.250000*%
%ADD11C,0.300000*%
%ADD12C,0.187500*%
%ADD13C,0.125000*%
%ADD14C,0.150000*%
%ADD15C,0.120000*%
%ADD16C,0.127000*%
%ADD17C,0.200000*%
G04 APERTURE END LIST*
D10*
X113762619Y-121777619D02*
X113762619Y-121872857D01*
X113762619Y-121872857D02*
X113810238Y-121968095D01*
X113810238Y-121968095D02*
X113857857Y-122015714D01*
X113857857Y-122015714D02*
X113953095Y-122063333D01*
X113953095Y-122063333D02*
X114143571Y-122110952D01*
X114143571Y-122110952D02*
X114381666Y-122110952D01*
X114381666Y-122110952D02*
X114572142Y-122063333D01*
X114572142Y-122063333D02*
X114667380Y-122015714D01*
X114667380Y-122015714D02*
X114715000Y-121968095D01*
X114715000Y-121968095D02*
X114762619Y-121872857D01*
X114762619Y-121872857D02*
X114762619Y-121777619D01*
X114762619Y-121777619D02*
X114715000Y-121682381D01*
X114715000Y-121682381D02*
X114667380Y-121634762D01*
X114667380Y-121634762D02*
X114572142Y-121587143D01*
X114572142Y-121587143D02*
X114381666Y-121539524D01*
X114381666Y-121539524D02*
X114143571Y-121539524D01*
X114143571Y-121539524D02*
X113953095Y-121587143D01*
X113953095Y-121587143D02*
X113857857Y-121634762D01*
X113857857Y-121634762D02*
X113810238Y-121682381D01*
X113810238Y-121682381D02*
X113762619Y-121777619D01*
X113715000Y-123253809D02*
X115000714Y-122396667D01*
X114762619Y-124110952D02*
X114762619Y-123539524D01*
X114762619Y-123825238D02*
X113762619Y-123825238D01*
X113762619Y-123825238D02*
X113905476Y-123730000D01*
X113905476Y-123730000D02*
X114000714Y-123634762D01*
X114000714Y-123634762D02*
X114048333Y-123539524D01*
X113762619Y-125015714D02*
X113762619Y-124539524D01*
X113762619Y-124539524D02*
X114238809Y-124491905D01*
X114238809Y-124491905D02*
X114191190Y-124539524D01*
X114191190Y-124539524D02*
X114143571Y-124634762D01*
X114143571Y-124634762D02*
X114143571Y-124872857D01*
X114143571Y-124872857D02*
X114191190Y-124968095D01*
X114191190Y-124968095D02*
X114238809Y-125015714D01*
X114238809Y-125015714D02*
X114334047Y-125063333D01*
X114334047Y-125063333D02*
X114572142Y-125063333D01*
X114572142Y-125063333D02*
X114667380Y-125015714D01*
X114667380Y-125015714D02*
X114715000Y-124968095D01*
X114715000Y-124968095D02*
X114762619Y-124872857D01*
X114762619Y-124872857D02*
X114762619Y-124634762D01*
X114762619Y-124634762D02*
X114715000Y-124539524D01*
X114715000Y-124539524D02*
X114667380Y-124491905D01*
X113715000Y-126206190D02*
X115000714Y-125349048D01*
X113857857Y-126491905D02*
X113810238Y-126539524D01*
X113810238Y-126539524D02*
X113762619Y-126634762D01*
X113762619Y-126634762D02*
X113762619Y-126872857D01*
X113762619Y-126872857D02*
X113810238Y-126968095D01*
X113810238Y-126968095D02*
X113857857Y-127015714D01*
X113857857Y-127015714D02*
X113953095Y-127063333D01*
X113953095Y-127063333D02*
X114048333Y-127063333D01*
X114048333Y-127063333D02*
X114191190Y-127015714D01*
X114191190Y-127015714D02*
X114762619Y-126444286D01*
X114762619Y-126444286D02*
X114762619Y-127063333D01*
X113762619Y-127682381D02*
X113762619Y-127777619D01*
X113762619Y-127777619D02*
X113810238Y-127872857D01*
X113810238Y-127872857D02*
X113857857Y-127920476D01*
X113857857Y-127920476D02*
X113953095Y-127968095D01*
X113953095Y-127968095D02*
X114143571Y-128015714D01*
X114143571Y-128015714D02*
X114381666Y-128015714D01*
X114381666Y-128015714D02*
X114572142Y-127968095D01*
X114572142Y-127968095D02*
X114667380Y-127920476D01*
X114667380Y-127920476D02*
X114715000Y-127872857D01*
X114715000Y-127872857D02*
X114762619Y-127777619D01*
X114762619Y-127777619D02*
X114762619Y-127682381D01*
X114762619Y-127682381D02*
X114715000Y-127587143D01*
X114715000Y-127587143D02*
X114667380Y-127539524D01*
X114667380Y-127539524D02*
X114572142Y-127491905D01*
X114572142Y-127491905D02*
X114381666Y-127444286D01*
X114381666Y-127444286D02*
X114143571Y-127444286D01*
X114143571Y-127444286D02*
X113953095Y-127491905D01*
X113953095Y-127491905D02*
X113857857Y-127539524D01*
X113857857Y-127539524D02*
X113810238Y-127587143D01*
X113810238Y-127587143D02*
X113762619Y-127682381D01*
X113857857Y-128396667D02*
X113810238Y-128444286D01*
X113810238Y-128444286D02*
X113762619Y-128539524D01*
X113762619Y-128539524D02*
X113762619Y-128777619D01*
X113762619Y-128777619D02*
X113810238Y-128872857D01*
X113810238Y-128872857D02*
X113857857Y-128920476D01*
X113857857Y-128920476D02*
X113953095Y-128968095D01*
X113953095Y-128968095D02*
X114048333Y-128968095D01*
X114048333Y-128968095D02*
X114191190Y-128920476D01*
X114191190Y-128920476D02*
X114762619Y-128349048D01*
X114762619Y-128349048D02*
X114762619Y-128968095D01*
X113857857Y-129349048D02*
X113810238Y-129396667D01*
X113810238Y-129396667D02*
X113762619Y-129491905D01*
X113762619Y-129491905D02*
X113762619Y-129730000D01*
X113762619Y-129730000D02*
X113810238Y-129825238D01*
X113810238Y-129825238D02*
X113857857Y-129872857D01*
X113857857Y-129872857D02*
X113953095Y-129920476D01*
X113953095Y-129920476D02*
X114048333Y-129920476D01*
X114048333Y-129920476D02*
X114191190Y-129872857D01*
X114191190Y-129872857D02*
X114762619Y-129301429D01*
X114762619Y-129301429D02*
X114762619Y-129920476D01*
D11*
X112453928Y-113602856D02*
X110953928Y-113602856D01*
X110953928Y-113602856D02*
X112025357Y-114102856D01*
X112025357Y-114102856D02*
X110953928Y-114602856D01*
X110953928Y-114602856D02*
X112453928Y-114602856D01*
X112453928Y-115960000D02*
X111668214Y-115960000D01*
X111668214Y-115960000D02*
X111525357Y-115888571D01*
X111525357Y-115888571D02*
X111453928Y-115745714D01*
X111453928Y-115745714D02*
X111453928Y-115460000D01*
X111453928Y-115460000D02*
X111525357Y-115317142D01*
X112382500Y-115960000D02*
X112453928Y-115817142D01*
X112453928Y-115817142D02*
X112453928Y-115460000D01*
X112453928Y-115460000D02*
X112382500Y-115317142D01*
X112382500Y-115317142D02*
X112239642Y-115245714D01*
X112239642Y-115245714D02*
X112096785Y-115245714D01*
X112096785Y-115245714D02*
X111953928Y-115317142D01*
X111953928Y-115317142D02*
X111882500Y-115460000D01*
X111882500Y-115460000D02*
X111882500Y-115817142D01*
X111882500Y-115817142D02*
X111811071Y-115960000D01*
X112453928Y-116888571D02*
X112382500Y-116745714D01*
X112382500Y-116745714D02*
X112239642Y-116674285D01*
X112239642Y-116674285D02*
X110953928Y-116674285D01*
X112453928Y-117459999D02*
X111453928Y-117459999D01*
X110953928Y-117459999D02*
X111025357Y-117388571D01*
X111025357Y-117388571D02*
X111096785Y-117459999D01*
X111096785Y-117459999D02*
X111025357Y-117531428D01*
X111025357Y-117531428D02*
X110953928Y-117459999D01*
X110953928Y-117459999D02*
X111096785Y-117459999D01*
X112382500Y-118817143D02*
X112453928Y-118674285D01*
X112453928Y-118674285D02*
X112453928Y-118388571D01*
X112453928Y-118388571D02*
X112382500Y-118245714D01*
X112382500Y-118245714D02*
X112311071Y-118174285D01*
X112311071Y-118174285D02*
X112168214Y-118102857D01*
X112168214Y-118102857D02*
X111739642Y-118102857D01*
X111739642Y-118102857D02*
X111596785Y-118174285D01*
X111596785Y-118174285D02*
X111525357Y-118245714D01*
X111525357Y-118245714D02*
X111453928Y-118388571D01*
X111453928Y-118388571D02*
X111453928Y-118674285D01*
X111453928Y-118674285D02*
X111525357Y-118817143D01*
X112453928Y-119459999D02*
X110953928Y-119459999D01*
X112453928Y-120102857D02*
X111668214Y-120102857D01*
X111668214Y-120102857D02*
X111525357Y-120031428D01*
X111525357Y-120031428D02*
X111453928Y-119888571D01*
X111453928Y-119888571D02*
X111453928Y-119674285D01*
X111453928Y-119674285D02*
X111525357Y-119531428D01*
X111525357Y-119531428D02*
X111596785Y-119459999D01*
X112453928Y-120817142D02*
X111453928Y-120817142D01*
X110953928Y-120817142D02*
X111025357Y-120745714D01*
X111025357Y-120745714D02*
X111096785Y-120817142D01*
X111096785Y-120817142D02*
X111025357Y-120888571D01*
X111025357Y-120888571D02*
X110953928Y-120817142D01*
X110953928Y-120817142D02*
X111096785Y-120817142D01*
X111668214Y-123174285D02*
X111668214Y-122674285D01*
X112453928Y-122674285D02*
X110953928Y-122674285D01*
X110953928Y-122674285D02*
X110953928Y-123388571D01*
X112453928Y-124174285D02*
X112382500Y-124031428D01*
X112382500Y-124031428D02*
X112239642Y-123959999D01*
X112239642Y-123959999D02*
X110953928Y-123959999D01*
X112382500Y-125317142D02*
X112453928Y-125174285D01*
X112453928Y-125174285D02*
X112453928Y-124888571D01*
X112453928Y-124888571D02*
X112382500Y-124745713D01*
X112382500Y-124745713D02*
X112239642Y-124674285D01*
X112239642Y-124674285D02*
X111668214Y-124674285D01*
X111668214Y-124674285D02*
X111525357Y-124745713D01*
X111525357Y-124745713D02*
X111453928Y-124888571D01*
X111453928Y-124888571D02*
X111453928Y-125174285D01*
X111453928Y-125174285D02*
X111525357Y-125317142D01*
X111525357Y-125317142D02*
X111668214Y-125388571D01*
X111668214Y-125388571D02*
X111811071Y-125388571D01*
X111811071Y-125388571D02*
X111953928Y-124674285D01*
X112453928Y-126031427D02*
X111453928Y-126031427D01*
X111596785Y-126031427D02*
X111525357Y-126102856D01*
X111525357Y-126102856D02*
X111453928Y-126245713D01*
X111453928Y-126245713D02*
X111453928Y-126459999D01*
X111453928Y-126459999D02*
X111525357Y-126602856D01*
X111525357Y-126602856D02*
X111668214Y-126674285D01*
X111668214Y-126674285D02*
X112453928Y-126674285D01*
X111668214Y-126674285D02*
X111525357Y-126745713D01*
X111525357Y-126745713D02*
X111453928Y-126888570D01*
X111453928Y-126888570D02*
X111453928Y-127102856D01*
X111453928Y-127102856D02*
X111525357Y-127245713D01*
X111525357Y-127245713D02*
X111668214Y-127317142D01*
X111668214Y-127317142D02*
X112453928Y-127317142D01*
X112453928Y-128031427D02*
X111453928Y-128031427D01*
X111596785Y-128031427D02*
X111525357Y-128102856D01*
X111525357Y-128102856D02*
X111453928Y-128245713D01*
X111453928Y-128245713D02*
X111453928Y-128459999D01*
X111453928Y-128459999D02*
X111525357Y-128602856D01*
X111525357Y-128602856D02*
X111668214Y-128674285D01*
X111668214Y-128674285D02*
X112453928Y-128674285D01*
X111668214Y-128674285D02*
X111525357Y-128745713D01*
X111525357Y-128745713D02*
X111453928Y-128888570D01*
X111453928Y-128888570D02*
X111453928Y-129102856D01*
X111453928Y-129102856D02*
X111525357Y-129245713D01*
X111525357Y-129245713D02*
X111668214Y-129317142D01*
X111668214Y-129317142D02*
X112453928Y-129317142D01*
X112453928Y-130031427D02*
X111453928Y-130031427D01*
X110953928Y-130031427D02*
X111025357Y-129959999D01*
X111025357Y-129959999D02*
X111096785Y-130031427D01*
X111096785Y-130031427D02*
X111025357Y-130102856D01*
X111025357Y-130102856D02*
X110953928Y-130031427D01*
X110953928Y-130031427D02*
X111096785Y-130031427D01*
X111453928Y-130745713D02*
X112453928Y-130745713D01*
X111596785Y-130745713D02*
X111525357Y-130817142D01*
X111525357Y-130817142D02*
X111453928Y-130959999D01*
X111453928Y-130959999D02*
X111453928Y-131174285D01*
X111453928Y-131174285D02*
X111525357Y-131317142D01*
X111525357Y-131317142D02*
X111668214Y-131388571D01*
X111668214Y-131388571D02*
X112453928Y-131388571D01*
X111453928Y-132745714D02*
X112668214Y-132745714D01*
X112668214Y-132745714D02*
X112811071Y-132674285D01*
X112811071Y-132674285D02*
X112882500Y-132602856D01*
X112882500Y-132602856D02*
X112953928Y-132459999D01*
X112953928Y-132459999D02*
X112953928Y-132245714D01*
X112953928Y-132245714D02*
X112882500Y-132102856D01*
X112382500Y-132745714D02*
X112453928Y-132602856D01*
X112453928Y-132602856D02*
X112453928Y-132317142D01*
X112453928Y-132317142D02*
X112382500Y-132174285D01*
X112382500Y-132174285D02*
X112311071Y-132102856D01*
X112311071Y-132102856D02*
X112168214Y-132031428D01*
X112168214Y-132031428D02*
X111739642Y-132031428D01*
X111739642Y-132031428D02*
X111596785Y-132102856D01*
X111596785Y-132102856D02*
X111525357Y-132174285D01*
X111525357Y-132174285D02*
X111453928Y-132317142D01*
X111453928Y-132317142D02*
X111453928Y-132602856D01*
X111453928Y-132602856D02*
X111525357Y-132745714D01*
X112453928Y-134602856D02*
X110953928Y-134602856D01*
X112453928Y-135317142D02*
X110953928Y-135317142D01*
D12*
X132730000Y-101196964D02*
X132265714Y-101196964D01*
X132265714Y-101196964D02*
X132515714Y-101482678D01*
X132515714Y-101482678D02*
X132408571Y-101482678D01*
X132408571Y-101482678D02*
X132337143Y-101518392D01*
X132337143Y-101518392D02*
X132301428Y-101554107D01*
X132301428Y-101554107D02*
X132265714Y-101625535D01*
X132265714Y-101625535D02*
X132265714Y-101804107D01*
X132265714Y-101804107D02*
X132301428Y-101875535D01*
X132301428Y-101875535D02*
X132337143Y-101911250D01*
X132337143Y-101911250D02*
X132408571Y-101946964D01*
X132408571Y-101946964D02*
X132622857Y-101946964D01*
X132622857Y-101946964D02*
X132694285Y-101911250D01*
X132694285Y-101911250D02*
X132730000Y-101875535D01*
X132051428Y-101196964D02*
X131801428Y-101946964D01*
X131801428Y-101946964D02*
X131551428Y-101196964D01*
X131372857Y-101196964D02*
X130908571Y-101196964D01*
X130908571Y-101196964D02*
X131158571Y-101482678D01*
X131158571Y-101482678D02*
X131051428Y-101482678D01*
X131051428Y-101482678D02*
X130980000Y-101518392D01*
X130980000Y-101518392D02*
X130944285Y-101554107D01*
X130944285Y-101554107D02*
X130908571Y-101625535D01*
X130908571Y-101625535D02*
X130908571Y-101804107D01*
X130908571Y-101804107D02*
X130944285Y-101875535D01*
X130944285Y-101875535D02*
X130980000Y-101911250D01*
X130980000Y-101911250D02*
X131051428Y-101946964D01*
X131051428Y-101946964D02*
X131265714Y-101946964D01*
X131265714Y-101946964D02*
X131337142Y-101911250D01*
X131337142Y-101911250D02*
X131372857Y-101875535D01*
X130122856Y-101196964D02*
X129872856Y-101946964D01*
X129872856Y-101946964D02*
X129622856Y-101196964D01*
X129229999Y-101196964D02*
X129087142Y-101196964D01*
X129087142Y-101196964D02*
X129015713Y-101232678D01*
X129015713Y-101232678D02*
X128944285Y-101304107D01*
X128944285Y-101304107D02*
X128908570Y-101446964D01*
X128908570Y-101446964D02*
X128908570Y-101696964D01*
X128908570Y-101696964D02*
X128944285Y-101839821D01*
X128944285Y-101839821D02*
X129015713Y-101911250D01*
X129015713Y-101911250D02*
X129087142Y-101946964D01*
X129087142Y-101946964D02*
X129229999Y-101946964D01*
X129229999Y-101946964D02*
X129301428Y-101911250D01*
X129301428Y-101911250D02*
X129372856Y-101839821D01*
X129372856Y-101839821D02*
X129408570Y-101696964D01*
X129408570Y-101696964D02*
X129408570Y-101446964D01*
X129408570Y-101446964D02*
X129372856Y-101304107D01*
X129372856Y-101304107D02*
X129301428Y-101232678D01*
X129301428Y-101232678D02*
X129229999Y-101196964D01*
X128229999Y-101946964D02*
X128587142Y-101946964D01*
X128587142Y-101946964D02*
X128587142Y-101196964D01*
X128087142Y-101196964D02*
X127658571Y-101196964D01*
X127872856Y-101946964D02*
X127872856Y-101196964D01*
X127444284Y-101732678D02*
X127087142Y-101732678D01*
X127515713Y-101946964D02*
X127265713Y-101196964D01*
X127265713Y-101196964D02*
X127015713Y-101946964D01*
X126372856Y-101232678D02*
X126444285Y-101196964D01*
X126444285Y-101196964D02*
X126551427Y-101196964D01*
X126551427Y-101196964D02*
X126658570Y-101232678D01*
X126658570Y-101232678D02*
X126729999Y-101304107D01*
X126729999Y-101304107D02*
X126765713Y-101375535D01*
X126765713Y-101375535D02*
X126801427Y-101518392D01*
X126801427Y-101518392D02*
X126801427Y-101625535D01*
X126801427Y-101625535D02*
X126765713Y-101768392D01*
X126765713Y-101768392D02*
X126729999Y-101839821D01*
X126729999Y-101839821D02*
X126658570Y-101911250D01*
X126658570Y-101911250D02*
X126551427Y-101946964D01*
X126551427Y-101946964D02*
X126479999Y-101946964D01*
X126479999Y-101946964D02*
X126372856Y-101911250D01*
X126372856Y-101911250D02*
X126337142Y-101875535D01*
X126337142Y-101875535D02*
X126337142Y-101625535D01*
X126337142Y-101625535D02*
X126479999Y-101625535D01*
X126015713Y-101554107D02*
X125765713Y-101554107D01*
X125658570Y-101946964D02*
X126015713Y-101946964D01*
X126015713Y-101946964D02*
X126015713Y-101196964D01*
X126015713Y-101196964D02*
X125658570Y-101196964D01*
X124337142Y-101946964D02*
X124587142Y-101589821D01*
X124765713Y-101946964D02*
X124765713Y-101196964D01*
X124765713Y-101196964D02*
X124479999Y-101196964D01*
X124479999Y-101196964D02*
X124408570Y-101232678D01*
X124408570Y-101232678D02*
X124372856Y-101268392D01*
X124372856Y-101268392D02*
X124337142Y-101339821D01*
X124337142Y-101339821D02*
X124337142Y-101446964D01*
X124337142Y-101446964D02*
X124372856Y-101518392D01*
X124372856Y-101518392D02*
X124408570Y-101554107D01*
X124408570Y-101554107D02*
X124479999Y-101589821D01*
X124479999Y-101589821D02*
X124765713Y-101589821D01*
X124015713Y-101554107D02*
X123765713Y-101554107D01*
X123658570Y-101946964D02*
X124015713Y-101946964D01*
X124015713Y-101946964D02*
X124015713Y-101196964D01*
X124015713Y-101196964D02*
X123658570Y-101196964D01*
X122944285Y-101232678D02*
X123015714Y-101196964D01*
X123015714Y-101196964D02*
X123122856Y-101196964D01*
X123122856Y-101196964D02*
X123229999Y-101232678D01*
X123229999Y-101232678D02*
X123301428Y-101304107D01*
X123301428Y-101304107D02*
X123337142Y-101375535D01*
X123337142Y-101375535D02*
X123372856Y-101518392D01*
X123372856Y-101518392D02*
X123372856Y-101625535D01*
X123372856Y-101625535D02*
X123337142Y-101768392D01*
X123337142Y-101768392D02*
X123301428Y-101839821D01*
X123301428Y-101839821D02*
X123229999Y-101911250D01*
X123229999Y-101911250D02*
X123122856Y-101946964D01*
X123122856Y-101946964D02*
X123051428Y-101946964D01*
X123051428Y-101946964D02*
X122944285Y-101911250D01*
X122944285Y-101911250D02*
X122908571Y-101875535D01*
X122908571Y-101875535D02*
X122908571Y-101625535D01*
X122908571Y-101625535D02*
X123051428Y-101625535D01*
X122587142Y-101196964D02*
X122587142Y-101804107D01*
X122587142Y-101804107D02*
X122551428Y-101875535D01*
X122551428Y-101875535D02*
X122515714Y-101911250D01*
X122515714Y-101911250D02*
X122444285Y-101946964D01*
X122444285Y-101946964D02*
X122301428Y-101946964D01*
X122301428Y-101946964D02*
X122229999Y-101911250D01*
X122229999Y-101911250D02*
X122194285Y-101875535D01*
X122194285Y-101875535D02*
X122158571Y-101804107D01*
X122158571Y-101804107D02*
X122158571Y-101196964D01*
X121444285Y-101946964D02*
X121801428Y-101946964D01*
X121801428Y-101946964D02*
X121801428Y-101196964D01*
X121229999Y-101732678D02*
X120872857Y-101732678D01*
X121301428Y-101946964D02*
X121051428Y-101196964D01*
X121051428Y-101196964D02*
X120801428Y-101946964D01*
X120658571Y-101196964D02*
X120230000Y-101196964D01*
X120444285Y-101946964D02*
X120444285Y-101196964D01*
X119837142Y-101196964D02*
X119694285Y-101196964D01*
X119694285Y-101196964D02*
X119622856Y-101232678D01*
X119622856Y-101232678D02*
X119551428Y-101304107D01*
X119551428Y-101304107D02*
X119515713Y-101446964D01*
X119515713Y-101446964D02*
X119515713Y-101696964D01*
X119515713Y-101696964D02*
X119551428Y-101839821D01*
X119551428Y-101839821D02*
X119622856Y-101911250D01*
X119622856Y-101911250D02*
X119694285Y-101946964D01*
X119694285Y-101946964D02*
X119837142Y-101946964D01*
X119837142Y-101946964D02*
X119908571Y-101911250D01*
X119908571Y-101911250D02*
X119979999Y-101839821D01*
X119979999Y-101839821D02*
X120015713Y-101696964D01*
X120015713Y-101696964D02*
X120015713Y-101446964D01*
X120015713Y-101446964D02*
X119979999Y-101304107D01*
X119979999Y-101304107D02*
X119908571Y-101232678D01*
X119908571Y-101232678D02*
X119837142Y-101196964D01*
X118765714Y-101946964D02*
X119015714Y-101589821D01*
X119194285Y-101946964D02*
X119194285Y-101196964D01*
X119194285Y-101196964D02*
X118908571Y-101196964D01*
X118908571Y-101196964D02*
X118837142Y-101232678D01*
X118837142Y-101232678D02*
X118801428Y-101268392D01*
X118801428Y-101268392D02*
X118765714Y-101339821D01*
X118765714Y-101339821D02*
X118765714Y-101446964D01*
X118765714Y-101446964D02*
X118801428Y-101518392D01*
X118801428Y-101518392D02*
X118837142Y-101554107D01*
X118837142Y-101554107D02*
X118908571Y-101589821D01*
X118908571Y-101589821D02*
X119194285Y-101589821D01*
D13*
X130587142Y-117572619D02*
X129920476Y-117572619D01*
X129920476Y-117572619D02*
X130587142Y-118572619D01*
X130587142Y-118572619D02*
X129920476Y-118572619D01*
X129539523Y-118048809D02*
X129206190Y-118048809D01*
X129063333Y-118572619D02*
X129539523Y-118572619D01*
X129539523Y-118572619D02*
X129539523Y-117572619D01*
X129539523Y-117572619D02*
X129063333Y-117572619D01*
X128634761Y-118572619D02*
X128634761Y-117572619D01*
X128634761Y-117572619D02*
X128063333Y-118572619D01*
X128063333Y-118572619D02*
X128063333Y-117572619D01*
X127587142Y-118048809D02*
X127253809Y-118048809D01*
X127110952Y-118572619D02*
X127587142Y-118572619D01*
X127587142Y-118572619D02*
X127587142Y-117572619D01*
X127587142Y-117572619D02*
X127110952Y-117572619D01*
X126110952Y-118572619D02*
X126444285Y-118096428D01*
X126682380Y-118572619D02*
X126682380Y-117572619D01*
X126682380Y-117572619D02*
X126301428Y-117572619D01*
X126301428Y-117572619D02*
X126206190Y-117620238D01*
X126206190Y-117620238D02*
X126158571Y-117667857D01*
X126158571Y-117667857D02*
X126110952Y-117763095D01*
X126110952Y-117763095D02*
X126110952Y-117905952D01*
X126110952Y-117905952D02*
X126158571Y-118001190D01*
X126158571Y-118001190D02*
X126206190Y-118048809D01*
X126206190Y-118048809D02*
X126301428Y-118096428D01*
X126301428Y-118096428D02*
X126682380Y-118096428D01*
X124920475Y-118572619D02*
X124920475Y-117572619D01*
X124920475Y-117572619D02*
X124682380Y-117572619D01*
X124682380Y-117572619D02*
X124539523Y-117620238D01*
X124539523Y-117620238D02*
X124444285Y-117715476D01*
X124444285Y-117715476D02*
X124396666Y-117810714D01*
X124396666Y-117810714D02*
X124349047Y-118001190D01*
X124349047Y-118001190D02*
X124349047Y-118144047D01*
X124349047Y-118144047D02*
X124396666Y-118334523D01*
X124396666Y-118334523D02*
X124444285Y-118429761D01*
X124444285Y-118429761D02*
X124539523Y-118525000D01*
X124539523Y-118525000D02*
X124682380Y-118572619D01*
X124682380Y-118572619D02*
X124920475Y-118572619D01*
X123920475Y-118572619D02*
X123920475Y-117572619D01*
X123253809Y-117572619D02*
X123063333Y-117572619D01*
X123063333Y-117572619D02*
X122968095Y-117620238D01*
X122968095Y-117620238D02*
X122872857Y-117715476D01*
X122872857Y-117715476D02*
X122825238Y-117905952D01*
X122825238Y-117905952D02*
X122825238Y-118239285D01*
X122825238Y-118239285D02*
X122872857Y-118429761D01*
X122872857Y-118429761D02*
X122968095Y-118525000D01*
X122968095Y-118525000D02*
X123063333Y-118572619D01*
X123063333Y-118572619D02*
X123253809Y-118572619D01*
X123253809Y-118572619D02*
X123349047Y-118525000D01*
X123349047Y-118525000D02*
X123444285Y-118429761D01*
X123444285Y-118429761D02*
X123491904Y-118239285D01*
X123491904Y-118239285D02*
X123491904Y-117905952D01*
X123491904Y-117905952D02*
X123444285Y-117715476D01*
X123444285Y-117715476D02*
X123349047Y-117620238D01*
X123349047Y-117620238D02*
X123253809Y-117572619D01*
X122396666Y-118572619D02*
X122396666Y-117572619D01*
X122396666Y-117572619D02*
X122158571Y-117572619D01*
X122158571Y-117572619D02*
X122015714Y-117620238D01*
X122015714Y-117620238D02*
X121920476Y-117715476D01*
X121920476Y-117715476D02*
X121872857Y-117810714D01*
X121872857Y-117810714D02*
X121825238Y-118001190D01*
X121825238Y-118001190D02*
X121825238Y-118144047D01*
X121825238Y-118144047D02*
X121872857Y-118334523D01*
X121872857Y-118334523D02*
X121920476Y-118429761D01*
X121920476Y-118429761D02*
X122015714Y-118525000D01*
X122015714Y-118525000D02*
X122158571Y-118572619D01*
X122158571Y-118572619D02*
X122396666Y-118572619D01*
X121396666Y-118048809D02*
X121063333Y-118048809D01*
X120920476Y-118572619D02*
X121396666Y-118572619D01*
X121396666Y-118572619D02*
X121396666Y-117572619D01*
X121396666Y-117572619D02*
X120920476Y-117572619D01*
D11*
X140015713Y-145402500D02*
X139801428Y-145473928D01*
X139801428Y-145473928D02*
X139444285Y-145473928D01*
X139444285Y-145473928D02*
X139301428Y-145402500D01*
X139301428Y-145402500D02*
X139229999Y-145331071D01*
X139229999Y-145331071D02*
X139158570Y-145188214D01*
X139158570Y-145188214D02*
X139158570Y-145045357D01*
X139158570Y-145045357D02*
X139229999Y-144902500D01*
X139229999Y-144902500D02*
X139301428Y-144831071D01*
X139301428Y-144831071D02*
X139444285Y-144759642D01*
X139444285Y-144759642D02*
X139729999Y-144688214D01*
X139729999Y-144688214D02*
X139872856Y-144616785D01*
X139872856Y-144616785D02*
X139944285Y-144545357D01*
X139944285Y-144545357D02*
X140015713Y-144402500D01*
X140015713Y-144402500D02*
X140015713Y-144259642D01*
X140015713Y-144259642D02*
X139944285Y-144116785D01*
X139944285Y-144116785D02*
X139872856Y-144045357D01*
X139872856Y-144045357D02*
X139729999Y-143973928D01*
X139729999Y-143973928D02*
X139372856Y-143973928D01*
X139372856Y-143973928D02*
X139158570Y-144045357D01*
X138515714Y-145473928D02*
X138515714Y-143973928D01*
X138515714Y-143973928D02*
X138015714Y-145045357D01*
X138015714Y-145045357D02*
X137515714Y-143973928D01*
X137515714Y-143973928D02*
X137515714Y-145473928D01*
X136872856Y-145045357D02*
X136158571Y-145045357D01*
X137015713Y-145473928D02*
X136515713Y-143973928D01*
X136515713Y-143973928D02*
X136015713Y-145473928D01*
X134658571Y-145473928D02*
X135158571Y-144759642D01*
X135515714Y-145473928D02*
X135515714Y-143973928D01*
X135515714Y-143973928D02*
X134944285Y-143973928D01*
X134944285Y-143973928D02*
X134801428Y-144045357D01*
X134801428Y-144045357D02*
X134729999Y-144116785D01*
X134729999Y-144116785D02*
X134658571Y-144259642D01*
X134658571Y-144259642D02*
X134658571Y-144473928D01*
X134658571Y-144473928D02*
X134729999Y-144616785D01*
X134729999Y-144616785D02*
X134801428Y-144688214D01*
X134801428Y-144688214D02*
X134944285Y-144759642D01*
X134944285Y-144759642D02*
X135515714Y-144759642D01*
X134229999Y-143973928D02*
X133372857Y-143973928D01*
X133801428Y-145473928D02*
X133801428Y-143973928D01*
X131730000Y-145473928D02*
X131730000Y-143973928D01*
X131730000Y-143973928D02*
X131158571Y-143973928D01*
X131158571Y-143973928D02*
X131015714Y-144045357D01*
X131015714Y-144045357D02*
X130944285Y-144116785D01*
X130944285Y-144116785D02*
X130872857Y-144259642D01*
X130872857Y-144259642D02*
X130872857Y-144473928D01*
X130872857Y-144473928D02*
X130944285Y-144616785D01*
X130944285Y-144616785D02*
X131015714Y-144688214D01*
X131015714Y-144688214D02*
X131158571Y-144759642D01*
X131158571Y-144759642D02*
X131730000Y-144759642D01*
X130230000Y-144688214D02*
X129730000Y-144688214D01*
X129515714Y-145473928D02*
X130230000Y-145473928D01*
X130230000Y-145473928D02*
X130230000Y-143973928D01*
X130230000Y-143973928D02*
X129515714Y-143973928D01*
X128872857Y-145473928D02*
X128872857Y-143973928D01*
X128872857Y-143973928D02*
X128015714Y-145473928D01*
X128015714Y-145473928D02*
X128015714Y-143973928D01*
X127301428Y-144688214D02*
X126801428Y-144688214D01*
X126587142Y-145473928D02*
X127301428Y-145473928D01*
X127301428Y-145473928D02*
X127301428Y-143973928D01*
X127301428Y-143973928D02*
X126587142Y-143973928D01*
X126158570Y-143973928D02*
X125301428Y-143973928D01*
X125729999Y-145473928D02*
X125729999Y-143973928D01*
X123944285Y-145473928D02*
X124444285Y-144759642D01*
X124801428Y-145473928D02*
X124801428Y-143973928D01*
X124801428Y-143973928D02*
X124229999Y-143973928D01*
X124229999Y-143973928D02*
X124087142Y-144045357D01*
X124087142Y-144045357D02*
X124015713Y-144116785D01*
X124015713Y-144116785D02*
X123944285Y-144259642D01*
X123944285Y-144259642D02*
X123944285Y-144473928D01*
X123944285Y-144473928D02*
X124015713Y-144616785D01*
X124015713Y-144616785D02*
X124087142Y-144688214D01*
X124087142Y-144688214D02*
X124229999Y-144759642D01*
X124229999Y-144759642D02*
X124801428Y-144759642D01*
X123015713Y-143973928D02*
X122729999Y-143973928D01*
X122729999Y-143973928D02*
X122587142Y-144045357D01*
X122587142Y-144045357D02*
X122444285Y-144188214D01*
X122444285Y-144188214D02*
X122372856Y-144473928D01*
X122372856Y-144473928D02*
X122372856Y-144973928D01*
X122372856Y-144973928D02*
X122444285Y-145259642D01*
X122444285Y-145259642D02*
X122587142Y-145402500D01*
X122587142Y-145402500D02*
X122729999Y-145473928D01*
X122729999Y-145473928D02*
X123015713Y-145473928D01*
X123015713Y-145473928D02*
X123158571Y-145402500D01*
X123158571Y-145402500D02*
X123301428Y-145259642D01*
X123301428Y-145259642D02*
X123372856Y-144973928D01*
X123372856Y-144973928D02*
X123372856Y-144473928D01*
X123372856Y-144473928D02*
X123301428Y-144188214D01*
X123301428Y-144188214D02*
X123158571Y-144045357D01*
X123158571Y-144045357D02*
X123015713Y-143973928D01*
X121729999Y-145473928D02*
X121729999Y-143973928D01*
X121729999Y-143973928D02*
X121229999Y-145045357D01*
X121229999Y-145045357D02*
X120729999Y-143973928D01*
X120729999Y-143973928D02*
X120729999Y-145473928D01*
X120015713Y-144688214D02*
X119515713Y-144688214D01*
X119301427Y-145473928D02*
X120015713Y-145473928D01*
X120015713Y-145473928D02*
X120015713Y-143973928D01*
X120015713Y-143973928D02*
X119301427Y-143973928D01*
X118872855Y-143973928D02*
X118015713Y-143973928D01*
X118444284Y-145473928D02*
X118444284Y-143973928D01*
X117515713Y-144688214D02*
X117015713Y-144688214D01*
X116801427Y-145473928D02*
X117515713Y-145473928D01*
X117515713Y-145473928D02*
X117515713Y-143973928D01*
X117515713Y-143973928D02*
X116801427Y-143973928D01*
X115301427Y-145473928D02*
X115801427Y-144759642D01*
X116158570Y-145473928D02*
X116158570Y-143973928D01*
X116158570Y-143973928D02*
X115587141Y-143973928D01*
X115587141Y-143973928D02*
X115444284Y-144045357D01*
X115444284Y-144045357D02*
X115372855Y-144116785D01*
X115372855Y-144116785D02*
X115301427Y-144259642D01*
X115301427Y-144259642D02*
X115301427Y-144473928D01*
X115301427Y-144473928D02*
X115372855Y-144616785D01*
X115372855Y-144616785D02*
X115444284Y-144688214D01*
X115444284Y-144688214D02*
X115587141Y-144759642D01*
X115587141Y-144759642D02*
X116158570Y-144759642D01*
X113729998Y-143973928D02*
X113229998Y-145473928D01*
X113229998Y-145473928D02*
X112729998Y-143973928D01*
X111515713Y-143973928D02*
X112229999Y-143973928D01*
X112229999Y-143973928D02*
X112301427Y-144688214D01*
X112301427Y-144688214D02*
X112229999Y-144616785D01*
X112229999Y-144616785D02*
X112087142Y-144545357D01*
X112087142Y-144545357D02*
X111729999Y-144545357D01*
X111729999Y-144545357D02*
X111587142Y-144616785D01*
X111587142Y-144616785D02*
X111515713Y-144688214D01*
X111515713Y-144688214D02*
X111444284Y-144831071D01*
X111444284Y-144831071D02*
X111444284Y-145188214D01*
X111444284Y-145188214D02*
X111515713Y-145331071D01*
X111515713Y-145331071D02*
X111587142Y-145402500D01*
X111587142Y-145402500D02*
X111729999Y-145473928D01*
X111729999Y-145473928D02*
X112087142Y-145473928D01*
X112087142Y-145473928D02*
X112229999Y-145402500D01*
X112229999Y-145402500D02*
X112301427Y-145331071D01*
D10*
X130492380Y-135018809D02*
X130349523Y-135066428D01*
X130349523Y-135066428D02*
X130301904Y-135114047D01*
X130301904Y-135114047D02*
X130254285Y-135209285D01*
X130254285Y-135209285D02*
X130254285Y-135352142D01*
X130254285Y-135352142D02*
X130301904Y-135447380D01*
X130301904Y-135447380D02*
X130349523Y-135495000D01*
X130349523Y-135495000D02*
X130444761Y-135542619D01*
X130444761Y-135542619D02*
X130825713Y-135542619D01*
X130825713Y-135542619D02*
X130825713Y-134542619D01*
X130825713Y-134542619D02*
X130492380Y-134542619D01*
X130492380Y-134542619D02*
X130397142Y-134590238D01*
X130397142Y-134590238D02*
X130349523Y-134637857D01*
X130349523Y-134637857D02*
X130301904Y-134733095D01*
X130301904Y-134733095D02*
X130301904Y-134828333D01*
X130301904Y-134828333D02*
X130349523Y-134923571D01*
X130349523Y-134923571D02*
X130397142Y-134971190D01*
X130397142Y-134971190D02*
X130492380Y-135018809D01*
X130492380Y-135018809D02*
X130825713Y-135018809D01*
X129825713Y-135542619D02*
X129825713Y-134542619D01*
X129825713Y-134542619D02*
X129492380Y-135256904D01*
X129492380Y-135256904D02*
X129159047Y-134542619D01*
X129159047Y-134542619D02*
X129159047Y-135542619D01*
X128682856Y-135018809D02*
X128349523Y-135018809D01*
X128206666Y-135542619D02*
X128682856Y-135542619D01*
X128682856Y-135542619D02*
X128682856Y-134542619D01*
X128682856Y-134542619D02*
X128206666Y-134542619D01*
X130778094Y-136257857D02*
X130730475Y-136210238D01*
X130730475Y-136210238D02*
X130635237Y-136162619D01*
X130635237Y-136162619D02*
X130397142Y-136162619D01*
X130397142Y-136162619D02*
X130301904Y-136210238D01*
X130301904Y-136210238D02*
X130254285Y-136257857D01*
X130254285Y-136257857D02*
X130206666Y-136353095D01*
X130206666Y-136353095D02*
X130206666Y-136448333D01*
X130206666Y-136448333D02*
X130254285Y-136591190D01*
X130254285Y-136591190D02*
X130825713Y-137162619D01*
X130825713Y-137162619D02*
X130206666Y-137162619D01*
X129635237Y-136591190D02*
X129730475Y-136543571D01*
X129730475Y-136543571D02*
X129778094Y-136495952D01*
X129778094Y-136495952D02*
X129825713Y-136400714D01*
X129825713Y-136400714D02*
X129825713Y-136353095D01*
X129825713Y-136353095D02*
X129778094Y-136257857D01*
X129778094Y-136257857D02*
X129730475Y-136210238D01*
X129730475Y-136210238D02*
X129635237Y-136162619D01*
X129635237Y-136162619D02*
X129444761Y-136162619D01*
X129444761Y-136162619D02*
X129349523Y-136210238D01*
X129349523Y-136210238D02*
X129301904Y-136257857D01*
X129301904Y-136257857D02*
X129254285Y-136353095D01*
X129254285Y-136353095D02*
X129254285Y-136400714D01*
X129254285Y-136400714D02*
X129301904Y-136495952D01*
X129301904Y-136495952D02*
X129349523Y-136543571D01*
X129349523Y-136543571D02*
X129444761Y-136591190D01*
X129444761Y-136591190D02*
X129635237Y-136591190D01*
X129635237Y-136591190D02*
X129730475Y-136638809D01*
X129730475Y-136638809D02*
X129778094Y-136686428D01*
X129778094Y-136686428D02*
X129825713Y-136781666D01*
X129825713Y-136781666D02*
X129825713Y-136972142D01*
X129825713Y-136972142D02*
X129778094Y-137067380D01*
X129778094Y-137067380D02*
X129730475Y-137115000D01*
X129730475Y-137115000D02*
X129635237Y-137162619D01*
X129635237Y-137162619D02*
X129444761Y-137162619D01*
X129444761Y-137162619D02*
X129349523Y-137115000D01*
X129349523Y-137115000D02*
X129301904Y-137067380D01*
X129301904Y-137067380D02*
X129254285Y-136972142D01*
X129254285Y-136972142D02*
X129254285Y-136781666D01*
X129254285Y-136781666D02*
X129301904Y-136686428D01*
X129301904Y-136686428D02*
X129349523Y-136638809D01*
X129349523Y-136638809D02*
X129444761Y-136591190D01*
X128635237Y-136162619D02*
X128539999Y-136162619D01*
X128539999Y-136162619D02*
X128444761Y-136210238D01*
X128444761Y-136210238D02*
X128397142Y-136257857D01*
X128397142Y-136257857D02*
X128349523Y-136353095D01*
X128349523Y-136353095D02*
X128301904Y-136543571D01*
X128301904Y-136543571D02*
X128301904Y-136781666D01*
X128301904Y-136781666D02*
X128349523Y-136972142D01*
X128349523Y-136972142D02*
X128397142Y-137067380D01*
X128397142Y-137067380D02*
X128444761Y-137115000D01*
X128444761Y-137115000D02*
X128539999Y-137162619D01*
X128539999Y-137162619D02*
X128635237Y-137162619D01*
X128635237Y-137162619D02*
X128730475Y-137115000D01*
X128730475Y-137115000D02*
X128778094Y-137067380D01*
X128778094Y-137067380D02*
X128825713Y-136972142D01*
X128825713Y-136972142D02*
X128873332Y-136781666D01*
X128873332Y-136781666D02*
X128873332Y-136543571D01*
X128873332Y-136543571D02*
X128825713Y-136353095D01*
X128825713Y-136353095D02*
X128778094Y-136257857D01*
X128778094Y-136257857D02*
X128730475Y-136210238D01*
X128730475Y-136210238D02*
X128635237Y-136162619D01*
D14*
%TO.C,C1*%
X125691666Y-124137380D02*
X125739285Y-124185000D01*
X125739285Y-124185000D02*
X125882142Y-124232619D01*
X125882142Y-124232619D02*
X125977380Y-124232619D01*
X125977380Y-124232619D02*
X126120237Y-124185000D01*
X126120237Y-124185000D02*
X126215475Y-124089761D01*
X126215475Y-124089761D02*
X126263094Y-123994523D01*
X126263094Y-123994523D02*
X126310713Y-123804047D01*
X126310713Y-123804047D02*
X126310713Y-123661190D01*
X126310713Y-123661190D02*
X126263094Y-123470714D01*
X126263094Y-123470714D02*
X126215475Y-123375476D01*
X126215475Y-123375476D02*
X126120237Y-123280238D01*
X126120237Y-123280238D02*
X125977380Y-123232619D01*
X125977380Y-123232619D02*
X125882142Y-123232619D01*
X125882142Y-123232619D02*
X125739285Y-123280238D01*
X125739285Y-123280238D02*
X125691666Y-123327857D01*
X124739285Y-124232619D02*
X125310713Y-124232619D01*
X125024999Y-124232619D02*
X125024999Y-123232619D01*
X125024999Y-123232619D02*
X125120237Y-123375476D01*
X125120237Y-123375476D02*
X125215475Y-123470714D01*
X125215475Y-123470714D02*
X125310713Y-123518333D01*
%TO.C,C2*%
X114261666Y-109007380D02*
X114309285Y-109055000D01*
X114309285Y-109055000D02*
X114452142Y-109102619D01*
X114452142Y-109102619D02*
X114547380Y-109102619D01*
X114547380Y-109102619D02*
X114690237Y-109055000D01*
X114690237Y-109055000D02*
X114785475Y-108959761D01*
X114785475Y-108959761D02*
X114833094Y-108864523D01*
X114833094Y-108864523D02*
X114880713Y-108674047D01*
X114880713Y-108674047D02*
X114880713Y-108531190D01*
X114880713Y-108531190D02*
X114833094Y-108340714D01*
X114833094Y-108340714D02*
X114785475Y-108245476D01*
X114785475Y-108245476D02*
X114690237Y-108150238D01*
X114690237Y-108150238D02*
X114547380Y-108102619D01*
X114547380Y-108102619D02*
X114452142Y-108102619D01*
X114452142Y-108102619D02*
X114309285Y-108150238D01*
X114309285Y-108150238D02*
X114261666Y-108197857D01*
X113880713Y-108197857D02*
X113833094Y-108150238D01*
X113833094Y-108150238D02*
X113737856Y-108102619D01*
X113737856Y-108102619D02*
X113499761Y-108102619D01*
X113499761Y-108102619D02*
X113404523Y-108150238D01*
X113404523Y-108150238D02*
X113356904Y-108197857D01*
X113356904Y-108197857D02*
X113309285Y-108293095D01*
X113309285Y-108293095D02*
X113309285Y-108388333D01*
X113309285Y-108388333D02*
X113356904Y-108531190D01*
X113356904Y-108531190D02*
X113928332Y-109102619D01*
X113928332Y-109102619D02*
X113309285Y-109102619D01*
%TO.C,C4*%
X112991666Y-106357380D02*
X113039285Y-106405000D01*
X113039285Y-106405000D02*
X113182142Y-106452619D01*
X113182142Y-106452619D02*
X113277380Y-106452619D01*
X113277380Y-106452619D02*
X113420237Y-106405000D01*
X113420237Y-106405000D02*
X113515475Y-106309761D01*
X113515475Y-106309761D02*
X113563094Y-106214523D01*
X113563094Y-106214523D02*
X113610713Y-106024047D01*
X113610713Y-106024047D02*
X113610713Y-105881190D01*
X113610713Y-105881190D02*
X113563094Y-105690714D01*
X113563094Y-105690714D02*
X113515475Y-105595476D01*
X113515475Y-105595476D02*
X113420237Y-105500238D01*
X113420237Y-105500238D02*
X113277380Y-105452619D01*
X113277380Y-105452619D02*
X113182142Y-105452619D01*
X113182142Y-105452619D02*
X113039285Y-105500238D01*
X113039285Y-105500238D02*
X112991666Y-105547857D01*
X112134523Y-105785952D02*
X112134523Y-106452619D01*
X112372618Y-105405000D02*
X112610713Y-106119285D01*
X112610713Y-106119285D02*
X111991666Y-106119285D01*
%TO.C,D1*%
X126468094Y-119842619D02*
X126468094Y-118842619D01*
X126468094Y-118842619D02*
X126229999Y-118842619D01*
X126229999Y-118842619D02*
X126087142Y-118890238D01*
X126087142Y-118890238D02*
X125991904Y-118985476D01*
X125991904Y-118985476D02*
X125944285Y-119080714D01*
X125944285Y-119080714D02*
X125896666Y-119271190D01*
X125896666Y-119271190D02*
X125896666Y-119414047D01*
X125896666Y-119414047D02*
X125944285Y-119604523D01*
X125944285Y-119604523D02*
X125991904Y-119699761D01*
X125991904Y-119699761D02*
X126087142Y-119795000D01*
X126087142Y-119795000D02*
X126229999Y-119842619D01*
X126229999Y-119842619D02*
X126468094Y-119842619D01*
X124944285Y-119842619D02*
X125515713Y-119842619D01*
X125229999Y-119842619D02*
X125229999Y-118842619D01*
X125229999Y-118842619D02*
X125325237Y-118985476D01*
X125325237Y-118985476D02*
X125420475Y-119080714D01*
X125420475Y-119080714D02*
X125515713Y-119128333D01*
%TO.C,U6*%
X126695104Y-109774819D02*
X126695104Y-110584342D01*
X126695104Y-110584342D02*
X126647485Y-110679580D01*
X126647485Y-110679580D02*
X126599866Y-110727200D01*
X126599866Y-110727200D02*
X126504628Y-110774819D01*
X126504628Y-110774819D02*
X126314152Y-110774819D01*
X126314152Y-110774819D02*
X126218914Y-110727200D01*
X126218914Y-110727200D02*
X126171295Y-110679580D01*
X126171295Y-110679580D02*
X126123676Y-110584342D01*
X126123676Y-110584342D02*
X126123676Y-109774819D01*
X125218914Y-109774819D02*
X125409390Y-109774819D01*
X125409390Y-109774819D02*
X125504628Y-109822438D01*
X125504628Y-109822438D02*
X125552247Y-109870057D01*
X125552247Y-109870057D02*
X125647485Y-110012914D01*
X125647485Y-110012914D02*
X125695104Y-110203390D01*
X125695104Y-110203390D02*
X125695104Y-110584342D01*
X125695104Y-110584342D02*
X125647485Y-110679580D01*
X125647485Y-110679580D02*
X125599866Y-110727200D01*
X125599866Y-110727200D02*
X125504628Y-110774819D01*
X125504628Y-110774819D02*
X125314152Y-110774819D01*
X125314152Y-110774819D02*
X125218914Y-110727200D01*
X125218914Y-110727200D02*
X125171295Y-110679580D01*
X125171295Y-110679580D02*
X125123676Y-110584342D01*
X125123676Y-110584342D02*
X125123676Y-110346247D01*
X125123676Y-110346247D02*
X125171295Y-110251009D01*
X125171295Y-110251009D02*
X125218914Y-110203390D01*
X125218914Y-110203390D02*
X125314152Y-110155771D01*
X125314152Y-110155771D02*
X125504628Y-110155771D01*
X125504628Y-110155771D02*
X125599866Y-110203390D01*
X125599866Y-110203390D02*
X125647485Y-110251009D01*
X125647485Y-110251009D02*
X125695104Y-110346247D01*
%TO.C,A1*%
X132794285Y-83996904D02*
X132318095Y-83996904D01*
X132889523Y-84282619D02*
X132556190Y-83282619D01*
X132556190Y-83282619D02*
X132222857Y-84282619D01*
X131365714Y-84282619D02*
X131937142Y-84282619D01*
X131651428Y-84282619D02*
X131651428Y-83282619D01*
X131651428Y-83282619D02*
X131746666Y-83425476D01*
X131746666Y-83425476D02*
X131841904Y-83520714D01*
X131841904Y-83520714D02*
X131937142Y-83568333D01*
X128457173Y-93869933D02*
X128517650Y-93809457D01*
X128517650Y-93809457D02*
X128578126Y-93628028D01*
X128578126Y-93628028D02*
X128578126Y-93507076D01*
X128578126Y-93507076D02*
X128517650Y-93325647D01*
X128517650Y-93325647D02*
X128396697Y-93204695D01*
X128396697Y-93204695D02*
X128275745Y-93144218D01*
X128275745Y-93144218D02*
X128033840Y-93083742D01*
X128033840Y-93083742D02*
X127852411Y-93083742D01*
X127852411Y-93083742D02*
X127610507Y-93144218D01*
X127610507Y-93144218D02*
X127489554Y-93204695D01*
X127489554Y-93204695D02*
X127368602Y-93325647D01*
X127368602Y-93325647D02*
X127308126Y-93507076D01*
X127308126Y-93507076D02*
X127308126Y-93628028D01*
X127308126Y-93628028D02*
X127368602Y-93809457D01*
X127368602Y-93809457D02*
X127429078Y-93869933D01*
X128517650Y-94353742D02*
X128578126Y-94535171D01*
X128578126Y-94535171D02*
X128578126Y-94837552D01*
X128578126Y-94837552D02*
X128517650Y-94958504D01*
X128517650Y-94958504D02*
X128457173Y-95018980D01*
X128457173Y-95018980D02*
X128336221Y-95079457D01*
X128336221Y-95079457D02*
X128215269Y-95079457D01*
X128215269Y-95079457D02*
X128094316Y-95018980D01*
X128094316Y-95018980D02*
X128033840Y-94958504D01*
X128033840Y-94958504D02*
X127973364Y-94837552D01*
X127973364Y-94837552D02*
X127912888Y-94595647D01*
X127912888Y-94595647D02*
X127852411Y-94474695D01*
X127852411Y-94474695D02*
X127791935Y-94414218D01*
X127791935Y-94414218D02*
X127670983Y-94353742D01*
X127670983Y-94353742D02*
X127550030Y-94353742D01*
X127550030Y-94353742D02*
X127429078Y-94414218D01*
X127429078Y-94414218D02*
X127368602Y-94474695D01*
X127368602Y-94474695D02*
X127308126Y-94595647D01*
X127308126Y-94595647D02*
X127308126Y-94898028D01*
X127308126Y-94898028D02*
X127368602Y-95079457D01*
X136502926Y-92085885D02*
X135232926Y-92085885D01*
X135232926Y-92085885D02*
X136140069Y-92509219D01*
X136140069Y-92509219D02*
X135232926Y-92932552D01*
X135232926Y-92932552D02*
X136502926Y-92932552D01*
X136502926Y-93537314D02*
X135232926Y-93537314D01*
X136442450Y-94081600D02*
X136502926Y-94263029D01*
X136502926Y-94263029D02*
X136502926Y-94565410D01*
X136502926Y-94565410D02*
X136442450Y-94686362D01*
X136442450Y-94686362D02*
X136381973Y-94746838D01*
X136381973Y-94746838D02*
X136261021Y-94807315D01*
X136261021Y-94807315D02*
X136140069Y-94807315D01*
X136140069Y-94807315D02*
X136019116Y-94746838D01*
X136019116Y-94746838D02*
X135958640Y-94686362D01*
X135958640Y-94686362D02*
X135898164Y-94565410D01*
X135898164Y-94565410D02*
X135837688Y-94323505D01*
X135837688Y-94323505D02*
X135777211Y-94202553D01*
X135777211Y-94202553D02*
X135716735Y-94142076D01*
X135716735Y-94142076D02*
X135595783Y-94081600D01*
X135595783Y-94081600D02*
X135474830Y-94081600D01*
X135474830Y-94081600D02*
X135353878Y-94142076D01*
X135353878Y-94142076D02*
X135293402Y-94202553D01*
X135293402Y-94202553D02*
X135232926Y-94323505D01*
X135232926Y-94323505D02*
X135232926Y-94625886D01*
X135232926Y-94625886D02*
X135293402Y-94807315D01*
X135232926Y-95593505D02*
X135232926Y-95835410D01*
X135232926Y-95835410D02*
X135293402Y-95956362D01*
X135293402Y-95956362D02*
X135414354Y-96077315D01*
X135414354Y-96077315D02*
X135656259Y-96137791D01*
X135656259Y-96137791D02*
X136079592Y-96137791D01*
X136079592Y-96137791D02*
X136321497Y-96077315D01*
X136321497Y-96077315D02*
X136442450Y-95956362D01*
X136442450Y-95956362D02*
X136502926Y-95835410D01*
X136502926Y-95835410D02*
X136502926Y-95593505D01*
X136502926Y-95593505D02*
X136442450Y-95472553D01*
X136442450Y-95472553D02*
X136321497Y-95351600D01*
X136321497Y-95351600D02*
X136079592Y-95291124D01*
X136079592Y-95291124D02*
X135656259Y-95291124D01*
X135656259Y-95291124D02*
X135414354Y-95351600D01*
X135414354Y-95351600D02*
X135293402Y-95472553D01*
X135293402Y-95472553D02*
X135232926Y-95593505D01*
X133994373Y-93173248D02*
X134054850Y-93112772D01*
X134054850Y-93112772D02*
X134115326Y-92931343D01*
X134115326Y-92931343D02*
X134115326Y-92810391D01*
X134115326Y-92810391D02*
X134054850Y-92628962D01*
X134054850Y-92628962D02*
X133933897Y-92508010D01*
X133933897Y-92508010D02*
X133812945Y-92447533D01*
X133812945Y-92447533D02*
X133571040Y-92387057D01*
X133571040Y-92387057D02*
X133389611Y-92387057D01*
X133389611Y-92387057D02*
X133147707Y-92447533D01*
X133147707Y-92447533D02*
X133026754Y-92508010D01*
X133026754Y-92508010D02*
X132905802Y-92628962D01*
X132905802Y-92628962D02*
X132845326Y-92810391D01*
X132845326Y-92810391D02*
X132845326Y-92931343D01*
X132845326Y-92931343D02*
X132905802Y-93112772D01*
X132905802Y-93112772D02*
X132966278Y-93173248D01*
X134115326Y-94322295D02*
X134115326Y-93717533D01*
X134115326Y-93717533D02*
X132845326Y-93717533D01*
X134115326Y-94745628D02*
X132845326Y-94745628D01*
X134115326Y-95471343D02*
X133389611Y-94927057D01*
X132845326Y-95471343D02*
X133571040Y-94745628D01*
X138270476Y-88092619D02*
X138270476Y-87425952D01*
X138270476Y-87521190D02*
X138222857Y-87473571D01*
X138222857Y-87473571D02*
X138127619Y-87425952D01*
X138127619Y-87425952D02*
X137984762Y-87425952D01*
X137984762Y-87425952D02*
X137889524Y-87473571D01*
X137889524Y-87473571D02*
X137841905Y-87568809D01*
X137841905Y-87568809D02*
X137841905Y-88092619D01*
X137841905Y-87568809D02*
X137794286Y-87473571D01*
X137794286Y-87473571D02*
X137699048Y-87425952D01*
X137699048Y-87425952D02*
X137556191Y-87425952D01*
X137556191Y-87425952D02*
X137460952Y-87473571D01*
X137460952Y-87473571D02*
X137413333Y-87568809D01*
X137413333Y-87568809D02*
X137413333Y-88092619D01*
X136937143Y-88092619D02*
X136937143Y-87425952D01*
X136937143Y-87092619D02*
X136984762Y-87140238D01*
X136984762Y-87140238D02*
X136937143Y-87187857D01*
X136937143Y-87187857D02*
X136889524Y-87140238D01*
X136889524Y-87140238D02*
X136937143Y-87092619D01*
X136937143Y-87092619D02*
X136937143Y-87187857D01*
X136032382Y-88045000D02*
X136127620Y-88092619D01*
X136127620Y-88092619D02*
X136318096Y-88092619D01*
X136318096Y-88092619D02*
X136413334Y-88045000D01*
X136413334Y-88045000D02*
X136460953Y-87997380D01*
X136460953Y-87997380D02*
X136508572Y-87902142D01*
X136508572Y-87902142D02*
X136508572Y-87616428D01*
X136508572Y-87616428D02*
X136460953Y-87521190D01*
X136460953Y-87521190D02*
X136413334Y-87473571D01*
X136413334Y-87473571D02*
X136318096Y-87425952D01*
X136318096Y-87425952D02*
X136127620Y-87425952D01*
X136127620Y-87425952D02*
X136032382Y-87473571D01*
X135603810Y-88092619D02*
X135603810Y-87425952D01*
X135603810Y-87616428D02*
X135556191Y-87521190D01*
X135556191Y-87521190D02*
X135508572Y-87473571D01*
X135508572Y-87473571D02*
X135413334Y-87425952D01*
X135413334Y-87425952D02*
X135318096Y-87425952D01*
X134841905Y-88092619D02*
X134937143Y-88045000D01*
X134937143Y-88045000D02*
X134984762Y-87997380D01*
X134984762Y-87997380D02*
X135032381Y-87902142D01*
X135032381Y-87902142D02*
X135032381Y-87616428D01*
X135032381Y-87616428D02*
X134984762Y-87521190D01*
X134984762Y-87521190D02*
X134937143Y-87473571D01*
X134937143Y-87473571D02*
X134841905Y-87425952D01*
X134841905Y-87425952D02*
X134699048Y-87425952D01*
X134699048Y-87425952D02*
X134603810Y-87473571D01*
X134603810Y-87473571D02*
X134556191Y-87521190D01*
X134556191Y-87521190D02*
X134508572Y-87616428D01*
X134508572Y-87616428D02*
X134508572Y-87902142D01*
X134508572Y-87902142D02*
X134556191Y-87997380D01*
X134556191Y-87997380D02*
X134603810Y-88045000D01*
X134603810Y-88045000D02*
X134699048Y-88092619D01*
X134699048Y-88092619D02*
X134841905Y-88092619D01*
X133365714Y-88045000D02*
X133270476Y-88092619D01*
X133270476Y-88092619D02*
X133080000Y-88092619D01*
X133080000Y-88092619D02*
X132984762Y-88045000D01*
X132984762Y-88045000D02*
X132937143Y-87949761D01*
X132937143Y-87949761D02*
X132937143Y-87902142D01*
X132937143Y-87902142D02*
X132984762Y-87806904D01*
X132984762Y-87806904D02*
X133080000Y-87759285D01*
X133080000Y-87759285D02*
X133222857Y-87759285D01*
X133222857Y-87759285D02*
X133318095Y-87711666D01*
X133318095Y-87711666D02*
X133365714Y-87616428D01*
X133365714Y-87616428D02*
X133365714Y-87568809D01*
X133365714Y-87568809D02*
X133318095Y-87473571D01*
X133318095Y-87473571D02*
X133222857Y-87425952D01*
X133222857Y-87425952D02*
X133080000Y-87425952D01*
X133080000Y-87425952D02*
X132984762Y-87473571D01*
X132080000Y-88092619D02*
X132080000Y-87092619D01*
X132080000Y-88045000D02*
X132175238Y-88092619D01*
X132175238Y-88092619D02*
X132365714Y-88092619D01*
X132365714Y-88092619D02*
X132460952Y-88045000D01*
X132460952Y-88045000D02*
X132508571Y-87997380D01*
X132508571Y-87997380D02*
X132556190Y-87902142D01*
X132556190Y-87902142D02*
X132556190Y-87616428D01*
X132556190Y-87616428D02*
X132508571Y-87521190D01*
X132508571Y-87521190D02*
X132460952Y-87473571D01*
X132460952Y-87473571D02*
X132365714Y-87425952D01*
X132365714Y-87425952D02*
X132175238Y-87425952D01*
X132175238Y-87425952D02*
X132080000Y-87473571D01*
X130841904Y-88092619D02*
X130841904Y-87425952D01*
X130841904Y-87521190D02*
X130794285Y-87473571D01*
X130794285Y-87473571D02*
X130699047Y-87425952D01*
X130699047Y-87425952D02*
X130556190Y-87425952D01*
X130556190Y-87425952D02*
X130460952Y-87473571D01*
X130460952Y-87473571D02*
X130413333Y-87568809D01*
X130413333Y-87568809D02*
X130413333Y-88092619D01*
X130413333Y-87568809D02*
X130365714Y-87473571D01*
X130365714Y-87473571D02*
X130270476Y-87425952D01*
X130270476Y-87425952D02*
X130127619Y-87425952D01*
X130127619Y-87425952D02*
X130032380Y-87473571D01*
X130032380Y-87473571D02*
X129984761Y-87568809D01*
X129984761Y-87568809D02*
X129984761Y-88092619D01*
X129365714Y-88092619D02*
X129460952Y-88045000D01*
X129460952Y-88045000D02*
X129508571Y-87997380D01*
X129508571Y-87997380D02*
X129556190Y-87902142D01*
X129556190Y-87902142D02*
X129556190Y-87616428D01*
X129556190Y-87616428D02*
X129508571Y-87521190D01*
X129508571Y-87521190D02*
X129460952Y-87473571D01*
X129460952Y-87473571D02*
X129365714Y-87425952D01*
X129365714Y-87425952D02*
X129222857Y-87425952D01*
X129222857Y-87425952D02*
X129127619Y-87473571D01*
X129127619Y-87473571D02*
X129080000Y-87521190D01*
X129080000Y-87521190D02*
X129032381Y-87616428D01*
X129032381Y-87616428D02*
X129032381Y-87902142D01*
X129032381Y-87902142D02*
X129080000Y-87997380D01*
X129080000Y-87997380D02*
X129127619Y-88045000D01*
X129127619Y-88045000D02*
X129222857Y-88092619D01*
X129222857Y-88092619D02*
X129365714Y-88092619D01*
X128175238Y-88092619D02*
X128175238Y-87092619D01*
X128175238Y-88045000D02*
X128270476Y-88092619D01*
X128270476Y-88092619D02*
X128460952Y-88092619D01*
X128460952Y-88092619D02*
X128556190Y-88045000D01*
X128556190Y-88045000D02*
X128603809Y-87997380D01*
X128603809Y-87997380D02*
X128651428Y-87902142D01*
X128651428Y-87902142D02*
X128651428Y-87616428D01*
X128651428Y-87616428D02*
X128603809Y-87521190D01*
X128603809Y-87521190D02*
X128556190Y-87473571D01*
X128556190Y-87473571D02*
X128460952Y-87425952D01*
X128460952Y-87425952D02*
X128270476Y-87425952D01*
X128270476Y-87425952D02*
X128175238Y-87473571D01*
X127270476Y-87425952D02*
X127270476Y-88092619D01*
X127699047Y-87425952D02*
X127699047Y-87949761D01*
X127699047Y-87949761D02*
X127651428Y-88045000D01*
X127651428Y-88045000D02*
X127556190Y-88092619D01*
X127556190Y-88092619D02*
X127413333Y-88092619D01*
X127413333Y-88092619D02*
X127318095Y-88045000D01*
X127318095Y-88045000D02*
X127270476Y-87997380D01*
X126651428Y-88092619D02*
X126746666Y-88045000D01*
X126746666Y-88045000D02*
X126794285Y-87949761D01*
X126794285Y-87949761D02*
X126794285Y-87092619D01*
X125889523Y-88045000D02*
X125984761Y-88092619D01*
X125984761Y-88092619D02*
X126175237Y-88092619D01*
X126175237Y-88092619D02*
X126270475Y-88045000D01*
X126270475Y-88045000D02*
X126318094Y-87949761D01*
X126318094Y-87949761D02*
X126318094Y-87568809D01*
X126318094Y-87568809D02*
X126270475Y-87473571D01*
X126270475Y-87473571D02*
X126175237Y-87425952D01*
X126175237Y-87425952D02*
X125984761Y-87425952D01*
X125984761Y-87425952D02*
X125889523Y-87473571D01*
X125889523Y-87473571D02*
X125841904Y-87568809D01*
X125841904Y-87568809D02*
X125841904Y-87664047D01*
X125841904Y-87664047D02*
X126318094Y-87759285D01*
X137731802Y-92986981D02*
X137671326Y-92866028D01*
X137671326Y-92866028D02*
X137671326Y-92684600D01*
X137671326Y-92684600D02*
X137731802Y-92503171D01*
X137731802Y-92503171D02*
X137852754Y-92382219D01*
X137852754Y-92382219D02*
X137973707Y-92321742D01*
X137973707Y-92321742D02*
X138215611Y-92261266D01*
X138215611Y-92261266D02*
X138397040Y-92261266D01*
X138397040Y-92261266D02*
X138638945Y-92321742D01*
X138638945Y-92321742D02*
X138759897Y-92382219D01*
X138759897Y-92382219D02*
X138880850Y-92503171D01*
X138880850Y-92503171D02*
X138941326Y-92684600D01*
X138941326Y-92684600D02*
X138941326Y-92805552D01*
X138941326Y-92805552D02*
X138880850Y-92986981D01*
X138880850Y-92986981D02*
X138820373Y-93047457D01*
X138820373Y-93047457D02*
X138397040Y-93047457D01*
X138397040Y-93047457D02*
X138397040Y-92805552D01*
X138941326Y-93591742D02*
X137671326Y-93591742D01*
X137671326Y-93591742D02*
X138941326Y-94317457D01*
X138941326Y-94317457D02*
X137671326Y-94317457D01*
X138941326Y-94922218D02*
X137671326Y-94922218D01*
X137671326Y-94922218D02*
X137671326Y-95224599D01*
X137671326Y-95224599D02*
X137731802Y-95406028D01*
X137731802Y-95406028D02*
X137852754Y-95526980D01*
X137852754Y-95526980D02*
X137973707Y-95587457D01*
X137973707Y-95587457D02*
X138215611Y-95647933D01*
X138215611Y-95647933D02*
X138397040Y-95647933D01*
X138397040Y-95647933D02*
X138638945Y-95587457D01*
X138638945Y-95587457D02*
X138759897Y-95526980D01*
X138759897Y-95526980D02*
X138880850Y-95406028D01*
X138880850Y-95406028D02*
X138941326Y-95224599D01*
X138941326Y-95224599D02*
X138941326Y-94922218D01*
X125022126Y-92382219D02*
X125022126Y-93168410D01*
X125022126Y-93168410D02*
X125505935Y-92745076D01*
X125505935Y-92745076D02*
X125505935Y-92926505D01*
X125505935Y-92926505D02*
X125566411Y-93047457D01*
X125566411Y-93047457D02*
X125626888Y-93107933D01*
X125626888Y-93107933D02*
X125747840Y-93168410D01*
X125747840Y-93168410D02*
X126050221Y-93168410D01*
X126050221Y-93168410D02*
X126171173Y-93107933D01*
X126171173Y-93107933D02*
X126231650Y-93047457D01*
X126231650Y-93047457D02*
X126292126Y-92926505D01*
X126292126Y-92926505D02*
X126292126Y-92563648D01*
X126292126Y-92563648D02*
X126231650Y-92442695D01*
X126231650Y-92442695D02*
X126171173Y-92382219D01*
X125022126Y-93531267D02*
X126292126Y-93954600D01*
X126292126Y-93954600D02*
X125022126Y-94377934D01*
X125022126Y-94680314D02*
X125022126Y-95466505D01*
X125022126Y-95466505D02*
X125505935Y-95043171D01*
X125505935Y-95043171D02*
X125505935Y-95224600D01*
X125505935Y-95224600D02*
X125566411Y-95345552D01*
X125566411Y-95345552D02*
X125626888Y-95406028D01*
X125626888Y-95406028D02*
X125747840Y-95466505D01*
X125747840Y-95466505D02*
X126050221Y-95466505D01*
X126050221Y-95466505D02*
X126171173Y-95406028D01*
X126171173Y-95406028D02*
X126231650Y-95345552D01*
X126231650Y-95345552D02*
X126292126Y-95224600D01*
X126292126Y-95224600D02*
X126292126Y-94861743D01*
X126292126Y-94861743D02*
X126231650Y-94740790D01*
X126231650Y-94740790D02*
X126171173Y-94680314D01*
X131524526Y-91933485D02*
X130254526Y-91933485D01*
X130254526Y-91933485D02*
X131161669Y-92356819D01*
X131161669Y-92356819D02*
X130254526Y-92780152D01*
X130254526Y-92780152D02*
X131524526Y-92780152D01*
X130254526Y-93626819D02*
X130254526Y-93868724D01*
X130254526Y-93868724D02*
X130315002Y-93989676D01*
X130315002Y-93989676D02*
X130435954Y-94110629D01*
X130435954Y-94110629D02*
X130677859Y-94171105D01*
X130677859Y-94171105D02*
X131101192Y-94171105D01*
X131101192Y-94171105D02*
X131343097Y-94110629D01*
X131343097Y-94110629D02*
X131464050Y-93989676D01*
X131464050Y-93989676D02*
X131524526Y-93868724D01*
X131524526Y-93868724D02*
X131524526Y-93626819D01*
X131524526Y-93626819D02*
X131464050Y-93505867D01*
X131464050Y-93505867D02*
X131343097Y-93384914D01*
X131343097Y-93384914D02*
X131101192Y-93324438D01*
X131101192Y-93324438D02*
X130677859Y-93324438D01*
X130677859Y-93324438D02*
X130435954Y-93384914D01*
X130435954Y-93384914D02*
X130315002Y-93505867D01*
X130315002Y-93505867D02*
X130254526Y-93626819D01*
X131464050Y-94654914D02*
X131524526Y-94836343D01*
X131524526Y-94836343D02*
X131524526Y-95138724D01*
X131524526Y-95138724D02*
X131464050Y-95259676D01*
X131464050Y-95259676D02*
X131403573Y-95320152D01*
X131403573Y-95320152D02*
X131282621Y-95380629D01*
X131282621Y-95380629D02*
X131161669Y-95380629D01*
X131161669Y-95380629D02*
X131040716Y-95320152D01*
X131040716Y-95320152D02*
X130980240Y-95259676D01*
X130980240Y-95259676D02*
X130919764Y-95138724D01*
X130919764Y-95138724D02*
X130859288Y-94896819D01*
X130859288Y-94896819D02*
X130798811Y-94775867D01*
X130798811Y-94775867D02*
X130738335Y-94715390D01*
X130738335Y-94715390D02*
X130617383Y-94654914D01*
X130617383Y-94654914D02*
X130496430Y-94654914D01*
X130496430Y-94654914D02*
X130375478Y-94715390D01*
X130375478Y-94715390D02*
X130315002Y-94775867D01*
X130315002Y-94775867D02*
X130254526Y-94896819D01*
X130254526Y-94896819D02*
X130254526Y-95199200D01*
X130254526Y-95199200D02*
X130315002Y-95380629D01*
X131524526Y-95924914D02*
X130254526Y-95924914D01*
%TO.C,BT1*%
X110428809Y-90654285D02*
X110476428Y-90797142D01*
X110476428Y-90797142D02*
X110524047Y-90844761D01*
X110524047Y-90844761D02*
X110619285Y-90892380D01*
X110619285Y-90892380D02*
X110762142Y-90892380D01*
X110762142Y-90892380D02*
X110857380Y-90844761D01*
X110857380Y-90844761D02*
X110905000Y-90797142D01*
X110905000Y-90797142D02*
X110952619Y-90701904D01*
X110952619Y-90701904D02*
X110952619Y-90320952D01*
X110952619Y-90320952D02*
X109952619Y-90320952D01*
X109952619Y-90320952D02*
X109952619Y-90654285D01*
X109952619Y-90654285D02*
X110000238Y-90749523D01*
X110000238Y-90749523D02*
X110047857Y-90797142D01*
X110047857Y-90797142D02*
X110143095Y-90844761D01*
X110143095Y-90844761D02*
X110238333Y-90844761D01*
X110238333Y-90844761D02*
X110333571Y-90797142D01*
X110333571Y-90797142D02*
X110381190Y-90749523D01*
X110381190Y-90749523D02*
X110428809Y-90654285D01*
X110428809Y-90654285D02*
X110428809Y-90320952D01*
X109952619Y-91178095D02*
X109952619Y-91749523D01*
X110952619Y-91463809D02*
X109952619Y-91463809D01*
X110952619Y-92606666D02*
X110952619Y-92035238D01*
X110952619Y-92320952D02*
X109952619Y-92320952D01*
X109952619Y-92320952D02*
X110095476Y-92225714D01*
X110095476Y-92225714D02*
X110190714Y-92130476D01*
X110190714Y-92130476D02*
X110238333Y-92035238D01*
%TO.C,U4*%
X129031904Y-130272619D02*
X129031904Y-131082142D01*
X129031904Y-131082142D02*
X128984285Y-131177380D01*
X128984285Y-131177380D02*
X128936666Y-131225000D01*
X128936666Y-131225000D02*
X128841428Y-131272619D01*
X128841428Y-131272619D02*
X128650952Y-131272619D01*
X128650952Y-131272619D02*
X128555714Y-131225000D01*
X128555714Y-131225000D02*
X128508095Y-131177380D01*
X128508095Y-131177380D02*
X128460476Y-131082142D01*
X128460476Y-131082142D02*
X128460476Y-130272619D01*
X127555714Y-130605952D02*
X127555714Y-131272619D01*
X127793809Y-130225000D02*
X128031904Y-130939285D01*
X128031904Y-130939285D02*
X127412857Y-130939285D01*
X137080475Y-137575000D02*
X136937618Y-137622619D01*
X136937618Y-137622619D02*
X136699523Y-137622619D01*
X136699523Y-137622619D02*
X136604285Y-137575000D01*
X136604285Y-137575000D02*
X136556666Y-137527380D01*
X136556666Y-137527380D02*
X136509047Y-137432142D01*
X136509047Y-137432142D02*
X136509047Y-137336904D01*
X136509047Y-137336904D02*
X136556666Y-137241666D01*
X136556666Y-137241666D02*
X136604285Y-137194047D01*
X136604285Y-137194047D02*
X136699523Y-137146428D01*
X136699523Y-137146428D02*
X136889999Y-137098809D01*
X136889999Y-137098809D02*
X136985237Y-137051190D01*
X136985237Y-137051190D02*
X137032856Y-137003571D01*
X137032856Y-137003571D02*
X137080475Y-136908333D01*
X137080475Y-136908333D02*
X137080475Y-136813095D01*
X137080475Y-136813095D02*
X137032856Y-136717857D01*
X137032856Y-136717857D02*
X136985237Y-136670238D01*
X136985237Y-136670238D02*
X136889999Y-136622619D01*
X136889999Y-136622619D02*
X136651904Y-136622619D01*
X136651904Y-136622619D02*
X136509047Y-136670238D01*
X135509047Y-137527380D02*
X135556666Y-137575000D01*
X135556666Y-137575000D02*
X135699523Y-137622619D01*
X135699523Y-137622619D02*
X135794761Y-137622619D01*
X135794761Y-137622619D02*
X135937618Y-137575000D01*
X135937618Y-137575000D02*
X136032856Y-137479761D01*
X136032856Y-137479761D02*
X136080475Y-137384523D01*
X136080475Y-137384523D02*
X136128094Y-137194047D01*
X136128094Y-137194047D02*
X136128094Y-137051190D01*
X136128094Y-137051190D02*
X136080475Y-136860714D01*
X136080475Y-136860714D02*
X136032856Y-136765476D01*
X136032856Y-136765476D02*
X135937618Y-136670238D01*
X135937618Y-136670238D02*
X135794761Y-136622619D01*
X135794761Y-136622619D02*
X135699523Y-136622619D01*
X135699523Y-136622619D02*
X135556666Y-136670238D01*
X135556666Y-136670238D02*
X135509047Y-136717857D01*
X134604285Y-137622619D02*
X135080475Y-137622619D01*
X135080475Y-137622619D02*
X135080475Y-136622619D01*
X136985237Y-131542619D02*
X136651904Y-132542619D01*
X136651904Y-132542619D02*
X136318571Y-131542619D01*
X135985237Y-132542619D02*
X135985237Y-131542619D01*
X135509047Y-132542619D02*
X135509047Y-131542619D01*
X135509047Y-131542619D02*
X134937619Y-132542619D01*
X134937619Y-132542619D02*
X134937619Y-131542619D01*
X136651904Y-134130238D02*
X136747142Y-134082619D01*
X136747142Y-134082619D02*
X136889999Y-134082619D01*
X136889999Y-134082619D02*
X137032856Y-134130238D01*
X137032856Y-134130238D02*
X137128094Y-134225476D01*
X137128094Y-134225476D02*
X137175713Y-134320714D01*
X137175713Y-134320714D02*
X137223332Y-134511190D01*
X137223332Y-134511190D02*
X137223332Y-134654047D01*
X137223332Y-134654047D02*
X137175713Y-134844523D01*
X137175713Y-134844523D02*
X137128094Y-134939761D01*
X137128094Y-134939761D02*
X137032856Y-135035000D01*
X137032856Y-135035000D02*
X136889999Y-135082619D01*
X136889999Y-135082619D02*
X136794761Y-135082619D01*
X136794761Y-135082619D02*
X136651904Y-135035000D01*
X136651904Y-135035000D02*
X136604285Y-134987380D01*
X136604285Y-134987380D02*
X136604285Y-134654047D01*
X136604285Y-134654047D02*
X136794761Y-134654047D01*
X136175713Y-135082619D02*
X136175713Y-134082619D01*
X136175713Y-134082619D02*
X135604285Y-135082619D01*
X135604285Y-135082619D02*
X135604285Y-134082619D01*
X135128094Y-135082619D02*
X135128094Y-134082619D01*
X135128094Y-134082619D02*
X134889999Y-134082619D01*
X134889999Y-134082619D02*
X134747142Y-134130238D01*
X134747142Y-134130238D02*
X134651904Y-134225476D01*
X134651904Y-134225476D02*
X134604285Y-134320714D01*
X134604285Y-134320714D02*
X134556666Y-134511190D01*
X134556666Y-134511190D02*
X134556666Y-134654047D01*
X134556666Y-134654047D02*
X134604285Y-134844523D01*
X134604285Y-134844523D02*
X134651904Y-134939761D01*
X134651904Y-134939761D02*
X134747142Y-135035000D01*
X134747142Y-135035000D02*
X134889999Y-135082619D01*
X134889999Y-135082619D02*
X135128094Y-135082619D01*
X137104285Y-140115000D02*
X136961428Y-140162619D01*
X136961428Y-140162619D02*
X136723333Y-140162619D01*
X136723333Y-140162619D02*
X136628095Y-140115000D01*
X136628095Y-140115000D02*
X136580476Y-140067380D01*
X136580476Y-140067380D02*
X136532857Y-139972142D01*
X136532857Y-139972142D02*
X136532857Y-139876904D01*
X136532857Y-139876904D02*
X136580476Y-139781666D01*
X136580476Y-139781666D02*
X136628095Y-139734047D01*
X136628095Y-139734047D02*
X136723333Y-139686428D01*
X136723333Y-139686428D02*
X136913809Y-139638809D01*
X136913809Y-139638809D02*
X137009047Y-139591190D01*
X137009047Y-139591190D02*
X137056666Y-139543571D01*
X137056666Y-139543571D02*
X137104285Y-139448333D01*
X137104285Y-139448333D02*
X137104285Y-139353095D01*
X137104285Y-139353095D02*
X137056666Y-139257857D01*
X137056666Y-139257857D02*
X137009047Y-139210238D01*
X137009047Y-139210238D02*
X136913809Y-139162619D01*
X136913809Y-139162619D02*
X136675714Y-139162619D01*
X136675714Y-139162619D02*
X136532857Y-139210238D01*
X136104285Y-140162619D02*
X136104285Y-139162619D01*
X136104285Y-139162619D02*
X135866190Y-139162619D01*
X135866190Y-139162619D02*
X135723333Y-139210238D01*
X135723333Y-139210238D02*
X135628095Y-139305476D01*
X135628095Y-139305476D02*
X135580476Y-139400714D01*
X135580476Y-139400714D02*
X135532857Y-139591190D01*
X135532857Y-139591190D02*
X135532857Y-139734047D01*
X135532857Y-139734047D02*
X135580476Y-139924523D01*
X135580476Y-139924523D02*
X135628095Y-140019761D01*
X135628095Y-140019761D02*
X135723333Y-140115000D01*
X135723333Y-140115000D02*
X135866190Y-140162619D01*
X135866190Y-140162619D02*
X136104285Y-140162619D01*
X135151904Y-139876904D02*
X134675714Y-139876904D01*
X135247142Y-140162619D02*
X134913809Y-139162619D01*
X134913809Y-139162619D02*
X134580476Y-140162619D01*
%TO.C,U10*%
X116089619Y-118776905D02*
X116899142Y-118776905D01*
X116899142Y-118776905D02*
X116994380Y-118824524D01*
X116994380Y-118824524D02*
X117042000Y-118872143D01*
X117042000Y-118872143D02*
X117089619Y-118967381D01*
X117089619Y-118967381D02*
X117089619Y-119157857D01*
X117089619Y-119157857D02*
X117042000Y-119253095D01*
X117042000Y-119253095D02*
X116994380Y-119300714D01*
X116994380Y-119300714D02*
X116899142Y-119348333D01*
X116899142Y-119348333D02*
X116089619Y-119348333D01*
X117089619Y-120348333D02*
X117089619Y-119776905D01*
X117089619Y-120062619D02*
X116089619Y-120062619D01*
X116089619Y-120062619D02*
X116232476Y-119967381D01*
X116232476Y-119967381D02*
X116327714Y-119872143D01*
X116327714Y-119872143D02*
X116375333Y-119776905D01*
X116089619Y-120967381D02*
X116089619Y-121062619D01*
X116089619Y-121062619D02*
X116137238Y-121157857D01*
X116137238Y-121157857D02*
X116184857Y-121205476D01*
X116184857Y-121205476D02*
X116280095Y-121253095D01*
X116280095Y-121253095D02*
X116470571Y-121300714D01*
X116470571Y-121300714D02*
X116708666Y-121300714D01*
X116708666Y-121300714D02*
X116899142Y-121253095D01*
X116899142Y-121253095D02*
X116994380Y-121205476D01*
X116994380Y-121205476D02*
X117042000Y-121157857D01*
X117042000Y-121157857D02*
X117089619Y-121062619D01*
X117089619Y-121062619D02*
X117089619Y-120967381D01*
X117089619Y-120967381D02*
X117042000Y-120872143D01*
X117042000Y-120872143D02*
X116994380Y-120824524D01*
X116994380Y-120824524D02*
X116899142Y-120776905D01*
X116899142Y-120776905D02*
X116708666Y-120729286D01*
X116708666Y-120729286D02*
X116470571Y-120729286D01*
X116470571Y-120729286D02*
X116280095Y-120776905D01*
X116280095Y-120776905D02*
X116184857Y-120824524D01*
X116184857Y-120824524D02*
X116137238Y-120872143D01*
X116137238Y-120872143D02*
X116089619Y-120967381D01*
%TO.C,C3*%
X137326666Y-83607380D02*
X137374285Y-83655000D01*
X137374285Y-83655000D02*
X137517142Y-83702619D01*
X137517142Y-83702619D02*
X137612380Y-83702619D01*
X137612380Y-83702619D02*
X137755237Y-83655000D01*
X137755237Y-83655000D02*
X137850475Y-83559761D01*
X137850475Y-83559761D02*
X137898094Y-83464523D01*
X137898094Y-83464523D02*
X137945713Y-83274047D01*
X137945713Y-83274047D02*
X137945713Y-83131190D01*
X137945713Y-83131190D02*
X137898094Y-82940714D01*
X137898094Y-82940714D02*
X137850475Y-82845476D01*
X137850475Y-82845476D02*
X137755237Y-82750238D01*
X137755237Y-82750238D02*
X137612380Y-82702619D01*
X137612380Y-82702619D02*
X137517142Y-82702619D01*
X137517142Y-82702619D02*
X137374285Y-82750238D01*
X137374285Y-82750238D02*
X137326666Y-82797857D01*
X136993332Y-82702619D02*
X136374285Y-82702619D01*
X136374285Y-82702619D02*
X136707618Y-83083571D01*
X136707618Y-83083571D02*
X136564761Y-83083571D01*
X136564761Y-83083571D02*
X136469523Y-83131190D01*
X136469523Y-83131190D02*
X136421904Y-83178809D01*
X136421904Y-83178809D02*
X136374285Y-83274047D01*
X136374285Y-83274047D02*
X136374285Y-83512142D01*
X136374285Y-83512142D02*
X136421904Y-83607380D01*
X136421904Y-83607380D02*
X136469523Y-83655000D01*
X136469523Y-83655000D02*
X136564761Y-83702619D01*
X136564761Y-83702619D02*
X136850475Y-83702619D01*
X136850475Y-83702619D02*
X136945713Y-83655000D01*
X136945713Y-83655000D02*
X136993332Y-83607380D01*
%TO.C,C5*%
X127166666Y-92387380D02*
X127214285Y-92435000D01*
X127214285Y-92435000D02*
X127357142Y-92482619D01*
X127357142Y-92482619D02*
X127452380Y-92482619D01*
X127452380Y-92482619D02*
X127595237Y-92435000D01*
X127595237Y-92435000D02*
X127690475Y-92339761D01*
X127690475Y-92339761D02*
X127738094Y-92244523D01*
X127738094Y-92244523D02*
X127785713Y-92054047D01*
X127785713Y-92054047D02*
X127785713Y-91911190D01*
X127785713Y-91911190D02*
X127738094Y-91720714D01*
X127738094Y-91720714D02*
X127690475Y-91625476D01*
X127690475Y-91625476D02*
X127595237Y-91530238D01*
X127595237Y-91530238D02*
X127452380Y-91482619D01*
X127452380Y-91482619D02*
X127357142Y-91482619D01*
X127357142Y-91482619D02*
X127214285Y-91530238D01*
X127214285Y-91530238D02*
X127166666Y-91577857D01*
X126261904Y-91482619D02*
X126738094Y-91482619D01*
X126738094Y-91482619D02*
X126785713Y-91958809D01*
X126785713Y-91958809D02*
X126738094Y-91911190D01*
X126738094Y-91911190D02*
X126642856Y-91863571D01*
X126642856Y-91863571D02*
X126404761Y-91863571D01*
X126404761Y-91863571D02*
X126309523Y-91911190D01*
X126309523Y-91911190D02*
X126261904Y-91958809D01*
X126261904Y-91958809D02*
X126214285Y-92054047D01*
X126214285Y-92054047D02*
X126214285Y-92292142D01*
X126214285Y-92292142D02*
X126261904Y-92387380D01*
X126261904Y-92387380D02*
X126309523Y-92435000D01*
X126309523Y-92435000D02*
X126404761Y-92482619D01*
X126404761Y-92482619D02*
X126642856Y-92482619D01*
X126642856Y-92482619D02*
X126738094Y-92435000D01*
X126738094Y-92435000D02*
X126785713Y-92387380D01*
%TO.C,C8*%
X127166666Y-88577380D02*
X127214285Y-88625000D01*
X127214285Y-88625000D02*
X127357142Y-88672619D01*
X127357142Y-88672619D02*
X127452380Y-88672619D01*
X127452380Y-88672619D02*
X127595237Y-88625000D01*
X127595237Y-88625000D02*
X127690475Y-88529761D01*
X127690475Y-88529761D02*
X127738094Y-88434523D01*
X127738094Y-88434523D02*
X127785713Y-88244047D01*
X127785713Y-88244047D02*
X127785713Y-88101190D01*
X127785713Y-88101190D02*
X127738094Y-87910714D01*
X127738094Y-87910714D02*
X127690475Y-87815476D01*
X127690475Y-87815476D02*
X127595237Y-87720238D01*
X127595237Y-87720238D02*
X127452380Y-87672619D01*
X127452380Y-87672619D02*
X127357142Y-87672619D01*
X127357142Y-87672619D02*
X127214285Y-87720238D01*
X127214285Y-87720238D02*
X127166666Y-87767857D01*
X126595237Y-88101190D02*
X126690475Y-88053571D01*
X126690475Y-88053571D02*
X126738094Y-88005952D01*
X126738094Y-88005952D02*
X126785713Y-87910714D01*
X126785713Y-87910714D02*
X126785713Y-87863095D01*
X126785713Y-87863095D02*
X126738094Y-87767857D01*
X126738094Y-87767857D02*
X126690475Y-87720238D01*
X126690475Y-87720238D02*
X126595237Y-87672619D01*
X126595237Y-87672619D02*
X126404761Y-87672619D01*
X126404761Y-87672619D02*
X126309523Y-87720238D01*
X126309523Y-87720238D02*
X126261904Y-87767857D01*
X126261904Y-87767857D02*
X126214285Y-87863095D01*
X126214285Y-87863095D02*
X126214285Y-87910714D01*
X126214285Y-87910714D02*
X126261904Y-88005952D01*
X126261904Y-88005952D02*
X126309523Y-88053571D01*
X126309523Y-88053571D02*
X126404761Y-88101190D01*
X126404761Y-88101190D02*
X126595237Y-88101190D01*
X126595237Y-88101190D02*
X126690475Y-88148809D01*
X126690475Y-88148809D02*
X126738094Y-88196428D01*
X126738094Y-88196428D02*
X126785713Y-88291666D01*
X126785713Y-88291666D02*
X126785713Y-88482142D01*
X126785713Y-88482142D02*
X126738094Y-88577380D01*
X126738094Y-88577380D02*
X126690475Y-88625000D01*
X126690475Y-88625000D02*
X126595237Y-88672619D01*
X126595237Y-88672619D02*
X126404761Y-88672619D01*
X126404761Y-88672619D02*
X126309523Y-88625000D01*
X126309523Y-88625000D02*
X126261904Y-88577380D01*
X126261904Y-88577380D02*
X126214285Y-88482142D01*
X126214285Y-88482142D02*
X126214285Y-88291666D01*
X126214285Y-88291666D02*
X126261904Y-88196428D01*
X126261904Y-88196428D02*
X126309523Y-88148809D01*
X126309523Y-88148809D02*
X126404761Y-88101190D01*
%TO.C,C9*%
X157441666Y-44127380D02*
X157489285Y-44175000D01*
X157489285Y-44175000D02*
X157632142Y-44222619D01*
X157632142Y-44222619D02*
X157727380Y-44222619D01*
X157727380Y-44222619D02*
X157870237Y-44175000D01*
X157870237Y-44175000D02*
X157965475Y-44079761D01*
X157965475Y-44079761D02*
X158013094Y-43984523D01*
X158013094Y-43984523D02*
X158060713Y-43794047D01*
X158060713Y-43794047D02*
X158060713Y-43651190D01*
X158060713Y-43651190D02*
X158013094Y-43460714D01*
X158013094Y-43460714D02*
X157965475Y-43365476D01*
X157965475Y-43365476D02*
X157870237Y-43270238D01*
X157870237Y-43270238D02*
X157727380Y-43222619D01*
X157727380Y-43222619D02*
X157632142Y-43222619D01*
X157632142Y-43222619D02*
X157489285Y-43270238D01*
X157489285Y-43270238D02*
X157441666Y-43317857D01*
X156965475Y-44222619D02*
X156774999Y-44222619D01*
X156774999Y-44222619D02*
X156679761Y-44175000D01*
X156679761Y-44175000D02*
X156632142Y-44127380D01*
X156632142Y-44127380D02*
X156536904Y-43984523D01*
X156536904Y-43984523D02*
X156489285Y-43794047D01*
X156489285Y-43794047D02*
X156489285Y-43413095D01*
X156489285Y-43413095D02*
X156536904Y-43317857D01*
X156536904Y-43317857D02*
X156584523Y-43270238D01*
X156584523Y-43270238D02*
X156679761Y-43222619D01*
X156679761Y-43222619D02*
X156870237Y-43222619D01*
X156870237Y-43222619D02*
X156965475Y-43270238D01*
X156965475Y-43270238D02*
X157013094Y-43317857D01*
X157013094Y-43317857D02*
X157060713Y-43413095D01*
X157060713Y-43413095D02*
X157060713Y-43651190D01*
X157060713Y-43651190D02*
X157013094Y-43746428D01*
X157013094Y-43746428D02*
X156965475Y-43794047D01*
X156965475Y-43794047D02*
X156870237Y-43841666D01*
X156870237Y-43841666D02*
X156679761Y-43841666D01*
X156679761Y-43841666D02*
X156584523Y-43794047D01*
X156584523Y-43794047D02*
X156536904Y-43746428D01*
X156536904Y-43746428D02*
X156489285Y-43651190D01*
%TO.C,C11*%
X131757380Y-132707142D02*
X131805000Y-132659523D01*
X131805000Y-132659523D02*
X131852619Y-132516666D01*
X131852619Y-132516666D02*
X131852619Y-132421428D01*
X131852619Y-132421428D02*
X131805000Y-132278571D01*
X131805000Y-132278571D02*
X131709761Y-132183333D01*
X131709761Y-132183333D02*
X131614523Y-132135714D01*
X131614523Y-132135714D02*
X131424047Y-132088095D01*
X131424047Y-132088095D02*
X131281190Y-132088095D01*
X131281190Y-132088095D02*
X131090714Y-132135714D01*
X131090714Y-132135714D02*
X130995476Y-132183333D01*
X130995476Y-132183333D02*
X130900238Y-132278571D01*
X130900238Y-132278571D02*
X130852619Y-132421428D01*
X130852619Y-132421428D02*
X130852619Y-132516666D01*
X130852619Y-132516666D02*
X130900238Y-132659523D01*
X130900238Y-132659523D02*
X130947857Y-132707142D01*
X131852619Y-133659523D02*
X131852619Y-133088095D01*
X131852619Y-133373809D02*
X130852619Y-133373809D01*
X130852619Y-133373809D02*
X130995476Y-133278571D01*
X130995476Y-133278571D02*
X131090714Y-133183333D01*
X131090714Y-133183333D02*
X131138333Y-133088095D01*
X131852619Y-134611904D02*
X131852619Y-134040476D01*
X131852619Y-134326190D02*
X130852619Y-134326190D01*
X130852619Y-134326190D02*
X130995476Y-134230952D01*
X130995476Y-134230952D02*
X131090714Y-134135714D01*
X131090714Y-134135714D02*
X131138333Y-134040476D01*
%TO.C,R1*%
X138596666Y-115312619D02*
X138929999Y-114836428D01*
X139168094Y-115312619D02*
X139168094Y-114312619D01*
X139168094Y-114312619D02*
X138787142Y-114312619D01*
X138787142Y-114312619D02*
X138691904Y-114360238D01*
X138691904Y-114360238D02*
X138644285Y-114407857D01*
X138644285Y-114407857D02*
X138596666Y-114503095D01*
X138596666Y-114503095D02*
X138596666Y-114645952D01*
X138596666Y-114645952D02*
X138644285Y-114741190D01*
X138644285Y-114741190D02*
X138691904Y-114788809D01*
X138691904Y-114788809D02*
X138787142Y-114836428D01*
X138787142Y-114836428D02*
X139168094Y-114836428D01*
X137644285Y-115312619D02*
X138215713Y-115312619D01*
X137929999Y-115312619D02*
X137929999Y-114312619D01*
X137929999Y-114312619D02*
X138025237Y-114455476D01*
X138025237Y-114455476D02*
X138120475Y-114550714D01*
X138120475Y-114550714D02*
X138215713Y-114598333D01*
%TO.C,R7*%
X133516666Y-147062619D02*
X133849999Y-146586428D01*
X134088094Y-147062619D02*
X134088094Y-146062619D01*
X134088094Y-146062619D02*
X133707142Y-146062619D01*
X133707142Y-146062619D02*
X133611904Y-146110238D01*
X133611904Y-146110238D02*
X133564285Y-146157857D01*
X133564285Y-146157857D02*
X133516666Y-146253095D01*
X133516666Y-146253095D02*
X133516666Y-146395952D01*
X133516666Y-146395952D02*
X133564285Y-146491190D01*
X133564285Y-146491190D02*
X133611904Y-146538809D01*
X133611904Y-146538809D02*
X133707142Y-146586428D01*
X133707142Y-146586428D02*
X134088094Y-146586428D01*
X133183332Y-146062619D02*
X132516666Y-146062619D01*
X132516666Y-146062619D02*
X132945237Y-147062619D01*
%TO.C,R8*%
X115312619Y-143343333D02*
X114836428Y-143010000D01*
X115312619Y-142771905D02*
X114312619Y-142771905D01*
X114312619Y-142771905D02*
X114312619Y-143152857D01*
X114312619Y-143152857D02*
X114360238Y-143248095D01*
X114360238Y-143248095D02*
X114407857Y-143295714D01*
X114407857Y-143295714D02*
X114503095Y-143343333D01*
X114503095Y-143343333D02*
X114645952Y-143343333D01*
X114645952Y-143343333D02*
X114741190Y-143295714D01*
X114741190Y-143295714D02*
X114788809Y-143248095D01*
X114788809Y-143248095D02*
X114836428Y-143152857D01*
X114836428Y-143152857D02*
X114836428Y-142771905D01*
X114741190Y-143914762D02*
X114693571Y-143819524D01*
X114693571Y-143819524D02*
X114645952Y-143771905D01*
X114645952Y-143771905D02*
X114550714Y-143724286D01*
X114550714Y-143724286D02*
X114503095Y-143724286D01*
X114503095Y-143724286D02*
X114407857Y-143771905D01*
X114407857Y-143771905D02*
X114360238Y-143819524D01*
X114360238Y-143819524D02*
X114312619Y-143914762D01*
X114312619Y-143914762D02*
X114312619Y-144105238D01*
X114312619Y-144105238D02*
X114360238Y-144200476D01*
X114360238Y-144200476D02*
X114407857Y-144248095D01*
X114407857Y-144248095D02*
X114503095Y-144295714D01*
X114503095Y-144295714D02*
X114550714Y-144295714D01*
X114550714Y-144295714D02*
X114645952Y-144248095D01*
X114645952Y-144248095D02*
X114693571Y-144200476D01*
X114693571Y-144200476D02*
X114741190Y-144105238D01*
X114741190Y-144105238D02*
X114741190Y-143914762D01*
X114741190Y-143914762D02*
X114788809Y-143819524D01*
X114788809Y-143819524D02*
X114836428Y-143771905D01*
X114836428Y-143771905D02*
X114931666Y-143724286D01*
X114931666Y-143724286D02*
X115122142Y-143724286D01*
X115122142Y-143724286D02*
X115217380Y-143771905D01*
X115217380Y-143771905D02*
X115265000Y-143819524D01*
X115265000Y-143819524D02*
X115312619Y-143914762D01*
X115312619Y-143914762D02*
X115312619Y-144105238D01*
X115312619Y-144105238D02*
X115265000Y-144200476D01*
X115265000Y-144200476D02*
X115217380Y-144248095D01*
X115217380Y-144248095D02*
X115122142Y-144295714D01*
X115122142Y-144295714D02*
X114931666Y-144295714D01*
X114931666Y-144295714D02*
X114836428Y-144248095D01*
X114836428Y-144248095D02*
X114788809Y-144200476D01*
X114788809Y-144200476D02*
X114741190Y-144105238D01*
%TO.C,U1*%
X139922619Y-90678095D02*
X140732142Y-90678095D01*
X140732142Y-90678095D02*
X140827380Y-90725714D01*
X140827380Y-90725714D02*
X140875000Y-90773333D01*
X140875000Y-90773333D02*
X140922619Y-90868571D01*
X140922619Y-90868571D02*
X140922619Y-91059047D01*
X140922619Y-91059047D02*
X140875000Y-91154285D01*
X140875000Y-91154285D02*
X140827380Y-91201904D01*
X140827380Y-91201904D02*
X140732142Y-91249523D01*
X140732142Y-91249523D02*
X139922619Y-91249523D01*
X140922619Y-92249523D02*
X140922619Y-91678095D01*
X140922619Y-91963809D02*
X139922619Y-91963809D01*
X139922619Y-91963809D02*
X140065476Y-91868571D01*
X140065476Y-91868571D02*
X140160714Y-91773333D01*
X140160714Y-91773333D02*
X140208333Y-91678095D01*
D15*
%TO.C,C1*%
X124813748Y-121010000D02*
X126236252Y-121010000D01*
X124813748Y-122830000D02*
X126236252Y-122830000D01*
%TO.C,C2*%
X114806252Y-111400000D02*
X113383748Y-111400000D01*
X114806252Y-109580000D02*
X113383748Y-109580000D01*
%TO.C,C4*%
X112113748Y-103230000D02*
X113536252Y-103230000D01*
X112113748Y-105050000D02*
X113536252Y-105050000D01*
%TO.C,D1*%
X120930000Y-111050000D02*
X120930000Y-117550000D01*
X120930000Y-111050000D02*
X129330000Y-111050000D01*
X120930000Y-117550000D02*
X129330000Y-117550000D01*
%TO.C,U6*%
X122326400Y-103581200D02*
X122326400Y-107238800D01*
X122326400Y-103581200D02*
X122936000Y-103581200D01*
X122326400Y-107238800D02*
X124079000Y-107238800D01*
X129108200Y-103581200D02*
X128524000Y-103581200D01*
X129108200Y-103581200D02*
X129108200Y-107213400D01*
X129108200Y-107238800D02*
X127381000Y-107238800D01*
%TO.C,A1*%
X140970000Y-76200000D02*
X123190000Y-76200000D01*
X123190000Y-76200000D02*
X123190000Y-100330000D01*
X140970000Y-100330000D02*
X140970000Y-76200000D01*
X123190000Y-100330000D02*
X140970000Y-100330000D01*
%TO.C,BT1*%
X117475000Y-81280000D02*
X117475000Y-81915000D01*
X113665000Y-81280000D02*
X117475000Y-81280000D01*
X117475000Y-81915000D02*
X117475000Y-85725000D01*
X113665000Y-81915000D02*
X113665000Y-81280000D01*
X115570000Y-85725000D02*
X118110000Y-85725000D01*
X115570000Y-85725000D02*
X109855000Y-85725000D01*
X113665000Y-85725000D02*
X113665000Y-81915000D01*
X109855000Y-85725000D02*
X109855000Y-86995000D01*
X121285000Y-88900000D02*
X118110000Y-85725000D01*
X121285000Y-88900000D02*
X121285000Y-93980000D01*
X121285000Y-91440000D02*
X121285000Y-88900000D01*
X121285000Y-93980000D02*
X118110000Y-97155000D01*
X113665000Y-97155000D02*
X113665000Y-100965000D01*
X109855000Y-97155000D02*
X109855000Y-95885000D01*
X109855000Y-97155000D02*
X118110000Y-97155000D01*
X117475000Y-100965000D02*
X117475000Y-97155000D01*
X113665000Y-100965000D02*
X113665000Y-101600000D01*
X117475000Y-101600000D02*
X117475000Y-100965000D01*
X113665000Y-101600000D02*
X117475000Y-101600000D01*
X109854998Y-95884998D02*
G75*
G03*
X109854998Y-86995002I-4444998J4444998D01*
G01*
%TO.C,U4*%
X125730000Y-129540000D02*
X125730000Y-142240000D01*
X125730000Y-142240000D02*
X140970000Y-142240000D01*
X140970000Y-129540000D02*
X125730000Y-129540000D01*
X140970000Y-135890000D02*
X140970000Y-129540000D01*
X140970000Y-142240000D02*
X140970000Y-135890000D01*
D16*
%TO.C,U10*%
X112785000Y-121630000D02*
X112785000Y-117130000D01*
X115815000Y-121630000D02*
X115815000Y-117130000D01*
D17*
X115775000Y-123820000D02*
G75*
G03*
X115775000Y-123820000I-100000J0D01*
G01*
D15*
%TO.C,C3*%
X137871252Y-86000000D02*
X136448748Y-86000000D01*
X137871252Y-84180000D02*
X136448748Y-84180000D01*
%TO.C,C5*%
X126288748Y-89260000D02*
X127711252Y-89260000D01*
X126288748Y-91080000D02*
X127711252Y-91080000D01*
%TO.C,C8*%
X126288748Y-85450000D02*
X127711252Y-85450000D01*
X126288748Y-87270000D02*
X127711252Y-87270000D01*
%TO.C,C9*%
X156563748Y-41000000D02*
X157986252Y-41000000D01*
X156563748Y-42820000D02*
X157986252Y-42820000D01*
%TO.C,C11*%
X128630000Y-134061252D02*
X128630000Y-132638748D01*
X130450000Y-134061252D02*
X130450000Y-132638748D01*
%TO.C,R1*%
X137702936Y-112120000D02*
X139157064Y-112120000D01*
X137702936Y-113940000D02*
X139157064Y-113940000D01*
%TO.C,R7*%
X132622936Y-143870000D02*
X134077064Y-143870000D01*
X132622936Y-145690000D02*
X134077064Y-145690000D01*
%TO.C,R8*%
X112120000Y-144237064D02*
X112120000Y-142782936D01*
X113940000Y-144237064D02*
X113940000Y-142782936D01*
D14*
%TO.C,U1*%
X134585000Y-93515000D02*
X134785000Y-93515000D01*
X134585000Y-93515000D02*
X134585000Y-89365000D01*
X139535000Y-93515000D02*
X139535000Y-94815000D01*
X139735000Y-93515000D02*
X139535000Y-93515000D01*
X139735000Y-93515000D02*
X139735000Y-89365000D01*
X134585000Y-89365000D02*
X134785000Y-89365000D01*
X139735000Y-89365000D02*
X139535000Y-89365000D01*
%TD*%
M02*
