%TF.GenerationSoftware,KiCad,Pcbnew,(6.0.4)*%
%TF.CreationDate,2022-04-23T15:23:27-04:00*%
%TF.ProjectId,smart penetrometer,736d6172-7420-4706-956e-6574726f6d65,rev?*%
%TF.SameCoordinates,Original*%
%TF.FileFunction,Soldermask,Bot*%
%TF.FilePolarity,Negative*%
%FSLAX46Y46*%
G04 Gerber Fmt 4.6, Leading zero omitted, Abs format (unit mm)*
G04 Created by KiCad (PCBNEW (6.0.4)) date 2022-04-23 15:23:27*
%MOMM*%
%LPD*%
G01*
G04 APERTURE LIST*
G04 Aperture macros list*
%AMRoundRect*
0 Rectangle with rounded corners*
0 $1 Rounding radius*
0 $2 $3 $4 $5 $6 $7 $8 $9 X,Y pos of 4 corners*
0 Add a 4 corners polygon primitive as box body*
4,1,4,$2,$3,$4,$5,$6,$7,$8,$9,$2,$3,0*
0 Add four circle primitives for the rounded corners*
1,1,$1+$1,$2,$3*
1,1,$1+$1,$4,$5*
1,1,$1+$1,$6,$7*
1,1,$1+$1,$8,$9*
0 Add four rect primitives between the rounded corners*
20,1,$1+$1,$2,$3,$4,$5,0*
20,1,$1+$1,$4,$5,$6,$7,0*
20,1,$1+$1,$6,$7,$8,$9,0*
20,1,$1+$1,$8,$9,$2,$3,0*%
G04 Aperture macros list end*
%ADD10O,1.700000X1.700000*%
%ADD11R,1.700000X1.700000*%
%ADD12R,2.000000X2.000000*%
%ADD13C,2.000000*%
%ADD14C,1.800000*%
%ADD15O,1.424000X2.524000*%
%ADD16C,1.324000*%
%ADD17C,8.000000*%
%ADD18R,3.500000X3.500000*%
%ADD19R,3.025000X1.780000*%
%ADD20R,0.710000X1.000000*%
%ADD21R,2.500000X3.300000*%
%ADD22RoundRect,0.250000X-0.325000X-0.650000X0.325000X-0.650000X0.325000X0.650000X-0.325000X0.650000X0*%
%ADD23RoundRect,0.250000X0.325000X0.650000X-0.325000X0.650000X-0.325000X-0.650000X0.325000X-0.650000X0*%
%ADD24O,1.600000X1.600000*%
%ADD25R,1.600000X1.600000*%
G04 APERTURE END LIST*
D10*
%TO.C,J2*%
X138430000Y-148590000D03*
X135890000Y-148590000D03*
X133350000Y-148590000D03*
X130810000Y-148590000D03*
X128270000Y-148590000D03*
X125730000Y-148590000D03*
X123190000Y-148590000D03*
X120650000Y-148590000D03*
X118110000Y-148590000D03*
X115570000Y-148590000D03*
D11*
X113030000Y-148590000D03*
%TD*%
D12*
%TO.C,U7*%
X111760000Y-81280000D03*
D13*
X119380000Y-81280000D03*
%TD*%
D14*
%TO.C,U4*%
X138430000Y-132080000D03*
X138430000Y-134620000D03*
X138430000Y-137160000D03*
X138430000Y-139700000D03*
%TD*%
D12*
%TO.C,U3*%
X132080000Y-81280000D03*
D13*
X139700000Y-81280000D03*
%TD*%
D15*
%TO.C,J1*%
X121539000Y-78740000D03*
X129921000Y-78740000D03*
D16*
X123698000Y-78740000D03*
X125730000Y-78740000D03*
X127762000Y-78740000D03*
%TD*%
D17*
%TO.C,BT1*%
X116840000Y-86360000D03*
D18*
X116840000Y-78105000D03*
X116840000Y-94615000D03*
%TD*%
D14*
%TO.C,A1*%
X138430000Y-97790000D03*
X135890000Y-97790000D03*
X133350000Y-97790000D03*
X130810000Y-97790000D03*
X128270000Y-97790000D03*
X125730000Y-97790000D03*
%TD*%
D19*
%TO.C,U6*%
X125730000Y-108015000D03*
D20*
X128030000Y-102415000D03*
X125730000Y-102415000D03*
X123430000Y-102415000D03*
%TD*%
D21*
%TO.C,D1*%
X129130000Y-114300000D03*
X122330000Y-114300000D03*
%TD*%
D22*
%TO.C,C4*%
X114300000Y-104140000D03*
X111350000Y-104140000D03*
%TD*%
D23*
%TO.C,C2*%
X111760000Y-119380000D03*
X114710000Y-119380000D03*
%TD*%
D22*
%TO.C,C1*%
X127000000Y-121920000D03*
X124050000Y-121920000D03*
%TD*%
D24*
%TO.C,A2*%
X133350000Y-139700000D03*
X118110000Y-139700000D03*
X133350000Y-104140000D03*
X118110000Y-137160000D03*
X133350000Y-106680000D03*
X118110000Y-134620000D03*
X133350000Y-109220000D03*
X118110000Y-132080000D03*
X133350000Y-111760000D03*
X118110000Y-129540000D03*
X133350000Y-114300000D03*
X118110000Y-127000000D03*
X133350000Y-116840000D03*
X118110000Y-124460000D03*
X133350000Y-119380000D03*
X118110000Y-121920000D03*
X133350000Y-121920000D03*
X118110000Y-119380000D03*
X133350000Y-124460000D03*
X118110000Y-116840000D03*
X133350000Y-127000000D03*
X118110000Y-114300000D03*
X133350000Y-129540000D03*
X118110000Y-111760000D03*
X133350000Y-132080000D03*
X118110000Y-109220000D03*
X133350000Y-134620000D03*
X118110000Y-106680000D03*
X133350000Y-137160000D03*
D25*
X118110000Y-104140000D03*
%TD*%
M02*
