%TF.GenerationSoftware,KiCad,Pcbnew,(6.0.4)*%
%TF.CreationDate,2022-04-23T15:23:27-04:00*%
%TF.ProjectId,smart penetrometer,736d6172-7420-4706-956e-6574726f6d65,rev?*%
%TF.SameCoordinates,Original*%
%TF.FileFunction,Legend,Top*%
%TF.FilePolarity,Positive*%
%FSLAX46Y46*%
G04 Gerber Fmt 4.6, Leading zero omitted, Abs format (unit mm)*
G04 Created by KiCad (PCBNEW (6.0.4)) date 2022-04-23 15:23:27*
%MOMM*%
%LPD*%
G01*
G04 APERTURE LIST*
%ADD10C,0.250000*%
%ADD11C,0.187500*%
%ADD12C,0.125000*%
%ADD13C,0.300000*%
%ADD14C,0.150000*%
%ADD15C,0.120000*%
%ADD16C,0.010000*%
G04 APERTURE END LIST*
D10*
X122682380Y-104771666D02*
X123158571Y-104771666D01*
X122587142Y-105057380D02*
X122920476Y-104057380D01*
X123253809Y-105057380D01*
X124158571Y-105057380D02*
X123825238Y-104581190D01*
X123587142Y-105057380D02*
X123587142Y-104057380D01*
X123968095Y-104057380D01*
X124063333Y-104105000D01*
X124110952Y-104152619D01*
X124158571Y-104247857D01*
X124158571Y-104390714D01*
X124110952Y-104485952D01*
X124063333Y-104533571D01*
X123968095Y-104581190D01*
X123587142Y-104581190D01*
X124587142Y-105057380D02*
X124587142Y-104057380D01*
X124825238Y-104057380D01*
X124968095Y-104105000D01*
X125063333Y-104200238D01*
X125110952Y-104295476D01*
X125158571Y-104485952D01*
X125158571Y-104628809D01*
X125110952Y-104819285D01*
X125063333Y-104914523D01*
X124968095Y-105009761D01*
X124825238Y-105057380D01*
X124587142Y-105057380D01*
X125587142Y-104057380D02*
X125587142Y-104866904D01*
X125634761Y-104962142D01*
X125682380Y-105009761D01*
X125777619Y-105057380D01*
X125968095Y-105057380D01*
X126063333Y-105009761D01*
X126110952Y-104962142D01*
X126158571Y-104866904D01*
X126158571Y-104057380D01*
X126634761Y-105057380D02*
X126634761Y-104057380D01*
X127110952Y-105057380D02*
X127110952Y-104057380D01*
X127682380Y-105057380D01*
X127682380Y-104057380D01*
X128349047Y-104057380D02*
X128539523Y-104057380D01*
X128634761Y-104105000D01*
X128730000Y-104200238D01*
X128777619Y-104390714D01*
X128777619Y-104724047D01*
X128730000Y-104914523D01*
X128634761Y-105009761D01*
X128539523Y-105057380D01*
X128349047Y-105057380D01*
X128253809Y-105009761D01*
X128158571Y-104914523D01*
X128110952Y-104724047D01*
X128110952Y-104390714D01*
X128158571Y-104200238D01*
X128253809Y-104105000D01*
X128349047Y-104057380D01*
X123968095Y-106667380D02*
X123968095Y-105667380D01*
X124539523Y-106667380D01*
X124539523Y-105667380D01*
X124968095Y-106381666D02*
X125444285Y-106381666D01*
X124872857Y-106667380D02*
X125206190Y-105667380D01*
X125539523Y-106667380D01*
X125872857Y-106667380D02*
X125872857Y-105667380D01*
X126444285Y-106667380D01*
X126444285Y-105667380D01*
X127110952Y-105667380D02*
X127301428Y-105667380D01*
X127396666Y-105715000D01*
X127491904Y-105810238D01*
X127539523Y-106000714D01*
X127539523Y-106334047D01*
X127491904Y-106524523D01*
X127396666Y-106619761D01*
X127301428Y-106667380D01*
X127110952Y-106667380D01*
X127015714Y-106619761D01*
X126920476Y-106524523D01*
X126872857Y-106334047D01*
X126872857Y-106000714D01*
X126920476Y-105810238D01*
X127015714Y-105715000D01*
X127110952Y-105667380D01*
D11*
X128403571Y-84123571D02*
X128510714Y-84159285D01*
X128689285Y-84159285D01*
X128760714Y-84123571D01*
X128796428Y-84087857D01*
X128832142Y-84016428D01*
X128832142Y-83945000D01*
X128796428Y-83873571D01*
X128760714Y-83837857D01*
X128689285Y-83802142D01*
X128546428Y-83766428D01*
X128475000Y-83730714D01*
X128439285Y-83695000D01*
X128403571Y-83623571D01*
X128403571Y-83552142D01*
X128439285Y-83480714D01*
X128475000Y-83445000D01*
X128546428Y-83409285D01*
X128725000Y-83409285D01*
X128832142Y-83445000D01*
X129582142Y-84087857D02*
X129546428Y-84123571D01*
X129439285Y-84159285D01*
X129367857Y-84159285D01*
X129260714Y-84123571D01*
X129189285Y-84052142D01*
X129153571Y-83980714D01*
X129117857Y-83837857D01*
X129117857Y-83730714D01*
X129153571Y-83587857D01*
X129189285Y-83516428D01*
X129260714Y-83445000D01*
X129367857Y-83409285D01*
X129439285Y-83409285D01*
X129546428Y-83445000D01*
X129582142Y-83480714D01*
X129903571Y-84159285D02*
X129903571Y-83409285D01*
X129903571Y-83766428D02*
X130332142Y-83766428D01*
X130332142Y-84159285D02*
X130332142Y-83409285D01*
X130832142Y-83409285D02*
X130975000Y-83409285D01*
X131046428Y-83445000D01*
X131117857Y-83516428D01*
X131153571Y-83659285D01*
X131153571Y-83909285D01*
X131117857Y-84052142D01*
X131046428Y-84123571D01*
X130975000Y-84159285D01*
X130832142Y-84159285D01*
X130760714Y-84123571D01*
X130689285Y-84052142D01*
X130653571Y-83909285D01*
X130653571Y-83659285D01*
X130689285Y-83516428D01*
X130760714Y-83445000D01*
X130832142Y-83409285D01*
X131367857Y-83409285D02*
X131796428Y-83409285D01*
X131582142Y-84159285D02*
X131582142Y-83409285D01*
X131939285Y-83409285D02*
X132367857Y-83409285D01*
X132153571Y-84159285D02*
X132153571Y-83409285D01*
X132617857Y-84159285D02*
X132617857Y-83409285D01*
X133046428Y-84159285D02*
X132725000Y-83730714D01*
X133046428Y-83409285D02*
X132617857Y-83837857D01*
X133510714Y-83802142D02*
X133510714Y-84159285D01*
X133260714Y-83409285D02*
X133510714Y-83802142D01*
X133760714Y-83409285D01*
X134582142Y-84159285D02*
X134582142Y-83409285D01*
X134760714Y-83409285D01*
X134867857Y-83445000D01*
X134939285Y-83516428D01*
X134975000Y-83587857D01*
X135010714Y-83730714D01*
X135010714Y-83837857D01*
X134975000Y-83980714D01*
X134939285Y-84052142D01*
X134867857Y-84123571D01*
X134760714Y-84159285D01*
X134582142Y-84159285D01*
X135332142Y-84159285D02*
X135332142Y-83409285D01*
X135832142Y-83409285D02*
X135975000Y-83409285D01*
X136046428Y-83445000D01*
X136117857Y-83516428D01*
X136153571Y-83659285D01*
X136153571Y-83909285D01*
X136117857Y-84052142D01*
X136046428Y-84123571D01*
X135975000Y-84159285D01*
X135832142Y-84159285D01*
X135760714Y-84123571D01*
X135689285Y-84052142D01*
X135653571Y-83909285D01*
X135653571Y-83659285D01*
X135689285Y-83516428D01*
X135760714Y-83445000D01*
X135832142Y-83409285D01*
X136475000Y-84159285D02*
X136475000Y-83409285D01*
X136653571Y-83409285D01*
X136760714Y-83445000D01*
X136832142Y-83516428D01*
X136867857Y-83587857D01*
X136903571Y-83730714D01*
X136903571Y-83837857D01*
X136867857Y-83980714D01*
X136832142Y-84052142D01*
X136760714Y-84123571D01*
X136653571Y-84159285D01*
X136475000Y-84159285D01*
X137225000Y-83766428D02*
X137475000Y-83766428D01*
X137582142Y-84159285D02*
X137225000Y-84159285D01*
X137225000Y-83409285D01*
X137582142Y-83409285D01*
X137867857Y-84123571D02*
X137975000Y-84159285D01*
X138153571Y-84159285D01*
X138225000Y-84123571D01*
X138260714Y-84087857D01*
X138296428Y-84016428D01*
X138296428Y-83945000D01*
X138260714Y-83873571D01*
X138225000Y-83837857D01*
X138153571Y-83802142D01*
X138010714Y-83766428D01*
X137939285Y-83730714D01*
X137903571Y-83695000D01*
X137867857Y-83623571D01*
X137867857Y-83552142D01*
X137903571Y-83480714D01*
X137939285Y-83445000D01*
X138010714Y-83409285D01*
X138189285Y-83409285D01*
X138296428Y-83445000D01*
D12*
X138072857Y-147403333D02*
X138310952Y-147403333D01*
X138025238Y-147546190D02*
X138191904Y-147046190D01*
X138358571Y-147546190D01*
X138620476Y-147046190D02*
X138668095Y-147046190D01*
X138715714Y-147070000D01*
X138739523Y-147093809D01*
X138763333Y-147141428D01*
X138787142Y-147236666D01*
X138787142Y-147355714D01*
X138763333Y-147450952D01*
X138739523Y-147498571D01*
X138715714Y-147522380D01*
X138668095Y-147546190D01*
X138620476Y-147546190D01*
X138572857Y-147522380D01*
X138549047Y-147498571D01*
X138525238Y-147450952D01*
X138501428Y-147355714D01*
X138501428Y-147236666D01*
X138525238Y-147141428D01*
X138549047Y-147093809D01*
X138572857Y-147070000D01*
X138620476Y-147046190D01*
X135223333Y-147046190D02*
X135390000Y-147546190D01*
X135556666Y-147046190D01*
X136009047Y-147498571D02*
X135985238Y-147522380D01*
X135913809Y-147546190D01*
X135866190Y-147546190D01*
X135794761Y-147522380D01*
X135747142Y-147474761D01*
X135723333Y-147427142D01*
X135699523Y-147331904D01*
X135699523Y-147260476D01*
X135723333Y-147165238D01*
X135747142Y-147117619D01*
X135794761Y-147070000D01*
X135866190Y-147046190D01*
X135913809Y-147046190D01*
X135985238Y-147070000D01*
X136009047Y-147093809D01*
X136509047Y-147498571D02*
X136485238Y-147522380D01*
X136413809Y-147546190D01*
X136366190Y-147546190D01*
X136294761Y-147522380D01*
X136247142Y-147474761D01*
X136223333Y-147427142D01*
X136199523Y-147331904D01*
X136199523Y-147260476D01*
X136223333Y-147165238D01*
X136247142Y-147117619D01*
X136294761Y-147070000D01*
X136366190Y-147046190D01*
X136413809Y-147046190D01*
X136485238Y-147070000D01*
X136509047Y-147093809D01*
X132969047Y-147070000D02*
X132921428Y-147046190D01*
X132850000Y-147046190D01*
X132778571Y-147070000D01*
X132730952Y-147117619D01*
X132707142Y-147165238D01*
X132683333Y-147260476D01*
X132683333Y-147331904D01*
X132707142Y-147427142D01*
X132730952Y-147474761D01*
X132778571Y-147522380D01*
X132850000Y-147546190D01*
X132897619Y-147546190D01*
X132969047Y-147522380D01*
X132992857Y-147498571D01*
X132992857Y-147331904D01*
X132897619Y-147331904D01*
X133207142Y-147546190D02*
X133207142Y-147046190D01*
X133492857Y-147546190D01*
X133492857Y-147046190D01*
X133730952Y-147546190D02*
X133730952Y-147046190D01*
X133850000Y-147046190D01*
X133921428Y-147070000D01*
X133969047Y-147117619D01*
X133992857Y-147165238D01*
X134016666Y-147260476D01*
X134016666Y-147331904D01*
X133992857Y-147427142D01*
X133969047Y-147474761D01*
X133921428Y-147522380D01*
X133850000Y-147546190D01*
X133730952Y-147546190D01*
X130429047Y-147070000D02*
X130381428Y-147046190D01*
X130310000Y-147046190D01*
X130238571Y-147070000D01*
X130190952Y-147117619D01*
X130167142Y-147165238D01*
X130143333Y-147260476D01*
X130143333Y-147331904D01*
X130167142Y-147427142D01*
X130190952Y-147474761D01*
X130238571Y-147522380D01*
X130310000Y-147546190D01*
X130357619Y-147546190D01*
X130429047Y-147522380D01*
X130452857Y-147498571D01*
X130452857Y-147331904D01*
X130357619Y-147331904D01*
X130667142Y-147546190D02*
X130667142Y-147046190D01*
X130952857Y-147546190D01*
X130952857Y-147046190D01*
X131190952Y-147546190D02*
X131190952Y-147046190D01*
X131310000Y-147046190D01*
X131381428Y-147070000D01*
X131429047Y-147117619D01*
X131452857Y-147165238D01*
X131476666Y-147260476D01*
X131476666Y-147331904D01*
X131452857Y-147427142D01*
X131429047Y-147474761D01*
X131381428Y-147522380D01*
X131310000Y-147546190D01*
X131190952Y-147546190D01*
X127603333Y-147046190D02*
X127770000Y-147546190D01*
X127936666Y-147046190D01*
X128389047Y-147498571D02*
X128365238Y-147522380D01*
X128293809Y-147546190D01*
X128246190Y-147546190D01*
X128174761Y-147522380D01*
X128127142Y-147474761D01*
X128103333Y-147427142D01*
X128079523Y-147331904D01*
X128079523Y-147260476D01*
X128103333Y-147165238D01*
X128127142Y-147117619D01*
X128174761Y-147070000D01*
X128246190Y-147046190D01*
X128293809Y-147046190D01*
X128365238Y-147070000D01*
X128389047Y-147093809D01*
X128889047Y-147498571D02*
X128865238Y-147522380D01*
X128793809Y-147546190D01*
X128746190Y-147546190D01*
X128674761Y-147522380D01*
X128627142Y-147474761D01*
X128603333Y-147427142D01*
X128579523Y-147331904D01*
X128579523Y-147260476D01*
X128603333Y-147165238D01*
X128627142Y-147117619D01*
X128674761Y-147070000D01*
X128746190Y-147046190D01*
X128793809Y-147046190D01*
X128865238Y-147070000D01*
X128889047Y-147093809D01*
X125646666Y-147498571D02*
X125622857Y-147522380D01*
X125551428Y-147546190D01*
X125503809Y-147546190D01*
X125432380Y-147522380D01*
X125384761Y-147474761D01*
X125360952Y-147427142D01*
X125337142Y-147331904D01*
X125337142Y-147260476D01*
X125360952Y-147165238D01*
X125384761Y-147117619D01*
X125432380Y-147070000D01*
X125503809Y-147046190D01*
X125551428Y-147046190D01*
X125622857Y-147070000D01*
X125646666Y-147093809D01*
X125837142Y-147522380D02*
X125908571Y-147546190D01*
X126027619Y-147546190D01*
X126075238Y-147522380D01*
X126099047Y-147498571D01*
X126122857Y-147450952D01*
X126122857Y-147403333D01*
X126099047Y-147355714D01*
X126075238Y-147331904D01*
X126027619Y-147308095D01*
X125932380Y-147284285D01*
X125884761Y-147260476D01*
X125860952Y-147236666D01*
X125837142Y-147189047D01*
X125837142Y-147141428D01*
X125860952Y-147093809D01*
X125884761Y-147070000D01*
X125932380Y-147046190D01*
X126051428Y-147046190D01*
X126122857Y-147070000D01*
X122499523Y-147546190D02*
X122499523Y-147046190D01*
X122737619Y-147546190D02*
X122737619Y-147046190D01*
X123023333Y-147546190D01*
X123023333Y-147046190D01*
X123190000Y-147046190D02*
X123475714Y-147046190D01*
X123332857Y-147546190D02*
X123332857Y-147046190D01*
X123618571Y-147093809D02*
X123642380Y-147070000D01*
X123690000Y-147046190D01*
X123809047Y-147046190D01*
X123856666Y-147070000D01*
X123880476Y-147093809D01*
X123904285Y-147141428D01*
X123904285Y-147189047D01*
X123880476Y-147260476D01*
X123594761Y-147546190D01*
X123904285Y-147546190D01*
X120042857Y-147522380D02*
X120114285Y-147546190D01*
X120233333Y-147546190D01*
X120280952Y-147522380D01*
X120304761Y-147498571D01*
X120328571Y-147450952D01*
X120328571Y-147403333D01*
X120304761Y-147355714D01*
X120280952Y-147331904D01*
X120233333Y-147308095D01*
X120138095Y-147284285D01*
X120090476Y-147260476D01*
X120066666Y-147236666D01*
X120042857Y-147189047D01*
X120042857Y-147141428D01*
X120066666Y-147093809D01*
X120090476Y-147070000D01*
X120138095Y-147046190D01*
X120257142Y-147046190D01*
X120328571Y-147070000D01*
X120542857Y-147546190D02*
X120542857Y-147046190D01*
X120661904Y-147046190D01*
X120733333Y-147070000D01*
X120780952Y-147117619D01*
X120804761Y-147165238D01*
X120828571Y-147260476D01*
X120828571Y-147331904D01*
X120804761Y-147427142D01*
X120780952Y-147474761D01*
X120733333Y-147522380D01*
X120661904Y-147546190D01*
X120542857Y-147546190D01*
X121019047Y-147403333D02*
X121257142Y-147403333D01*
X120971428Y-147546190D02*
X121138095Y-147046190D01*
X121304761Y-147546190D01*
X117514761Y-147522380D02*
X117586190Y-147546190D01*
X117705238Y-147546190D01*
X117752857Y-147522380D01*
X117776666Y-147498571D01*
X117800476Y-147450952D01*
X117800476Y-147403333D01*
X117776666Y-147355714D01*
X117752857Y-147331904D01*
X117705238Y-147308095D01*
X117610000Y-147284285D01*
X117562380Y-147260476D01*
X117538571Y-147236666D01*
X117514761Y-147189047D01*
X117514761Y-147141428D01*
X117538571Y-147093809D01*
X117562380Y-147070000D01*
X117610000Y-147046190D01*
X117729047Y-147046190D01*
X117800476Y-147070000D01*
X118300476Y-147498571D02*
X118276666Y-147522380D01*
X118205238Y-147546190D01*
X118157619Y-147546190D01*
X118086190Y-147522380D01*
X118038571Y-147474761D01*
X118014761Y-147427142D01*
X117990952Y-147331904D01*
X117990952Y-147260476D01*
X118014761Y-147165238D01*
X118038571Y-147117619D01*
X118086190Y-147070000D01*
X118157619Y-147046190D01*
X118205238Y-147046190D01*
X118276666Y-147070000D01*
X118300476Y-147093809D01*
X118752857Y-147546190D02*
X118514761Y-147546190D01*
X118514761Y-147046190D01*
D11*
X134943571Y-145639285D02*
X135372142Y-145639285D01*
X135157857Y-146389285D02*
X135157857Y-145639285D01*
X135622142Y-146389285D02*
X135622142Y-145639285D01*
X135800714Y-145639285D01*
X135907857Y-145675000D01*
X135979285Y-145746428D01*
X136015000Y-145817857D01*
X136050714Y-145960714D01*
X136050714Y-146067857D01*
X136015000Y-146210714D01*
X135979285Y-146282142D01*
X135907857Y-146353571D01*
X135800714Y-146389285D01*
X135622142Y-146389285D01*
X136336428Y-146353571D02*
X136443571Y-146389285D01*
X136622142Y-146389285D01*
X136693571Y-146353571D01*
X136729285Y-146317857D01*
X136765000Y-146246428D01*
X136765000Y-146175000D01*
X136729285Y-146103571D01*
X136693571Y-146067857D01*
X136622142Y-146032142D01*
X136479285Y-145996428D01*
X136407857Y-145960714D01*
X136372142Y-145925000D01*
X136336428Y-145853571D01*
X136336428Y-145782142D01*
X136372142Y-145710714D01*
X136407857Y-145675000D01*
X136479285Y-145639285D01*
X136657857Y-145639285D01*
X136765000Y-145675000D01*
X121283571Y-146175000D02*
X121640714Y-146175000D01*
X121212142Y-146389285D02*
X121462142Y-145639285D01*
X121712142Y-146389285D01*
X122390714Y-146317857D02*
X122355000Y-146353571D01*
X122247857Y-146389285D01*
X122176428Y-146389285D01*
X122069285Y-146353571D01*
X121997857Y-146282142D01*
X121962142Y-146210714D01*
X121926428Y-146067857D01*
X121926428Y-145960714D01*
X121962142Y-145817857D01*
X121997857Y-145746428D01*
X122069285Y-145675000D01*
X122176428Y-145639285D01*
X122247857Y-145639285D01*
X122355000Y-145675000D01*
X122390714Y-145710714D01*
X123140714Y-146317857D02*
X123105000Y-146353571D01*
X122997857Y-146389285D01*
X122926428Y-146389285D01*
X122819285Y-146353571D01*
X122747857Y-146282142D01*
X122712142Y-146210714D01*
X122676428Y-146067857D01*
X122676428Y-145960714D01*
X122712142Y-145817857D01*
X122747857Y-145746428D01*
X122819285Y-145675000D01*
X122926428Y-145639285D01*
X122997857Y-145639285D01*
X123105000Y-145675000D01*
X123140714Y-145710714D01*
X123462142Y-145996428D02*
X123712142Y-145996428D01*
X123819285Y-146389285D02*
X123462142Y-146389285D01*
X123462142Y-145639285D01*
X123819285Y-145639285D01*
X124497857Y-146389285D02*
X124140714Y-146389285D01*
X124140714Y-145639285D01*
X124747857Y-145996428D02*
X124997857Y-145996428D01*
X125105000Y-146389285D02*
X124747857Y-146389285D01*
X124747857Y-145639285D01*
X125105000Y-145639285D01*
X125855000Y-146389285D02*
X125605000Y-146032142D01*
X125426428Y-146389285D02*
X125426428Y-145639285D01*
X125712142Y-145639285D01*
X125783571Y-145675000D01*
X125819285Y-145710714D01*
X125855000Y-145782142D01*
X125855000Y-145889285D01*
X125819285Y-145960714D01*
X125783571Y-145996428D01*
X125712142Y-146032142D01*
X125426428Y-146032142D01*
X126319285Y-145639285D02*
X126462142Y-145639285D01*
X126533571Y-145675000D01*
X126605000Y-145746428D01*
X126640714Y-145889285D01*
X126640714Y-146139285D01*
X126605000Y-146282142D01*
X126533571Y-146353571D01*
X126462142Y-146389285D01*
X126319285Y-146389285D01*
X126247857Y-146353571D01*
X126176428Y-146282142D01*
X126140714Y-146139285D01*
X126140714Y-145889285D01*
X126176428Y-145746428D01*
X126247857Y-145675000D01*
X126319285Y-145639285D01*
X126962142Y-146389285D02*
X126962142Y-145639285D01*
X127212142Y-146175000D01*
X127462142Y-145639285D01*
X127462142Y-146389285D01*
X127819285Y-145996428D02*
X128069285Y-145996428D01*
X128176428Y-146389285D02*
X127819285Y-146389285D01*
X127819285Y-145639285D01*
X128176428Y-145639285D01*
X128390714Y-145639285D02*
X128819285Y-145639285D01*
X128605000Y-146389285D02*
X128605000Y-145639285D01*
X129069285Y-145996428D02*
X129319285Y-145996428D01*
X129426428Y-146389285D02*
X129069285Y-146389285D01*
X129069285Y-145639285D01*
X129426428Y-145639285D01*
X130176428Y-146389285D02*
X129926428Y-146032142D01*
X129747857Y-146389285D02*
X129747857Y-145639285D01*
X130033571Y-145639285D01*
X130105000Y-145675000D01*
X130140714Y-145710714D01*
X130176428Y-145782142D01*
X130176428Y-145889285D01*
X130140714Y-145960714D01*
X130105000Y-145996428D01*
X130033571Y-146032142D01*
X129747857Y-146032142D01*
D12*
X115379523Y-147355714D02*
X115760476Y-147355714D01*
X115570000Y-147546190D02*
X115570000Y-147165238D01*
X112839523Y-147355714D02*
X113220476Y-147355714D01*
D11*
X111871428Y-145675000D02*
X111800000Y-145639285D01*
X111692857Y-145639285D01*
X111585714Y-145675000D01*
X111514285Y-145746428D01*
X111478571Y-145817857D01*
X111442857Y-145960714D01*
X111442857Y-146067857D01*
X111478571Y-146210714D01*
X111514285Y-146282142D01*
X111585714Y-146353571D01*
X111692857Y-146389285D01*
X111764285Y-146389285D01*
X111871428Y-146353571D01*
X111907142Y-146317857D01*
X111907142Y-146067857D01*
X111764285Y-146067857D01*
X112228571Y-145996428D02*
X112478571Y-145996428D01*
X112585714Y-146389285D02*
X112228571Y-146389285D01*
X112228571Y-145639285D01*
X112585714Y-145639285D01*
X113050000Y-145639285D02*
X113192857Y-145639285D01*
X113264285Y-145675000D01*
X113335714Y-145746428D01*
X113371428Y-145889285D01*
X113371428Y-146139285D01*
X113335714Y-146282142D01*
X113264285Y-146353571D01*
X113192857Y-146389285D01*
X113050000Y-146389285D01*
X112978571Y-146353571D01*
X112907142Y-146282142D01*
X112871428Y-146139285D01*
X112871428Y-145889285D01*
X112907142Y-145746428D01*
X112978571Y-145675000D01*
X113050000Y-145639285D01*
X113692857Y-146389285D02*
X113692857Y-145639285D01*
X113978571Y-145639285D01*
X114050000Y-145675000D01*
X114085714Y-145710714D01*
X114121428Y-145782142D01*
X114121428Y-145889285D01*
X114085714Y-145960714D01*
X114050000Y-145996428D01*
X113978571Y-146032142D01*
X113692857Y-146032142D01*
X114442857Y-146389285D02*
X114442857Y-145639285D01*
X114442857Y-145996428D02*
X114871428Y-145996428D01*
X114871428Y-146389285D02*
X114871428Y-145639285D01*
X115371428Y-145639285D02*
X115514285Y-145639285D01*
X115585714Y-145675000D01*
X115657142Y-145746428D01*
X115692857Y-145889285D01*
X115692857Y-146139285D01*
X115657142Y-146282142D01*
X115585714Y-146353571D01*
X115514285Y-146389285D01*
X115371428Y-146389285D01*
X115300000Y-146353571D01*
X115228571Y-146282142D01*
X115192857Y-146139285D01*
X115192857Y-145889285D01*
X115228571Y-145746428D01*
X115300000Y-145675000D01*
X115371428Y-145639285D01*
X116014285Y-146389285D02*
X116014285Y-145639285D01*
X116442857Y-146389285D01*
X116442857Y-145639285D01*
X116800000Y-145996428D02*
X117050000Y-145996428D01*
X117157142Y-146389285D02*
X116800000Y-146389285D01*
X116800000Y-145639285D01*
X117157142Y-145639285D01*
D10*
X113752380Y-126348571D02*
X113752380Y-126253333D01*
X113800000Y-126158095D01*
X113847619Y-126110476D01*
X113942857Y-126062857D01*
X114133333Y-126015238D01*
X114371428Y-126015238D01*
X114561904Y-126062857D01*
X114657142Y-126110476D01*
X114704761Y-126158095D01*
X114752380Y-126253333D01*
X114752380Y-126348571D01*
X114704761Y-126443809D01*
X114657142Y-126491428D01*
X114561904Y-126539047D01*
X114371428Y-126586666D01*
X114133333Y-126586666D01*
X113942857Y-126539047D01*
X113847619Y-126491428D01*
X113800000Y-126443809D01*
X113752380Y-126348571D01*
X113847619Y-125634285D02*
X113800000Y-125586666D01*
X113752380Y-125491428D01*
X113752380Y-125253333D01*
X113800000Y-125158095D01*
X113847619Y-125110476D01*
X113942857Y-125062857D01*
X114038095Y-125062857D01*
X114180952Y-125110476D01*
X114752380Y-125681904D01*
X114752380Y-125062857D01*
X113704761Y-123920000D02*
X114990476Y-124777142D01*
X113752380Y-123396190D02*
X113752380Y-123300952D01*
X113800000Y-123205714D01*
X113847619Y-123158095D01*
X113942857Y-123110476D01*
X114133333Y-123062857D01*
X114371428Y-123062857D01*
X114561904Y-123110476D01*
X114657142Y-123158095D01*
X114704761Y-123205714D01*
X114752380Y-123300952D01*
X114752380Y-123396190D01*
X114704761Y-123491428D01*
X114657142Y-123539047D01*
X114561904Y-123586666D01*
X114371428Y-123634285D01*
X114133333Y-123634285D01*
X113942857Y-123586666D01*
X113847619Y-123539047D01*
X113800000Y-123491428D01*
X113752380Y-123396190D01*
X114180952Y-122491428D02*
X114133333Y-122586666D01*
X114085714Y-122634285D01*
X113990476Y-122681904D01*
X113942857Y-122681904D01*
X113847619Y-122634285D01*
X113800000Y-122586666D01*
X113752380Y-122491428D01*
X113752380Y-122300952D01*
X113800000Y-122205714D01*
X113847619Y-122158095D01*
X113942857Y-122110476D01*
X113990476Y-122110476D01*
X114085714Y-122158095D01*
X114133333Y-122205714D01*
X114180952Y-122300952D01*
X114180952Y-122491428D01*
X114228571Y-122586666D01*
X114276190Y-122634285D01*
X114371428Y-122681904D01*
X114561904Y-122681904D01*
X114657142Y-122634285D01*
X114704761Y-122586666D01*
X114752380Y-122491428D01*
X114752380Y-122300952D01*
X114704761Y-122205714D01*
X114657142Y-122158095D01*
X114561904Y-122110476D01*
X114371428Y-122110476D01*
X114276190Y-122158095D01*
X114228571Y-122205714D01*
X114180952Y-122300952D01*
X113704761Y-120967619D02*
X114990476Y-121824761D01*
X113847619Y-120681904D02*
X113800000Y-120634285D01*
X113752380Y-120539047D01*
X113752380Y-120300952D01*
X113800000Y-120205714D01*
X113847619Y-120158095D01*
X113942857Y-120110476D01*
X114038095Y-120110476D01*
X114180952Y-120158095D01*
X114752380Y-120729523D01*
X114752380Y-120110476D01*
X113752380Y-119491428D02*
X113752380Y-119396190D01*
X113800000Y-119300952D01*
X113847619Y-119253333D01*
X113942857Y-119205714D01*
X114133333Y-119158095D01*
X114371428Y-119158095D01*
X114561904Y-119205714D01*
X114657142Y-119253333D01*
X114704761Y-119300952D01*
X114752380Y-119396190D01*
X114752380Y-119491428D01*
X114704761Y-119586666D01*
X114657142Y-119634285D01*
X114561904Y-119681904D01*
X114371428Y-119729523D01*
X114133333Y-119729523D01*
X113942857Y-119681904D01*
X113847619Y-119634285D01*
X113800000Y-119586666D01*
X113752380Y-119491428D01*
X113847619Y-118777142D02*
X113800000Y-118729523D01*
X113752380Y-118634285D01*
X113752380Y-118396190D01*
X113800000Y-118300952D01*
X113847619Y-118253333D01*
X113942857Y-118205714D01*
X114038095Y-118205714D01*
X114180952Y-118253333D01*
X114752380Y-118824761D01*
X114752380Y-118205714D01*
X113847619Y-117824761D02*
X113800000Y-117777142D01*
X113752380Y-117681904D01*
X113752380Y-117443809D01*
X113800000Y-117348571D01*
X113847619Y-117300952D01*
X113942857Y-117253333D01*
X114038095Y-117253333D01*
X114180952Y-117300952D01*
X114752380Y-117872380D01*
X114752380Y-117253333D01*
D13*
X112438571Y-132777142D02*
X110938571Y-132777142D01*
X112010000Y-132277142D01*
X110938571Y-131777142D01*
X112438571Y-131777142D01*
X112438571Y-130420000D02*
X111652857Y-130420000D01*
X111510000Y-130491428D01*
X111438571Y-130634285D01*
X111438571Y-130920000D01*
X111510000Y-131062857D01*
X112367142Y-130420000D02*
X112438571Y-130562857D01*
X112438571Y-130920000D01*
X112367142Y-131062857D01*
X112224285Y-131134285D01*
X112081428Y-131134285D01*
X111938571Y-131062857D01*
X111867142Y-130920000D01*
X111867142Y-130562857D01*
X111795714Y-130420000D01*
X112438571Y-129491428D02*
X112367142Y-129634285D01*
X112224285Y-129705714D01*
X110938571Y-129705714D01*
X112438571Y-128920000D02*
X111438571Y-128920000D01*
X110938571Y-128920000D02*
X111010000Y-128991428D01*
X111081428Y-128920000D01*
X111010000Y-128848571D01*
X110938571Y-128920000D01*
X111081428Y-128920000D01*
X112367142Y-127562857D02*
X112438571Y-127705714D01*
X112438571Y-127991428D01*
X112367142Y-128134285D01*
X112295714Y-128205714D01*
X112152857Y-128277142D01*
X111724285Y-128277142D01*
X111581428Y-128205714D01*
X111510000Y-128134285D01*
X111438571Y-127991428D01*
X111438571Y-127705714D01*
X111510000Y-127562857D01*
X112438571Y-126920000D02*
X110938571Y-126920000D01*
X112438571Y-126277142D02*
X111652857Y-126277142D01*
X111510000Y-126348571D01*
X111438571Y-126491428D01*
X111438571Y-126705714D01*
X111510000Y-126848571D01*
X111581428Y-126920000D01*
X112438571Y-125562857D02*
X111438571Y-125562857D01*
X110938571Y-125562857D02*
X111010000Y-125634285D01*
X111081428Y-125562857D01*
X111010000Y-125491428D01*
X110938571Y-125562857D01*
X111081428Y-125562857D01*
X111652857Y-123205714D02*
X111652857Y-123705714D01*
X112438571Y-123705714D02*
X110938571Y-123705714D01*
X110938571Y-122991428D01*
X112438571Y-122205714D02*
X112367142Y-122348571D01*
X112224285Y-122420000D01*
X110938571Y-122420000D01*
X112367142Y-121062857D02*
X112438571Y-121205714D01*
X112438571Y-121491428D01*
X112367142Y-121634285D01*
X112224285Y-121705714D01*
X111652857Y-121705714D01*
X111510000Y-121634285D01*
X111438571Y-121491428D01*
X111438571Y-121205714D01*
X111510000Y-121062857D01*
X111652857Y-120991428D01*
X111795714Y-120991428D01*
X111938571Y-121705714D01*
X112438571Y-120348571D02*
X111438571Y-120348571D01*
X111581428Y-120348571D02*
X111510000Y-120277142D01*
X111438571Y-120134285D01*
X111438571Y-119920000D01*
X111510000Y-119777142D01*
X111652857Y-119705714D01*
X112438571Y-119705714D01*
X111652857Y-119705714D02*
X111510000Y-119634285D01*
X111438571Y-119491428D01*
X111438571Y-119277142D01*
X111510000Y-119134285D01*
X111652857Y-119062857D01*
X112438571Y-119062857D01*
X112438571Y-118348571D02*
X111438571Y-118348571D01*
X111581428Y-118348571D02*
X111510000Y-118277142D01*
X111438571Y-118134285D01*
X111438571Y-117920000D01*
X111510000Y-117777142D01*
X111652857Y-117705714D01*
X112438571Y-117705714D01*
X111652857Y-117705714D02*
X111510000Y-117634285D01*
X111438571Y-117491428D01*
X111438571Y-117277142D01*
X111510000Y-117134285D01*
X111652857Y-117062857D01*
X112438571Y-117062857D01*
X112438571Y-116348571D02*
X111438571Y-116348571D01*
X110938571Y-116348571D02*
X111010000Y-116420000D01*
X111081428Y-116348571D01*
X111010000Y-116277142D01*
X110938571Y-116348571D01*
X111081428Y-116348571D01*
X111438571Y-115634285D02*
X112438571Y-115634285D01*
X111581428Y-115634285D02*
X111510000Y-115562857D01*
X111438571Y-115420000D01*
X111438571Y-115205714D01*
X111510000Y-115062857D01*
X111652857Y-114991428D01*
X112438571Y-114991428D01*
X111438571Y-113634285D02*
X112652857Y-113634285D01*
X112795714Y-113705714D01*
X112867142Y-113777142D01*
X112938571Y-113920000D01*
X112938571Y-114134285D01*
X112867142Y-114277142D01*
X112367142Y-113634285D02*
X112438571Y-113777142D01*
X112438571Y-114062857D01*
X112367142Y-114205714D01*
X112295714Y-114277142D01*
X112152857Y-114348571D01*
X111724285Y-114348571D01*
X111581428Y-114277142D01*
X111510000Y-114205714D01*
X111438571Y-114062857D01*
X111438571Y-113777142D01*
X111510000Y-113634285D01*
X112438571Y-111777142D02*
X110938571Y-111777142D01*
X112438571Y-111062857D02*
X110938571Y-111062857D01*
D14*
%TO.C,J2*%
X110156666Y-148042380D02*
X110156666Y-148756666D01*
X110109047Y-148899523D01*
X110013809Y-148994761D01*
X109870952Y-149042380D01*
X109775714Y-149042380D01*
X110585238Y-148137619D02*
X110632857Y-148090000D01*
X110728095Y-148042380D01*
X110966190Y-148042380D01*
X111061428Y-148090000D01*
X111109047Y-148137619D01*
X111156666Y-148232857D01*
X111156666Y-148328095D01*
X111109047Y-148470952D01*
X110537619Y-149042380D01*
X111156666Y-149042380D01*
%TO.C,U7*%
X114808095Y-80732380D02*
X114808095Y-81541904D01*
X114855714Y-81637142D01*
X114903333Y-81684761D01*
X114998571Y-81732380D01*
X115189047Y-81732380D01*
X115284285Y-81684761D01*
X115331904Y-81637142D01*
X115379523Y-81541904D01*
X115379523Y-80732380D01*
X115760476Y-80732380D02*
X116427142Y-80732380D01*
X115998571Y-81732380D01*
X111617619Y-79144761D02*
X111712857Y-79192380D01*
X111903333Y-79192380D01*
X111998571Y-79144761D01*
X112046190Y-79049523D01*
X112046190Y-79001904D01*
X111998571Y-78906666D01*
X111903333Y-78859047D01*
X111760476Y-78859047D01*
X111665238Y-78811428D01*
X111617619Y-78716190D01*
X111617619Y-78668571D01*
X111665238Y-78573333D01*
X111760476Y-78525714D01*
X111903333Y-78525714D01*
X111998571Y-78573333D01*
X112617619Y-79192380D02*
X112522380Y-79144761D01*
X112474761Y-79097142D01*
X112427142Y-79001904D01*
X112427142Y-78716190D01*
X112474761Y-78620952D01*
X112522380Y-78573333D01*
X112617619Y-78525714D01*
X112760476Y-78525714D01*
X112855714Y-78573333D01*
X112903333Y-78620952D01*
X112950952Y-78716190D01*
X112950952Y-79001904D01*
X112903333Y-79097142D01*
X112855714Y-79144761D01*
X112760476Y-79192380D01*
X112617619Y-79192380D01*
X113522380Y-79192380D02*
X113427142Y-79144761D01*
X113379523Y-79049523D01*
X113379523Y-78192380D01*
X114331904Y-79192380D02*
X114331904Y-78668571D01*
X114284285Y-78573333D01*
X114189047Y-78525714D01*
X113998571Y-78525714D01*
X113903333Y-78573333D01*
X114331904Y-79144761D02*
X114236666Y-79192380D01*
X113998571Y-79192380D01*
X113903333Y-79144761D01*
X113855714Y-79049523D01*
X113855714Y-78954285D01*
X113903333Y-78859047D01*
X113998571Y-78811428D01*
X114236666Y-78811428D01*
X114331904Y-78763809D01*
X114808095Y-79192380D02*
X114808095Y-78525714D01*
X114808095Y-78716190D02*
X114855714Y-78620952D01*
X114903333Y-78573333D01*
X114998571Y-78525714D01*
X115093809Y-78525714D01*
X116189047Y-79192380D02*
X116189047Y-78525714D01*
X116189047Y-78192380D02*
X116141428Y-78240000D01*
X116189047Y-78287619D01*
X116236666Y-78240000D01*
X116189047Y-78192380D01*
X116189047Y-78287619D01*
X116665238Y-78525714D02*
X116665238Y-79192380D01*
X116665238Y-78620952D02*
X116712857Y-78573333D01*
X116808095Y-78525714D01*
X116950952Y-78525714D01*
X117046190Y-78573333D01*
X117093809Y-78668571D01*
X117093809Y-79192380D01*
X117570000Y-78525714D02*
X117570000Y-79525714D01*
X117570000Y-78573333D02*
X117665238Y-78525714D01*
X117855714Y-78525714D01*
X117950952Y-78573333D01*
X117998571Y-78620952D01*
X118046190Y-78716190D01*
X118046190Y-79001904D01*
X117998571Y-79097142D01*
X117950952Y-79144761D01*
X117855714Y-79192380D01*
X117665238Y-79192380D01*
X117570000Y-79144761D01*
X118903333Y-78525714D02*
X118903333Y-79192380D01*
X118474761Y-78525714D02*
X118474761Y-79049523D01*
X118522380Y-79144761D01*
X118617619Y-79192380D01*
X118760476Y-79192380D01*
X118855714Y-79144761D01*
X118903333Y-79097142D01*
X119236666Y-78525714D02*
X119617619Y-78525714D01*
X119379523Y-78192380D02*
X119379523Y-79049523D01*
X119427142Y-79144761D01*
X119522380Y-79192380D01*
X119617619Y-79192380D01*
X108839047Y-81351428D02*
X109600952Y-81351428D01*
X121539047Y-81351428D02*
X122300952Y-81351428D01*
X121920000Y-81732380D02*
X121920000Y-80970476D01*
%TO.C,U3*%
X135128095Y-80732380D02*
X135128095Y-81541904D01*
X135175714Y-81637142D01*
X135223333Y-81684761D01*
X135318571Y-81732380D01*
X135509047Y-81732380D01*
X135604285Y-81684761D01*
X135651904Y-81637142D01*
X135699523Y-81541904D01*
X135699523Y-80732380D01*
X136080476Y-80732380D02*
X136699523Y-80732380D01*
X136366190Y-81113333D01*
X136509047Y-81113333D01*
X136604285Y-81160952D01*
X136651904Y-81208571D01*
X136699523Y-81303809D01*
X136699523Y-81541904D01*
X136651904Y-81637142D01*
X136604285Y-81684761D01*
X136509047Y-81732380D01*
X136223333Y-81732380D01*
X136128095Y-81684761D01*
X136080476Y-81637142D01*
X131270952Y-79192380D02*
X131270952Y-78192380D01*
X131270952Y-78573333D02*
X131366190Y-78525714D01*
X131556666Y-78525714D01*
X131651904Y-78573333D01*
X131699523Y-78620952D01*
X131747142Y-78716190D01*
X131747142Y-79001904D01*
X131699523Y-79097142D01*
X131651904Y-79144761D01*
X131556666Y-79192380D01*
X131366190Y-79192380D01*
X131270952Y-79144761D01*
X132604285Y-79192380D02*
X132604285Y-78668571D01*
X132556666Y-78573333D01*
X132461428Y-78525714D01*
X132270952Y-78525714D01*
X132175714Y-78573333D01*
X132604285Y-79144761D02*
X132509047Y-79192380D01*
X132270952Y-79192380D01*
X132175714Y-79144761D01*
X132128095Y-79049523D01*
X132128095Y-78954285D01*
X132175714Y-78859047D01*
X132270952Y-78811428D01*
X132509047Y-78811428D01*
X132604285Y-78763809D01*
X132937619Y-78525714D02*
X133318571Y-78525714D01*
X133080476Y-78192380D02*
X133080476Y-79049523D01*
X133128095Y-79144761D01*
X133223333Y-79192380D01*
X133318571Y-79192380D01*
X133509047Y-78525714D02*
X133890000Y-78525714D01*
X133651904Y-78192380D02*
X133651904Y-79049523D01*
X133699523Y-79144761D01*
X133794761Y-79192380D01*
X133890000Y-79192380D01*
X134604285Y-79144761D02*
X134509047Y-79192380D01*
X134318571Y-79192380D01*
X134223333Y-79144761D01*
X134175714Y-79049523D01*
X134175714Y-78668571D01*
X134223333Y-78573333D01*
X134318571Y-78525714D01*
X134509047Y-78525714D01*
X134604285Y-78573333D01*
X134651904Y-78668571D01*
X134651904Y-78763809D01*
X134175714Y-78859047D01*
X135080476Y-79192380D02*
X135080476Y-78525714D01*
X135080476Y-78716190D02*
X135128095Y-78620952D01*
X135175714Y-78573333D01*
X135270952Y-78525714D01*
X135366190Y-78525714D01*
X135604285Y-78525714D02*
X135842380Y-79192380D01*
X136080476Y-78525714D02*
X135842380Y-79192380D01*
X135747142Y-79430476D01*
X135699523Y-79478095D01*
X135604285Y-79525714D01*
X137223333Y-79192380D02*
X137223333Y-78525714D01*
X137223333Y-78192380D02*
X137175714Y-78240000D01*
X137223333Y-78287619D01*
X137270952Y-78240000D01*
X137223333Y-78192380D01*
X137223333Y-78287619D01*
X137699523Y-78525714D02*
X137699523Y-79192380D01*
X137699523Y-78620952D02*
X137747142Y-78573333D01*
X137842380Y-78525714D01*
X137985238Y-78525714D01*
X138080476Y-78573333D01*
X138128095Y-78668571D01*
X138128095Y-79192380D01*
X138604285Y-78525714D02*
X138604285Y-79525714D01*
X138604285Y-78573333D02*
X138699523Y-78525714D01*
X138890000Y-78525714D01*
X138985238Y-78573333D01*
X139032857Y-78620952D01*
X139080476Y-78716190D01*
X139080476Y-79001904D01*
X139032857Y-79097142D01*
X138985238Y-79144761D01*
X138890000Y-79192380D01*
X138699523Y-79192380D01*
X138604285Y-79144761D01*
X139937619Y-78525714D02*
X139937619Y-79192380D01*
X139509047Y-78525714D02*
X139509047Y-79049523D01*
X139556666Y-79144761D01*
X139651904Y-79192380D01*
X139794761Y-79192380D01*
X139890000Y-79144761D01*
X139937619Y-79097142D01*
X140270952Y-78525714D02*
X140651904Y-78525714D01*
X140413809Y-78192380D02*
X140413809Y-79049523D01*
X140461428Y-79144761D01*
X140556666Y-79192380D01*
X140651904Y-79192380D01*
X129159047Y-81351428D02*
X129920952Y-81351428D01*
X141859047Y-81351428D02*
X142620952Y-81351428D01*
X142240000Y-81732380D02*
X142240000Y-80970476D01*
%TO.C,J1*%
X125396666Y-88352380D02*
X125396666Y-89066666D01*
X125349047Y-89209523D01*
X125253809Y-89304761D01*
X125110952Y-89352380D01*
X125015714Y-89352380D01*
X126396666Y-89352380D02*
X125825238Y-89352380D01*
X126110952Y-89352380D02*
X126110952Y-88352380D01*
X126015714Y-88495238D01*
X125920476Y-88590476D01*
X125825238Y-88638095D01*
X123008571Y-83064047D02*
X123129523Y-83124523D01*
X123371428Y-83124523D01*
X123492380Y-83064047D01*
X123552857Y-82943095D01*
X123552857Y-82882619D01*
X123492380Y-82761666D01*
X123371428Y-82701190D01*
X123190000Y-82701190D01*
X123069047Y-82640714D01*
X123008571Y-82519761D01*
X123008571Y-82459285D01*
X123069047Y-82338333D01*
X123190000Y-82277857D01*
X123371428Y-82277857D01*
X123492380Y-82338333D01*
X123976190Y-82277857D02*
X124218095Y-83124523D01*
X124460000Y-82519761D01*
X124701904Y-83124523D01*
X124943809Y-82277857D01*
X125427619Y-83124523D02*
X125427619Y-82277857D01*
X125427619Y-81854523D02*
X125367142Y-81915000D01*
X125427619Y-81975476D01*
X125488095Y-81915000D01*
X125427619Y-81854523D01*
X125427619Y-81975476D01*
X125850952Y-82277857D02*
X126334761Y-82277857D01*
X126032380Y-81854523D02*
X126032380Y-82943095D01*
X126092857Y-83064047D01*
X126213809Y-83124523D01*
X126334761Y-83124523D01*
X127302380Y-83064047D02*
X127181428Y-83124523D01*
X126939523Y-83124523D01*
X126818571Y-83064047D01*
X126758095Y-83003571D01*
X126697619Y-82882619D01*
X126697619Y-82519761D01*
X126758095Y-82398809D01*
X126818571Y-82338333D01*
X126939523Y-82277857D01*
X127181428Y-82277857D01*
X127302380Y-82338333D01*
X127846666Y-83124523D02*
X127846666Y-81854523D01*
X128390952Y-83124523D02*
X128390952Y-82459285D01*
X128330476Y-82338333D01*
X128209523Y-82277857D01*
X128028095Y-82277857D01*
X127907142Y-82338333D01*
X127846666Y-82398809D01*
X122940000Y-77059285D02*
X123404285Y-77059285D01*
X123154285Y-77345000D01*
X123261428Y-77345000D01*
X123332857Y-77380714D01*
X123368571Y-77416428D01*
X123404285Y-77487857D01*
X123404285Y-77666428D01*
X123368571Y-77737857D01*
X123332857Y-77773571D01*
X123261428Y-77809285D01*
X123047142Y-77809285D01*
X122975714Y-77773571D01*
X122940000Y-77737857D01*
X125515714Y-77130714D02*
X125551428Y-77095000D01*
X125622857Y-77059285D01*
X125801428Y-77059285D01*
X125872857Y-77095000D01*
X125908571Y-77130714D01*
X125944285Y-77202142D01*
X125944285Y-77273571D01*
X125908571Y-77380714D01*
X125480000Y-77809285D01*
X125944285Y-77809285D01*
X128484285Y-77809285D02*
X128055714Y-77809285D01*
X128270000Y-77809285D02*
X128270000Y-77059285D01*
X128198571Y-77166428D01*
X128127142Y-77237857D01*
X128055714Y-77273571D01*
%TO.C,U5*%
X112768095Y-140022380D02*
X112768095Y-140831904D01*
X112815714Y-140927142D01*
X112863333Y-140974761D01*
X112958571Y-141022380D01*
X113149047Y-141022380D01*
X113244285Y-140974761D01*
X113291904Y-140927142D01*
X113339523Y-140831904D01*
X113339523Y-140022380D01*
X114291904Y-140022380D02*
X113815714Y-140022380D01*
X113768095Y-140498571D01*
X113815714Y-140450952D01*
X113910952Y-140403333D01*
X114149047Y-140403333D01*
X114244285Y-140450952D01*
X114291904Y-140498571D01*
X114339523Y-140593809D01*
X114339523Y-140831904D01*
X114291904Y-140927142D01*
X114244285Y-140974761D01*
X114149047Y-141022380D01*
X113910952Y-141022380D01*
X113815714Y-140974761D01*
X113768095Y-140927142D01*
%TO.C,U2*%
X116078095Y-84792380D02*
X116078095Y-85601904D01*
X116125714Y-85697142D01*
X116173333Y-85744761D01*
X116268571Y-85792380D01*
X116459047Y-85792380D01*
X116554285Y-85744761D01*
X116601904Y-85697142D01*
X116649523Y-85601904D01*
X116649523Y-84792380D01*
X117078095Y-84887619D02*
X117125714Y-84840000D01*
X117220952Y-84792380D01*
X117459047Y-84792380D01*
X117554285Y-84840000D01*
X117601904Y-84887619D01*
X117649523Y-84982857D01*
X117649523Y-85078095D01*
X117601904Y-85220952D01*
X117030476Y-85792380D01*
X117649523Y-85792380D01*
X113625714Y-97992380D02*
X113625714Y-96992380D01*
X113863809Y-96992380D01*
X114006666Y-97040000D01*
X114101904Y-97135238D01*
X114149523Y-97230476D01*
X114197142Y-97420952D01*
X114197142Y-97563809D01*
X114149523Y-97754285D01*
X114101904Y-97849523D01*
X114006666Y-97944761D01*
X113863809Y-97992380D01*
X113625714Y-97992380D01*
X114578095Y-97944761D02*
X114720952Y-97992380D01*
X114959047Y-97992380D01*
X115054285Y-97944761D01*
X115101904Y-97897142D01*
X115149523Y-97801904D01*
X115149523Y-97706666D01*
X115101904Y-97611428D01*
X115054285Y-97563809D01*
X114959047Y-97516190D01*
X114768571Y-97468571D01*
X114673333Y-97420952D01*
X114625714Y-97373333D01*
X114578095Y-97278095D01*
X114578095Y-97182857D01*
X114625714Y-97087619D01*
X114673333Y-97040000D01*
X114768571Y-96992380D01*
X115006666Y-96992380D01*
X115149523Y-97040000D01*
X115482857Y-96992380D02*
X116101904Y-96992380D01*
X115768571Y-97373333D01*
X115911428Y-97373333D01*
X116006666Y-97420952D01*
X116054285Y-97468571D01*
X116101904Y-97563809D01*
X116101904Y-97801904D01*
X116054285Y-97897142D01*
X116006666Y-97944761D01*
X115911428Y-97992380D01*
X115625714Y-97992380D01*
X115530476Y-97944761D01*
X115482857Y-97897142D01*
X116482857Y-97087619D02*
X116530476Y-97040000D01*
X116625714Y-96992380D01*
X116863809Y-96992380D01*
X116959047Y-97040000D01*
X117006666Y-97087619D01*
X117054285Y-97182857D01*
X117054285Y-97278095D01*
X117006666Y-97420952D01*
X116435238Y-97992380D01*
X117054285Y-97992380D01*
X117387619Y-96992380D02*
X118006666Y-96992380D01*
X117673333Y-97373333D01*
X117816190Y-97373333D01*
X117911428Y-97420952D01*
X117959047Y-97468571D01*
X118006666Y-97563809D01*
X118006666Y-97801904D01*
X117959047Y-97897142D01*
X117911428Y-97944761D01*
X117816190Y-97992380D01*
X117530476Y-97992380D01*
X117435238Y-97944761D01*
X117387619Y-97897142D01*
X118959047Y-97992380D02*
X118387619Y-97992380D01*
X118673333Y-97992380D02*
X118673333Y-96992380D01*
X118578095Y-97135238D01*
X118482857Y-97230476D01*
X118387619Y-97278095D01*
X119387619Y-97992380D02*
X119387619Y-96992380D01*
X119720952Y-97706666D01*
X120054285Y-96992380D01*
X120054285Y-97992380D01*
%TO.C,R6*%
X136635833Y-119832380D02*
X136302500Y-119356190D01*
X136064404Y-119832380D02*
X136064404Y-118832380D01*
X136445357Y-118832380D01*
X136540595Y-118880000D01*
X136588214Y-118927619D01*
X136635833Y-119022857D01*
X136635833Y-119165714D01*
X136588214Y-119260952D01*
X136540595Y-119308571D01*
X136445357Y-119356190D01*
X136064404Y-119356190D01*
X137492976Y-118832380D02*
X137302500Y-118832380D01*
X137207261Y-118880000D01*
X137159642Y-118927619D01*
X137064404Y-119070476D01*
X137016785Y-119260952D01*
X137016785Y-119641904D01*
X137064404Y-119737142D01*
X137112023Y-119784761D01*
X137207261Y-119832380D01*
X137397738Y-119832380D01*
X137492976Y-119784761D01*
X137540595Y-119737142D01*
X137588214Y-119641904D01*
X137588214Y-119403809D01*
X137540595Y-119308571D01*
X137492976Y-119260952D01*
X137397738Y-119213333D01*
X137207261Y-119213333D01*
X137112023Y-119260952D01*
X137064404Y-119308571D01*
X137016785Y-119403809D01*
%TO.C,R5*%
X136443333Y-104592380D02*
X136110000Y-104116190D01*
X135871904Y-104592380D02*
X135871904Y-103592380D01*
X136252857Y-103592380D01*
X136348095Y-103640000D01*
X136395714Y-103687619D01*
X136443333Y-103782857D01*
X136443333Y-103925714D01*
X136395714Y-104020952D01*
X136348095Y-104068571D01*
X136252857Y-104116190D01*
X135871904Y-104116190D01*
X137348095Y-103592380D02*
X136871904Y-103592380D01*
X136824285Y-104068571D01*
X136871904Y-104020952D01*
X136967142Y-103973333D01*
X137205238Y-103973333D01*
X137300476Y-104020952D01*
X137348095Y-104068571D01*
X137395714Y-104163809D01*
X137395714Y-104401904D01*
X137348095Y-104497142D01*
X137300476Y-104544761D01*
X137205238Y-104592380D01*
X136967142Y-104592380D01*
X136871904Y-104544761D01*
X136824285Y-104497142D01*
%TO.C,D3*%
X140521904Y-90622380D02*
X140521904Y-89622380D01*
X140760000Y-89622380D01*
X140902857Y-89670000D01*
X140998095Y-89765238D01*
X141045714Y-89860476D01*
X141093333Y-90050952D01*
X141093333Y-90193809D01*
X141045714Y-90384285D01*
X140998095Y-90479523D01*
X140902857Y-90574761D01*
X140760000Y-90622380D01*
X140521904Y-90622380D01*
X141426666Y-89622380D02*
X142045714Y-89622380D01*
X141712380Y-90003333D01*
X141855238Y-90003333D01*
X141950476Y-90050952D01*
X141998095Y-90098571D01*
X142045714Y-90193809D01*
X142045714Y-90431904D01*
X141998095Y-90527142D01*
X141950476Y-90574761D01*
X141855238Y-90622380D01*
X141569523Y-90622380D01*
X141474285Y-90574761D01*
X141426666Y-90527142D01*
D12*
X136481428Y-85054285D02*
X136552857Y-85078095D01*
X136576666Y-85101904D01*
X136600476Y-85149523D01*
X136600476Y-85220952D01*
X136576666Y-85268571D01*
X136552857Y-85292380D01*
X136505238Y-85316190D01*
X136314761Y-85316190D01*
X136314761Y-84816190D01*
X136481428Y-84816190D01*
X136529047Y-84840000D01*
X136552857Y-84863809D01*
X136576666Y-84911428D01*
X136576666Y-84959047D01*
X136552857Y-85006666D01*
X136529047Y-85030476D01*
X136481428Y-85054285D01*
X136314761Y-85054285D01*
X136767142Y-84816190D02*
X137076666Y-84816190D01*
X136910000Y-85006666D01*
X136981428Y-85006666D01*
X137029047Y-85030476D01*
X137052857Y-85054285D01*
X137076666Y-85101904D01*
X137076666Y-85220952D01*
X137052857Y-85268571D01*
X137029047Y-85292380D01*
X136981428Y-85316190D01*
X136838571Y-85316190D01*
X136790952Y-85292380D01*
X136767142Y-85268571D01*
X137529047Y-84816190D02*
X137290952Y-84816190D01*
X137267142Y-85054285D01*
X137290952Y-85030476D01*
X137338571Y-85006666D01*
X137457619Y-85006666D01*
X137505238Y-85030476D01*
X137529047Y-85054285D01*
X137552857Y-85101904D01*
X137552857Y-85220952D01*
X137529047Y-85268571D01*
X137505238Y-85292380D01*
X137457619Y-85316190D01*
X137338571Y-85316190D01*
X137290952Y-85292380D01*
X137267142Y-85268571D01*
X137862380Y-84816190D02*
X137910000Y-84816190D01*
X137957619Y-84840000D01*
X137981428Y-84863809D01*
X138005238Y-84911428D01*
X138029047Y-85006666D01*
X138029047Y-85125714D01*
X138005238Y-85220952D01*
X137981428Y-85268571D01*
X137957619Y-85292380D01*
X137910000Y-85316190D01*
X137862380Y-85316190D01*
X137814761Y-85292380D01*
X137790952Y-85268571D01*
X137767142Y-85220952D01*
X137743333Y-85125714D01*
X137743333Y-85006666D01*
X137767142Y-84911428D01*
X137790952Y-84863809D01*
X137814761Y-84840000D01*
X137862380Y-84816190D01*
D14*
%TO.C,D2*%
X131631904Y-90622380D02*
X131631904Y-89622380D01*
X131870000Y-89622380D01*
X132012857Y-89670000D01*
X132108095Y-89765238D01*
X132155714Y-89860476D01*
X132203333Y-90050952D01*
X132203333Y-90193809D01*
X132155714Y-90384285D01*
X132108095Y-90479523D01*
X132012857Y-90574761D01*
X131870000Y-90622380D01*
X131631904Y-90622380D01*
X132584285Y-89717619D02*
X132631904Y-89670000D01*
X132727142Y-89622380D01*
X132965238Y-89622380D01*
X133060476Y-89670000D01*
X133108095Y-89717619D01*
X133155714Y-89812857D01*
X133155714Y-89908095D01*
X133108095Y-90050952D01*
X132536666Y-90622380D01*
X133155714Y-90622380D01*
D12*
X127591428Y-85054285D02*
X127662857Y-85078095D01*
X127686666Y-85101904D01*
X127710476Y-85149523D01*
X127710476Y-85220952D01*
X127686666Y-85268571D01*
X127662857Y-85292380D01*
X127615238Y-85316190D01*
X127424761Y-85316190D01*
X127424761Y-84816190D01*
X127591428Y-84816190D01*
X127639047Y-84840000D01*
X127662857Y-84863809D01*
X127686666Y-84911428D01*
X127686666Y-84959047D01*
X127662857Y-85006666D01*
X127639047Y-85030476D01*
X127591428Y-85054285D01*
X127424761Y-85054285D01*
X127877142Y-84816190D02*
X128186666Y-84816190D01*
X128020000Y-85006666D01*
X128091428Y-85006666D01*
X128139047Y-85030476D01*
X128162857Y-85054285D01*
X128186666Y-85101904D01*
X128186666Y-85220952D01*
X128162857Y-85268571D01*
X128139047Y-85292380D01*
X128091428Y-85316190D01*
X127948571Y-85316190D01*
X127900952Y-85292380D01*
X127877142Y-85268571D01*
X128377142Y-84863809D02*
X128400952Y-84840000D01*
X128448571Y-84816190D01*
X128567619Y-84816190D01*
X128615238Y-84840000D01*
X128639047Y-84863809D01*
X128662857Y-84911428D01*
X128662857Y-84959047D01*
X128639047Y-85030476D01*
X128353333Y-85316190D01*
X128662857Y-85316190D01*
X128972380Y-84816190D02*
X129020000Y-84816190D01*
X129067619Y-84840000D01*
X129091428Y-84863809D01*
X129115238Y-84911428D01*
X129139047Y-85006666D01*
X129139047Y-85125714D01*
X129115238Y-85220952D01*
X129091428Y-85268571D01*
X129067619Y-85292380D01*
X129020000Y-85316190D01*
X128972380Y-85316190D01*
X128924761Y-85292380D01*
X128900952Y-85268571D01*
X128877142Y-85220952D01*
X128853333Y-85125714D01*
X128853333Y-85006666D01*
X128877142Y-84911428D01*
X128900952Y-84863809D01*
X128924761Y-84840000D01*
X128972380Y-84816190D01*
D14*
%TO.C,A2*%
X125015714Y-99226666D02*
X125491904Y-99226666D01*
X124920476Y-99512380D02*
X125253809Y-98512380D01*
X125587142Y-99512380D01*
X125872857Y-98607619D02*
X125920476Y-98560000D01*
X126015714Y-98512380D01*
X126253809Y-98512380D01*
X126349047Y-98560000D01*
X126396666Y-98607619D01*
X126444285Y-98702857D01*
X126444285Y-98798095D01*
X126396666Y-98940952D01*
X125825238Y-99512380D01*
X126444285Y-99512380D01*
D15*
%TO.C,J2*%
X111700000Y-148590000D02*
X111700000Y-147480000D01*
X111700000Y-147480000D02*
X113030000Y-147480000D01*
X111700000Y-158680000D02*
X139760000Y-158680000D01*
X139760000Y-158680000D02*
X139760000Y-150050000D01*
X111700000Y-150050000D02*
X139760000Y-150050000D01*
X111700000Y-158680000D02*
X111700000Y-150050000D01*
X137160000Y-158680000D02*
X137160000Y-150050000D01*
X134620000Y-158680000D02*
X134620000Y-150050000D01*
X132080000Y-158680000D02*
X132080000Y-150050000D01*
X129540000Y-158680000D02*
X129540000Y-150050000D01*
X127000000Y-158680000D02*
X127000000Y-150050000D01*
X124460000Y-158680000D02*
X124460000Y-150050000D01*
X121920000Y-158680000D02*
X121920000Y-150050000D01*
X119380000Y-158680000D02*
X119380000Y-150050000D01*
X116840000Y-158680000D02*
X116840000Y-150050000D01*
X114300000Y-158680000D02*
X114300000Y-150050000D01*
X138790000Y-150050000D02*
X138790000Y-149640000D01*
X138070000Y-150050000D02*
X138070000Y-149640000D01*
X136250000Y-150050000D02*
X136250000Y-149640000D01*
X135530000Y-150050000D02*
X135530000Y-149640000D01*
X133710000Y-150050000D02*
X133710000Y-149640000D01*
X132990000Y-150050000D02*
X132990000Y-149640000D01*
X131170000Y-150050000D02*
X131170000Y-149640000D01*
X130450000Y-150050000D02*
X130450000Y-149640000D01*
X128630000Y-150050000D02*
X128630000Y-149640000D01*
X127910000Y-150050000D02*
X127910000Y-149640000D01*
X126090000Y-150050000D02*
X126090000Y-149640000D01*
X125370000Y-150050000D02*
X125370000Y-149640000D01*
X123550000Y-150050000D02*
X123550000Y-149640000D01*
X122830000Y-150050000D02*
X122830000Y-149640000D01*
X121010000Y-150050000D02*
X121010000Y-149640000D01*
X120290000Y-150050000D02*
X120290000Y-149640000D01*
X118470000Y-150050000D02*
X118470000Y-149640000D01*
X117750000Y-150050000D02*
X117750000Y-149640000D01*
X115930000Y-150050000D02*
X115930000Y-149640000D01*
X115210000Y-150050000D02*
X115210000Y-149640000D01*
X113390000Y-150050000D02*
X113390000Y-149700000D01*
X112670000Y-150050000D02*
X112670000Y-149700000D01*
X114181900Y-158680000D02*
X114181900Y-150050000D01*
X114063805Y-158680000D02*
X114063805Y-150050000D01*
X113945710Y-158680000D02*
X113945710Y-150050000D01*
X113827615Y-158680000D02*
X113827615Y-150050000D01*
X113709520Y-158680000D02*
X113709520Y-150050000D01*
X113591425Y-158680000D02*
X113591425Y-150050000D01*
X113473330Y-158680000D02*
X113473330Y-150050000D01*
X113355235Y-158680000D02*
X113355235Y-150050000D01*
X113237140Y-158680000D02*
X113237140Y-150050000D01*
X113119045Y-158680000D02*
X113119045Y-150050000D01*
X113000950Y-158680000D02*
X113000950Y-150050000D01*
X112882855Y-158680000D02*
X112882855Y-150050000D01*
X112764760Y-158680000D02*
X112764760Y-150050000D01*
X112646665Y-158680000D02*
X112646665Y-150050000D01*
X112528570Y-158680000D02*
X112528570Y-150050000D01*
X112410475Y-158680000D02*
X112410475Y-150050000D01*
X112292380Y-158680000D02*
X112292380Y-150050000D01*
X112174285Y-158680000D02*
X112174285Y-150050000D01*
X112056190Y-158680000D02*
X112056190Y-150050000D01*
X111938095Y-158680000D02*
X111938095Y-150050000D01*
X111820000Y-158680000D02*
X111820000Y-150050000D01*
%TO.C,U1*%
G36*
X119898010Y-121395530D02*
G01*
X120058767Y-121507663D01*
X120141326Y-121582706D01*
X120323506Y-121730767D01*
X120503549Y-121832373D01*
X120570372Y-121855459D01*
X120687299Y-121889942D01*
X120714999Y-121915898D01*
X120665270Y-121943016D01*
X120539283Y-121989621D01*
X120424036Y-122032523D01*
X120308375Y-122100871D01*
X120170924Y-122216170D01*
X120103392Y-122285184D01*
X119984194Y-122405291D01*
X119887755Y-122461624D01*
X119777035Y-122472797D01*
X119735397Y-122470118D01*
X119548618Y-122454469D01*
X119743371Y-122265863D01*
X119922293Y-122128353D01*
X120133353Y-122014785D01*
X120199894Y-121989113D01*
X120346816Y-121938043D01*
X120406848Y-121908005D01*
X120389785Y-121888160D01*
X120308958Y-121868422D01*
X120014989Y-121759842D01*
X119761763Y-121573396D01*
X119654296Y-121459946D01*
X119631994Y-121393173D01*
X119695016Y-121363738D01*
X119765382Y-121360080D01*
X119898010Y-121395530D01*
G37*
D16*
X119898010Y-121395530D02*
X120058767Y-121507663D01*
X120141326Y-121582706D01*
X120323506Y-121730767D01*
X120503549Y-121832373D01*
X120570372Y-121855459D01*
X120687299Y-121889942D01*
X120714999Y-121915898D01*
X120665270Y-121943016D01*
X120539283Y-121989621D01*
X120424036Y-122032523D01*
X120308375Y-122100871D01*
X120170924Y-122216170D01*
X120103392Y-122285184D01*
X119984194Y-122405291D01*
X119887755Y-122461624D01*
X119777035Y-122472797D01*
X119735397Y-122470118D01*
X119548618Y-122454469D01*
X119743371Y-122265863D01*
X119922293Y-122128353D01*
X120133353Y-122014785D01*
X120199894Y-121989113D01*
X120346816Y-121938043D01*
X120406848Y-121908005D01*
X120389785Y-121888160D01*
X120308958Y-121868422D01*
X120014989Y-121759842D01*
X119761763Y-121573396D01*
X119654296Y-121459946D01*
X119631994Y-121393173D01*
X119695016Y-121363738D01*
X119765382Y-121360080D01*
X119898010Y-121395530D01*
G36*
X120131139Y-120654710D02*
G01*
X120205197Y-120692175D01*
X120267622Y-120783395D01*
X120322002Y-120896500D01*
X120434194Y-121078152D01*
X120606368Y-121285931D01*
X120811602Y-121492941D01*
X121022975Y-121672281D01*
X121213565Y-121797055D01*
X121233008Y-121806725D01*
X121343740Y-121866498D01*
X121401123Y-121911085D01*
X121403346Y-121916790D01*
X121362382Y-121954909D01*
X121257553Y-122020967D01*
X121173689Y-122067459D01*
X120914792Y-122241290D01*
X120659871Y-122475173D01*
X120442938Y-122734848D01*
X120330001Y-122917306D01*
X120247221Y-123064228D01*
X120174072Y-123141871D01*
X120081102Y-123174958D01*
X120013595Y-123182893D01*
X119882361Y-123180045D01*
X119829903Y-123134719D01*
X119852335Y-123035030D01*
X119923006Y-122905829D01*
X120099576Y-122677535D01*
X120342189Y-122447039D01*
X120619358Y-122241326D01*
X120853287Y-122108642D01*
X121017451Y-122026865D01*
X121138356Y-121960636D01*
X121193198Y-121922569D01*
X121194319Y-121920000D01*
X121152188Y-121887066D01*
X121041553Y-121825425D01*
X120889867Y-121750119D01*
X120668565Y-121624317D01*
X120442945Y-121460364D01*
X120229837Y-121274849D01*
X120046075Y-121084364D01*
X119908489Y-120905500D01*
X119833910Y-120754845D01*
X119825391Y-120700885D01*
X119870351Y-120666560D01*
X119981856Y-120648344D01*
X120016570Y-120647455D01*
X120131139Y-120654710D01*
G37*
X120131139Y-120654710D02*
X120205197Y-120692175D01*
X120267622Y-120783395D01*
X120322002Y-120896500D01*
X120434194Y-121078152D01*
X120606368Y-121285931D01*
X120811602Y-121492941D01*
X121022975Y-121672281D01*
X121213565Y-121797055D01*
X121233008Y-121806725D01*
X121343740Y-121866498D01*
X121401123Y-121911085D01*
X121403346Y-121916790D01*
X121362382Y-121954909D01*
X121257553Y-122020967D01*
X121173689Y-122067459D01*
X120914792Y-122241290D01*
X120659871Y-122475173D01*
X120442938Y-122734848D01*
X120330001Y-122917306D01*
X120247221Y-123064228D01*
X120174072Y-123141871D01*
X120081102Y-123174958D01*
X120013595Y-123182893D01*
X119882361Y-123180045D01*
X119829903Y-123134719D01*
X119852335Y-123035030D01*
X119923006Y-122905829D01*
X120099576Y-122677535D01*
X120342189Y-122447039D01*
X120619358Y-122241326D01*
X120853287Y-122108642D01*
X121017451Y-122026865D01*
X121138356Y-121960636D01*
X121193198Y-121922569D01*
X121194319Y-121920000D01*
X121152188Y-121887066D01*
X121041553Y-121825425D01*
X120889867Y-121750119D01*
X120668565Y-121624317D01*
X120442945Y-121460364D01*
X120229837Y-121274849D01*
X120046075Y-121084364D01*
X119908489Y-120905500D01*
X119833910Y-120754845D01*
X119825391Y-120700885D01*
X119870351Y-120666560D01*
X119981856Y-120648344D01*
X120016570Y-120647455D01*
X120131139Y-120654710D01*
G36*
X120883277Y-120317040D02*
G01*
X120989126Y-120726261D01*
X121160588Y-121109821D01*
X121384635Y-121445344D01*
X121648238Y-121710448D01*
X121729371Y-121770383D01*
X121840730Y-121852373D01*
X121905430Y-121911888D01*
X121912017Y-121924124D01*
X121872489Y-121966450D01*
X121779296Y-122024915D01*
X121625794Y-122138424D01*
X121451394Y-122315614D01*
X121279622Y-122528568D01*
X121134003Y-122749368D01*
X121075383Y-122860218D01*
X120997541Y-123059975D01*
X120926188Y-123302238D01*
X120884561Y-123493549D01*
X120822705Y-123854269D01*
X120422032Y-123854269D01*
X120452640Y-123595831D01*
X120541955Y-123238259D01*
X120717901Y-122880330D01*
X120967195Y-122541208D01*
X121276553Y-122240058D01*
X121511007Y-122068947D01*
X121759340Y-121909593D01*
X121466391Y-121720250D01*
X121114905Y-121445505D01*
X120825440Y-121121952D01*
X120609563Y-120766434D01*
X120478841Y-120395793D01*
X120452640Y-120244169D01*
X120422032Y-119985732D01*
X120828377Y-119985732D01*
X120883277Y-120317040D01*
G37*
X120883277Y-120317040D02*
X120989126Y-120726261D01*
X121160588Y-121109821D01*
X121384635Y-121445344D01*
X121648238Y-121710448D01*
X121729371Y-121770383D01*
X121840730Y-121852373D01*
X121905430Y-121911888D01*
X121912017Y-121924124D01*
X121872489Y-121966450D01*
X121779296Y-122024915D01*
X121625794Y-122138424D01*
X121451394Y-122315614D01*
X121279622Y-122528568D01*
X121134003Y-122749368D01*
X121075383Y-122860218D01*
X120997541Y-123059975D01*
X120926188Y-123302238D01*
X120884561Y-123493549D01*
X120822705Y-123854269D01*
X120422032Y-123854269D01*
X120452640Y-123595831D01*
X120541955Y-123238259D01*
X120717901Y-122880330D01*
X120967195Y-122541208D01*
X121276553Y-122240058D01*
X121511007Y-122068947D01*
X121759340Y-121909593D01*
X121466391Y-121720250D01*
X121114905Y-121445505D01*
X120825440Y-121121952D01*
X120609563Y-120766434D01*
X120478841Y-120395793D01*
X120452640Y-120244169D01*
X120422032Y-119985732D01*
X120828377Y-119985732D01*
X120883277Y-120317040D01*
G36*
X121729314Y-119583475D02*
G01*
X121789139Y-119604768D01*
X121789391Y-119652025D01*
X121783224Y-119667595D01*
X121748894Y-119765121D01*
X121701564Y-119920463D01*
X121668857Y-120036633D01*
X121624982Y-120384179D01*
X121669636Y-120755964D01*
X121798079Y-121135428D01*
X122005570Y-121506009D01*
X122141392Y-121687581D01*
X122238995Y-121810426D01*
X122302900Y-121898038D01*
X122317668Y-121925243D01*
X122286319Y-121971958D01*
X122207945Y-122070037D01*
X122141466Y-122149058D01*
X121903462Y-122486583D01*
X121735151Y-122852596D01*
X121642368Y-123226677D01*
X121630946Y-123588405D01*
X121668857Y-123803367D01*
X121717839Y-123974672D01*
X121762275Y-124115440D01*
X121783224Y-124172405D01*
X121793713Y-124227003D01*
X121749464Y-124253421D01*
X121629473Y-124261286D01*
X121588911Y-124261483D01*
X121445394Y-124256774D01*
X121369147Y-124225538D01*
X121325640Y-124142107D01*
X121297864Y-124045151D01*
X121270708Y-123879126D01*
X121258329Y-123662472D01*
X121262168Y-123469721D01*
X121325691Y-123077613D01*
X121468999Y-122724035D01*
X121700739Y-122390866D01*
X121858290Y-122220439D01*
X122164040Y-121914690D01*
X121868967Y-121624659D01*
X121576713Y-121280497D01*
X121381079Y-120914332D01*
X121277710Y-120517141D01*
X121262418Y-120367495D01*
X121259067Y-120148562D01*
X121273437Y-119935565D01*
X121297864Y-119794850D01*
X121338712Y-119662521D01*
X121389347Y-119599448D01*
X121484298Y-119579964D01*
X121588911Y-119578517D01*
X121729314Y-119583475D01*
G37*
X121729314Y-119583475D02*
X121789139Y-119604768D01*
X121789391Y-119652025D01*
X121783224Y-119667595D01*
X121748894Y-119765121D01*
X121701564Y-119920463D01*
X121668857Y-120036633D01*
X121624982Y-120384179D01*
X121669636Y-120755964D01*
X121798079Y-121135428D01*
X122005570Y-121506009D01*
X122141392Y-121687581D01*
X122238995Y-121810426D01*
X122302900Y-121898038D01*
X122317668Y-121925243D01*
X122286319Y-121971958D01*
X122207945Y-122070037D01*
X122141466Y-122149058D01*
X121903462Y-122486583D01*
X121735151Y-122852596D01*
X121642368Y-123226677D01*
X121630946Y-123588405D01*
X121668857Y-123803367D01*
X121717839Y-123974672D01*
X121762275Y-124115440D01*
X121783224Y-124172405D01*
X121793713Y-124227003D01*
X121749464Y-124253421D01*
X121629473Y-124261286D01*
X121588911Y-124261483D01*
X121445394Y-124256774D01*
X121369147Y-124225538D01*
X121325640Y-124142107D01*
X121297864Y-124045151D01*
X121270708Y-123879126D01*
X121258329Y-123662472D01*
X121262168Y-123469721D01*
X121325691Y-123077613D01*
X121468999Y-122724035D01*
X121700739Y-122390866D01*
X121858290Y-122220439D01*
X122164040Y-121914690D01*
X121868967Y-121624659D01*
X121576713Y-121280497D01*
X121381079Y-120914332D01*
X121277710Y-120517141D01*
X121262418Y-120367495D01*
X121259067Y-120148562D01*
X121273437Y-119935565D01*
X121297864Y-119794850D01*
X121338712Y-119662521D01*
X121389347Y-119599448D01*
X121484298Y-119579964D01*
X121588911Y-119578517D01*
X121729314Y-119583475D01*
G36*
X122807826Y-119578780D02*
G01*
X122542420Y-119919599D01*
X122358893Y-120279885D01*
X122259046Y-120646978D01*
X122244684Y-121008216D01*
X122317607Y-121350939D01*
X122479620Y-121662486D01*
X122506048Y-121698373D01*
X122680436Y-121926835D01*
X122531092Y-122096929D01*
X122349680Y-122377039D01*
X122254020Y-122696905D01*
X122242504Y-123044018D01*
X122313521Y-123405864D01*
X122465463Y-123769934D01*
X122696720Y-124123715D01*
X122808923Y-124257157D01*
X123041638Y-124515992D01*
X122426944Y-124515992D01*
X122239792Y-124137317D01*
X122143271Y-123928689D01*
X122083172Y-123753033D01*
X122048451Y-123566901D01*
X122028063Y-123326846D01*
X122026363Y-123297767D01*
X122023195Y-122961982D01*
X122063045Y-122689255D01*
X122155231Y-122446579D01*
X122309070Y-122200949D01*
X122352403Y-122142857D01*
X122527042Y-121914068D01*
X122379383Y-121726152D01*
X122232780Y-121528774D01*
X122135241Y-121359897D01*
X122077047Y-121188667D01*
X122048479Y-120984227D01*
X122039818Y-120715722D01*
X122039619Y-120647455D01*
X122041619Y-120401735D01*
X122052101Y-120224664D01*
X122077783Y-120083102D01*
X122125386Y-119943910D01*
X122201630Y-119773948D01*
X122227992Y-119718497D01*
X122416365Y-119324008D01*
X123046135Y-119324008D01*
X122807826Y-119578780D01*
G37*
X122807826Y-119578780D02*
X122542420Y-119919599D01*
X122358893Y-120279885D01*
X122259046Y-120646978D01*
X122244684Y-121008216D01*
X122317607Y-121350939D01*
X122479620Y-121662486D01*
X122506048Y-121698373D01*
X122680436Y-121926835D01*
X122531092Y-122096929D01*
X122349680Y-122377039D01*
X122254020Y-122696905D01*
X122242504Y-123044018D01*
X122313521Y-123405864D01*
X122465463Y-123769934D01*
X122696720Y-124123715D01*
X122808923Y-124257157D01*
X123041638Y-124515992D01*
X122426944Y-124515992D01*
X122239792Y-124137317D01*
X122143271Y-123928689D01*
X122083172Y-123753033D01*
X122048451Y-123566901D01*
X122028063Y-123326846D01*
X122026363Y-123297767D01*
X122023195Y-122961982D01*
X122063045Y-122689255D01*
X122155231Y-122446579D01*
X122309070Y-122200949D01*
X122352403Y-122142857D01*
X122527042Y-121914068D01*
X122379383Y-121726152D01*
X122232780Y-121528774D01*
X122135241Y-121359897D01*
X122077047Y-121188667D01*
X122048479Y-120984227D01*
X122039818Y-120715722D01*
X122039619Y-120647455D01*
X122041619Y-120401735D01*
X122052101Y-120224664D01*
X122077783Y-120083102D01*
X122125386Y-119943910D01*
X122201630Y-119773948D01*
X122227992Y-119718497D01*
X122416365Y-119324008D01*
X123046135Y-119324008D01*
X122807826Y-119578780D01*
G36*
X123366912Y-120040614D02*
G01*
X123072018Y-120361080D01*
X122866435Y-120684043D01*
X122752215Y-121002826D01*
X122731412Y-121310750D01*
X122806077Y-121601137D01*
X122856790Y-121700213D01*
X122986786Y-121922035D01*
X122872083Y-122083119D01*
X122776021Y-122293080D01*
X122735858Y-122541759D01*
X122761902Y-122874908D01*
X122888662Y-123206178D01*
X123116527Y-123536339D01*
X123372194Y-123800476D01*
X123708651Y-124108778D01*
X123478036Y-124108778D01*
X123325614Y-124097803D01*
X123211692Y-124051075D01*
X123091085Y-123947890D01*
X123061444Y-123917896D01*
X122822951Y-123612451D01*
X122658779Y-123271036D01*
X122579687Y-122918306D01*
X122574088Y-122801017D01*
X122604539Y-122477753D01*
X122691105Y-122201638D01*
X122812976Y-122010941D01*
X122867831Y-121933901D01*
X122847595Y-121869737D01*
X122812976Y-121829059D01*
X122675013Y-121607325D01*
X122594912Y-121327377D01*
X122574790Y-121016184D01*
X122616763Y-120700715D01*
X122704429Y-120445931D01*
X122812539Y-120244527D01*
X122943965Y-120040805D01*
X123012750Y-119949638D01*
X123124225Y-119822829D01*
X123215970Y-119757791D01*
X123328344Y-119734115D01*
X123444689Y-119731223D01*
X123697652Y-119731223D01*
X123366912Y-120040614D01*
G37*
X123366912Y-120040614D02*
X123072018Y-120361080D01*
X122866435Y-120684043D01*
X122752215Y-121002826D01*
X122731412Y-121310750D01*
X122806077Y-121601137D01*
X122856790Y-121700213D01*
X122986786Y-121922035D01*
X122872083Y-122083119D01*
X122776021Y-122293080D01*
X122735858Y-122541759D01*
X122761902Y-122874908D01*
X122888662Y-123206178D01*
X123116527Y-123536339D01*
X123372194Y-123800476D01*
X123708651Y-124108778D01*
X123478036Y-124108778D01*
X123325614Y-124097803D01*
X123211692Y-124051075D01*
X123091085Y-123947890D01*
X123061444Y-123917896D01*
X122822951Y-123612451D01*
X122658779Y-123271036D01*
X122579687Y-122918306D01*
X122574088Y-122801017D01*
X122604539Y-122477753D01*
X122691105Y-122201638D01*
X122812976Y-122010941D01*
X122867831Y-121933901D01*
X122847595Y-121869737D01*
X122812976Y-121829059D01*
X122675013Y-121607325D01*
X122594912Y-121327377D01*
X122574790Y-121016184D01*
X122616763Y-120700715D01*
X122704429Y-120445931D01*
X122812539Y-120244527D01*
X122943965Y-120040805D01*
X123012750Y-119949638D01*
X123124225Y-119822829D01*
X123215970Y-119757791D01*
X123328344Y-119734115D01*
X123444689Y-119731223D01*
X123697652Y-119731223D01*
X123366912Y-120040614D01*
G36*
X123674864Y-120351319D02*
G01*
X123872084Y-120367495D01*
X123719378Y-120452230D01*
X123528871Y-120589450D01*
X123350636Y-120772616D01*
X123204203Y-120975502D01*
X123109102Y-121171883D01*
X123083106Y-121306651D01*
X123062253Y-121390727D01*
X123032204Y-121410982D01*
X122993808Y-121367110D01*
X122983004Y-121254670D01*
X122997551Y-121102431D01*
X123035209Y-120939159D01*
X123077805Y-120825611D01*
X123228947Y-120575653D01*
X123406697Y-120415951D01*
X123605283Y-120351091D01*
X123674864Y-120351319D01*
G37*
X123674864Y-120351319D02*
X123872084Y-120367495D01*
X123719378Y-120452230D01*
X123528871Y-120589450D01*
X123350636Y-120772616D01*
X123204203Y-120975502D01*
X123109102Y-121171883D01*
X123083106Y-121306651D01*
X123062253Y-121390727D01*
X123032204Y-121410982D01*
X122993808Y-121367110D01*
X122983004Y-121254670D01*
X122997551Y-121102431D01*
X123035209Y-120939159D01*
X123077805Y-120825611D01*
X123228947Y-120575653D01*
X123406697Y-120415951D01*
X123605283Y-120351091D01*
X123674864Y-120351319D01*
G36*
X123071890Y-122506782D02*
G01*
X123123665Y-122659668D01*
X123125629Y-122666953D01*
X123224249Y-122883269D01*
X123397543Y-123109459D01*
X123624563Y-123320455D01*
X123744829Y-123407889D01*
X123872084Y-123492616D01*
X123661674Y-123495286D01*
X123523483Y-123485711D01*
X123417938Y-123439038D01*
X123304367Y-123334748D01*
X123270573Y-123297952D01*
X123090695Y-123029509D01*
X122994582Y-122726138D01*
X122981586Y-122568998D01*
X122993765Y-122456629D01*
X123026228Y-122437496D01*
X123071890Y-122506782D01*
G37*
X123071890Y-122506782D02*
X123123665Y-122659668D01*
X123125629Y-122666953D01*
X123224249Y-122883269D01*
X123397543Y-123109459D01*
X123624563Y-123320455D01*
X123744829Y-123407889D01*
X123872084Y-123492616D01*
X123661674Y-123495286D01*
X123523483Y-123485711D01*
X123417938Y-123439038D01*
X123304367Y-123334748D01*
X123270573Y-123297952D01*
X123090695Y-123029509D01*
X122994582Y-122726138D01*
X122981586Y-122568998D01*
X122993765Y-122456629D01*
X123026228Y-122437496D01*
X123071890Y-122506782D01*
G36*
X123675643Y-121109897D02*
G01*
X123550865Y-121230526D01*
X123465253Y-121333934D01*
X123439419Y-121388887D01*
X123482246Y-121451265D01*
X123578836Y-121493694D01*
X123681352Y-121502657D01*
X123737824Y-121473218D01*
X123802498Y-121451447D01*
X123907945Y-121477114D01*
X124016249Y-121533068D01*
X124089495Y-121602156D01*
X124101142Y-121637583D01*
X124088944Y-121707046D01*
X124078086Y-121716393D01*
X124019973Y-121697510D01*
X123921736Y-121655660D01*
X123815783Y-121620722D01*
X123758342Y-121645528D01*
X123748575Y-121659431D01*
X123701587Y-121693737D01*
X123613109Y-121680333D01*
X123516486Y-121643619D01*
X123395271Y-121586162D01*
X123345456Y-121524533D01*
X123344222Y-121418621D01*
X123352217Y-121354885D01*
X123416852Y-121143283D01*
X123536909Y-120988379D01*
X123695689Y-120908684D01*
X123760869Y-120901964D01*
X123911868Y-120901964D01*
X123675643Y-121109897D01*
G37*
X123675643Y-121109897D02*
X123550865Y-121230526D01*
X123465253Y-121333934D01*
X123439419Y-121388887D01*
X123482246Y-121451265D01*
X123578836Y-121493694D01*
X123681352Y-121502657D01*
X123737824Y-121473218D01*
X123802498Y-121451447D01*
X123907945Y-121477114D01*
X124016249Y-121533068D01*
X124089495Y-121602156D01*
X124101142Y-121637583D01*
X124088944Y-121707046D01*
X124078086Y-121716393D01*
X124019973Y-121697510D01*
X123921736Y-121655660D01*
X123815783Y-121620722D01*
X123758342Y-121645528D01*
X123748575Y-121659431D01*
X123701587Y-121693737D01*
X123613109Y-121680333D01*
X123516486Y-121643619D01*
X123395271Y-121586162D01*
X123345456Y-121524533D01*
X123344222Y-121418621D01*
X123352217Y-121354885D01*
X123416852Y-121143283D01*
X123536909Y-120988379D01*
X123695689Y-120908684D01*
X123760869Y-120901964D01*
X123911868Y-120901964D01*
X123675643Y-121109897D01*
G36*
X124243667Y-120046814D02*
G01*
X124270825Y-120122157D01*
X124290908Y-120266401D01*
X124302933Y-120447972D01*
X124305919Y-120635297D01*
X124298881Y-120796801D01*
X124280837Y-120900911D01*
X124270815Y-120918931D01*
X124193614Y-120950911D01*
X124169011Y-120952866D01*
X124135724Y-120927603D01*
X124114673Y-120842206D01*
X124103836Y-120682261D01*
X124101142Y-120469299D01*
X124104530Y-120227770D01*
X124117232Y-120076611D01*
X124143055Y-120004537D01*
X124185806Y-120000262D01*
X124243667Y-120046814D01*
G37*
X124243667Y-120046814D02*
X124270825Y-120122157D01*
X124290908Y-120266401D01*
X124302933Y-120447972D01*
X124305919Y-120635297D01*
X124298881Y-120796801D01*
X124280837Y-120900911D01*
X124270815Y-120918931D01*
X124193614Y-120950911D01*
X124169011Y-120952866D01*
X124135724Y-120927603D01*
X124114673Y-120842206D01*
X124103836Y-120682261D01*
X124101142Y-120469299D01*
X124104530Y-120227770D01*
X124117232Y-120076611D01*
X124143055Y-120004537D01*
X124185806Y-120000262D01*
X124243667Y-120046814D01*
G36*
X124185513Y-122878104D02*
G01*
X124202946Y-122887134D01*
X124254724Y-122927357D01*
X124285458Y-122995149D01*
X124300373Y-123114018D01*
X124304692Y-123307472D01*
X124304749Y-123345251D01*
X124301594Y-123552230D01*
X124288644Y-123681017D01*
X124260676Y-123755120D01*
X124212466Y-123798046D01*
X124202946Y-123803367D01*
X124156915Y-123823273D01*
X124127378Y-123812629D01*
X124110683Y-123754995D01*
X124103175Y-123633932D01*
X124101202Y-123432997D01*
X124101142Y-123345251D01*
X124102081Y-123113980D01*
X124107334Y-122968070D01*
X124120555Y-122891081D01*
X124145397Y-122866573D01*
X124185513Y-122878104D01*
G37*
X124185513Y-122878104D02*
X124202946Y-122887134D01*
X124254724Y-122927357D01*
X124285458Y-122995149D01*
X124300373Y-123114018D01*
X124304692Y-123307472D01*
X124304749Y-123345251D01*
X124301594Y-123552230D01*
X124288644Y-123681017D01*
X124260676Y-123755120D01*
X124212466Y-123798046D01*
X124202946Y-123803367D01*
X124156915Y-123823273D01*
X124127378Y-123812629D01*
X124110683Y-123754995D01*
X124103175Y-123633932D01*
X124101202Y-123432997D01*
X124101142Y-123345251D01*
X124102081Y-123113980D01*
X124107334Y-122968070D01*
X124120555Y-122891081D01*
X124145397Y-122866573D01*
X124185513Y-122878104D01*
G36*
X126137214Y-117873307D02*
G01*
X126111763Y-117898758D01*
X126086312Y-117873307D01*
X126111763Y-117847856D01*
X126137214Y-117873307D01*
G37*
X126137214Y-117873307D02*
X126111763Y-117898758D01*
X126086312Y-117873307D01*
X126111763Y-117847856D01*
X126137214Y-117873307D01*
G36*
X126239018Y-117822405D02*
G01*
X126213567Y-117847856D01*
X126188116Y-117822405D01*
X126213567Y-117796954D01*
X126239018Y-117822405D01*
G37*
X126239018Y-117822405D02*
X126213567Y-117847856D01*
X126188116Y-117822405D01*
X126213567Y-117796954D01*
X126239018Y-117822405D01*
G36*
X126239018Y-117919574D02*
G01*
X126205355Y-117962100D01*
X126162665Y-118000561D01*
X126100657Y-118031534D01*
X126086312Y-118012240D01*
X126126971Y-117950984D01*
X126162665Y-117931252D01*
X126228926Y-117914718D01*
X126239018Y-117919574D01*
G37*
X126239018Y-117919574D02*
X126205355Y-117962100D01*
X126162665Y-118000561D01*
X126100657Y-118031534D01*
X126086312Y-118012240D01*
X126126971Y-117950984D01*
X126162665Y-117931252D01*
X126228926Y-117914718D01*
X126239018Y-117919574D01*
G36*
X126200841Y-118170457D02*
G01*
X126207236Y-118189036D01*
X126137214Y-118196131D01*
X126064952Y-118188132D01*
X126073587Y-118170457D01*
X126177801Y-118163734D01*
X126200841Y-118170457D01*
G37*
X126200841Y-118170457D02*
X126207236Y-118189036D01*
X126137214Y-118196131D01*
X126064952Y-118188132D01*
X126073587Y-118170457D01*
X126177801Y-118163734D01*
X126200841Y-118170457D01*
G36*
X125929725Y-118460859D02*
G01*
X126094749Y-118468868D01*
X126190305Y-118484907D01*
X126232529Y-118511175D01*
X126239018Y-118535030D01*
X126219838Y-118574206D01*
X126150247Y-118597717D01*
X126012169Y-118608952D01*
X125831803Y-118611383D01*
X125424589Y-118611383D01*
X125424589Y-118967696D01*
X125831803Y-118967696D01*
X126034695Y-118969821D01*
X126156293Y-118979610D01*
X126217075Y-119002183D01*
X126237519Y-119042658D01*
X126239018Y-119069499D01*
X126230516Y-119120222D01*
X126191359Y-119150622D01*
X126101070Y-119165817D01*
X125939169Y-119170928D01*
X125831803Y-119171303D01*
X125424589Y-119171303D01*
X125424589Y-119527615D01*
X125831803Y-119527615D01*
X126040742Y-119531212D01*
X126166133Y-119544260D01*
X126226054Y-119570150D01*
X126239018Y-119603968D01*
X126219838Y-119643144D01*
X126150247Y-119666655D01*
X126012169Y-119677890D01*
X125831803Y-119680321D01*
X125424589Y-119680321D01*
X125424589Y-120036633D01*
X125831803Y-120036633D01*
X126034695Y-120038759D01*
X126156293Y-120048548D01*
X126217075Y-120071121D01*
X126237519Y-120111596D01*
X126239018Y-120138437D01*
X126234388Y-120175953D01*
X126210894Y-120202910D01*
X126154131Y-120221049D01*
X126049694Y-120232110D01*
X125883178Y-120237834D01*
X125640179Y-120239960D01*
X125396349Y-120240241D01*
X124553680Y-120240241D01*
X124569195Y-120482024D01*
X124584709Y-120723808D01*
X125411863Y-120737794D01*
X125725983Y-120744469D01*
X125951683Y-120753187D01*
X126102343Y-120765387D01*
X126191345Y-120782512D01*
X126232069Y-120806002D01*
X126239018Y-120826872D01*
X126225367Y-120854065D01*
X126175802Y-120873975D01*
X126077405Y-120887660D01*
X125917258Y-120896179D01*
X125682442Y-120900591D01*
X125360040Y-120901955D01*
X125322785Y-120901964D01*
X124406553Y-120901964D01*
X124406553Y-120036633D01*
X125322785Y-120036633D01*
X125322785Y-119680321D01*
X124991924Y-119680321D01*
X124804809Y-119674894D01*
X124701034Y-119655928D01*
X124662583Y-119619398D01*
X124661062Y-119606397D01*
X124690011Y-119561782D01*
X124787607Y-119533744D01*
X124969976Y-119517768D01*
X124979198Y-119517319D01*
X125152749Y-119507026D01*
X125249258Y-119488251D01*
X125293374Y-119447672D01*
X125309745Y-119371967D01*
X125313285Y-119336734D01*
X125317531Y-119231450D01*
X125284997Y-119184204D01*
X125188860Y-119171750D01*
X125122403Y-119171303D01*
X124987912Y-119163046D01*
X124927898Y-119129549D01*
X124915571Y-119069499D01*
X124932645Y-119002896D01*
X125001657Y-118973459D01*
X125119178Y-118967696D01*
X125249541Y-118962302D01*
X125307474Y-118929000D01*
X125322330Y-118842109D01*
X125322785Y-118789539D01*
X125311397Y-118666750D01*
X125266940Y-118617207D01*
X125220982Y-118611383D01*
X125138073Y-118579556D01*
X125119178Y-118535030D01*
X125135172Y-118500854D01*
X125193909Y-118478351D01*
X125311526Y-118465320D01*
X125504159Y-118459562D01*
X125679098Y-118458678D01*
X125929725Y-118460859D01*
G37*
X125929725Y-118460859D02*
X126094749Y-118468868D01*
X126190305Y-118484907D01*
X126232529Y-118511175D01*
X126239018Y-118535030D01*
X126219838Y-118574206D01*
X126150247Y-118597717D01*
X126012169Y-118608952D01*
X125831803Y-118611383D01*
X125424589Y-118611383D01*
X125424589Y-118967696D01*
X125831803Y-118967696D01*
X126034695Y-118969821D01*
X126156293Y-118979610D01*
X126217075Y-119002183D01*
X126237519Y-119042658D01*
X126239018Y-119069499D01*
X126230516Y-119120222D01*
X126191359Y-119150622D01*
X126101070Y-119165817D01*
X125939169Y-119170928D01*
X125831803Y-119171303D01*
X125424589Y-119171303D01*
X125424589Y-119527615D01*
X125831803Y-119527615D01*
X126040742Y-119531212D01*
X126166133Y-119544260D01*
X126226054Y-119570150D01*
X126239018Y-119603968D01*
X126219838Y-119643144D01*
X126150247Y-119666655D01*
X126012169Y-119677890D01*
X125831803Y-119680321D01*
X125424589Y-119680321D01*
X125424589Y-120036633D01*
X125831803Y-120036633D01*
X126034695Y-120038759D01*
X126156293Y-120048548D01*
X126217075Y-120071121D01*
X126237519Y-120111596D01*
X126239018Y-120138437D01*
X126234388Y-120175953D01*
X126210894Y-120202910D01*
X126154131Y-120221049D01*
X126049694Y-120232110D01*
X125883178Y-120237834D01*
X125640179Y-120239960D01*
X125396349Y-120240241D01*
X124553680Y-120240241D01*
X124569195Y-120482024D01*
X124584709Y-120723808D01*
X125411863Y-120737794D01*
X125725983Y-120744469D01*
X125951683Y-120753187D01*
X126102343Y-120765387D01*
X126191345Y-120782512D01*
X126232069Y-120806002D01*
X126239018Y-120826872D01*
X126225367Y-120854065D01*
X126175802Y-120873975D01*
X126077405Y-120887660D01*
X125917258Y-120896179D01*
X125682442Y-120900591D01*
X125360040Y-120901955D01*
X125322785Y-120901964D01*
X124406553Y-120901964D01*
X124406553Y-120036633D01*
X125322785Y-120036633D01*
X125322785Y-119680321D01*
X124991924Y-119680321D01*
X124804809Y-119674894D01*
X124701034Y-119655928D01*
X124662583Y-119619398D01*
X124661062Y-119606397D01*
X124690011Y-119561782D01*
X124787607Y-119533744D01*
X124969976Y-119517768D01*
X124979198Y-119517319D01*
X125152749Y-119507026D01*
X125249258Y-119488251D01*
X125293374Y-119447672D01*
X125309745Y-119371967D01*
X125313285Y-119336734D01*
X125317531Y-119231450D01*
X125284997Y-119184204D01*
X125188860Y-119171750D01*
X125122403Y-119171303D01*
X124987912Y-119163046D01*
X124927898Y-119129549D01*
X124915571Y-119069499D01*
X124932645Y-119002896D01*
X125001657Y-118973459D01*
X125119178Y-118967696D01*
X125249541Y-118962302D01*
X125307474Y-118929000D01*
X125322330Y-118842109D01*
X125322785Y-118789539D01*
X125311397Y-118666750D01*
X125266940Y-118617207D01*
X125220982Y-118611383D01*
X125138073Y-118579556D01*
X125119178Y-118535030D01*
X125135172Y-118500854D01*
X125193909Y-118478351D01*
X125311526Y-118465320D01*
X125504159Y-118459562D01*
X125679098Y-118458678D01*
X125929725Y-118460859D01*
G36*
X125767080Y-121321904D02*
G01*
X125786453Y-121451070D01*
X125824210Y-121501144D01*
X125903588Y-121480166D01*
X126023915Y-121410792D01*
X126151267Y-121336630D01*
X126214884Y-121316326D01*
X126236616Y-121348605D01*
X126238626Y-121398257D01*
X126196469Y-121477473D01*
X126089186Y-121569629D01*
X126037659Y-121601864D01*
X125946459Y-121648701D01*
X125851747Y-121680790D01*
X125732266Y-121700862D01*
X125566756Y-121711645D01*
X125333961Y-121715870D01*
X125145635Y-121716393D01*
X124753924Y-121707748D01*
X124458114Y-121681165D01*
X124253724Y-121635673D01*
X124136274Y-121570301D01*
X124101142Y-121489932D01*
X124104602Y-121433870D01*
X124131693Y-121417358D01*
X124207482Y-121440102D01*
X124322349Y-121487335D01*
X124467472Y-121527071D01*
X124683369Y-121551833D01*
X124982827Y-121562849D01*
X125117543Y-121563688D01*
X125730000Y-121563688D01*
X125738556Y-121347355D01*
X125747113Y-121131022D01*
X125767080Y-121321904D01*
G37*
X125767080Y-121321904D02*
X125786453Y-121451070D01*
X125824210Y-121501144D01*
X125903588Y-121480166D01*
X126023915Y-121410792D01*
X126151267Y-121336630D01*
X126214884Y-121316326D01*
X126236616Y-121348605D01*
X126238626Y-121398257D01*
X126196469Y-121477473D01*
X126089186Y-121569629D01*
X126037659Y-121601864D01*
X125946459Y-121648701D01*
X125851747Y-121680790D01*
X125732266Y-121700862D01*
X125566756Y-121711645D01*
X125333961Y-121715870D01*
X125145635Y-121716393D01*
X124753924Y-121707748D01*
X124458114Y-121681165D01*
X124253724Y-121635673D01*
X124136274Y-121570301D01*
X124101142Y-121489932D01*
X124104602Y-121433870D01*
X124131693Y-121417358D01*
X124207482Y-121440102D01*
X124322349Y-121487335D01*
X124467472Y-121527071D01*
X124683369Y-121551833D01*
X124982827Y-121562849D01*
X125117543Y-121563688D01*
X125730000Y-121563688D01*
X125738556Y-121347355D01*
X125747113Y-121131022D01*
X125767080Y-121321904D01*
G36*
X125418955Y-122125097D02*
G01*
X125629388Y-122131239D01*
X125779296Y-122144543D01*
X125889307Y-122167519D01*
X125980048Y-122202676D01*
X126041205Y-122234784D01*
X126172798Y-122329695D01*
X126236416Y-122421066D01*
X126239018Y-122439426D01*
X126232647Y-122493735D01*
X126197282Y-122502918D01*
X126108549Y-122465841D01*
X126037438Y-122430053D01*
X125910446Y-122367821D01*
X125826160Y-122331264D01*
X125811453Y-122327215D01*
X125791072Y-122372130D01*
X125771102Y-122483515D01*
X125767080Y-122518096D01*
X125747113Y-122708978D01*
X125738556Y-122492645D01*
X125730000Y-122276313D01*
X125099944Y-122276313D01*
X124768856Y-122281891D01*
X124524645Y-122299532D01*
X124352951Y-122330593D01*
X124285515Y-122353349D01*
X124166584Y-122398648D01*
X124113769Y-122400263D01*
X124101186Y-122358096D01*
X124101142Y-122352666D01*
X124089882Y-122306241D01*
X124038588Y-122305673D01*
X123926820Y-122347783D01*
X123808988Y-122390831D01*
X123750793Y-122387736D01*
X123723968Y-122346271D01*
X123684666Y-122299282D01*
X123606511Y-122318753D01*
X123580154Y-122331914D01*
X123486970Y-122382299D01*
X123448020Y-122406103D01*
X123450492Y-122462909D01*
X123514517Y-122560296D01*
X123621846Y-122675632D01*
X123754228Y-122786287D01*
X123755112Y-122786928D01*
X123963711Y-122938036D01*
X123786790Y-122938036D01*
X123597684Y-122891929D01*
X123453401Y-122761925D01*
X123365958Y-122560500D01*
X123352490Y-122487153D01*
X123341381Y-122352178D01*
X123370951Y-122275424D01*
X123463890Y-122214910D01*
X123512376Y-122191328D01*
X123642431Y-122138904D01*
X123713693Y-122139990D01*
X123739335Y-122165620D01*
X123795623Y-122203326D01*
X123901376Y-122182449D01*
X123922986Y-122174509D01*
X124039004Y-122145120D01*
X124100497Y-122174267D01*
X124105999Y-122182368D01*
X124157358Y-122219172D01*
X124251154Y-122196137D01*
X124278048Y-122184341D01*
X124393346Y-122157348D01*
X124597546Y-122137678D01*
X124877947Y-122126239D01*
X125127368Y-122123607D01*
X125418955Y-122125097D01*
G37*
X125418955Y-122125097D02*
X125629388Y-122131239D01*
X125779296Y-122144543D01*
X125889307Y-122167519D01*
X125980048Y-122202676D01*
X126041205Y-122234784D01*
X126172798Y-122329695D01*
X126236416Y-122421066D01*
X126239018Y-122439426D01*
X126232647Y-122493735D01*
X126197282Y-122502918D01*
X126108549Y-122465841D01*
X126037438Y-122430053D01*
X125910446Y-122367821D01*
X125826160Y-122331264D01*
X125811453Y-122327215D01*
X125791072Y-122372130D01*
X125771102Y-122483515D01*
X125767080Y-122518096D01*
X125747113Y-122708978D01*
X125738556Y-122492645D01*
X125730000Y-122276313D01*
X125099944Y-122276313D01*
X124768856Y-122281891D01*
X124524645Y-122299532D01*
X124352951Y-122330593D01*
X124285515Y-122353349D01*
X124166584Y-122398648D01*
X124113769Y-122400263D01*
X124101186Y-122358096D01*
X124101142Y-122352666D01*
X124089882Y-122306241D01*
X124038588Y-122305673D01*
X123926820Y-122347783D01*
X123808988Y-122390831D01*
X123750793Y-122387736D01*
X123723968Y-122346271D01*
X123684666Y-122299282D01*
X123606511Y-122318753D01*
X123580154Y-122331914D01*
X123486970Y-122382299D01*
X123448020Y-122406103D01*
X123450492Y-122462909D01*
X123514517Y-122560296D01*
X123621846Y-122675632D01*
X123754228Y-122786287D01*
X123755112Y-122786928D01*
X123963711Y-122938036D01*
X123786790Y-122938036D01*
X123597684Y-122891929D01*
X123453401Y-122761925D01*
X123365958Y-122560500D01*
X123352490Y-122487153D01*
X123341381Y-122352178D01*
X123370951Y-122275424D01*
X123463890Y-122214910D01*
X123512376Y-122191328D01*
X123642431Y-122138904D01*
X123713693Y-122139990D01*
X123739335Y-122165620D01*
X123795623Y-122203326D01*
X123901376Y-122182449D01*
X123922986Y-122174509D01*
X124039004Y-122145120D01*
X124100497Y-122174267D01*
X124105999Y-122182368D01*
X124157358Y-122219172D01*
X124251154Y-122196137D01*
X124278048Y-122184341D01*
X124393346Y-122157348D01*
X124597546Y-122137678D01*
X124877947Y-122126239D01*
X125127368Y-122123607D01*
X125418955Y-122125097D01*
G36*
X125654581Y-122939155D02*
G01*
X125897509Y-122943217D01*
X126064487Y-122951282D01*
X126168433Y-122964407D01*
X126222266Y-122983652D01*
X126238902Y-123010075D01*
X126239018Y-123013128D01*
X126223996Y-123041899D01*
X126170012Y-123063301D01*
X126063682Y-123078777D01*
X125891627Y-123089766D01*
X125640465Y-123097710D01*
X125411863Y-123102206D01*
X124584709Y-123116193D01*
X124584709Y-123574309D01*
X125411863Y-123588295D01*
X125725983Y-123594970D01*
X125951683Y-123603688D01*
X126102343Y-123615888D01*
X126191345Y-123633013D01*
X126232069Y-123656503D01*
X126239018Y-123677373D01*
X126218855Y-123716035D01*
X126146535Y-123739232D01*
X126004311Y-123750238D01*
X125831803Y-123752465D01*
X125424589Y-123752465D01*
X125424589Y-124159680D01*
X125831803Y-124159680D01*
X126040742Y-124163276D01*
X126166133Y-124176324D01*
X126226054Y-124202214D01*
X126239018Y-124236032D01*
X126219838Y-124275208D01*
X126150247Y-124298719D01*
X126012169Y-124309954D01*
X125831803Y-124312385D01*
X125424589Y-124312385D01*
X125424589Y-124668698D01*
X125831803Y-124668698D01*
X126034695Y-124670823D01*
X126156293Y-124680612D01*
X126217075Y-124703185D01*
X126237519Y-124743660D01*
X126239018Y-124770501D01*
X126230516Y-124821224D01*
X126191359Y-124851624D01*
X126101070Y-124866819D01*
X125939169Y-124871930D01*
X125831803Y-124872305D01*
X125424589Y-124872305D01*
X125424589Y-125228617D01*
X125831803Y-125228617D01*
X126040742Y-125232214D01*
X126166133Y-125245262D01*
X126226054Y-125271152D01*
X126239018Y-125304970D01*
X126223024Y-125339147D01*
X126164287Y-125361650D01*
X126046669Y-125374680D01*
X125854037Y-125380438D01*
X125679098Y-125381323D01*
X125424417Y-125378711D01*
X125256580Y-125369632D01*
X125160727Y-125352215D01*
X125122004Y-125324593D01*
X125119178Y-125310907D01*
X125161825Y-125242536D01*
X125220982Y-125213869D01*
X125298828Y-125159068D01*
X125322760Y-125035702D01*
X125322785Y-125029776D01*
X125315162Y-124928848D01*
X125272810Y-124883983D01*
X125166503Y-124872580D01*
X125119178Y-124872305D01*
X124985971Y-124863768D01*
X124927098Y-124829262D01*
X124915571Y-124770501D01*
X124932645Y-124703898D01*
X125001657Y-124674461D01*
X125119178Y-124668698D01*
X125249541Y-124663304D01*
X125307474Y-124630002D01*
X125322330Y-124543111D01*
X125322785Y-124490541D01*
X125322785Y-124312385D01*
X124991924Y-124312385D01*
X124804809Y-124306958D01*
X124701034Y-124287992D01*
X124662583Y-124251462D01*
X124661062Y-124238461D01*
X124690011Y-124193846D01*
X124787607Y-124165808D01*
X124969976Y-124149832D01*
X124979198Y-124149383D01*
X125297334Y-124134229D01*
X125297334Y-123777916D01*
X124851944Y-123763209D01*
X124406553Y-123748502D01*
X124406553Y-122938036D01*
X125322785Y-122938036D01*
X125654581Y-122939155D01*
G37*
X125654581Y-122939155D02*
X125897509Y-122943217D01*
X126064487Y-122951282D01*
X126168433Y-122964407D01*
X126222266Y-122983652D01*
X126238902Y-123010075D01*
X126239018Y-123013128D01*
X126223996Y-123041899D01*
X126170012Y-123063301D01*
X126063682Y-123078777D01*
X125891627Y-123089766D01*
X125640465Y-123097710D01*
X125411863Y-123102206D01*
X124584709Y-123116193D01*
X124584709Y-123574309D01*
X125411863Y-123588295D01*
X125725983Y-123594970D01*
X125951683Y-123603688D01*
X126102343Y-123615888D01*
X126191345Y-123633013D01*
X126232069Y-123656503D01*
X126239018Y-123677373D01*
X126218855Y-123716035D01*
X126146535Y-123739232D01*
X126004311Y-123750238D01*
X125831803Y-123752465D01*
X125424589Y-123752465D01*
X125424589Y-124159680D01*
X125831803Y-124159680D01*
X126040742Y-124163276D01*
X126166133Y-124176324D01*
X126226054Y-124202214D01*
X126239018Y-124236032D01*
X126219838Y-124275208D01*
X126150247Y-124298719D01*
X126012169Y-124309954D01*
X125831803Y-124312385D01*
X125424589Y-124312385D01*
X125424589Y-124668698D01*
X125831803Y-124668698D01*
X126034695Y-124670823D01*
X126156293Y-124680612D01*
X126217075Y-124703185D01*
X126237519Y-124743660D01*
X126239018Y-124770501D01*
X126230516Y-124821224D01*
X126191359Y-124851624D01*
X126101070Y-124866819D01*
X125939169Y-124871930D01*
X125831803Y-124872305D01*
X125424589Y-124872305D01*
X125424589Y-125228617D01*
X125831803Y-125228617D01*
X126040742Y-125232214D01*
X126166133Y-125245262D01*
X126226054Y-125271152D01*
X126239018Y-125304970D01*
X126223024Y-125339147D01*
X126164287Y-125361650D01*
X126046669Y-125374680D01*
X125854037Y-125380438D01*
X125679098Y-125381323D01*
X125424417Y-125378711D01*
X125256580Y-125369632D01*
X125160727Y-125352215D01*
X125122004Y-125324593D01*
X125119178Y-125310907D01*
X125161825Y-125242536D01*
X125220982Y-125213869D01*
X125298828Y-125159068D01*
X125322760Y-125035702D01*
X125322785Y-125029776D01*
X125315162Y-124928848D01*
X125272810Y-124883983D01*
X125166503Y-124872580D01*
X125119178Y-124872305D01*
X124985971Y-124863768D01*
X124927098Y-124829262D01*
X124915571Y-124770501D01*
X124932645Y-124703898D01*
X125001657Y-124674461D01*
X125119178Y-124668698D01*
X125249541Y-124663304D01*
X125307474Y-124630002D01*
X125322330Y-124543111D01*
X125322785Y-124490541D01*
X125322785Y-124312385D01*
X124991924Y-124312385D01*
X124804809Y-124306958D01*
X124701034Y-124287992D01*
X124662583Y-124251462D01*
X124661062Y-124238461D01*
X124690011Y-124193846D01*
X124787607Y-124165808D01*
X124969976Y-124149832D01*
X124979198Y-124149383D01*
X125297334Y-124134229D01*
X125297334Y-123777916D01*
X124851944Y-123763209D01*
X124406553Y-123748502D01*
X124406553Y-122938036D01*
X125322785Y-122938036D01*
X125654581Y-122939155D01*
G36*
X127600088Y-114688091D02*
G01*
X127536754Y-114761013D01*
X127521217Y-114772354D01*
X127431684Y-114884600D01*
X127409759Y-115025692D01*
X127414813Y-115133388D01*
X127448443Y-115184386D01*
X127538352Y-115199884D01*
X127638817Y-115200962D01*
X127783208Y-115193635D01*
X127851272Y-115164853D01*
X127867875Y-115106937D01*
X127826217Y-115014448D01*
X127753346Y-114957677D01*
X127699154Y-114925463D01*
X127717114Y-114908793D01*
X127819370Y-114902874D01*
X127893326Y-114902441D01*
X128036086Y-114905176D01*
X128089261Y-114916575D01*
X128064995Y-114941431D01*
X128033306Y-114957677D01*
X127945121Y-115034408D01*
X127918777Y-115106937D01*
X127961579Y-115169973D01*
X128065917Y-115203802D01*
X128195691Y-115208049D01*
X128314802Y-115182335D01*
X128387151Y-115126284D01*
X128392707Y-115111884D01*
X128405087Y-115107674D01*
X128413530Y-115187374D01*
X128415986Y-115302766D01*
X128412397Y-115437918D01*
X128403084Y-115503816D01*
X128392707Y-115493647D01*
X128368826Y-115451352D01*
X128311051Y-115424803D01*
X128199945Y-115410533D01*
X128016074Y-115405076D01*
X127893326Y-115404569D01*
X127666639Y-115406969D01*
X127522254Y-115416481D01*
X127440736Y-115436571D01*
X127402651Y-115470706D01*
X127393945Y-115493647D01*
X127383127Y-115487628D01*
X127373578Y-115397096D01*
X127366727Y-115239343D01*
X127364762Y-115140765D01*
X127363916Y-114926311D01*
X127371362Y-114792209D01*
X127391585Y-114717080D01*
X127429069Y-114679543D01*
X127464497Y-114665276D01*
X127573031Y-114650568D01*
X127600088Y-114688091D01*
G37*
X127600088Y-114688091D02*
X127536754Y-114761013D01*
X127521217Y-114772354D01*
X127431684Y-114884600D01*
X127409759Y-115025692D01*
X127414813Y-115133388D01*
X127448443Y-115184386D01*
X127538352Y-115199884D01*
X127638817Y-115200962D01*
X127783208Y-115193635D01*
X127851272Y-115164853D01*
X127867875Y-115106937D01*
X127826217Y-115014448D01*
X127753346Y-114957677D01*
X127699154Y-114925463D01*
X127717114Y-114908793D01*
X127819370Y-114902874D01*
X127893326Y-114902441D01*
X128036086Y-114905176D01*
X128089261Y-114916575D01*
X128064995Y-114941431D01*
X128033306Y-114957677D01*
X127945121Y-115034408D01*
X127918777Y-115106937D01*
X127961579Y-115169973D01*
X128065917Y-115203802D01*
X128195691Y-115208049D01*
X128314802Y-115182335D01*
X128387151Y-115126284D01*
X128392707Y-115111884D01*
X128405087Y-115107674D01*
X128413530Y-115187374D01*
X128415986Y-115302766D01*
X128412397Y-115437918D01*
X128403084Y-115503816D01*
X128392707Y-115493647D01*
X128368826Y-115451352D01*
X128311051Y-115424803D01*
X128199945Y-115410533D01*
X128016074Y-115405076D01*
X127893326Y-115404569D01*
X127666639Y-115406969D01*
X127522254Y-115416481D01*
X127440736Y-115436571D01*
X127402651Y-115470706D01*
X127393945Y-115493647D01*
X127383127Y-115487628D01*
X127373578Y-115397096D01*
X127366727Y-115239343D01*
X127364762Y-115140765D01*
X127363916Y-114926311D01*
X127371362Y-114792209D01*
X127391585Y-114717080D01*
X127429069Y-114679543D01*
X127464497Y-114665276D01*
X127573031Y-114650568D01*
X127600088Y-114688091D01*
G36*
X127397813Y-117727503D02*
G01*
X127459368Y-117782777D01*
X127580979Y-117867306D01*
X127704685Y-117943836D01*
X127911884Y-118043505D01*
X128105090Y-118097181D01*
X128263719Y-118102786D01*
X128367190Y-118058243D01*
X128392707Y-118013287D01*
X128404507Y-118011149D01*
X128412522Y-118092866D01*
X128414959Y-118229619D01*
X128411339Y-118369100D01*
X128402867Y-118437043D01*
X128391872Y-118420501D01*
X128354936Y-118339861D01*
X128265801Y-118308781D01*
X128195962Y-118305972D01*
X128052733Y-118335137D01*
X127866442Y-118410336D01*
X127672808Y-118513122D01*
X127507549Y-118625052D01*
X127422485Y-118705400D01*
X127385020Y-118735970D01*
X127366561Y-118698277D01*
X127361996Y-118577560D01*
X127362435Y-118532034D01*
X127370293Y-118405278D01*
X127386745Y-118351101D01*
X127400611Y-118364146D01*
X127430694Y-118406557D01*
X127485376Y-118406262D01*
X127588475Y-118358485D01*
X127677142Y-118308689D01*
X127919074Y-118169608D01*
X127668349Y-118033146D01*
X127524932Y-117958487D01*
X127446102Y-117931565D01*
X127408714Y-117948469D01*
X127394145Y-117986799D01*
X127378952Y-117999701D01*
X127367960Y-117927299D01*
X127365542Y-117873307D01*
X127370241Y-117761113D01*
X127388118Y-117719489D01*
X127397813Y-117727503D01*
G37*
X127397813Y-117727503D02*
X127459368Y-117782777D01*
X127580979Y-117867306D01*
X127704685Y-117943836D01*
X127911884Y-118043505D01*
X128105090Y-118097181D01*
X128263719Y-118102786D01*
X128367190Y-118058243D01*
X128392707Y-118013287D01*
X128404507Y-118011149D01*
X128412522Y-118092866D01*
X128414959Y-118229619D01*
X128411339Y-118369100D01*
X128402867Y-118437043D01*
X128391872Y-118420501D01*
X128354936Y-118339861D01*
X128265801Y-118308781D01*
X128195962Y-118305972D01*
X128052733Y-118335137D01*
X127866442Y-118410336D01*
X127672808Y-118513122D01*
X127507549Y-118625052D01*
X127422485Y-118705400D01*
X127385020Y-118735970D01*
X127366561Y-118698277D01*
X127361996Y-118577560D01*
X127362435Y-118532034D01*
X127370293Y-118405278D01*
X127386745Y-118351101D01*
X127400611Y-118364146D01*
X127430694Y-118406557D01*
X127485376Y-118406262D01*
X127588475Y-118358485D01*
X127677142Y-118308689D01*
X127919074Y-118169608D01*
X127668349Y-118033146D01*
X127524932Y-117958487D01*
X127446102Y-117931565D01*
X127408714Y-117948469D01*
X127394145Y-117986799D01*
X127378952Y-117999701D01*
X127367960Y-117927299D01*
X127365542Y-117873307D01*
X127370241Y-117761113D01*
X127388118Y-117719489D01*
X127397813Y-117727503D01*
G36*
X127632619Y-119028764D02*
G01*
X127653998Y-119058139D01*
X127575277Y-119105034D01*
X127537014Y-119120401D01*
X127433743Y-119197355D01*
X127409759Y-119271847D01*
X127416836Y-119319881D01*
X127450718Y-119350127D01*
X127530383Y-119366663D01*
X127674809Y-119373565D01*
X127889594Y-119374910D01*
X128117283Y-119372543D01*
X128262594Y-119363158D01*
X128344890Y-119343326D01*
X128383532Y-119309618D01*
X128392707Y-119285832D01*
X128405087Y-119281622D01*
X128413530Y-119361322D01*
X128415986Y-119476714D01*
X128412397Y-119611866D01*
X128403084Y-119677764D01*
X128392707Y-119667595D01*
X128368943Y-119625441D01*
X128311456Y-119598920D01*
X128200885Y-119584605D01*
X128017867Y-119579067D01*
X127889594Y-119578517D01*
X127665961Y-119580037D01*
X127525140Y-119587315D01*
X127448153Y-119604426D01*
X127416022Y-119635447D01*
X127409759Y-119681581D01*
X127456296Y-119782913D01*
X127537014Y-119833026D01*
X127642700Y-119884341D01*
X127648173Y-119918588D01*
X127553855Y-119934081D01*
X127511563Y-119934830D01*
X127358857Y-119934830D01*
X127358857Y-119018597D01*
X127511563Y-119018597D01*
X127632619Y-119028764D01*
G37*
X127632619Y-119028764D02*
X127653998Y-119058139D01*
X127575277Y-119105034D01*
X127537014Y-119120401D01*
X127433743Y-119197355D01*
X127409759Y-119271847D01*
X127416836Y-119319881D01*
X127450718Y-119350127D01*
X127530383Y-119366663D01*
X127674809Y-119373565D01*
X127889594Y-119374910D01*
X128117283Y-119372543D01*
X128262594Y-119363158D01*
X128344890Y-119343326D01*
X128383532Y-119309618D01*
X128392707Y-119285832D01*
X128405087Y-119281622D01*
X128413530Y-119361322D01*
X128415986Y-119476714D01*
X128412397Y-119611866D01*
X128403084Y-119677764D01*
X128392707Y-119667595D01*
X128368943Y-119625441D01*
X128311456Y-119598920D01*
X128200885Y-119584605D01*
X128017867Y-119579067D01*
X127889594Y-119578517D01*
X127665961Y-119580037D01*
X127525140Y-119587315D01*
X127448153Y-119604426D01*
X127416022Y-119635447D01*
X127409759Y-119681581D01*
X127456296Y-119782913D01*
X127537014Y-119833026D01*
X127642700Y-119884341D01*
X127648173Y-119918588D01*
X127553855Y-119934081D01*
X127511563Y-119934830D01*
X127358857Y-119934830D01*
X127358857Y-119018597D01*
X127511563Y-119018597D01*
X127632619Y-119028764D01*
G36*
X127411380Y-120248823D02*
G01*
X127413836Y-120252966D01*
X127455611Y-120296858D01*
X127532554Y-120323840D01*
X127665734Y-120337639D01*
X127876218Y-120341979D01*
X127917574Y-120342044D01*
X128137679Y-120339406D01*
X128275988Y-120328999D01*
X128352431Y-120307087D01*
X128386936Y-120269936D01*
X128392707Y-120252966D01*
X128405889Y-120246423D01*
X128415157Y-120323974D01*
X128417872Y-120418397D01*
X128414533Y-120549416D01*
X128403935Y-120613845D01*
X128394084Y-120609279D01*
X128339468Y-120575506D01*
X128202826Y-120554798D01*
X127975746Y-120546087D01*
X127893326Y-120545652D01*
X127638941Y-120551141D01*
X127477391Y-120568322D01*
X127400263Y-120598264D01*
X127392569Y-120609279D01*
X127377830Y-120601223D01*
X127367424Y-120512445D01*
X127364424Y-120418397D01*
X127367312Y-120274942D01*
X127381879Y-120222049D01*
X127411380Y-120248823D01*
G37*
X127411380Y-120248823D02*
X127413836Y-120252966D01*
X127455611Y-120296858D01*
X127532554Y-120323840D01*
X127665734Y-120337639D01*
X127876218Y-120341979D01*
X127917574Y-120342044D01*
X128137679Y-120339406D01*
X128275988Y-120328999D01*
X128352431Y-120307087D01*
X128386936Y-120269936D01*
X128392707Y-120252966D01*
X128405889Y-120246423D01*
X128415157Y-120323974D01*
X128417872Y-120418397D01*
X128414533Y-120549416D01*
X128403935Y-120613845D01*
X128394084Y-120609279D01*
X128339468Y-120575506D01*
X128202826Y-120554798D01*
X127975746Y-120546087D01*
X127893326Y-120545652D01*
X127638941Y-120551141D01*
X127477391Y-120568322D01*
X127400263Y-120598264D01*
X127392569Y-120609279D01*
X127377830Y-120601223D01*
X127367424Y-120512445D01*
X127364424Y-120418397D01*
X127367312Y-120274942D01*
X127381879Y-120222049D01*
X127411380Y-120248823D01*
G36*
X127477391Y-122858903D02*
G01*
X127400263Y-122888845D01*
X127392569Y-122899860D01*
X127379672Y-122885637D01*
X127369235Y-122789532D01*
X127363258Y-122631465D01*
X127362876Y-122604178D01*
X127366005Y-122515551D01*
X127409759Y-122515551D01*
X127420973Y-122588030D01*
X127472576Y-122622365D01*
X127591510Y-122632328D01*
X127638817Y-122632625D01*
X127797996Y-122616923D01*
X127867039Y-122562152D01*
X127853812Y-122456813D01*
X127815183Y-122374770D01*
X127723379Y-122296532D01*
X127594902Y-122280198D01*
X127477626Y-122330963D01*
X127470841Y-122337395D01*
X127421529Y-122434901D01*
X127409759Y-122515551D01*
X127366005Y-122515551D01*
X127370834Y-122378739D01*
X127398156Y-122215970D01*
X127424995Y-122154420D01*
X127527888Y-122088769D01*
X127663081Y-122085953D01*
X127786818Y-122141139D01*
X127837291Y-122199960D01*
X127895305Y-122301617D01*
X127926359Y-122331795D01*
X127952595Y-122308198D01*
X127959721Y-122297837D01*
X128021577Y-122238071D01*
X128132904Y-122152028D01*
X128173286Y-122123607D01*
X128293485Y-122034886D01*
X128376246Y-121962637D01*
X128388840Y-121947904D01*
X128414320Y-121952821D01*
X128426017Y-122036570D01*
X128426101Y-122047255D01*
X128411194Y-122145697D01*
X128353119Y-122230196D01*
X128231547Y-122326181D01*
X128170411Y-122367080D01*
X128040184Y-122462713D01*
X127959558Y-122542656D01*
X127945272Y-122583412D01*
X128011412Y-122615104D01*
X128137134Y-122631844D01*
X128172558Y-122632625D01*
X128316165Y-122617695D01*
X128383908Y-122566877D01*
X128392707Y-122543547D01*
X128405889Y-122537004D01*
X128415157Y-122614555D01*
X128417872Y-122708978D01*
X128414533Y-122839997D01*
X128403935Y-122904426D01*
X128394084Y-122899860D01*
X128339468Y-122866087D01*
X128202826Y-122845379D01*
X127975746Y-122836668D01*
X127893326Y-122836233D01*
X127638941Y-122841722D01*
X127638817Y-122841735D01*
X127477391Y-122858903D01*
G37*
X127477391Y-122858903D02*
X127400263Y-122888845D01*
X127392569Y-122899860D01*
X127379672Y-122885637D01*
X127369235Y-122789532D01*
X127363258Y-122631465D01*
X127362876Y-122604178D01*
X127366005Y-122515551D01*
X127409759Y-122515551D01*
X127420973Y-122588030D01*
X127472576Y-122622365D01*
X127591510Y-122632328D01*
X127638817Y-122632625D01*
X127797996Y-122616923D01*
X127867039Y-122562152D01*
X127853812Y-122456813D01*
X127815183Y-122374770D01*
X127723379Y-122296532D01*
X127594902Y-122280198D01*
X127477626Y-122330963D01*
X127470841Y-122337395D01*
X127421529Y-122434901D01*
X127409759Y-122515551D01*
X127366005Y-122515551D01*
X127370834Y-122378739D01*
X127398156Y-122215970D01*
X127424995Y-122154420D01*
X127527888Y-122088769D01*
X127663081Y-122085953D01*
X127786818Y-122141139D01*
X127837291Y-122199960D01*
X127895305Y-122301617D01*
X127926359Y-122331795D01*
X127952595Y-122308198D01*
X127959721Y-122297837D01*
X128021577Y-122238071D01*
X128132904Y-122152028D01*
X128173286Y-122123607D01*
X128293485Y-122034886D01*
X128376246Y-121962637D01*
X128388840Y-121947904D01*
X128414320Y-121952821D01*
X128426017Y-122036570D01*
X128426101Y-122047255D01*
X128411194Y-122145697D01*
X128353119Y-122230196D01*
X128231547Y-122326181D01*
X128170411Y-122367080D01*
X128040184Y-122462713D01*
X127959558Y-122542656D01*
X127945272Y-122583412D01*
X128011412Y-122615104D01*
X128137134Y-122631844D01*
X128172558Y-122632625D01*
X128316165Y-122617695D01*
X128383908Y-122566877D01*
X128392707Y-122543547D01*
X128405889Y-122537004D01*
X128415157Y-122614555D01*
X128417872Y-122708978D01*
X128414533Y-122839997D01*
X128403935Y-122904426D01*
X128394084Y-122899860D01*
X128339468Y-122866087D01*
X128202826Y-122845379D01*
X127975746Y-122836668D01*
X127893326Y-122836233D01*
X127638941Y-122841722D01*
X127638817Y-122841735D01*
X127477391Y-122858903D01*
G36*
X128253802Y-123212550D02*
G01*
X128350778Y-123240017D01*
X128381057Y-123243447D01*
X128401738Y-123290493D01*
X128417356Y-123416280D01*
X128425575Y-123597783D01*
X128426247Y-123688838D01*
X128422275Y-123904280D01*
X128411338Y-124026688D01*
X128392144Y-124064673D01*
X128372816Y-124045151D01*
X128329458Y-124000126D01*
X128249354Y-123972954D01*
X128110844Y-123959611D01*
X127893326Y-123956072D01*
X127675113Y-123959642D01*
X127536879Y-123973032D01*
X127456964Y-124000267D01*
X127413836Y-124045151D01*
X127388003Y-124061830D01*
X127371342Y-124000195D01*
X127362562Y-123851635D01*
X127360405Y-123688838D01*
X127358857Y-123243447D01*
X127638817Y-123245711D01*
X127520352Y-123336845D01*
X127435095Y-123434279D01*
X127415898Y-123566654D01*
X127418548Y-123602948D01*
X127439080Y-123718972D01*
X127492669Y-123772054D01*
X127612336Y-123792546D01*
X127626092Y-123793714D01*
X127751140Y-123797282D01*
X127804948Y-123767998D01*
X127816940Y-123688207D01*
X127816974Y-123679185D01*
X127790954Y-123574539D01*
X127740621Y-123548858D01*
X127672882Y-123521372D01*
X127664268Y-123497956D01*
X127709426Y-123466081D01*
X127822235Y-123448352D01*
X127867875Y-123447054D01*
X127995375Y-123458344D01*
X128066291Y-123486546D01*
X128071483Y-123497956D01*
X128030254Y-123543115D01*
X127995130Y-123548858D01*
X127933818Y-123593263D01*
X127918777Y-123679039D01*
X127927242Y-123760079D01*
X127971297Y-123794546D01*
X128078933Y-123797256D01*
X128135110Y-123793568D01*
X128271023Y-123778690D01*
X128335818Y-123740379D01*
X128359970Y-123648695D01*
X128366885Y-123565876D01*
X128368293Y-123425025D01*
X128337875Y-123352429D01*
X128277807Y-123320662D01*
X128194051Y-123272724D01*
X128173286Y-123234571D01*
X128210764Y-123204285D01*
X128253802Y-123212550D01*
G37*
X128253802Y-123212550D02*
X128350778Y-123240017D01*
X128381057Y-123243447D01*
X128401738Y-123290493D01*
X128417356Y-123416280D01*
X128425575Y-123597783D01*
X128426247Y-123688838D01*
X128422275Y-123904280D01*
X128411338Y-124026688D01*
X128392144Y-124064673D01*
X128372816Y-124045151D01*
X128329458Y-124000126D01*
X128249354Y-123972954D01*
X128110844Y-123959611D01*
X127893326Y-123956072D01*
X127675113Y-123959642D01*
X127536879Y-123973032D01*
X127456964Y-124000267D01*
X127413836Y-124045151D01*
X127388003Y-124061830D01*
X127371342Y-124000195D01*
X127362562Y-123851635D01*
X127360405Y-123688838D01*
X127358857Y-123243447D01*
X127638817Y-123245711D01*
X127520352Y-123336845D01*
X127435095Y-123434279D01*
X127415898Y-123566654D01*
X127418548Y-123602948D01*
X127439080Y-123718972D01*
X127492669Y-123772054D01*
X127612336Y-123792546D01*
X127626092Y-123793714D01*
X127751140Y-123797282D01*
X127804948Y-123767998D01*
X127816940Y-123688207D01*
X127816974Y-123679185D01*
X127790954Y-123574539D01*
X127740621Y-123548858D01*
X127672882Y-123521372D01*
X127664268Y-123497956D01*
X127709426Y-123466081D01*
X127822235Y-123448352D01*
X127867875Y-123447054D01*
X127995375Y-123458344D01*
X128066291Y-123486546D01*
X128071483Y-123497956D01*
X128030254Y-123543115D01*
X127995130Y-123548858D01*
X127933818Y-123593263D01*
X127918777Y-123679039D01*
X127927242Y-123760079D01*
X127971297Y-123794546D01*
X128078933Y-123797256D01*
X128135110Y-123793568D01*
X128271023Y-123778690D01*
X128335818Y-123740379D01*
X128359970Y-123648695D01*
X128366885Y-123565876D01*
X128368293Y-123425025D01*
X128337875Y-123352429D01*
X128277807Y-123320662D01*
X128194051Y-123272724D01*
X128173286Y-123234571D01*
X128210764Y-123204285D01*
X128253802Y-123212550D01*
G36*
X128419700Y-125816245D02*
G01*
X128424679Y-125952626D01*
X128424700Y-125966694D01*
X128420413Y-126110201D01*
X128405236Y-126163261D01*
X128375691Y-126136958D01*
X128372816Y-126132124D01*
X128329458Y-126087100D01*
X128249354Y-126059928D01*
X128110844Y-126046585D01*
X127893326Y-126043046D01*
X127675113Y-126046616D01*
X127536879Y-126060006D01*
X127456964Y-126087241D01*
X127413836Y-126132124D01*
X127383081Y-126163901D01*
X127366953Y-126117142D01*
X127361974Y-125980761D01*
X127361953Y-125966694D01*
X127366240Y-125823186D01*
X127381417Y-125770126D01*
X127410961Y-125796429D01*
X127413836Y-125801263D01*
X127457194Y-125846287D01*
X127537299Y-125873459D01*
X127675808Y-125886803D01*
X127893326Y-125890341D01*
X128111540Y-125886772D01*
X128249774Y-125873381D01*
X128329689Y-125846146D01*
X128372816Y-125801263D01*
X128403572Y-125769486D01*
X128419700Y-125816245D01*
G37*
X128419700Y-125816245D02*
X128424679Y-125952626D01*
X128424700Y-125966694D01*
X128420413Y-126110201D01*
X128405236Y-126163261D01*
X128375691Y-126136958D01*
X128372816Y-126132124D01*
X128329458Y-126087100D01*
X128249354Y-126059928D01*
X128110844Y-126046585D01*
X127893326Y-126043046D01*
X127675113Y-126046616D01*
X127536879Y-126060006D01*
X127456964Y-126087241D01*
X127413836Y-126132124D01*
X127383081Y-126163901D01*
X127366953Y-126117142D01*
X127361974Y-125980761D01*
X127361953Y-125966694D01*
X127366240Y-125823186D01*
X127381417Y-125770126D01*
X127410961Y-125796429D01*
X127413836Y-125801263D01*
X127457194Y-125846287D01*
X127537299Y-125873459D01*
X127675808Y-125886803D01*
X127893326Y-125890341D01*
X128111540Y-125886772D01*
X128249774Y-125873381D01*
X128329689Y-125846146D01*
X128372816Y-125801263D01*
X128403572Y-125769486D01*
X128419700Y-125816245D01*
G36*
X127413836Y-126513888D02*
G01*
X127453714Y-126556372D01*
X127526901Y-126583079D01*
X127653703Y-126597379D01*
X127854428Y-126602638D01*
X127950999Y-126602966D01*
X128187226Y-126606441D01*
X128334517Y-126618022D01*
X128405541Y-126639444D01*
X128415440Y-126666593D01*
X128366971Y-126722288D01*
X128254152Y-126819085D01*
X128096690Y-126940650D01*
X128000965Y-127010181D01*
X127607328Y-127290140D01*
X127974900Y-127305262D01*
X128196466Y-127306878D01*
X128329953Y-127288545D01*
X128384354Y-127254360D01*
X128410328Y-127251889D01*
X128421348Y-127339992D01*
X128421111Y-127391944D01*
X128413282Y-127496576D01*
X128399499Y-127523321D01*
X128392707Y-127506473D01*
X128368826Y-127464178D01*
X128311051Y-127437628D01*
X128199945Y-127423359D01*
X128016074Y-127417902D01*
X127893326Y-127417395D01*
X127666639Y-127419795D01*
X127522254Y-127429307D01*
X127440736Y-127449397D01*
X127402651Y-127483532D01*
X127393945Y-127506473D01*
X127378032Y-127522310D01*
X127367117Y-127451894D01*
X127365589Y-127417395D01*
X127369546Y-127326498D01*
X127398364Y-127252382D01*
X127468406Y-127175263D01*
X127596039Y-127075358D01*
X127723478Y-126984730D01*
X128086444Y-126730221D01*
X127765462Y-126714856D01*
X127555778Y-126714526D01*
X127435431Y-126739103D01*
X127402448Y-126765758D01*
X127375259Y-126769122D01*
X127362031Y-126680024D01*
X127361185Y-126628417D01*
X127366314Y-126507357D01*
X127383958Y-126476301D01*
X127413836Y-126513888D01*
G37*
X127413836Y-126513888D02*
X127453714Y-126556372D01*
X127526901Y-126583079D01*
X127653703Y-126597379D01*
X127854428Y-126602638D01*
X127950999Y-126602966D01*
X128187226Y-126606441D01*
X128334517Y-126618022D01*
X128405541Y-126639444D01*
X128415440Y-126666593D01*
X128366971Y-126722288D01*
X128254152Y-126819085D01*
X128096690Y-126940650D01*
X128000965Y-127010181D01*
X127607328Y-127290140D01*
X127974900Y-127305262D01*
X128196466Y-127306878D01*
X128329953Y-127288545D01*
X128384354Y-127254360D01*
X128410328Y-127251889D01*
X128421348Y-127339992D01*
X128421111Y-127391944D01*
X128413282Y-127496576D01*
X128399499Y-127523321D01*
X128392707Y-127506473D01*
X128368826Y-127464178D01*
X128311051Y-127437628D01*
X128199945Y-127423359D01*
X128016074Y-127417902D01*
X127893326Y-127417395D01*
X127666639Y-127419795D01*
X127522254Y-127429307D01*
X127440736Y-127449397D01*
X127402651Y-127483532D01*
X127393945Y-127506473D01*
X127378032Y-127522310D01*
X127367117Y-127451894D01*
X127365589Y-127417395D01*
X127369546Y-127326498D01*
X127398364Y-127252382D01*
X127468406Y-127175263D01*
X127596039Y-127075358D01*
X127723478Y-126984730D01*
X128086444Y-126730221D01*
X127765462Y-126714856D01*
X127555778Y-126714526D01*
X127435431Y-126739103D01*
X127402448Y-126765758D01*
X127375259Y-126769122D01*
X127362031Y-126680024D01*
X127361185Y-126628417D01*
X127366314Y-126507357D01*
X127383958Y-126476301D01*
X127413836Y-126513888D01*
G36*
X127486860Y-116718098D02*
G01*
X127372224Y-116516322D01*
X127356463Y-116464613D01*
X127349703Y-116390763D01*
X127413883Y-116390763D01*
X127479517Y-116538322D01*
X127517383Y-116581131D01*
X127600539Y-116645063D01*
X127703781Y-116671537D01*
X127863977Y-116668776D01*
X127898358Y-116666087D01*
X128104236Y-116630566D01*
X128251707Y-116568126D01*
X128274301Y-116550574D01*
X128360068Y-116416256D01*
X128369505Y-116263270D01*
X128303483Y-116129311D01*
X128263764Y-116094630D01*
X128141283Y-116044952D01*
X127971955Y-116017479D01*
X127914316Y-116015391D01*
X127696177Y-116046482D01*
X127532920Y-116129582D01*
X127435252Y-116249429D01*
X127413883Y-116390763D01*
X127349703Y-116390763D01*
X127334547Y-116225195D01*
X127405857Y-116024116D01*
X127568467Y-115866517D01*
X127583859Y-115856856D01*
X127803123Y-115775419D01*
X128021194Y-115785057D01*
X128215316Y-115878357D01*
X128362732Y-116047908D01*
X128398387Y-116122146D01*
X128460807Y-116310389D01*
X128468617Y-116453950D01*
X128421893Y-116594016D01*
X128399351Y-116637658D01*
X128291373Y-116778646D01*
X128142724Y-116855408D01*
X127927672Y-116880558D01*
X127903537Y-116880722D01*
X127703781Y-116846622D01*
X127664404Y-116839899D01*
X127486860Y-116718098D01*
G37*
X127486860Y-116718098D02*
X127372224Y-116516322D01*
X127356463Y-116464613D01*
X127349703Y-116390763D01*
X127413883Y-116390763D01*
X127479517Y-116538322D01*
X127517383Y-116581131D01*
X127600539Y-116645063D01*
X127703781Y-116671537D01*
X127863977Y-116668776D01*
X127898358Y-116666087D01*
X128104236Y-116630566D01*
X128251707Y-116568126D01*
X128274301Y-116550574D01*
X128360068Y-116416256D01*
X128369505Y-116263270D01*
X128303483Y-116129311D01*
X128263764Y-116094630D01*
X128141283Y-116044952D01*
X127971955Y-116017479D01*
X127914316Y-116015391D01*
X127696177Y-116046482D01*
X127532920Y-116129582D01*
X127435252Y-116249429D01*
X127413883Y-116390763D01*
X127349703Y-116390763D01*
X127334547Y-116225195D01*
X127405857Y-116024116D01*
X127568467Y-115866517D01*
X127583859Y-115856856D01*
X127803123Y-115775419D01*
X128021194Y-115785057D01*
X128215316Y-115878357D01*
X128362732Y-116047908D01*
X128398387Y-116122146D01*
X128460807Y-116310389D01*
X128468617Y-116453950D01*
X128421893Y-116594016D01*
X128399351Y-116637658D01*
X128291373Y-116778646D01*
X128142724Y-116855408D01*
X127927672Y-116880558D01*
X127903537Y-116880722D01*
X127703781Y-116846622D01*
X127664404Y-116839899D01*
X127486860Y-116718098D01*
G36*
X128321771Y-120993253D02*
G01*
X128406991Y-121134292D01*
X128462277Y-121291686D01*
X128468533Y-121412046D01*
X128428104Y-121546227D01*
X128426209Y-121550962D01*
X128341312Y-121647151D01*
X128251279Y-121665491D01*
X128145998Y-121647127D01*
X128135037Y-121595012D01*
X128218362Y-121513613D01*
X128252712Y-121490002D01*
X128351261Y-121384323D01*
X128375655Y-121266507D01*
X128329018Y-121166743D01*
X128214475Y-121115218D01*
X128213914Y-121115152D01*
X128127938Y-121117769D01*
X128061020Y-121163266D01*
X127989972Y-121272381D01*
X127947729Y-121353173D01*
X127825291Y-121545524D01*
X127700062Y-121639650D01*
X127566293Y-121639086D01*
X127517562Y-121617800D01*
X127417542Y-121522664D01*
X127357478Y-121384156D01*
X127337676Y-121230124D01*
X127358438Y-121088417D01*
X127420068Y-120986883D01*
X127510303Y-120952866D01*
X127597521Y-120966779D01*
X127595734Y-121013603D01*
X127504610Y-121100965D01*
X127503889Y-121101550D01*
X127424971Y-121200437D01*
X127428506Y-121326041D01*
X127485280Y-121441235D01*
X127567815Y-121463839D01*
X127666775Y-121396825D01*
X127772819Y-121243163D01*
X127789616Y-121211138D01*
X127917549Y-121022735D01*
X128057572Y-120922538D01*
X128196655Y-120912170D01*
X128321771Y-120993253D01*
G37*
X128321771Y-120993253D02*
X128406991Y-121134292D01*
X128462277Y-121291686D01*
X128468533Y-121412046D01*
X128428104Y-121546227D01*
X128426209Y-121550962D01*
X128341312Y-121647151D01*
X128251279Y-121665491D01*
X128145998Y-121647127D01*
X128135037Y-121595012D01*
X128218362Y-121513613D01*
X128252712Y-121490002D01*
X128351261Y-121384323D01*
X128375655Y-121266507D01*
X128329018Y-121166743D01*
X128214475Y-121115218D01*
X128213914Y-121115152D01*
X128127938Y-121117769D01*
X128061020Y-121163266D01*
X127989972Y-121272381D01*
X127947729Y-121353173D01*
X127825291Y-121545524D01*
X127700062Y-121639650D01*
X127566293Y-121639086D01*
X127517562Y-121617800D01*
X127417542Y-121522664D01*
X127357478Y-121384156D01*
X127337676Y-121230124D01*
X127358438Y-121088417D01*
X127420068Y-120986883D01*
X127510303Y-120952866D01*
X127597521Y-120966779D01*
X127595734Y-121013603D01*
X127504610Y-121100965D01*
X127503889Y-121101550D01*
X127424971Y-121200437D01*
X127428506Y-121326041D01*
X127485280Y-121441235D01*
X127567815Y-121463839D01*
X127666775Y-121396825D01*
X127772819Y-121243163D01*
X127789616Y-121211138D01*
X127917549Y-121022735D01*
X128057572Y-120922538D01*
X128196655Y-120912170D01*
X128321771Y-120993253D01*
G36*
X127422485Y-124422464D02*
G01*
X127495950Y-124473277D01*
X127641217Y-124545374D01*
X127833734Y-124627180D01*
X127955909Y-124673977D01*
X128158858Y-124753902D01*
X128323179Y-124828475D01*
X128426744Y-124887116D01*
X128450599Y-124910468D01*
X128425674Y-124971420D01*
X128326013Y-125034878D01*
X128311664Y-125040985D01*
X128177001Y-125093565D01*
X127989930Y-125163678D01*
X127816974Y-125226738D01*
X127639939Y-125298104D01*
X127497560Y-125369594D01*
X127422485Y-125424086D01*
X127384846Y-125455008D01*
X127365715Y-125417776D01*
X127359711Y-125297584D01*
X127359637Y-125251072D01*
X127366881Y-125103774D01*
X127387735Y-125055464D01*
X127406569Y-125072494D01*
X127444409Y-125105790D01*
X127512771Y-125109503D01*
X127633516Y-125080959D01*
X127813004Y-125022770D01*
X127985870Y-124960486D01*
X128113434Y-124907983D01*
X128171923Y-124875190D01*
X128173286Y-124872305D01*
X128128815Y-124843822D01*
X128011252Y-124793952D01*
X127844371Y-124732623D01*
X127813004Y-124721839D01*
X127623556Y-124660736D01*
X127506918Y-124634390D01*
X127441229Y-124640127D01*
X127406569Y-124672116D01*
X127375887Y-124688900D01*
X127361367Y-124611718D01*
X127359637Y-124544440D01*
X127363886Y-124422415D01*
X127382955Y-124387378D01*
X127422485Y-124422464D01*
G37*
X127422485Y-124422464D02*
X127495950Y-124473277D01*
X127641217Y-124545374D01*
X127833734Y-124627180D01*
X127955909Y-124673977D01*
X128158858Y-124753902D01*
X128323179Y-124828475D01*
X128426744Y-124887116D01*
X128450599Y-124910468D01*
X128425674Y-124971420D01*
X128326013Y-125034878D01*
X128311664Y-125040985D01*
X128177001Y-125093565D01*
X127989930Y-125163678D01*
X127816974Y-125226738D01*
X127639939Y-125298104D01*
X127497560Y-125369594D01*
X127422485Y-125424086D01*
X127384846Y-125455008D01*
X127365715Y-125417776D01*
X127359711Y-125297584D01*
X127359637Y-125251072D01*
X127366881Y-125103774D01*
X127387735Y-125055464D01*
X127406569Y-125072494D01*
X127444409Y-125105790D01*
X127512771Y-125109503D01*
X127633516Y-125080959D01*
X127813004Y-125022770D01*
X127985870Y-124960486D01*
X128113434Y-124907983D01*
X128171923Y-124875190D01*
X128173286Y-124872305D01*
X128128815Y-124843822D01*
X128011252Y-124793952D01*
X127844371Y-124732623D01*
X127813004Y-124721839D01*
X127623556Y-124660736D01*
X127506918Y-124634390D01*
X127441229Y-124640127D01*
X127406569Y-124672116D01*
X127375887Y-124688900D01*
X127361367Y-124611718D01*
X127359637Y-124544440D01*
X127363886Y-124422415D01*
X127382955Y-124387378D01*
X127422485Y-124422464D01*
G36*
X127392569Y-127862786D02*
G01*
X127458159Y-127901041D01*
X127618932Y-127921899D01*
X127799680Y-127926413D01*
X128000117Y-127929610D01*
X128129855Y-127945009D01*
X128219941Y-127981322D01*
X128301419Y-128047260D01*
X128329907Y-128075203D01*
X128449903Y-128252605D01*
X128474110Y-128439507D01*
X128401096Y-128620187D01*
X128381880Y-128645521D01*
X128321158Y-128705973D01*
X128241554Y-128744210D01*
X128117593Y-128767002D01*
X127923801Y-128781117D01*
X127860136Y-128784142D01*
X127653069Y-128799863D01*
X127493527Y-128824364D01*
X127405674Y-128853622D01*
X127397813Y-128861098D01*
X127377808Y-128849751D01*
X127366494Y-128758551D01*
X127365542Y-128664489D01*
X127372279Y-128538772D01*
X127384193Y-128484809D01*
X127393945Y-128499058D01*
X127422384Y-128546391D01*
X127491454Y-128573654D01*
X127623073Y-128585856D01*
X127783929Y-128588136D01*
X128069592Y-128568432D01*
X128261914Y-128509161D01*
X128361453Y-128410082D01*
X128376894Y-128334377D01*
X128351113Y-128216829D01*
X128265414Y-128138961D01*
X128107264Y-128095054D01*
X127864128Y-128079387D01*
X127817580Y-128079118D01*
X127580833Y-128086746D01*
X127440119Y-128110094D01*
X127392569Y-128142746D01*
X127376924Y-128139069D01*
X127367829Y-128054795D01*
X127366895Y-128002766D01*
X127372247Y-127891962D01*
X127385716Y-127853214D01*
X127392569Y-127862786D01*
G37*
X127392569Y-127862786D02*
X127458159Y-127901041D01*
X127618932Y-127921899D01*
X127799680Y-127926413D01*
X128000117Y-127929610D01*
X128129855Y-127945009D01*
X128219941Y-127981322D01*
X128301419Y-128047260D01*
X128329907Y-128075203D01*
X128449903Y-128252605D01*
X128474110Y-128439507D01*
X128401096Y-128620187D01*
X128381880Y-128645521D01*
X128321158Y-128705973D01*
X128241554Y-128744210D01*
X128117593Y-128767002D01*
X127923801Y-128781117D01*
X127860136Y-128784142D01*
X127653069Y-128799863D01*
X127493527Y-128824364D01*
X127405674Y-128853622D01*
X127397813Y-128861098D01*
X127377808Y-128849751D01*
X127366494Y-128758551D01*
X127365542Y-128664489D01*
X127372279Y-128538772D01*
X127384193Y-128484809D01*
X127393945Y-128499058D01*
X127422384Y-128546391D01*
X127491454Y-128573654D01*
X127623073Y-128585856D01*
X127783929Y-128588136D01*
X128069592Y-128568432D01*
X128261914Y-128509161D01*
X128361453Y-128410082D01*
X128376894Y-128334377D01*
X128351113Y-128216829D01*
X128265414Y-128138961D01*
X128107264Y-128095054D01*
X127864128Y-128079387D01*
X127817580Y-128079118D01*
X127580833Y-128086746D01*
X127440119Y-128110094D01*
X127392569Y-128142746D01*
X127376924Y-128139069D01*
X127367829Y-128054795D01*
X127366895Y-128002766D01*
X127372247Y-127891962D01*
X127385716Y-127853214D01*
X127392569Y-127862786D01*
G36*
X129254950Y-113836412D02*
G01*
X129390883Y-113851338D01*
X129455681Y-113889590D01*
X129479815Y-113980813D01*
X129486611Y-114061779D01*
X129488731Y-114199167D01*
X129459504Y-114268501D01*
X129386342Y-114301724D01*
X129239828Y-114313925D01*
X129154681Y-114302823D01*
X129081240Y-114269099D01*
X129047187Y-114196598D01*
X129038626Y-114054715D01*
X129038617Y-114047227D01*
X129038617Y-113820760D01*
X129254950Y-113836412D01*
G37*
X129254950Y-113836412D02*
X129390883Y-113851338D01*
X129455681Y-113889590D01*
X129479815Y-113980813D01*
X129486611Y-114061779D01*
X129488731Y-114199167D01*
X129459504Y-114268501D01*
X129386342Y-114301724D01*
X129239828Y-114313925D01*
X129154681Y-114302823D01*
X129081240Y-114269099D01*
X129047187Y-114196598D01*
X129038626Y-114054715D01*
X129038617Y-114047227D01*
X129038617Y-113820760D01*
X129254950Y-113836412D01*
G36*
X131762309Y-111244275D02*
G01*
X131792362Y-111371815D01*
X131808247Y-111542656D01*
X131809752Y-111728119D01*
X131796667Y-111899528D01*
X131768782Y-112028205D01*
X131725887Y-112085472D01*
X131724878Y-112085692D01*
X131652038Y-112056150D01*
X131620505Y-111996613D01*
X131602415Y-111952284D01*
X131563828Y-111922699D01*
X131486938Y-111904933D01*
X131353943Y-111896059D01*
X131147038Y-111893151D01*
X130990376Y-111893040D01*
X130742025Y-111895854D01*
X130522168Y-111902974D01*
X130355970Y-111913294D01*
X130272429Y-111924573D01*
X130160480Y-111998634D01*
X130120561Y-112132923D01*
X130154336Y-112314096D01*
X130208627Y-112435925D01*
X130325309Y-112655872D01*
X130974022Y-112655872D01*
X131241515Y-112654958D01*
X131424368Y-112650404D01*
X131539745Y-112639493D01*
X131604804Y-112619508D01*
X131636707Y-112587730D01*
X131650760Y-112548706D01*
X131695870Y-112472098D01*
X131738804Y-112461545D01*
X131762723Y-112515832D01*
X131783899Y-112642816D01*
X131800599Y-112813394D01*
X131811089Y-112998466D01*
X131813635Y-113168928D01*
X131806506Y-113295680D01*
X131791556Y-113347301D01*
X131715673Y-113372583D01*
X131653081Y-113320154D01*
X131634609Y-113241243D01*
X131634609Y-113113988D01*
X130045617Y-113113988D01*
X130077556Y-113241243D01*
X130086635Y-113336497D01*
X130036789Y-113367605D01*
X130015463Y-113368497D01*
X129950321Y-113341430D01*
X129899715Y-113247417D01*
X129861788Y-113110105D01*
X129816651Y-112895951D01*
X129803735Y-112761518D01*
X129826730Y-112688804D01*
X129889322Y-112659807D01*
X129954849Y-112655872D01*
X130062152Y-112648259D01*
X130107546Y-112629921D01*
X130107555Y-112629638D01*
X130081491Y-112576996D01*
X130013322Y-112464873D01*
X129922631Y-112324889D01*
X129819672Y-112158323D01*
X129769335Y-112036482D01*
X129760238Y-111924925D01*
X129768297Y-111857873D01*
X129796955Y-111721442D01*
X129841809Y-111620014D01*
X129917023Y-111547991D01*
X130036762Y-111499776D01*
X130215191Y-111469771D01*
X130466475Y-111452377D01*
X130804778Y-111441997D01*
X130821580Y-111441621D01*
X131634609Y-111423562D01*
X131634609Y-111297908D01*
X131655843Y-111203322D01*
X131718297Y-111188713D01*
X131762309Y-111244275D01*
G37*
X131762309Y-111244275D02*
X131792362Y-111371815D01*
X131808247Y-111542656D01*
X131809752Y-111728119D01*
X131796667Y-111899528D01*
X131768782Y-112028205D01*
X131725887Y-112085472D01*
X131724878Y-112085692D01*
X131652038Y-112056150D01*
X131620505Y-111996613D01*
X131602415Y-111952284D01*
X131563828Y-111922699D01*
X131486938Y-111904933D01*
X131353943Y-111896059D01*
X131147038Y-111893151D01*
X130990376Y-111893040D01*
X130742025Y-111895854D01*
X130522168Y-111902974D01*
X130355970Y-111913294D01*
X130272429Y-111924573D01*
X130160480Y-111998634D01*
X130120561Y-112132923D01*
X130154336Y-112314096D01*
X130208627Y-112435925D01*
X130325309Y-112655872D01*
X130974022Y-112655872D01*
X131241515Y-112654958D01*
X131424368Y-112650404D01*
X131539745Y-112639493D01*
X131604804Y-112619508D01*
X131636707Y-112587730D01*
X131650760Y-112548706D01*
X131695870Y-112472098D01*
X131738804Y-112461545D01*
X131762723Y-112515832D01*
X131783899Y-112642816D01*
X131800599Y-112813394D01*
X131811089Y-112998466D01*
X131813635Y-113168928D01*
X131806506Y-113295680D01*
X131791556Y-113347301D01*
X131715673Y-113372583D01*
X131653081Y-113320154D01*
X131634609Y-113241243D01*
X131634609Y-113113988D01*
X130045617Y-113113988D01*
X130077556Y-113241243D01*
X130086635Y-113336497D01*
X130036789Y-113367605D01*
X130015463Y-113368497D01*
X129950321Y-113341430D01*
X129899715Y-113247417D01*
X129861788Y-113110105D01*
X129816651Y-112895951D01*
X129803735Y-112761518D01*
X129826730Y-112688804D01*
X129889322Y-112659807D01*
X129954849Y-112655872D01*
X130062152Y-112648259D01*
X130107546Y-112629921D01*
X130107555Y-112629638D01*
X130081491Y-112576996D01*
X130013322Y-112464873D01*
X129922631Y-112324889D01*
X129819672Y-112158323D01*
X129769335Y-112036482D01*
X129760238Y-111924925D01*
X129768297Y-111857873D01*
X129796955Y-111721442D01*
X129841809Y-111620014D01*
X129917023Y-111547991D01*
X130036762Y-111499776D01*
X130215191Y-111469771D01*
X130466475Y-111452377D01*
X130804778Y-111441997D01*
X130821580Y-111441621D01*
X131634609Y-111423562D01*
X131634609Y-111297908D01*
X131655843Y-111203322D01*
X131718297Y-111188713D01*
X131762309Y-111244275D01*
G36*
X131755999Y-113606054D02*
G01*
X131781681Y-113673856D01*
X131796681Y-113802820D01*
X131804348Y-114011267D01*
X131805365Y-114068417D01*
X131806856Y-114290936D01*
X131800670Y-114430471D01*
X131783558Y-114505744D01*
X131752273Y-114535480D01*
X131723687Y-114539259D01*
X131651626Y-114500922D01*
X131634609Y-114411984D01*
X131634609Y-114284730D01*
X130063415Y-114284730D01*
X130047309Y-114424710D01*
X130019987Y-114521590D01*
X129980300Y-114551651D01*
X129939551Y-114498042D01*
X129892043Y-114376403D01*
X129847202Y-114219213D01*
X129814455Y-114058951D01*
X129803126Y-113941142D01*
X129802144Y-113826613D01*
X131634609Y-113826613D01*
X131634609Y-113695627D01*
X131654701Y-113597651D01*
X131716287Y-113581098D01*
X131755999Y-113606054D01*
G37*
X131755999Y-113606054D02*
X131781681Y-113673856D01*
X131796681Y-113802820D01*
X131804348Y-114011267D01*
X131805365Y-114068417D01*
X131806856Y-114290936D01*
X131800670Y-114430471D01*
X131783558Y-114505744D01*
X131752273Y-114535480D01*
X131723687Y-114539259D01*
X131651626Y-114500922D01*
X131634609Y-114411984D01*
X131634609Y-114284730D01*
X130063415Y-114284730D01*
X130047309Y-114424710D01*
X130019987Y-114521590D01*
X129980300Y-114551651D01*
X129939551Y-114498042D01*
X129892043Y-114376403D01*
X129847202Y-114219213D01*
X129814455Y-114058951D01*
X129803126Y-113941142D01*
X129802144Y-113826613D01*
X131634609Y-113826613D01*
X131634609Y-113695627D01*
X131654701Y-113597651D01*
X131716287Y-113581098D01*
X131755999Y-113606054D01*
G36*
X131767260Y-114790240D02*
G01*
X131790073Y-114866654D01*
X131802896Y-115013412D01*
X131808235Y-115239149D01*
X131808174Y-115462530D01*
X131800656Y-115602664D01*
X131782504Y-115678018D01*
X131750540Y-115707061D01*
X131727227Y-115709991D01*
X131651647Y-115665640D01*
X131625424Y-115595451D01*
X131618125Y-115558669D01*
X131599711Y-115530590D01*
X131557688Y-115509850D01*
X131479560Y-115495084D01*
X131352833Y-115484929D01*
X131165012Y-115478020D01*
X130903603Y-115472994D01*
X130556110Y-115468485D01*
X130451142Y-115467241D01*
X129293126Y-115453560D01*
X129293126Y-115607221D01*
X129267216Y-115722492D01*
X129208603Y-115762638D01*
X129145964Y-115721312D01*
X129116351Y-115646353D01*
X129057807Y-115378813D01*
X129023661Y-115196657D01*
X129011850Y-115086963D01*
X129019337Y-115038271D01*
X129075069Y-115027143D01*
X129218717Y-115017165D01*
X129436397Y-115008770D01*
X129714226Y-115002390D01*
X130038318Y-114998455D01*
X130336077Y-114997355D01*
X131627528Y-114997355D01*
X131643794Y-114882826D01*
X131683684Y-114793281D01*
X131731882Y-114768297D01*
X131767260Y-114790240D01*
G37*
X131767260Y-114790240D02*
X131790073Y-114866654D01*
X131802896Y-115013412D01*
X131808235Y-115239149D01*
X131808174Y-115462530D01*
X131800656Y-115602664D01*
X131782504Y-115678018D01*
X131750540Y-115707061D01*
X131727227Y-115709991D01*
X131651647Y-115665640D01*
X131625424Y-115595451D01*
X131618125Y-115558669D01*
X131599711Y-115530590D01*
X131557688Y-115509850D01*
X131479560Y-115495084D01*
X131352833Y-115484929D01*
X131165012Y-115478020D01*
X130903603Y-115472994D01*
X130556110Y-115468485D01*
X130451142Y-115467241D01*
X129293126Y-115453560D01*
X129293126Y-115607221D01*
X129267216Y-115722492D01*
X129208603Y-115762638D01*
X129145964Y-115721312D01*
X129116351Y-115646353D01*
X129057807Y-115378813D01*
X129023661Y-115196657D01*
X129011850Y-115086963D01*
X129019337Y-115038271D01*
X129075069Y-115027143D01*
X129218717Y-115017165D01*
X129436397Y-115008770D01*
X129714226Y-115002390D01*
X130038318Y-114998455D01*
X130336077Y-114997355D01*
X131627528Y-114997355D01*
X131643794Y-114882826D01*
X131683684Y-114793281D01*
X131731882Y-114768297D01*
X131767260Y-114790240D01*
G36*
X129884764Y-117663984D02*
G01*
X129942124Y-117674078D01*
X130097027Y-117706297D01*
X130176426Y-117744679D01*
X130205473Y-117810639D01*
X130209358Y-117901615D01*
X130255507Y-118065306D01*
X130394972Y-118256622D01*
X130580586Y-118462074D01*
X131094872Y-118447650D01*
X131609158Y-118433227D01*
X131624956Y-118242345D01*
X131650907Y-118106975D01*
X131704865Y-118053965D01*
X131726760Y-118051463D01*
X131765494Y-118062834D01*
X131790648Y-118108585D01*
X131805031Y-118206172D01*
X131811458Y-118373052D01*
X131812765Y-118585369D01*
X131806972Y-118870519D01*
X131789589Y-119054567D01*
X131760612Y-119137554D01*
X131754114Y-119141782D01*
X131671753Y-119136292D01*
X131635878Y-119042620D01*
X131634609Y-119010114D01*
X131627791Y-118974721D01*
X131597510Y-118949583D01*
X131529022Y-118932965D01*
X131407586Y-118923128D01*
X131218459Y-118918336D01*
X130946898Y-118916853D01*
X130842431Y-118916794D01*
X130543102Y-118917171D01*
X130330979Y-118919724D01*
X130191463Y-118926581D01*
X130109957Y-118939874D01*
X130071863Y-118961733D01*
X130062582Y-118994288D01*
X130066179Y-119030068D01*
X130048469Y-119130948D01*
X130000513Y-119159613D01*
X129947154Y-119143997D01*
X129904029Y-119061414D01*
X129862518Y-118894963D01*
X129860533Y-118885144D01*
X129828970Y-118722252D01*
X129807768Y-118601863D01*
X129802144Y-118558549D01*
X129847854Y-118532424D01*
X129965316Y-118503650D01*
X130069378Y-118486843D01*
X130194992Y-118471345D01*
X130268101Y-118456349D01*
X130283599Y-118428659D01*
X130236377Y-118375082D01*
X130121329Y-118282425D01*
X129934479Y-118138371D01*
X129813066Y-118026713D01*
X129760112Y-117918050D01*
X129751242Y-117817928D01*
X129756202Y-117702805D01*
X129790833Y-117658933D01*
X129884764Y-117663984D01*
G37*
X129884764Y-117663984D02*
X129942124Y-117674078D01*
X130097027Y-117706297D01*
X130176426Y-117744679D01*
X130205473Y-117810639D01*
X130209358Y-117901615D01*
X130255507Y-118065306D01*
X130394972Y-118256622D01*
X130580586Y-118462074D01*
X131094872Y-118447650D01*
X131609158Y-118433227D01*
X131624956Y-118242345D01*
X131650907Y-118106975D01*
X131704865Y-118053965D01*
X131726760Y-118051463D01*
X131765494Y-118062834D01*
X131790648Y-118108585D01*
X131805031Y-118206172D01*
X131811458Y-118373052D01*
X131812765Y-118585369D01*
X131806972Y-118870519D01*
X131789589Y-119054567D01*
X131760612Y-119137554D01*
X131754114Y-119141782D01*
X131671753Y-119136292D01*
X131635878Y-119042620D01*
X131634609Y-119010114D01*
X131627791Y-118974721D01*
X131597510Y-118949583D01*
X131529022Y-118932965D01*
X131407586Y-118923128D01*
X131218459Y-118918336D01*
X130946898Y-118916853D01*
X130842431Y-118916794D01*
X130543102Y-118917171D01*
X130330979Y-118919724D01*
X130191463Y-118926581D01*
X130109957Y-118939874D01*
X130071863Y-118961733D01*
X130062582Y-118994288D01*
X130066179Y-119030068D01*
X130048469Y-119130948D01*
X130000513Y-119159613D01*
X129947154Y-119143997D01*
X129904029Y-119061414D01*
X129862518Y-118894963D01*
X129860533Y-118885144D01*
X129828970Y-118722252D01*
X129807768Y-118601863D01*
X129802144Y-118558549D01*
X129847854Y-118532424D01*
X129965316Y-118503650D01*
X130069378Y-118486843D01*
X130194992Y-118471345D01*
X130268101Y-118456349D01*
X130283599Y-118428659D01*
X130236377Y-118375082D01*
X130121329Y-118282425D01*
X129934479Y-118138371D01*
X129813066Y-118026713D01*
X129760112Y-117918050D01*
X129751242Y-117817928D01*
X129756202Y-117702805D01*
X129790833Y-117658933D01*
X129884764Y-117663984D01*
G36*
X131767367Y-124680486D02*
G01*
X131794065Y-124728836D01*
X131807777Y-124833108D01*
X131812498Y-125012679D01*
X131812765Y-125100710D01*
X131807472Y-125333697D01*
X131790257Y-125478785D01*
X131759120Y-125549397D01*
X131744428Y-125559053D01*
X131678148Y-125539859D01*
X131649413Y-125483336D01*
X131632002Y-125441528D01*
X131594259Y-125413002D01*
X131519246Y-125395239D01*
X131390027Y-125385721D01*
X131189666Y-125381928D01*
X130963602Y-125381323D01*
X130706729Y-125385266D01*
X130480417Y-125396033D01*
X130307557Y-125412032D01*
X130211042Y-125431671D01*
X130206012Y-125434016D01*
X130124169Y-125530049D01*
X130118362Y-125682419D01*
X130188242Y-125880158D01*
X130222084Y-125943492D01*
X130336613Y-126144066D01*
X130985611Y-126144458D01*
X131252721Y-126143727D01*
X131434410Y-126139446D01*
X131547060Y-126129057D01*
X131607047Y-126110000D01*
X131630752Y-126079716D01*
X131634609Y-126043046D01*
X131670660Y-125957282D01*
X131723687Y-125941243D01*
X131767365Y-125953055D01*
X131794063Y-126001410D01*
X131807776Y-126105683D01*
X131812497Y-126285250D01*
X131812765Y-126373345D01*
X131805736Y-126615586D01*
X131785216Y-126769531D01*
X131754114Y-126827954D01*
X131671753Y-126822464D01*
X131635878Y-126728792D01*
X131634609Y-126696286D01*
X131629156Y-126666412D01*
X131604679Y-126643681D01*
X131549004Y-126627124D01*
X131449953Y-126615771D01*
X131295352Y-126608649D01*
X131073024Y-126604790D01*
X130770794Y-126603223D01*
X130463867Y-126602966D01*
X129293126Y-126602966D01*
X129293126Y-126730221D01*
X129266877Y-126832153D01*
X129217743Y-126857475D01*
X129174096Y-126846376D01*
X129139688Y-126800851D01*
X129107769Y-126702557D01*
X129071590Y-126533153D01*
X129044468Y-126386633D01*
X129000859Y-126144850D01*
X129554207Y-126144850D01*
X129777778Y-126142752D01*
X129958059Y-126137067D01*
X130074384Y-126128710D01*
X130107555Y-126120387D01*
X130082166Y-126068330D01*
X130015650Y-125955553D01*
X129923770Y-125808622D01*
X129821143Y-125635565D01*
X129771118Y-125508705D01*
X129762726Y-125394727D01*
X129769435Y-125339835D01*
X129797910Y-125205714D01*
X129843053Y-125106010D01*
X129919005Y-125035234D01*
X130039906Y-124987896D01*
X130219897Y-124958508D01*
X130473119Y-124941581D01*
X130813713Y-124931625D01*
X130821500Y-124931460D01*
X131634609Y-124914262D01*
X131634609Y-124791480D01*
X131663351Y-124690883D01*
X131723687Y-124668682D01*
X131767367Y-124680486D01*
G37*
X131767367Y-124680486D02*
X131794065Y-124728836D01*
X131807777Y-124833108D01*
X131812498Y-125012679D01*
X131812765Y-125100710D01*
X131807472Y-125333697D01*
X131790257Y-125478785D01*
X131759120Y-125549397D01*
X131744428Y-125559053D01*
X131678148Y-125539859D01*
X131649413Y-125483336D01*
X131632002Y-125441528D01*
X131594259Y-125413002D01*
X131519246Y-125395239D01*
X131390027Y-125385721D01*
X131189666Y-125381928D01*
X130963602Y-125381323D01*
X130706729Y-125385266D01*
X130480417Y-125396033D01*
X130307557Y-125412032D01*
X130211042Y-125431671D01*
X130206012Y-125434016D01*
X130124169Y-125530049D01*
X130118362Y-125682419D01*
X130188242Y-125880158D01*
X130222084Y-125943492D01*
X130336613Y-126144066D01*
X130985611Y-126144458D01*
X131252721Y-126143727D01*
X131434410Y-126139446D01*
X131547060Y-126129057D01*
X131607047Y-126110000D01*
X131630752Y-126079716D01*
X131634609Y-126043046D01*
X131670660Y-125957282D01*
X131723687Y-125941243D01*
X131767365Y-125953055D01*
X131794063Y-126001410D01*
X131807776Y-126105683D01*
X131812497Y-126285250D01*
X131812765Y-126373345D01*
X131805736Y-126615586D01*
X131785216Y-126769531D01*
X131754114Y-126827954D01*
X131671753Y-126822464D01*
X131635878Y-126728792D01*
X131634609Y-126696286D01*
X131629156Y-126666412D01*
X131604679Y-126643681D01*
X131549004Y-126627124D01*
X131449953Y-126615771D01*
X131295352Y-126608649D01*
X131073024Y-126604790D01*
X130770794Y-126603223D01*
X130463867Y-126602966D01*
X129293126Y-126602966D01*
X129293126Y-126730221D01*
X129266877Y-126832153D01*
X129217743Y-126857475D01*
X129174096Y-126846376D01*
X129139688Y-126800851D01*
X129107769Y-126702557D01*
X129071590Y-126533153D01*
X129044468Y-126386633D01*
X129000859Y-126144850D01*
X129554207Y-126144850D01*
X129777778Y-126142752D01*
X129958059Y-126137067D01*
X130074384Y-126128710D01*
X130107555Y-126120387D01*
X130082166Y-126068330D01*
X130015650Y-125955553D01*
X129923770Y-125808622D01*
X129821143Y-125635565D01*
X129771118Y-125508705D01*
X129762726Y-125394727D01*
X129769435Y-125339835D01*
X129797910Y-125205714D01*
X129843053Y-125106010D01*
X129919005Y-125035234D01*
X130039906Y-124987896D01*
X130219897Y-124958508D01*
X130473119Y-124941581D01*
X130813713Y-124931625D01*
X130821500Y-124931460D01*
X131634609Y-124914262D01*
X131634609Y-124791480D01*
X131663351Y-124690883D01*
X131723687Y-124668682D01*
X131767367Y-124680486D01*
G36*
X131330598Y-111076297D02*
G01*
X131184328Y-111059853D01*
X131072633Y-111002919D01*
X130981391Y-110889546D01*
X130896480Y-110703782D01*
X130829358Y-110510151D01*
X130691940Y-110085331D01*
X130361571Y-110085331D01*
X130182820Y-110088162D01*
X130081656Y-110102209D01*
X130033907Y-110135804D01*
X130015397Y-110197280D01*
X130014258Y-110205037D01*
X130013803Y-110399853D01*
X130082122Y-110524605D01*
X130224761Y-110589017D01*
X130234335Y-110590902D01*
X130349734Y-110620808D01*
X130400399Y-110674943D01*
X130412761Y-110788049D01*
X130412966Y-110825714D01*
X130407233Y-110955141D01*
X130373331Y-111012292D01*
X130286203Y-111026645D01*
X130241867Y-111027014D01*
X130155042Y-111021909D01*
X130092419Y-110993815D01*
X130037334Y-110923564D01*
X129973124Y-110791985D01*
X129911005Y-110646412D01*
X129835195Y-110451245D01*
X129778853Y-110278453D01*
X129752138Y-110159914D01*
X129751242Y-110144990D01*
X129759605Y-110084301D01*
X130871082Y-110084301D01*
X130891849Y-110165193D01*
X130942643Y-110293497D01*
X131006202Y-110431211D01*
X131065264Y-110540335D01*
X131096635Y-110580844D01*
X131205523Y-110613902D01*
X131350745Y-110614562D01*
X131479136Y-110585587D01*
X131522625Y-110558718D01*
X131577862Y-110459111D01*
X131558093Y-110330493D01*
X131496380Y-110207714D01*
X131433903Y-110120178D01*
X131357932Y-110076162D01*
X131233361Y-110061103D01*
X131140067Y-110059880D01*
X130990164Y-110064052D01*
X130892516Y-110074774D01*
X130871082Y-110084301D01*
X129759605Y-110084301D01*
X129775695Y-109967546D01*
X129838171Y-109798555D01*
X129922342Y-109677197D01*
X129956857Y-109651591D01*
X130040846Y-109632626D01*
X130204384Y-109616175D01*
X130425221Y-109603823D01*
X130681107Y-109597154D01*
X130727756Y-109596690D01*
X131060688Y-109591775D01*
X131305422Y-109580952D01*
X131475513Y-109561537D01*
X131584516Y-109530845D01*
X131645985Y-109486190D01*
X131673476Y-109424888D01*
X131676326Y-109408795D01*
X131717138Y-109320313D01*
X131765404Y-109296353D01*
X131814669Y-109331346D01*
X131836281Y-109445776D01*
X131838216Y-109521248D01*
X131844010Y-109675626D01*
X131858526Y-109792378D01*
X131865004Y-109815950D01*
X131840480Y-109882959D01*
X131719351Y-109948062D01*
X131710784Y-109951210D01*
X131529776Y-110016663D01*
X131709447Y-110261424D01*
X131815372Y-110409383D01*
X131868350Y-110507955D01*
X131875488Y-110589956D01*
X131843893Y-110688201D01*
X131815976Y-110753249D01*
X131684443Y-110944491D01*
X131497096Y-111053095D01*
X131350745Y-111073489D01*
X131330598Y-111076297D01*
G37*
X131330598Y-111076297D02*
X131184328Y-111059853D01*
X131072633Y-111002919D01*
X130981391Y-110889546D01*
X130896480Y-110703782D01*
X130829358Y-110510151D01*
X130691940Y-110085331D01*
X130361571Y-110085331D01*
X130182820Y-110088162D01*
X130081656Y-110102209D01*
X130033907Y-110135804D01*
X130015397Y-110197280D01*
X130014258Y-110205037D01*
X130013803Y-110399853D01*
X130082122Y-110524605D01*
X130224761Y-110589017D01*
X130234335Y-110590902D01*
X130349734Y-110620808D01*
X130400399Y-110674943D01*
X130412761Y-110788049D01*
X130412966Y-110825714D01*
X130407233Y-110955141D01*
X130373331Y-111012292D01*
X130286203Y-111026645D01*
X130241867Y-111027014D01*
X130155042Y-111021909D01*
X130092419Y-110993815D01*
X130037334Y-110923564D01*
X129973124Y-110791985D01*
X129911005Y-110646412D01*
X129835195Y-110451245D01*
X129778853Y-110278453D01*
X129752138Y-110159914D01*
X129751242Y-110144990D01*
X129759605Y-110084301D01*
X130871082Y-110084301D01*
X130891849Y-110165193D01*
X130942643Y-110293497D01*
X131006202Y-110431211D01*
X131065264Y-110540335D01*
X131096635Y-110580844D01*
X131205523Y-110613902D01*
X131350745Y-110614562D01*
X131479136Y-110585587D01*
X131522625Y-110558718D01*
X131577862Y-110459111D01*
X131558093Y-110330493D01*
X131496380Y-110207714D01*
X131433903Y-110120178D01*
X131357932Y-110076162D01*
X131233361Y-110061103D01*
X131140067Y-110059880D01*
X130990164Y-110064052D01*
X130892516Y-110074774D01*
X130871082Y-110084301D01*
X129759605Y-110084301D01*
X129775695Y-109967546D01*
X129838171Y-109798555D01*
X129922342Y-109677197D01*
X129956857Y-109651591D01*
X130040846Y-109632626D01*
X130204384Y-109616175D01*
X130425221Y-109603823D01*
X130681107Y-109597154D01*
X130727756Y-109596690D01*
X131060688Y-109591775D01*
X131305422Y-109580952D01*
X131475513Y-109561537D01*
X131584516Y-109530845D01*
X131645985Y-109486190D01*
X131673476Y-109424888D01*
X131676326Y-109408795D01*
X131717138Y-109320313D01*
X131765404Y-109296353D01*
X131814669Y-109331346D01*
X131836281Y-109445776D01*
X131838216Y-109521248D01*
X131844010Y-109675626D01*
X131858526Y-109792378D01*
X131865004Y-109815950D01*
X131840480Y-109882959D01*
X131719351Y-109948062D01*
X131710784Y-109951210D01*
X131529776Y-110016663D01*
X131709447Y-110261424D01*
X131815372Y-110409383D01*
X131868350Y-110507955D01*
X131875488Y-110589956D01*
X131843893Y-110688201D01*
X131815976Y-110753249D01*
X131684443Y-110944491D01*
X131497096Y-111053095D01*
X131350745Y-111073489D01*
X131330598Y-111076297D01*
G36*
X130447721Y-117596418D02*
G01*
X130243984Y-117482903D01*
X130053450Y-117295519D01*
X129895150Y-117062036D01*
X129788113Y-116810222D01*
X129781083Y-116766349D01*
X129960601Y-116766349D01*
X130009240Y-116922363D01*
X130134404Y-117048963D01*
X130328020Y-117132668D01*
X130566875Y-117174875D01*
X130827759Y-117176984D01*
X131087460Y-117140393D01*
X131322766Y-117066501D01*
X131510466Y-116956708D01*
X131621133Y-116825228D01*
X131668167Y-116732742D01*
X131678634Y-116677089D01*
X131655298Y-116603325D01*
X131634933Y-116550712D01*
X131529053Y-116414621D01*
X131332297Y-116323079D01*
X131045467Y-116276375D01*
X130855272Y-116269900D01*
X130552180Y-116294952D01*
X130301065Y-116364914D01*
X130112028Y-116471994D01*
X129995173Y-116608403D01*
X129960601Y-116766349D01*
X129781083Y-116766349D01*
X129751242Y-116580103D01*
X129786145Y-116420117D01*
X129875191Y-116235693D01*
X129994882Y-116068244D01*
X130093677Y-115976561D01*
X130384196Y-115828501D01*
X130690089Y-115767346D01*
X130992980Y-115789421D01*
X131274492Y-115891052D01*
X131516250Y-116068562D01*
X131687551Y-116295351D01*
X131807687Y-116546513D01*
X131858945Y-116754775D01*
X131846004Y-116947615D01*
X131815960Y-117049522D01*
X131704667Y-117274708D01*
X131542296Y-117441670D01*
X131361099Y-117552098D01*
X131127526Y-117627942D01*
X130848591Y-117653937D01*
X130827759Y-117652000D01*
X130568876Y-117627919D01*
X130447721Y-117596418D01*
G37*
X130447721Y-117596418D02*
X130243984Y-117482903D01*
X130053450Y-117295519D01*
X129895150Y-117062036D01*
X129788113Y-116810222D01*
X129781083Y-116766349D01*
X129960601Y-116766349D01*
X130009240Y-116922363D01*
X130134404Y-117048963D01*
X130328020Y-117132668D01*
X130566875Y-117174875D01*
X130827759Y-117176984D01*
X131087460Y-117140393D01*
X131322766Y-117066501D01*
X131510466Y-116956708D01*
X131621133Y-116825228D01*
X131668167Y-116732742D01*
X131678634Y-116677089D01*
X131655298Y-116603325D01*
X131634933Y-116550712D01*
X131529053Y-116414621D01*
X131332297Y-116323079D01*
X131045467Y-116276375D01*
X130855272Y-116269900D01*
X130552180Y-116294952D01*
X130301065Y-116364914D01*
X130112028Y-116471994D01*
X129995173Y-116608403D01*
X129960601Y-116766349D01*
X129781083Y-116766349D01*
X129751242Y-116580103D01*
X129786145Y-116420117D01*
X129875191Y-116235693D01*
X129994882Y-116068244D01*
X130093677Y-115976561D01*
X130384196Y-115828501D01*
X130690089Y-115767346D01*
X130992980Y-115789421D01*
X131274492Y-115891052D01*
X131516250Y-116068562D01*
X131687551Y-116295351D01*
X131807687Y-116546513D01*
X131858945Y-116754775D01*
X131846004Y-116947615D01*
X131815960Y-117049522D01*
X131704667Y-117274708D01*
X131542296Y-117441670D01*
X131361099Y-117552098D01*
X131127526Y-117627942D01*
X130848591Y-117653937D01*
X130827759Y-117652000D01*
X130568876Y-117627919D01*
X130447721Y-117596418D01*
G36*
X131030244Y-120946369D02*
G01*
X130969497Y-120859353D01*
X130908371Y-120713415D01*
X130839236Y-120498852D01*
X130776013Y-120299048D01*
X130718950Y-120136294D01*
X130684062Y-120052438D01*
X130879511Y-120052438D01*
X130894552Y-120125712D01*
X130985169Y-120369323D01*
X131113447Y-120524856D01*
X131271371Y-120587301D01*
X131438552Y-120573288D01*
X131549541Y-120502919D01*
X131583707Y-120405447D01*
X131558253Y-120314439D01*
X131495295Y-120186616D01*
X131477752Y-120157171D01*
X131404493Y-120054067D01*
X131326328Y-120003436D01*
X131204528Y-119986926D01*
X131115921Y-119985732D01*
X130965495Y-119988373D01*
X130894236Y-120005837D01*
X130879511Y-120052438D01*
X130684062Y-120052438D01*
X130677054Y-120035595D01*
X130665907Y-120017561D01*
X130594577Y-119999775D01*
X130453085Y-120002890D01*
X130327721Y-120017561D01*
X130158170Y-120048251D01*
X130065244Y-120084096D01*
X130024068Y-120138129D01*
X130014258Y-120181791D01*
X130013803Y-120376607D01*
X130082122Y-120501358D01*
X130224761Y-120565770D01*
X130234335Y-120567655D01*
X130349734Y-120597562D01*
X130400399Y-120651697D01*
X130412761Y-120764802D01*
X130412966Y-120802467D01*
X130407233Y-120931895D01*
X130373331Y-120989045D01*
X130286203Y-121003399D01*
X130241867Y-121003768D01*
X130155042Y-120998663D01*
X130092419Y-120970569D01*
X130037334Y-120900317D01*
X129973124Y-120768739D01*
X129911005Y-120623166D01*
X129835195Y-120427999D01*
X129778853Y-120255206D01*
X129752138Y-120136668D01*
X129751242Y-120121743D01*
X129775695Y-119944299D01*
X129838171Y-119775309D01*
X129922342Y-119653950D01*
X129956857Y-119628345D01*
X130041484Y-119608950D01*
X130205083Y-119592080D01*
X130424822Y-119579445D01*
X130677874Y-119572754D01*
X130702305Y-119572495D01*
X131040890Y-119567023D01*
X131291008Y-119556072D01*
X131465949Y-119537116D01*
X131579007Y-119507626D01*
X131643474Y-119465076D01*
X131672643Y-119406939D01*
X131676326Y-119387308D01*
X131714887Y-119297931D01*
X131760693Y-119273106D01*
X131807097Y-119316391D01*
X131836688Y-119450580D01*
X131846231Y-119561031D01*
X131853251Y-119725216D01*
X131840248Y-119818633D01*
X131794249Y-119872076D01*
X131702279Y-119916337D01*
X131695302Y-119919253D01*
X131526938Y-119989550D01*
X131708028Y-120236244D01*
X131814431Y-120384791D01*
X131867925Y-120483711D01*
X131875635Y-120565597D01*
X131844688Y-120663039D01*
X131815976Y-120730002D01*
X131684864Y-120921388D01*
X131503555Y-121029846D01*
X131288766Y-121049171D01*
X131271371Y-121044152D01*
X131101541Y-120995144D01*
X131030244Y-120946369D01*
G37*
X131030244Y-120946369D02*
X130969497Y-120859353D01*
X130908371Y-120713415D01*
X130839236Y-120498852D01*
X130776013Y-120299048D01*
X130718950Y-120136294D01*
X130684062Y-120052438D01*
X130879511Y-120052438D01*
X130894552Y-120125712D01*
X130985169Y-120369323D01*
X131113447Y-120524856D01*
X131271371Y-120587301D01*
X131438552Y-120573288D01*
X131549541Y-120502919D01*
X131583707Y-120405447D01*
X131558253Y-120314439D01*
X131495295Y-120186616D01*
X131477752Y-120157171D01*
X131404493Y-120054067D01*
X131326328Y-120003436D01*
X131204528Y-119986926D01*
X131115921Y-119985732D01*
X130965495Y-119988373D01*
X130894236Y-120005837D01*
X130879511Y-120052438D01*
X130684062Y-120052438D01*
X130677054Y-120035595D01*
X130665907Y-120017561D01*
X130594577Y-119999775D01*
X130453085Y-120002890D01*
X130327721Y-120017561D01*
X130158170Y-120048251D01*
X130065244Y-120084096D01*
X130024068Y-120138129D01*
X130014258Y-120181791D01*
X130013803Y-120376607D01*
X130082122Y-120501358D01*
X130224761Y-120565770D01*
X130234335Y-120567655D01*
X130349734Y-120597562D01*
X130400399Y-120651697D01*
X130412761Y-120764802D01*
X130412966Y-120802467D01*
X130407233Y-120931895D01*
X130373331Y-120989045D01*
X130286203Y-121003399D01*
X130241867Y-121003768D01*
X130155042Y-120998663D01*
X130092419Y-120970569D01*
X130037334Y-120900317D01*
X129973124Y-120768739D01*
X129911005Y-120623166D01*
X129835195Y-120427999D01*
X129778853Y-120255206D01*
X129752138Y-120136668D01*
X129751242Y-120121743D01*
X129775695Y-119944299D01*
X129838171Y-119775309D01*
X129922342Y-119653950D01*
X129956857Y-119628345D01*
X130041484Y-119608950D01*
X130205083Y-119592080D01*
X130424822Y-119579445D01*
X130677874Y-119572754D01*
X130702305Y-119572495D01*
X131040890Y-119567023D01*
X131291008Y-119556072D01*
X131465949Y-119537116D01*
X131579007Y-119507626D01*
X131643474Y-119465076D01*
X131672643Y-119406939D01*
X131676326Y-119387308D01*
X131714887Y-119297931D01*
X131760693Y-119273106D01*
X131807097Y-119316391D01*
X131836688Y-119450580D01*
X131846231Y-119561031D01*
X131853251Y-119725216D01*
X131840248Y-119818633D01*
X131794249Y-119872076D01*
X131702279Y-119916337D01*
X131695302Y-119919253D01*
X131526938Y-119989550D01*
X131708028Y-120236244D01*
X131814431Y-120384791D01*
X131867925Y-120483711D01*
X131875635Y-120565597D01*
X131844688Y-120663039D01*
X131815976Y-120730002D01*
X131684864Y-120921388D01*
X131503555Y-121029846D01*
X131288766Y-121049171D01*
X131271371Y-121044152D01*
X131101541Y-120995144D01*
X131030244Y-120946369D01*
G36*
X131136166Y-121272033D02*
G01*
X131163767Y-121276507D01*
X131320454Y-121297915D01*
X131450425Y-121308422D01*
X131461447Y-121308618D01*
X131555741Y-121353430D01*
X131647944Y-121489393D01*
X131740080Y-121720308D01*
X131813761Y-121970902D01*
X131863775Y-122182022D01*
X131880273Y-122341365D01*
X131863024Y-122493361D01*
X131811798Y-122682440D01*
X131810041Y-122688153D01*
X131666353Y-122995296D01*
X131452025Y-123245525D01*
X131183112Y-123435287D01*
X130875672Y-123561035D01*
X130545759Y-123619218D01*
X130209429Y-123606286D01*
X129882737Y-123518690D01*
X129581740Y-123352880D01*
X129421929Y-123216151D01*
X129189506Y-122919978D01*
X129036955Y-122586191D01*
X128968142Y-122233675D01*
X128986933Y-121881317D01*
X129085494Y-121572280D01*
X129208724Y-121309179D01*
X129530885Y-121309179D01*
X129706909Y-121312435D01*
X129804044Y-121327100D01*
X129845126Y-121360517D01*
X129853046Y-121412791D01*
X129816417Y-121499691D01*
X129697345Y-121581016D01*
X129631708Y-121611280D01*
X129468413Y-121702407D01*
X129328163Y-121815362D01*
X129295922Y-121851255D01*
X129230937Y-121951129D01*
X129200332Y-122060714D01*
X129196472Y-122217175D01*
X129201352Y-122311608D01*
X129232802Y-122544600D01*
X129305757Y-122711816D01*
X129440352Y-122843882D01*
X129623988Y-122954402D01*
X129814749Y-123019017D01*
X130071287Y-123057601D01*
X130360833Y-123069657D01*
X130650614Y-123054691D01*
X130907860Y-123012209D01*
X131027138Y-122975583D01*
X131304271Y-122825756D01*
X131499272Y-122624840D01*
X131606550Y-122379372D01*
X131622840Y-122279082D01*
X131605676Y-122015434D01*
X131500316Y-121802149D01*
X131308893Y-121642635D01*
X131189793Y-121587203D01*
X131050638Y-121522884D01*
X130986606Y-121455106D01*
X130972886Y-121374661D01*
X130981317Y-121291600D01*
X131026034Y-121262384D01*
X131136166Y-121272033D01*
G37*
X131136166Y-121272033D02*
X131163767Y-121276507D01*
X131320454Y-121297915D01*
X131450425Y-121308422D01*
X131461447Y-121308618D01*
X131555741Y-121353430D01*
X131647944Y-121489393D01*
X131740080Y-121720308D01*
X131813761Y-121970902D01*
X131863775Y-122182022D01*
X131880273Y-122341365D01*
X131863024Y-122493361D01*
X131811798Y-122682440D01*
X131810041Y-122688153D01*
X131666353Y-122995296D01*
X131452025Y-123245525D01*
X131183112Y-123435287D01*
X130875672Y-123561035D01*
X130545759Y-123619218D01*
X130209429Y-123606286D01*
X129882737Y-123518690D01*
X129581740Y-123352880D01*
X129421929Y-123216151D01*
X129189506Y-122919978D01*
X129036955Y-122586191D01*
X128968142Y-122233675D01*
X128986933Y-121881317D01*
X129085494Y-121572280D01*
X129208724Y-121309179D01*
X129530885Y-121309179D01*
X129706909Y-121312435D01*
X129804044Y-121327100D01*
X129845126Y-121360517D01*
X129853046Y-121412791D01*
X129816417Y-121499691D01*
X129697345Y-121581016D01*
X129631708Y-121611280D01*
X129468413Y-121702407D01*
X129328163Y-121815362D01*
X129295922Y-121851255D01*
X129230937Y-121951129D01*
X129200332Y-122060714D01*
X129196472Y-122217175D01*
X129201352Y-122311608D01*
X129232802Y-122544600D01*
X129305757Y-122711816D01*
X129440352Y-122843882D01*
X129623988Y-122954402D01*
X129814749Y-123019017D01*
X130071287Y-123057601D01*
X130360833Y-123069657D01*
X130650614Y-123054691D01*
X130907860Y-123012209D01*
X131027138Y-122975583D01*
X131304271Y-122825756D01*
X131499272Y-122624840D01*
X131606550Y-122379372D01*
X131622840Y-122279082D01*
X131605676Y-122015434D01*
X131500316Y-121802149D01*
X131308893Y-121642635D01*
X131189793Y-121587203D01*
X131050638Y-121522884D01*
X130986606Y-121455106D01*
X130972886Y-121374661D01*
X130981317Y-121291600D01*
X131026034Y-121262384D01*
X131136166Y-121272033D01*
G36*
X129891222Y-126968730D02*
G01*
X129951038Y-127008563D01*
X129984293Y-127113671D01*
X129995815Y-127226971D01*
X130011329Y-127468297D01*
X130632087Y-127463223D01*
X130949241Y-127458790D01*
X131179092Y-127448606D01*
X131336131Y-127428375D01*
X131434850Y-127393799D01*
X131489737Y-127340584D01*
X131515285Y-127264433D01*
X131523153Y-127199052D01*
X131556056Y-127058435D01*
X131619010Y-127013439D01*
X131705617Y-127064631D01*
X131787872Y-127175611D01*
X131865256Y-127327963D01*
X131879473Y-127456936D01*
X131833452Y-127611377D01*
X131816433Y-127651561D01*
X131744640Y-127770197D01*
X131665045Y-127841000D01*
X131661557Y-127842442D01*
X131582436Y-127853935D01*
X131421502Y-127863693D01*
X131198744Y-127870955D01*
X130934146Y-127874964D01*
X130790566Y-127875511D01*
X130005751Y-127875511D01*
X130005751Y-128019733D01*
X129994812Y-128136355D01*
X129971706Y-128198000D01*
X129913022Y-128198128D01*
X129837237Y-128138105D01*
X129773704Y-128048367D01*
X129751242Y-127969426D01*
X129711286Y-127889383D01*
X129658962Y-127875511D01*
X129565576Y-127839142D01*
X129451578Y-127751167D01*
X129350446Y-127643282D01*
X129295660Y-127547185D01*
X129293126Y-127529139D01*
X129341672Y-127488837D01*
X129481469Y-127469642D01*
X129547635Y-127468297D01*
X129802144Y-127468297D01*
X129802144Y-127210055D01*
X129807353Y-127056895D01*
X129828443Y-126983043D01*
X129873611Y-126966298D01*
X129891222Y-126968730D01*
G37*
X129891222Y-126968730D02*
X129951038Y-127008563D01*
X129984293Y-127113671D01*
X129995815Y-127226971D01*
X130011329Y-127468297D01*
X130632087Y-127463223D01*
X130949241Y-127458790D01*
X131179092Y-127448606D01*
X131336131Y-127428375D01*
X131434850Y-127393799D01*
X131489737Y-127340584D01*
X131515285Y-127264433D01*
X131523153Y-127199052D01*
X131556056Y-127058435D01*
X131619010Y-127013439D01*
X131705617Y-127064631D01*
X131787872Y-127175611D01*
X131865256Y-127327963D01*
X131879473Y-127456936D01*
X131833452Y-127611377D01*
X131816433Y-127651561D01*
X131744640Y-127770197D01*
X131665045Y-127841000D01*
X131661557Y-127842442D01*
X131582436Y-127853935D01*
X131421502Y-127863693D01*
X131198744Y-127870955D01*
X130934146Y-127874964D01*
X130790566Y-127875511D01*
X130005751Y-127875511D01*
X130005751Y-128019733D01*
X129994812Y-128136355D01*
X129971706Y-128198000D01*
X129913022Y-128198128D01*
X129837237Y-128138105D01*
X129773704Y-128048367D01*
X129751242Y-127969426D01*
X129711286Y-127889383D01*
X129658962Y-127875511D01*
X129565576Y-127839142D01*
X129451578Y-127751167D01*
X129350446Y-127643282D01*
X129295660Y-127547185D01*
X129293126Y-127529139D01*
X129341672Y-127488837D01*
X129481469Y-127469642D01*
X129547635Y-127468297D01*
X129802144Y-127468297D01*
X129802144Y-127210055D01*
X129807353Y-127056895D01*
X129828443Y-126983043D01*
X129873611Y-126966298D01*
X129891222Y-126968730D01*
G36*
X131707902Y-128247663D02*
G01*
X131746251Y-128308562D01*
X131780123Y-128434597D01*
X131809609Y-128595433D01*
X131822474Y-128720962D01*
X131791050Y-128786665D01*
X131695279Y-128831594D01*
X131686799Y-128834569D01*
X131580815Y-128879002D01*
X131533026Y-128913830D01*
X131532805Y-128915362D01*
X131558203Y-128968973D01*
X131624566Y-129082494D01*
X131710962Y-129220975D01*
X131801838Y-129370029D01*
X131864185Y-129485750D01*
X131883908Y-129540100D01*
X131869537Y-129613532D01*
X131841525Y-129737894D01*
X131838470Y-129750869D01*
X131797001Y-129881657D01*
X131750962Y-129968095D01*
X131748100Y-129971158D01*
X131630803Y-130032638D01*
X131418239Y-130076773D01*
X131108716Y-130103788D01*
X130700540Y-130113909D01*
X130677001Y-130113976D01*
X130415843Y-130115112D01*
X130240177Y-130119358D01*
X130133691Y-130129773D01*
X130080074Y-130149413D01*
X130063013Y-130181336D01*
X130066179Y-130228465D01*
X130048849Y-130329001D01*
X130002221Y-130357681D01*
X129944955Y-130337148D01*
X129896577Y-130240103D01*
X129862241Y-130113269D01*
X129821804Y-129941370D01*
X129801157Y-129818975D01*
X129813194Y-129737721D01*
X129870805Y-129689248D01*
X129986884Y-129665195D01*
X130174322Y-129657201D01*
X130446011Y-129656906D01*
X130565671Y-129657074D01*
X130863234Y-129655991D01*
X131076291Y-129651385D01*
X131222129Y-129641223D01*
X131318036Y-129623471D01*
X131381298Y-129596095D01*
X131429203Y-129557061D01*
X131431002Y-129555271D01*
X131505580Y-129463910D01*
X131524239Y-129373940D01*
X131485915Y-129254982D01*
X131415819Y-129122605D01*
X131300508Y-128918998D01*
X130691306Y-128918998D01*
X130434443Y-128919656D01*
X130262743Y-128923756D01*
X130159564Y-128934490D01*
X130108267Y-128955052D01*
X130092209Y-128988632D01*
X130094229Y-129033527D01*
X130078965Y-129124980D01*
X130009369Y-129148056D01*
X129944080Y-129124020D01*
X129895955Y-129037985D01*
X129857264Y-128891042D01*
X129821251Y-128729472D01*
X129800977Y-128611224D01*
X129808758Y-128529582D01*
X129856911Y-128477831D01*
X129957753Y-128449255D01*
X130123600Y-128437140D01*
X130366770Y-128434770D01*
X130692926Y-128435431D01*
X131013466Y-128434924D01*
X131246220Y-128432336D01*
X131405201Y-128426064D01*
X131504425Y-128414508D01*
X131557907Y-128396065D01*
X131579662Y-128369133D01*
X131583707Y-128333627D01*
X131614069Y-128251091D01*
X131656630Y-128231824D01*
X131707902Y-128247663D01*
G37*
X131707902Y-128247663D02*
X131746251Y-128308562D01*
X131780123Y-128434597D01*
X131809609Y-128595433D01*
X131822474Y-128720962D01*
X131791050Y-128786665D01*
X131695279Y-128831594D01*
X131686799Y-128834569D01*
X131580815Y-128879002D01*
X131533026Y-128913830D01*
X131532805Y-128915362D01*
X131558203Y-128968973D01*
X131624566Y-129082494D01*
X131710962Y-129220975D01*
X131801838Y-129370029D01*
X131864185Y-129485750D01*
X131883908Y-129540100D01*
X131869537Y-129613532D01*
X131841525Y-129737894D01*
X131838470Y-129750869D01*
X131797001Y-129881657D01*
X131750962Y-129968095D01*
X131748100Y-129971158D01*
X131630803Y-130032638D01*
X131418239Y-130076773D01*
X131108716Y-130103788D01*
X130700540Y-130113909D01*
X130677001Y-130113976D01*
X130415843Y-130115112D01*
X130240177Y-130119358D01*
X130133691Y-130129773D01*
X130080074Y-130149413D01*
X130063013Y-130181336D01*
X130066179Y-130228465D01*
X130048849Y-130329001D01*
X130002221Y-130357681D01*
X129944955Y-130337148D01*
X129896577Y-130240103D01*
X129862241Y-130113269D01*
X129821804Y-129941370D01*
X129801157Y-129818975D01*
X129813194Y-129737721D01*
X129870805Y-129689248D01*
X129986884Y-129665195D01*
X130174322Y-129657201D01*
X130446011Y-129656906D01*
X130565671Y-129657074D01*
X130863234Y-129655991D01*
X131076291Y-129651385D01*
X131222129Y-129641223D01*
X131318036Y-129623471D01*
X131381298Y-129596095D01*
X131429203Y-129557061D01*
X131431002Y-129555271D01*
X131505580Y-129463910D01*
X131524239Y-129373940D01*
X131485915Y-129254982D01*
X131415819Y-129122605D01*
X131300508Y-128918998D01*
X130691306Y-128918998D01*
X130434443Y-128919656D01*
X130262743Y-128923756D01*
X130159564Y-128934490D01*
X130108267Y-128955052D01*
X130092209Y-128988632D01*
X130094229Y-129033527D01*
X130078965Y-129124980D01*
X130009369Y-129148056D01*
X129944080Y-129124020D01*
X129895955Y-129037985D01*
X129857264Y-128891042D01*
X129821251Y-128729472D01*
X129800977Y-128611224D01*
X129808758Y-128529582D01*
X129856911Y-128477831D01*
X129957753Y-128449255D01*
X130123600Y-128437140D01*
X130366770Y-128434770D01*
X130692926Y-128435431D01*
X131013466Y-128434924D01*
X131246220Y-128432336D01*
X131405201Y-128426064D01*
X131504425Y-128414508D01*
X131557907Y-128396065D01*
X131579662Y-128369133D01*
X131583707Y-128333627D01*
X131614069Y-128251091D01*
X131656630Y-128231824D01*
X131707902Y-128247663D01*
G36*
X130316650Y-132202655D02*
G01*
X130081503Y-132017084D01*
X129970484Y-131879086D01*
X129823152Y-131590384D01*
X129782232Y-131372222D01*
X129967507Y-131372222D01*
X129984146Y-131533884D01*
X130085455Y-131681582D01*
X130123975Y-131713563D01*
X130294384Y-131791784D01*
X130527897Y-131835928D01*
X130791487Y-131845426D01*
X131052128Y-131819708D01*
X131276791Y-131758204D01*
X131329025Y-131734352D01*
X131477052Y-131639736D01*
X131590420Y-131534408D01*
X131620960Y-131489539D01*
X131671341Y-131379005D01*
X131674058Y-131307780D01*
X131625889Y-131223582D01*
X131602506Y-131190077D01*
X131451218Y-131056283D01*
X131234694Y-130970121D01*
X130977392Y-130931068D01*
X130703772Y-130938605D01*
X130438292Y-130992211D01*
X130205411Y-131091366D01*
X130040112Y-131223340D01*
X129967507Y-131372222D01*
X129782232Y-131372222D01*
X129770132Y-131307711D01*
X129809346Y-131042843D01*
X129938714Y-130807558D01*
X130156160Y-130613633D01*
X130198426Y-130587558D01*
X130361928Y-130505536D01*
X130522245Y-130464107D01*
X130727555Y-130451744D01*
X130766182Y-130451687D01*
X131021023Y-130469499D01*
X131217209Y-130517466D01*
X131258015Y-130535919D01*
X131482995Y-130704585D01*
X131672900Y-130942888D01*
X131803027Y-131219190D01*
X131810580Y-131243552D01*
X131858360Y-131405113D01*
X131879407Y-131506039D01*
X131872490Y-131584250D01*
X131836379Y-131677670D01*
X131793440Y-131771605D01*
X131629510Y-132022004D01*
X131408687Y-132202396D01*
X131148979Y-132311719D01*
X130868397Y-132348911D01*
X130791487Y-132339143D01*
X130584951Y-132312910D01*
X130316650Y-132202655D01*
G37*
X130316650Y-132202655D02*
X130081503Y-132017084D01*
X129970484Y-131879086D01*
X129823152Y-131590384D01*
X129782232Y-131372222D01*
X129967507Y-131372222D01*
X129984146Y-131533884D01*
X130085455Y-131681582D01*
X130123975Y-131713563D01*
X130294384Y-131791784D01*
X130527897Y-131835928D01*
X130791487Y-131845426D01*
X131052128Y-131819708D01*
X131276791Y-131758204D01*
X131329025Y-131734352D01*
X131477052Y-131639736D01*
X131590420Y-131534408D01*
X131620960Y-131489539D01*
X131671341Y-131379005D01*
X131674058Y-131307780D01*
X131625889Y-131223582D01*
X131602506Y-131190077D01*
X131451218Y-131056283D01*
X131234694Y-130970121D01*
X130977392Y-130931068D01*
X130703772Y-130938605D01*
X130438292Y-130992211D01*
X130205411Y-131091366D01*
X130040112Y-131223340D01*
X129967507Y-131372222D01*
X129782232Y-131372222D01*
X129770132Y-131307711D01*
X129809346Y-131042843D01*
X129938714Y-130807558D01*
X130156160Y-130613633D01*
X130198426Y-130587558D01*
X130361928Y-130505536D01*
X130522245Y-130464107D01*
X130727555Y-130451744D01*
X130766182Y-130451687D01*
X131021023Y-130469499D01*
X131217209Y-130517466D01*
X131258015Y-130535919D01*
X131482995Y-130704585D01*
X131672900Y-130942888D01*
X131803027Y-131219190D01*
X131810580Y-131243552D01*
X131858360Y-131405113D01*
X131879407Y-131506039D01*
X131872490Y-131584250D01*
X131836379Y-131677670D01*
X131793440Y-131771605D01*
X131629510Y-132022004D01*
X131408687Y-132202396D01*
X131148979Y-132311719D01*
X130868397Y-132348911D01*
X130791487Y-132339143D01*
X130584951Y-132312910D01*
X130316650Y-132202655D01*
G36*
X131098047Y-132581423D02*
G01*
X131332598Y-132677171D01*
X131539754Y-132862291D01*
X131711806Y-133130923D01*
X131782096Y-133294291D01*
X131861255Y-133554806D01*
X131880447Y-133771394D01*
X131842773Y-133980040D01*
X131841558Y-133984057D01*
X131755010Y-134203728D01*
X131650891Y-134367924D01*
X131542926Y-134456229D01*
X131519154Y-134463625D01*
X131392006Y-134487447D01*
X131231151Y-134514979D01*
X131211224Y-134518217D01*
X131085843Y-134534232D01*
X131033902Y-134513660D01*
X131028373Y-134436348D01*
X131033067Y-134385387D01*
X131062875Y-134264959D01*
X131142790Y-134194877D01*
X131224586Y-134162505D01*
X131425599Y-134045941D01*
X131558309Y-133854317D01*
X131621846Y-133589631D01*
X131628323Y-133422434D01*
X131599455Y-133307509D01*
X131523025Y-133197983D01*
X131518337Y-133192507D01*
X131401174Y-133087434D01*
X131264247Y-133047504D01*
X131185961Y-133044358D01*
X131043302Y-133058600D01*
X130924181Y-133110484D01*
X130815095Y-133213742D01*
X130702541Y-133382112D01*
X130573014Y-133629326D01*
X130536422Y-133705009D01*
X130393783Y-133984968D01*
X130268299Y-134182547D01*
X130145886Y-134312258D01*
X130012455Y-134388614D01*
X129853923Y-134426126D01*
X129834142Y-134428528D01*
X129590489Y-134416413D01*
X129384716Y-134317084D01*
X129209488Y-134125683D01*
X129107228Y-133947010D01*
X128990418Y-133609351D01*
X128969110Y-133276661D01*
X129043900Y-132961536D01*
X129059073Y-132926137D01*
X129155882Y-132711183D01*
X129453562Y-132711183D01*
X129621970Y-132715316D01*
X129712021Y-132732819D01*
X129746999Y-132771346D01*
X129751242Y-132809039D01*
X129705841Y-132899010D01*
X129573882Y-132965429D01*
X129366306Y-133080516D01*
X129237029Y-133259156D01*
X129191348Y-133493944D01*
X129191322Y-133500161D01*
X129226577Y-133722416D01*
X129325098Y-133884372D01*
X129476019Y-133972078D01*
X129567907Y-133983728D01*
X129685703Y-133967112D01*
X129790254Y-133908546D01*
X129893032Y-133794947D01*
X130005508Y-133613236D01*
X130139152Y-133350330D01*
X130158114Y-133310694D01*
X130319528Y-133007774D01*
X130476704Y-132793737D01*
X130640698Y-132656814D01*
X130822567Y-132585239D01*
X130843812Y-132580911D01*
X131098047Y-132581423D01*
G37*
X131098047Y-132581423D02*
X131332598Y-132677171D01*
X131539754Y-132862291D01*
X131711806Y-133130923D01*
X131782096Y-133294291D01*
X131861255Y-133554806D01*
X131880447Y-133771394D01*
X131842773Y-133980040D01*
X131841558Y-133984057D01*
X131755010Y-134203728D01*
X131650891Y-134367924D01*
X131542926Y-134456229D01*
X131519154Y-134463625D01*
X131392006Y-134487447D01*
X131231151Y-134514979D01*
X131211224Y-134518217D01*
X131085843Y-134534232D01*
X131033902Y-134513660D01*
X131028373Y-134436348D01*
X131033067Y-134385387D01*
X131062875Y-134264959D01*
X131142790Y-134194877D01*
X131224586Y-134162505D01*
X131425599Y-134045941D01*
X131558309Y-133854317D01*
X131621846Y-133589631D01*
X131628323Y-133422434D01*
X131599455Y-133307509D01*
X131523025Y-133197983D01*
X131518337Y-133192507D01*
X131401174Y-133087434D01*
X131264247Y-133047504D01*
X131185961Y-133044358D01*
X131043302Y-133058600D01*
X130924181Y-133110484D01*
X130815095Y-133213742D01*
X130702541Y-133382112D01*
X130573014Y-133629326D01*
X130536422Y-133705009D01*
X130393783Y-133984968D01*
X130268299Y-134182547D01*
X130145886Y-134312258D01*
X130012455Y-134388614D01*
X129853923Y-134426126D01*
X129834142Y-134428528D01*
X129590489Y-134416413D01*
X129384716Y-134317084D01*
X129209488Y-134125683D01*
X129107228Y-133947010D01*
X128990418Y-133609351D01*
X128969110Y-133276661D01*
X129043900Y-132961536D01*
X129059073Y-132926137D01*
X129155882Y-132711183D01*
X129453562Y-132711183D01*
X129621970Y-132715316D01*
X129712021Y-132732819D01*
X129746999Y-132771346D01*
X129751242Y-132809039D01*
X129705841Y-132899010D01*
X129573882Y-132965429D01*
X129366306Y-133080516D01*
X129237029Y-133259156D01*
X129191348Y-133493944D01*
X129191322Y-133500161D01*
X129226577Y-133722416D01*
X129325098Y-133884372D01*
X129476019Y-133972078D01*
X129567907Y-133983728D01*
X129685703Y-133967112D01*
X129790254Y-133908546D01*
X129893032Y-133794947D01*
X130005508Y-133613236D01*
X130139152Y-133350330D01*
X130158114Y-133310694D01*
X130319528Y-133007774D01*
X130476704Y-132793737D01*
X130640698Y-132656814D01*
X130822567Y-132585239D01*
X130843812Y-132580911D01*
X131098047Y-132581423D01*
D15*
%TO.C,J1*%
X131191000Y-80899000D02*
X120269000Y-80899000D01*
X131191000Y-76454000D02*
X120269000Y-76454000D01*
X120269000Y-80899000D02*
X120269000Y-76454000D01*
X131191000Y-80899000D02*
X131191000Y-76454000D01*
D14*
%TO.C,U5*%
X111905000Y-141495000D02*
X111905000Y-141670000D01*
X115155000Y-141495000D02*
X115155000Y-141770000D01*
X115155000Y-144745000D02*
X115155000Y-144470000D01*
X111905000Y-144745000D02*
X111905000Y-144470000D01*
X111905000Y-141495000D02*
X115155000Y-141495000D01*
X111905000Y-144745000D02*
X115155000Y-144745000D01*
X111905000Y-141670000D02*
X110830000Y-141670000D01*
D15*
%TO.C,U2*%
X112980000Y-86435000D02*
X111165000Y-86435000D01*
X112980000Y-86180000D02*
X112980000Y-86435000D01*
X116840000Y-86180000D02*
X112980000Y-86180000D01*
X120700000Y-86180000D02*
X120700000Y-86435000D01*
X116840000Y-86180000D02*
X120700000Y-86180000D01*
X112980000Y-96700000D02*
X112980000Y-96445000D01*
X116840000Y-96700000D02*
X112980000Y-96700000D01*
X120700000Y-96700000D02*
X120700000Y-96445000D01*
X116840000Y-96700000D02*
X120700000Y-96700000D01*
%TO.C,R6*%
X139532500Y-120107064D02*
X139532500Y-118652936D01*
X137712500Y-120107064D02*
X137712500Y-118652936D01*
%TO.C,R5*%
X139340000Y-104867064D02*
X139340000Y-103412936D01*
X137520000Y-104867064D02*
X137520000Y-103412936D01*
%TO.C,D3*%
X140410000Y-85370000D02*
X140410000Y-93770000D01*
X133910000Y-85370000D02*
X133910000Y-93770000D01*
X133910000Y-85370000D02*
X140410000Y-85370000D01*
%TO.C,D2*%
X131520000Y-85370000D02*
X131520000Y-93770000D01*
X125020000Y-85370000D02*
X125020000Y-93770000D01*
X125020000Y-85370000D02*
X131520000Y-85370000D01*
%TO.C,A2*%
X134750000Y-100200000D02*
X116710000Y-100200000D01*
X134750000Y-143640000D02*
X134750000Y-100200000D01*
X116710000Y-143640000D02*
X134750000Y-143640000D01*
X119380000Y-140970000D02*
X116710000Y-140970000D01*
X119380000Y-105410000D02*
X119380000Y-140970000D01*
X119380000Y-105410000D02*
X116710000Y-105410000D01*
X132080000Y-140970000D02*
X134750000Y-140970000D01*
X132080000Y-102870000D02*
X132080000Y-140970000D01*
X132080000Y-102870000D02*
X134750000Y-102870000D01*
X116710000Y-100200000D02*
X116710000Y-102870000D01*
X116710000Y-105410000D02*
X116710000Y-143640000D01*
X119380000Y-102870000D02*
X116710000Y-102870000D01*
X119380000Y-105410000D02*
X119380000Y-102870000D01*
%TD*%
M02*
