%TF.GenerationSoftware,KiCad,Pcbnew,(6.0.4)*%
%TF.CreationDate,2022-04-23T15:23:27-04:00*%
%TF.ProjectId,smart penetrometer,736d6172-7420-4706-956e-6574726f6d65,rev?*%
%TF.SameCoordinates,Original*%
%TF.FileFunction,Legend,Bot*%
%TF.FilePolarity,Positive*%
%FSLAX46Y46*%
G04 Gerber Fmt 4.6, Leading zero omitted, Abs format (unit mm)*
G04 Created by KiCad (PCBNEW (6.0.4)) date 2022-04-23 15:23:27*
%MOMM*%
%LPD*%
G01*
G04 APERTURE LIST*
%ADD10C,0.250000*%
%ADD11C,0.125000*%
%ADD12C,0.187500*%
%ADD13C,0.300000*%
%ADD14C,0.150000*%
%ADD15C,0.120000*%
G04 APERTURE END LIST*
D10*
X130492380Y-135013571D02*
X130349523Y-135061190D01*
X130301904Y-135108809D01*
X130254285Y-135204047D01*
X130254285Y-135346904D01*
X130301904Y-135442142D01*
X130349523Y-135489761D01*
X130444761Y-135537380D01*
X130825714Y-135537380D01*
X130825714Y-134537380D01*
X130492380Y-134537380D01*
X130397142Y-134585000D01*
X130349523Y-134632619D01*
X130301904Y-134727857D01*
X130301904Y-134823095D01*
X130349523Y-134918333D01*
X130397142Y-134965952D01*
X130492380Y-135013571D01*
X130825714Y-135013571D01*
X129825714Y-135537380D02*
X129825714Y-134537380D01*
X129492380Y-135251666D01*
X129159047Y-134537380D01*
X129159047Y-135537380D01*
X128682857Y-135013571D02*
X128349523Y-135013571D01*
X128206666Y-135537380D02*
X128682857Y-135537380D01*
X128682857Y-134537380D01*
X128206666Y-134537380D01*
X130778095Y-136242619D02*
X130730476Y-136195000D01*
X130635238Y-136147380D01*
X130397142Y-136147380D01*
X130301904Y-136195000D01*
X130254285Y-136242619D01*
X130206666Y-136337857D01*
X130206666Y-136433095D01*
X130254285Y-136575952D01*
X130825714Y-137147380D01*
X130206666Y-137147380D01*
X129635238Y-136575952D02*
X129730476Y-136528333D01*
X129778095Y-136480714D01*
X129825714Y-136385476D01*
X129825714Y-136337857D01*
X129778095Y-136242619D01*
X129730476Y-136195000D01*
X129635238Y-136147380D01*
X129444761Y-136147380D01*
X129349523Y-136195000D01*
X129301904Y-136242619D01*
X129254285Y-136337857D01*
X129254285Y-136385476D01*
X129301904Y-136480714D01*
X129349523Y-136528333D01*
X129444761Y-136575952D01*
X129635238Y-136575952D01*
X129730476Y-136623571D01*
X129778095Y-136671190D01*
X129825714Y-136766428D01*
X129825714Y-136956904D01*
X129778095Y-137052142D01*
X129730476Y-137099761D01*
X129635238Y-137147380D01*
X129444761Y-137147380D01*
X129349523Y-137099761D01*
X129301904Y-137052142D01*
X129254285Y-136956904D01*
X129254285Y-136766428D01*
X129301904Y-136671190D01*
X129349523Y-136623571D01*
X129444761Y-136575952D01*
X128635238Y-136147380D02*
X128540000Y-136147380D01*
X128444761Y-136195000D01*
X128397142Y-136242619D01*
X128349523Y-136337857D01*
X128301904Y-136528333D01*
X128301904Y-136766428D01*
X128349523Y-136956904D01*
X128397142Y-137052142D01*
X128444761Y-137099761D01*
X128540000Y-137147380D01*
X128635238Y-137147380D01*
X128730476Y-137099761D01*
X128778095Y-137052142D01*
X128825714Y-136956904D01*
X128873333Y-136766428D01*
X128873333Y-136528333D01*
X128825714Y-136337857D01*
X128778095Y-136242619D01*
X128730476Y-136195000D01*
X128635238Y-136147380D01*
D11*
X130587142Y-117562380D02*
X129920476Y-117562380D01*
X130587142Y-118562380D01*
X129920476Y-118562380D01*
X129539523Y-118038571D02*
X129206190Y-118038571D01*
X129063333Y-118562380D02*
X129539523Y-118562380D01*
X129539523Y-117562380D01*
X129063333Y-117562380D01*
X128634761Y-118562380D02*
X128634761Y-117562380D01*
X128063333Y-118562380D01*
X128063333Y-117562380D01*
X127587142Y-118038571D02*
X127253809Y-118038571D01*
X127110952Y-118562380D02*
X127587142Y-118562380D01*
X127587142Y-117562380D01*
X127110952Y-117562380D01*
X126110952Y-118562380D02*
X126444285Y-118086190D01*
X126682380Y-118562380D02*
X126682380Y-117562380D01*
X126301428Y-117562380D01*
X126206190Y-117610000D01*
X126158571Y-117657619D01*
X126110952Y-117752857D01*
X126110952Y-117895714D01*
X126158571Y-117990952D01*
X126206190Y-118038571D01*
X126301428Y-118086190D01*
X126682380Y-118086190D01*
X124920476Y-118562380D02*
X124920476Y-117562380D01*
X124682380Y-117562380D01*
X124539523Y-117610000D01*
X124444285Y-117705238D01*
X124396666Y-117800476D01*
X124349047Y-117990952D01*
X124349047Y-118133809D01*
X124396666Y-118324285D01*
X124444285Y-118419523D01*
X124539523Y-118514761D01*
X124682380Y-118562380D01*
X124920476Y-118562380D01*
X123920476Y-118562380D02*
X123920476Y-117562380D01*
X123253809Y-117562380D02*
X123063333Y-117562380D01*
X122968095Y-117610000D01*
X122872857Y-117705238D01*
X122825238Y-117895714D01*
X122825238Y-118229047D01*
X122872857Y-118419523D01*
X122968095Y-118514761D01*
X123063333Y-118562380D01*
X123253809Y-118562380D01*
X123349047Y-118514761D01*
X123444285Y-118419523D01*
X123491904Y-118229047D01*
X123491904Y-117895714D01*
X123444285Y-117705238D01*
X123349047Y-117610000D01*
X123253809Y-117562380D01*
X122396666Y-118562380D02*
X122396666Y-117562380D01*
X122158571Y-117562380D01*
X122015714Y-117610000D01*
X121920476Y-117705238D01*
X121872857Y-117800476D01*
X121825238Y-117990952D01*
X121825238Y-118133809D01*
X121872857Y-118324285D01*
X121920476Y-118419523D01*
X122015714Y-118514761D01*
X122158571Y-118562380D01*
X122396666Y-118562380D01*
X121396666Y-118038571D02*
X121063333Y-118038571D01*
X120920476Y-118562380D02*
X121396666Y-118562380D01*
X121396666Y-117562380D01*
X120920476Y-117562380D01*
D12*
X132730000Y-101189285D02*
X132265714Y-101189285D01*
X132515714Y-101475000D01*
X132408571Y-101475000D01*
X132337142Y-101510714D01*
X132301428Y-101546428D01*
X132265714Y-101617857D01*
X132265714Y-101796428D01*
X132301428Y-101867857D01*
X132337142Y-101903571D01*
X132408571Y-101939285D01*
X132622857Y-101939285D01*
X132694285Y-101903571D01*
X132730000Y-101867857D01*
X132051428Y-101189285D02*
X131801428Y-101939285D01*
X131551428Y-101189285D01*
X131372857Y-101189285D02*
X130908571Y-101189285D01*
X131158571Y-101475000D01*
X131051428Y-101475000D01*
X130980000Y-101510714D01*
X130944285Y-101546428D01*
X130908571Y-101617857D01*
X130908571Y-101796428D01*
X130944285Y-101867857D01*
X130980000Y-101903571D01*
X131051428Y-101939285D01*
X131265714Y-101939285D01*
X131337142Y-101903571D01*
X131372857Y-101867857D01*
X130122857Y-101189285D02*
X129872857Y-101939285D01*
X129622857Y-101189285D01*
X129230000Y-101189285D02*
X129087142Y-101189285D01*
X129015714Y-101225000D01*
X128944285Y-101296428D01*
X128908571Y-101439285D01*
X128908571Y-101689285D01*
X128944285Y-101832142D01*
X129015714Y-101903571D01*
X129087142Y-101939285D01*
X129230000Y-101939285D01*
X129301428Y-101903571D01*
X129372857Y-101832142D01*
X129408571Y-101689285D01*
X129408571Y-101439285D01*
X129372857Y-101296428D01*
X129301428Y-101225000D01*
X129230000Y-101189285D01*
X128230000Y-101939285D02*
X128587142Y-101939285D01*
X128587142Y-101189285D01*
X128087142Y-101189285D02*
X127658571Y-101189285D01*
X127872857Y-101939285D02*
X127872857Y-101189285D01*
X127444285Y-101725000D02*
X127087142Y-101725000D01*
X127515714Y-101939285D02*
X127265714Y-101189285D01*
X127015714Y-101939285D01*
X126372857Y-101225000D02*
X126444285Y-101189285D01*
X126551428Y-101189285D01*
X126658571Y-101225000D01*
X126730000Y-101296428D01*
X126765714Y-101367857D01*
X126801428Y-101510714D01*
X126801428Y-101617857D01*
X126765714Y-101760714D01*
X126730000Y-101832142D01*
X126658571Y-101903571D01*
X126551428Y-101939285D01*
X126480000Y-101939285D01*
X126372857Y-101903571D01*
X126337142Y-101867857D01*
X126337142Y-101617857D01*
X126480000Y-101617857D01*
X126015714Y-101546428D02*
X125765714Y-101546428D01*
X125658571Y-101939285D02*
X126015714Y-101939285D01*
X126015714Y-101189285D01*
X125658571Y-101189285D01*
X124337142Y-101939285D02*
X124587142Y-101582142D01*
X124765714Y-101939285D02*
X124765714Y-101189285D01*
X124480000Y-101189285D01*
X124408571Y-101225000D01*
X124372857Y-101260714D01*
X124337142Y-101332142D01*
X124337142Y-101439285D01*
X124372857Y-101510714D01*
X124408571Y-101546428D01*
X124480000Y-101582142D01*
X124765714Y-101582142D01*
X124015714Y-101546428D02*
X123765714Y-101546428D01*
X123658571Y-101939285D02*
X124015714Y-101939285D01*
X124015714Y-101189285D01*
X123658571Y-101189285D01*
X122944285Y-101225000D02*
X123015714Y-101189285D01*
X123122857Y-101189285D01*
X123230000Y-101225000D01*
X123301428Y-101296428D01*
X123337142Y-101367857D01*
X123372857Y-101510714D01*
X123372857Y-101617857D01*
X123337142Y-101760714D01*
X123301428Y-101832142D01*
X123230000Y-101903571D01*
X123122857Y-101939285D01*
X123051428Y-101939285D01*
X122944285Y-101903571D01*
X122908571Y-101867857D01*
X122908571Y-101617857D01*
X123051428Y-101617857D01*
X122587142Y-101189285D02*
X122587142Y-101796428D01*
X122551428Y-101867857D01*
X122515714Y-101903571D01*
X122444285Y-101939285D01*
X122301428Y-101939285D01*
X122230000Y-101903571D01*
X122194285Y-101867857D01*
X122158571Y-101796428D01*
X122158571Y-101189285D01*
X121444285Y-101939285D02*
X121801428Y-101939285D01*
X121801428Y-101189285D01*
X121230000Y-101725000D02*
X120872857Y-101725000D01*
X121301428Y-101939285D02*
X121051428Y-101189285D01*
X120801428Y-101939285D01*
X120658571Y-101189285D02*
X120230000Y-101189285D01*
X120444285Y-101939285D02*
X120444285Y-101189285D01*
X119837142Y-101189285D02*
X119694285Y-101189285D01*
X119622857Y-101225000D01*
X119551428Y-101296428D01*
X119515714Y-101439285D01*
X119515714Y-101689285D01*
X119551428Y-101832142D01*
X119622857Y-101903571D01*
X119694285Y-101939285D01*
X119837142Y-101939285D01*
X119908571Y-101903571D01*
X119980000Y-101832142D01*
X120015714Y-101689285D01*
X120015714Y-101439285D01*
X119980000Y-101296428D01*
X119908571Y-101225000D01*
X119837142Y-101189285D01*
X118765714Y-101939285D02*
X119015714Y-101582142D01*
X119194285Y-101939285D02*
X119194285Y-101189285D01*
X118908571Y-101189285D01*
X118837142Y-101225000D01*
X118801428Y-101260714D01*
X118765714Y-101332142D01*
X118765714Y-101439285D01*
X118801428Y-101510714D01*
X118837142Y-101546428D01*
X118908571Y-101582142D01*
X119194285Y-101582142D01*
D13*
X140015714Y-145387142D02*
X139801428Y-145458571D01*
X139444285Y-145458571D01*
X139301428Y-145387142D01*
X139230000Y-145315714D01*
X139158571Y-145172857D01*
X139158571Y-145030000D01*
X139230000Y-144887142D01*
X139301428Y-144815714D01*
X139444285Y-144744285D01*
X139730000Y-144672857D01*
X139872857Y-144601428D01*
X139944285Y-144530000D01*
X140015714Y-144387142D01*
X140015714Y-144244285D01*
X139944285Y-144101428D01*
X139872857Y-144030000D01*
X139730000Y-143958571D01*
X139372857Y-143958571D01*
X139158571Y-144030000D01*
X138515714Y-145458571D02*
X138515714Y-143958571D01*
X138015714Y-145030000D01*
X137515714Y-143958571D01*
X137515714Y-145458571D01*
X136872857Y-145030000D02*
X136158571Y-145030000D01*
X137015714Y-145458571D02*
X136515714Y-143958571D01*
X136015714Y-145458571D01*
X134658571Y-145458571D02*
X135158571Y-144744285D01*
X135515714Y-145458571D02*
X135515714Y-143958571D01*
X134944285Y-143958571D01*
X134801428Y-144030000D01*
X134730000Y-144101428D01*
X134658571Y-144244285D01*
X134658571Y-144458571D01*
X134730000Y-144601428D01*
X134801428Y-144672857D01*
X134944285Y-144744285D01*
X135515714Y-144744285D01*
X134230000Y-143958571D02*
X133372857Y-143958571D01*
X133801428Y-145458571D02*
X133801428Y-143958571D01*
X131730000Y-145458571D02*
X131730000Y-143958571D01*
X131158571Y-143958571D01*
X131015714Y-144030000D01*
X130944285Y-144101428D01*
X130872857Y-144244285D01*
X130872857Y-144458571D01*
X130944285Y-144601428D01*
X131015714Y-144672857D01*
X131158571Y-144744285D01*
X131730000Y-144744285D01*
X130230000Y-144672857D02*
X129730000Y-144672857D01*
X129515714Y-145458571D02*
X130230000Y-145458571D01*
X130230000Y-143958571D01*
X129515714Y-143958571D01*
X128872857Y-145458571D02*
X128872857Y-143958571D01*
X128015714Y-145458571D01*
X128015714Y-143958571D01*
X127301428Y-144672857D02*
X126801428Y-144672857D01*
X126587142Y-145458571D02*
X127301428Y-145458571D01*
X127301428Y-143958571D01*
X126587142Y-143958571D01*
X126158571Y-143958571D02*
X125301428Y-143958571D01*
X125730000Y-145458571D02*
X125730000Y-143958571D01*
X123944285Y-145458571D02*
X124444285Y-144744285D01*
X124801428Y-145458571D02*
X124801428Y-143958571D01*
X124230000Y-143958571D01*
X124087142Y-144030000D01*
X124015714Y-144101428D01*
X123944285Y-144244285D01*
X123944285Y-144458571D01*
X124015714Y-144601428D01*
X124087142Y-144672857D01*
X124230000Y-144744285D01*
X124801428Y-144744285D01*
X123015714Y-143958571D02*
X122730000Y-143958571D01*
X122587142Y-144030000D01*
X122444285Y-144172857D01*
X122372857Y-144458571D01*
X122372857Y-144958571D01*
X122444285Y-145244285D01*
X122587142Y-145387142D01*
X122730000Y-145458571D01*
X123015714Y-145458571D01*
X123158571Y-145387142D01*
X123301428Y-145244285D01*
X123372857Y-144958571D01*
X123372857Y-144458571D01*
X123301428Y-144172857D01*
X123158571Y-144030000D01*
X123015714Y-143958571D01*
X121730000Y-145458571D02*
X121730000Y-143958571D01*
X121230000Y-145030000D01*
X120730000Y-143958571D01*
X120730000Y-145458571D01*
X120015714Y-144672857D02*
X119515714Y-144672857D01*
X119301428Y-145458571D02*
X120015714Y-145458571D01*
X120015714Y-143958571D01*
X119301428Y-143958571D01*
X118872857Y-143958571D02*
X118015714Y-143958571D01*
X118444285Y-145458571D02*
X118444285Y-143958571D01*
X117515714Y-144672857D02*
X117015714Y-144672857D01*
X116801428Y-145458571D02*
X117515714Y-145458571D01*
X117515714Y-143958571D01*
X116801428Y-143958571D01*
X115301428Y-145458571D02*
X115801428Y-144744285D01*
X116158571Y-145458571D02*
X116158571Y-143958571D01*
X115587142Y-143958571D01*
X115444285Y-144030000D01*
X115372857Y-144101428D01*
X115301428Y-144244285D01*
X115301428Y-144458571D01*
X115372857Y-144601428D01*
X115444285Y-144672857D01*
X115587142Y-144744285D01*
X116158571Y-144744285D01*
X113730000Y-143958571D02*
X113230000Y-145458571D01*
X112730000Y-143958571D01*
X111515714Y-143958571D02*
X112230000Y-143958571D01*
X112301428Y-144672857D01*
X112230000Y-144601428D01*
X112087142Y-144530000D01*
X111730000Y-144530000D01*
X111587142Y-144601428D01*
X111515714Y-144672857D01*
X111444285Y-144815714D01*
X111444285Y-145172857D01*
X111515714Y-145315714D01*
X111587142Y-145387142D01*
X111730000Y-145458571D01*
X112087142Y-145458571D01*
X112230000Y-145387142D01*
X112301428Y-145315714D01*
D14*
%TO.C,U4*%
X129031904Y-130262380D02*
X129031904Y-131071904D01*
X128984285Y-131167142D01*
X128936666Y-131214761D01*
X128841428Y-131262380D01*
X128650952Y-131262380D01*
X128555714Y-131214761D01*
X128508095Y-131167142D01*
X128460476Y-131071904D01*
X128460476Y-130262380D01*
X127555714Y-130595714D02*
X127555714Y-131262380D01*
X127793809Y-130214761D02*
X128031904Y-130929047D01*
X127412857Y-130929047D01*
X136985238Y-131532380D02*
X136651904Y-132532380D01*
X136318571Y-131532380D01*
X135985238Y-132532380D02*
X135985238Y-131532380D01*
X135509047Y-132532380D02*
X135509047Y-131532380D01*
X134937619Y-132532380D01*
X134937619Y-131532380D01*
X136651904Y-134120000D02*
X136747142Y-134072380D01*
X136890000Y-134072380D01*
X137032857Y-134120000D01*
X137128095Y-134215238D01*
X137175714Y-134310476D01*
X137223333Y-134500952D01*
X137223333Y-134643809D01*
X137175714Y-134834285D01*
X137128095Y-134929523D01*
X137032857Y-135024761D01*
X136890000Y-135072380D01*
X136794761Y-135072380D01*
X136651904Y-135024761D01*
X136604285Y-134977142D01*
X136604285Y-134643809D01*
X136794761Y-134643809D01*
X136175714Y-135072380D02*
X136175714Y-134072380D01*
X135604285Y-135072380D01*
X135604285Y-134072380D01*
X135128095Y-135072380D02*
X135128095Y-134072380D01*
X134890000Y-134072380D01*
X134747142Y-134120000D01*
X134651904Y-134215238D01*
X134604285Y-134310476D01*
X134556666Y-134500952D01*
X134556666Y-134643809D01*
X134604285Y-134834285D01*
X134651904Y-134929523D01*
X134747142Y-135024761D01*
X134890000Y-135072380D01*
X135128095Y-135072380D01*
X137080476Y-137564761D02*
X136937619Y-137612380D01*
X136699523Y-137612380D01*
X136604285Y-137564761D01*
X136556666Y-137517142D01*
X136509047Y-137421904D01*
X136509047Y-137326666D01*
X136556666Y-137231428D01*
X136604285Y-137183809D01*
X136699523Y-137136190D01*
X136890000Y-137088571D01*
X136985238Y-137040952D01*
X137032857Y-136993333D01*
X137080476Y-136898095D01*
X137080476Y-136802857D01*
X137032857Y-136707619D01*
X136985238Y-136660000D01*
X136890000Y-136612380D01*
X136651904Y-136612380D01*
X136509047Y-136660000D01*
X135509047Y-137517142D02*
X135556666Y-137564761D01*
X135699523Y-137612380D01*
X135794761Y-137612380D01*
X135937619Y-137564761D01*
X136032857Y-137469523D01*
X136080476Y-137374285D01*
X136128095Y-137183809D01*
X136128095Y-137040952D01*
X136080476Y-136850476D01*
X136032857Y-136755238D01*
X135937619Y-136660000D01*
X135794761Y-136612380D01*
X135699523Y-136612380D01*
X135556666Y-136660000D01*
X135509047Y-136707619D01*
X134604285Y-137612380D02*
X135080476Y-137612380D01*
X135080476Y-136612380D01*
X137104285Y-140104761D02*
X136961428Y-140152380D01*
X136723333Y-140152380D01*
X136628095Y-140104761D01*
X136580476Y-140057142D01*
X136532857Y-139961904D01*
X136532857Y-139866666D01*
X136580476Y-139771428D01*
X136628095Y-139723809D01*
X136723333Y-139676190D01*
X136913809Y-139628571D01*
X137009047Y-139580952D01*
X137056666Y-139533333D01*
X137104285Y-139438095D01*
X137104285Y-139342857D01*
X137056666Y-139247619D01*
X137009047Y-139200000D01*
X136913809Y-139152380D01*
X136675714Y-139152380D01*
X136532857Y-139200000D01*
X136104285Y-140152380D02*
X136104285Y-139152380D01*
X135866190Y-139152380D01*
X135723333Y-139200000D01*
X135628095Y-139295238D01*
X135580476Y-139390476D01*
X135532857Y-139580952D01*
X135532857Y-139723809D01*
X135580476Y-139914285D01*
X135628095Y-140009523D01*
X135723333Y-140104761D01*
X135866190Y-140152380D01*
X136104285Y-140152380D01*
X135151904Y-139866666D02*
X134675714Y-139866666D01*
X135247142Y-140152380D02*
X134913809Y-139152380D01*
X134580476Y-140152380D01*
%TO.C,BT1*%
X111688571Y-85574285D02*
X111736190Y-85717142D01*
X111783809Y-85764761D01*
X111879047Y-85812380D01*
X112021904Y-85812380D01*
X112117142Y-85764761D01*
X112164761Y-85717142D01*
X112212380Y-85621904D01*
X112212380Y-85240952D01*
X111212380Y-85240952D01*
X111212380Y-85574285D01*
X111260000Y-85669523D01*
X111307619Y-85717142D01*
X111402857Y-85764761D01*
X111498095Y-85764761D01*
X111593333Y-85717142D01*
X111640952Y-85669523D01*
X111688571Y-85574285D01*
X111688571Y-85240952D01*
X111212380Y-86098095D02*
X111212380Y-86669523D01*
X112212380Y-86383809D02*
X111212380Y-86383809D01*
X112212380Y-87526666D02*
X112212380Y-86955238D01*
X112212380Y-87240952D02*
X111212380Y-87240952D01*
X111355238Y-87145714D01*
X111450476Y-87050476D01*
X111498095Y-86955238D01*
%TO.C,A1*%
X132794285Y-83986666D02*
X132318095Y-83986666D01*
X132889523Y-84272380D02*
X132556190Y-83272380D01*
X132222857Y-84272380D01*
X131365714Y-84272380D02*
X131937142Y-84272380D01*
X131651428Y-84272380D02*
X131651428Y-83272380D01*
X131746666Y-83415238D01*
X131841904Y-83510476D01*
X131937142Y-83558095D01*
X138270476Y-88082380D02*
X138270476Y-87415714D01*
X138270476Y-87510952D02*
X138222857Y-87463333D01*
X138127619Y-87415714D01*
X137984761Y-87415714D01*
X137889523Y-87463333D01*
X137841904Y-87558571D01*
X137841904Y-88082380D01*
X137841904Y-87558571D02*
X137794285Y-87463333D01*
X137699047Y-87415714D01*
X137556190Y-87415714D01*
X137460952Y-87463333D01*
X137413333Y-87558571D01*
X137413333Y-88082380D01*
X136937142Y-88082380D02*
X136937142Y-87415714D01*
X136937142Y-87082380D02*
X136984761Y-87130000D01*
X136937142Y-87177619D01*
X136889523Y-87130000D01*
X136937142Y-87082380D01*
X136937142Y-87177619D01*
X136032380Y-88034761D02*
X136127619Y-88082380D01*
X136318095Y-88082380D01*
X136413333Y-88034761D01*
X136460952Y-87987142D01*
X136508571Y-87891904D01*
X136508571Y-87606190D01*
X136460952Y-87510952D01*
X136413333Y-87463333D01*
X136318095Y-87415714D01*
X136127619Y-87415714D01*
X136032380Y-87463333D01*
X135603809Y-88082380D02*
X135603809Y-87415714D01*
X135603809Y-87606190D02*
X135556190Y-87510952D01*
X135508571Y-87463333D01*
X135413333Y-87415714D01*
X135318095Y-87415714D01*
X134841904Y-88082380D02*
X134937142Y-88034761D01*
X134984761Y-87987142D01*
X135032380Y-87891904D01*
X135032380Y-87606190D01*
X134984761Y-87510952D01*
X134937142Y-87463333D01*
X134841904Y-87415714D01*
X134699047Y-87415714D01*
X134603809Y-87463333D01*
X134556190Y-87510952D01*
X134508571Y-87606190D01*
X134508571Y-87891904D01*
X134556190Y-87987142D01*
X134603809Y-88034761D01*
X134699047Y-88082380D01*
X134841904Y-88082380D01*
X133365714Y-88034761D02*
X133270476Y-88082380D01*
X133080000Y-88082380D01*
X132984761Y-88034761D01*
X132937142Y-87939523D01*
X132937142Y-87891904D01*
X132984761Y-87796666D01*
X133080000Y-87749047D01*
X133222857Y-87749047D01*
X133318095Y-87701428D01*
X133365714Y-87606190D01*
X133365714Y-87558571D01*
X133318095Y-87463333D01*
X133222857Y-87415714D01*
X133080000Y-87415714D01*
X132984761Y-87463333D01*
X132080000Y-88082380D02*
X132080000Y-87082380D01*
X132080000Y-88034761D02*
X132175238Y-88082380D01*
X132365714Y-88082380D01*
X132460952Y-88034761D01*
X132508571Y-87987142D01*
X132556190Y-87891904D01*
X132556190Y-87606190D01*
X132508571Y-87510952D01*
X132460952Y-87463333D01*
X132365714Y-87415714D01*
X132175238Y-87415714D01*
X132080000Y-87463333D01*
X130841904Y-88082380D02*
X130841904Y-87415714D01*
X130841904Y-87510952D02*
X130794285Y-87463333D01*
X130699047Y-87415714D01*
X130556190Y-87415714D01*
X130460952Y-87463333D01*
X130413333Y-87558571D01*
X130413333Y-88082380D01*
X130413333Y-87558571D02*
X130365714Y-87463333D01*
X130270476Y-87415714D01*
X130127619Y-87415714D01*
X130032380Y-87463333D01*
X129984761Y-87558571D01*
X129984761Y-88082380D01*
X129365714Y-88082380D02*
X129460952Y-88034761D01*
X129508571Y-87987142D01*
X129556190Y-87891904D01*
X129556190Y-87606190D01*
X129508571Y-87510952D01*
X129460952Y-87463333D01*
X129365714Y-87415714D01*
X129222857Y-87415714D01*
X129127619Y-87463333D01*
X129080000Y-87510952D01*
X129032380Y-87606190D01*
X129032380Y-87891904D01*
X129080000Y-87987142D01*
X129127619Y-88034761D01*
X129222857Y-88082380D01*
X129365714Y-88082380D01*
X128175238Y-88082380D02*
X128175238Y-87082380D01*
X128175238Y-88034761D02*
X128270476Y-88082380D01*
X128460952Y-88082380D01*
X128556190Y-88034761D01*
X128603809Y-87987142D01*
X128651428Y-87891904D01*
X128651428Y-87606190D01*
X128603809Y-87510952D01*
X128556190Y-87463333D01*
X128460952Y-87415714D01*
X128270476Y-87415714D01*
X128175238Y-87463333D01*
X127270476Y-87415714D02*
X127270476Y-88082380D01*
X127699047Y-87415714D02*
X127699047Y-87939523D01*
X127651428Y-88034761D01*
X127556190Y-88082380D01*
X127413333Y-88082380D01*
X127318095Y-88034761D01*
X127270476Y-87987142D01*
X126651428Y-88082380D02*
X126746666Y-88034761D01*
X126794285Y-87939523D01*
X126794285Y-87082380D01*
X125889523Y-88034761D02*
X125984761Y-88082380D01*
X126175238Y-88082380D01*
X126270476Y-88034761D01*
X126318095Y-87939523D01*
X126318095Y-87558571D01*
X126270476Y-87463333D01*
X126175238Y-87415714D01*
X125984761Y-87415714D01*
X125889523Y-87463333D01*
X125841904Y-87558571D01*
X125841904Y-87653809D01*
X126318095Y-87749047D01*
X125009123Y-92382219D02*
X125009123Y-93168409D01*
X125492933Y-92745076D01*
X125492933Y-92926504D01*
X125553409Y-93047457D01*
X125613885Y-93107933D01*
X125734838Y-93168409D01*
X126037219Y-93168409D01*
X126158171Y-93107933D01*
X126218647Y-93047457D01*
X126279123Y-92926504D01*
X126279123Y-92563647D01*
X126218647Y-92442695D01*
X126158171Y-92382219D01*
X125009123Y-93531266D02*
X126279123Y-93954600D01*
X125009123Y-94377933D01*
X125009123Y-94680314D02*
X125009123Y-95466504D01*
X125492933Y-95043171D01*
X125492933Y-95224600D01*
X125553409Y-95345552D01*
X125613885Y-95406028D01*
X125734838Y-95466504D01*
X126037219Y-95466504D01*
X126158171Y-95406028D01*
X126218647Y-95345552D01*
X126279123Y-95224600D01*
X126279123Y-94861742D01*
X126218647Y-94740790D01*
X126158171Y-94680314D01*
X128444171Y-93869933D02*
X128504647Y-93809457D01*
X128565123Y-93628028D01*
X128565123Y-93507076D01*
X128504647Y-93325647D01*
X128383695Y-93204695D01*
X128262742Y-93144219D01*
X128020838Y-93083742D01*
X127839409Y-93083742D01*
X127597504Y-93144219D01*
X127476552Y-93204695D01*
X127355600Y-93325647D01*
X127295123Y-93507076D01*
X127295123Y-93628028D01*
X127355600Y-93809457D01*
X127416076Y-93869933D01*
X128504647Y-94353742D02*
X128565123Y-94535171D01*
X128565123Y-94837552D01*
X128504647Y-94958504D01*
X128444171Y-95018980D01*
X128323219Y-95079457D01*
X128202266Y-95079457D01*
X128081314Y-95018980D01*
X128020838Y-94958504D01*
X127960361Y-94837552D01*
X127899885Y-94595647D01*
X127839409Y-94474695D01*
X127778933Y-94414219D01*
X127657980Y-94353742D01*
X127537028Y-94353742D01*
X127416076Y-94414219D01*
X127355600Y-94474695D01*
X127295123Y-94595647D01*
X127295123Y-94898028D01*
X127355600Y-95079457D01*
X131511523Y-91933485D02*
X130241523Y-91933485D01*
X131148666Y-92356819D01*
X130241523Y-92780152D01*
X131511523Y-92780152D01*
X130241523Y-93626819D02*
X130241523Y-93868723D01*
X130302000Y-93989676D01*
X130422952Y-94110628D01*
X130664857Y-94171104D01*
X131088190Y-94171104D01*
X131330095Y-94110628D01*
X131451047Y-93989676D01*
X131511523Y-93868723D01*
X131511523Y-93626819D01*
X131451047Y-93505866D01*
X131330095Y-93384914D01*
X131088190Y-93324438D01*
X130664857Y-93324438D01*
X130422952Y-93384914D01*
X130302000Y-93505866D01*
X130241523Y-93626819D01*
X131451047Y-94654914D02*
X131511523Y-94836342D01*
X131511523Y-95138723D01*
X131451047Y-95259676D01*
X131390571Y-95320152D01*
X131269619Y-95380628D01*
X131148666Y-95380628D01*
X131027714Y-95320152D01*
X130967238Y-95259676D01*
X130906761Y-95138723D01*
X130846285Y-94896819D01*
X130785809Y-94775866D01*
X130725333Y-94715390D01*
X130604380Y-94654914D01*
X130483428Y-94654914D01*
X130362476Y-94715390D01*
X130302000Y-94775866D01*
X130241523Y-94896819D01*
X130241523Y-95199200D01*
X130302000Y-95380628D01*
X131511523Y-95924914D02*
X130241523Y-95924914D01*
X133981371Y-93173247D02*
X134041847Y-93112771D01*
X134102323Y-92931342D01*
X134102323Y-92810390D01*
X134041847Y-92628961D01*
X133920895Y-92508009D01*
X133799942Y-92447533D01*
X133558038Y-92387057D01*
X133376609Y-92387057D01*
X133134704Y-92447533D01*
X133013752Y-92508009D01*
X132892800Y-92628961D01*
X132832323Y-92810390D01*
X132832323Y-92931342D01*
X132892800Y-93112771D01*
X132953276Y-93173247D01*
X134102323Y-94322295D02*
X134102323Y-93717533D01*
X132832323Y-93717533D01*
X134102323Y-94745628D02*
X132832323Y-94745628D01*
X134102323Y-95471342D02*
X133376609Y-94927057D01*
X132832323Y-95471342D02*
X133558038Y-94745628D01*
X136489923Y-92085885D02*
X135219923Y-92085885D01*
X136127066Y-92509219D01*
X135219923Y-92932552D01*
X136489923Y-92932552D01*
X136489923Y-93537314D02*
X135219923Y-93537314D01*
X136429447Y-94081600D02*
X136489923Y-94263028D01*
X136489923Y-94565409D01*
X136429447Y-94686361D01*
X136368971Y-94746838D01*
X136248019Y-94807314D01*
X136127066Y-94807314D01*
X136006114Y-94746838D01*
X135945638Y-94686361D01*
X135885161Y-94565409D01*
X135824685Y-94323504D01*
X135764209Y-94202552D01*
X135703733Y-94142076D01*
X135582780Y-94081600D01*
X135461828Y-94081600D01*
X135340876Y-94142076D01*
X135280400Y-94202552D01*
X135219923Y-94323504D01*
X135219923Y-94625885D01*
X135280400Y-94807314D01*
X135219923Y-95593504D02*
X135219923Y-95835409D01*
X135280400Y-95956361D01*
X135401352Y-96077314D01*
X135643257Y-96137790D01*
X136066590Y-96137790D01*
X136308495Y-96077314D01*
X136429447Y-95956361D01*
X136489923Y-95835409D01*
X136489923Y-95593504D01*
X136429447Y-95472552D01*
X136308495Y-95351600D01*
X136066590Y-95291123D01*
X135643257Y-95291123D01*
X135401352Y-95351600D01*
X135280400Y-95472552D01*
X135219923Y-95593504D01*
X137718800Y-92986980D02*
X137658323Y-92866028D01*
X137658323Y-92684600D01*
X137718800Y-92503171D01*
X137839752Y-92382219D01*
X137960704Y-92321742D01*
X138202609Y-92261266D01*
X138384038Y-92261266D01*
X138625942Y-92321742D01*
X138746895Y-92382219D01*
X138867847Y-92503171D01*
X138928323Y-92684600D01*
X138928323Y-92805552D01*
X138867847Y-92986980D01*
X138807371Y-93047457D01*
X138384038Y-93047457D01*
X138384038Y-92805552D01*
X138928323Y-93591742D02*
X137658323Y-93591742D01*
X138928323Y-94317457D01*
X137658323Y-94317457D01*
X138928323Y-94922219D02*
X137658323Y-94922219D01*
X137658323Y-95224600D01*
X137718800Y-95406028D01*
X137839752Y-95526980D01*
X137960704Y-95587457D01*
X138202609Y-95647933D01*
X138384038Y-95647933D01*
X138625942Y-95587457D01*
X138746895Y-95526980D01*
X138867847Y-95406028D01*
X138928323Y-95224600D01*
X138928323Y-94922219D01*
%TO.C,U6*%
X126695104Y-109764580D02*
X126695104Y-110574104D01*
X126647485Y-110669342D01*
X126599866Y-110716961D01*
X126504628Y-110764580D01*
X126314152Y-110764580D01*
X126218914Y-110716961D01*
X126171295Y-110669342D01*
X126123676Y-110574104D01*
X126123676Y-109764580D01*
X125218914Y-109764580D02*
X125409390Y-109764580D01*
X125504628Y-109812200D01*
X125552247Y-109859819D01*
X125647485Y-110002676D01*
X125695104Y-110193152D01*
X125695104Y-110574104D01*
X125647485Y-110669342D01*
X125599866Y-110716961D01*
X125504628Y-110764580D01*
X125314152Y-110764580D01*
X125218914Y-110716961D01*
X125171295Y-110669342D01*
X125123676Y-110574104D01*
X125123676Y-110336009D01*
X125171295Y-110240771D01*
X125218914Y-110193152D01*
X125314152Y-110145533D01*
X125504628Y-110145533D01*
X125599866Y-110193152D01*
X125647485Y-110240771D01*
X125695104Y-110336009D01*
%TO.C,D1*%
X126468095Y-119832380D02*
X126468095Y-118832380D01*
X126230000Y-118832380D01*
X126087142Y-118880000D01*
X125991904Y-118975238D01*
X125944285Y-119070476D01*
X125896666Y-119260952D01*
X125896666Y-119403809D01*
X125944285Y-119594285D01*
X125991904Y-119689523D01*
X126087142Y-119784761D01*
X126230000Y-119832380D01*
X126468095Y-119832380D01*
X124944285Y-119832380D02*
X125515714Y-119832380D01*
X125230000Y-119832380D02*
X125230000Y-118832380D01*
X125325238Y-118975238D01*
X125420476Y-119070476D01*
X125515714Y-119118095D01*
%TO.C,C4*%
X112991666Y-106347142D02*
X113039285Y-106394761D01*
X113182142Y-106442380D01*
X113277380Y-106442380D01*
X113420238Y-106394761D01*
X113515476Y-106299523D01*
X113563095Y-106204285D01*
X113610714Y-106013809D01*
X113610714Y-105870952D01*
X113563095Y-105680476D01*
X113515476Y-105585238D01*
X113420238Y-105490000D01*
X113277380Y-105442380D01*
X113182142Y-105442380D01*
X113039285Y-105490000D01*
X112991666Y-105537619D01*
X112134523Y-105775714D02*
X112134523Y-106442380D01*
X112372619Y-105394761D02*
X112610714Y-106109047D01*
X111991666Y-106109047D01*
%TO.C,C2*%
X113401666Y-117887142D02*
X113449285Y-117934761D01*
X113592142Y-117982380D01*
X113687380Y-117982380D01*
X113830238Y-117934761D01*
X113925476Y-117839523D01*
X113973095Y-117744285D01*
X114020714Y-117553809D01*
X114020714Y-117410952D01*
X113973095Y-117220476D01*
X113925476Y-117125238D01*
X113830238Y-117030000D01*
X113687380Y-116982380D01*
X113592142Y-116982380D01*
X113449285Y-117030000D01*
X113401666Y-117077619D01*
X113020714Y-117077619D02*
X112973095Y-117030000D01*
X112877857Y-116982380D01*
X112639761Y-116982380D01*
X112544523Y-117030000D01*
X112496904Y-117077619D01*
X112449285Y-117172857D01*
X112449285Y-117268095D01*
X112496904Y-117410952D01*
X113068333Y-117982380D01*
X112449285Y-117982380D01*
%TO.C,C1*%
X125691666Y-124127142D02*
X125739285Y-124174761D01*
X125882142Y-124222380D01*
X125977380Y-124222380D01*
X126120238Y-124174761D01*
X126215476Y-124079523D01*
X126263095Y-123984285D01*
X126310714Y-123793809D01*
X126310714Y-123650952D01*
X126263095Y-123460476D01*
X126215476Y-123365238D01*
X126120238Y-123270000D01*
X125977380Y-123222380D01*
X125882142Y-123222380D01*
X125739285Y-123270000D01*
X125691666Y-123317619D01*
X124739285Y-124222380D02*
X125310714Y-124222380D01*
X125025000Y-124222380D02*
X125025000Y-123222380D01*
X125120238Y-123365238D01*
X125215476Y-123460476D01*
X125310714Y-123508095D01*
D15*
%TO.C,U4*%
X140970000Y-135890000D02*
X140970000Y-129540000D01*
X140970000Y-129540000D02*
X125730000Y-129540000D01*
X125730000Y-129540000D02*
X125730000Y-142240000D01*
X125730000Y-142240000D02*
X140970000Y-142240000D01*
X140970000Y-142240000D02*
X140970000Y-135890000D01*
%TO.C,BT1*%
X118745000Y-76200000D02*
X118745000Y-76835000D01*
X114935000Y-76200000D02*
X118745000Y-76200000D01*
X114935000Y-76835000D02*
X114935000Y-76200000D01*
X118745000Y-96520000D02*
X118745000Y-95885000D01*
X114935000Y-96520000D02*
X118745000Y-96520000D01*
X114935000Y-95885000D02*
X114935000Y-96520000D01*
X118745000Y-76835000D02*
X118745000Y-80645000D01*
X114935000Y-80645000D02*
X114935000Y-76835000D01*
X118745000Y-95885000D02*
X118745000Y-92075000D01*
X114935000Y-92075000D02*
X114935000Y-95885000D01*
X111125000Y-92075000D02*
X119380000Y-92075000D01*
X116840000Y-80645000D02*
X119380000Y-80645000D01*
X122555000Y-83820000D02*
X119380000Y-80645000D01*
X122555000Y-88900000D02*
X119380000Y-92075000D01*
X122555000Y-83820000D02*
X122555000Y-88900000D01*
X122555000Y-86360000D02*
X122555000Y-83820000D01*
X111125000Y-80645000D02*
X111125000Y-81915000D01*
X111125000Y-92075000D02*
X111125000Y-90805000D01*
X116840000Y-80645000D02*
X111125000Y-80645000D01*
X111124999Y-90804999D02*
G75*
G03*
X111124999Y-81915001I-4444999J4444999D01*
G01*
%TO.C,A1*%
X123190000Y-76200000D02*
X123190000Y-100330000D01*
X140970000Y-76200000D02*
X123190000Y-76200000D01*
X140970000Y-100330000D02*
X140970000Y-76200000D01*
X123190000Y-100330000D02*
X140970000Y-100330000D01*
%TO.C,U6*%
X129108200Y-107238800D02*
X127381000Y-107238800D01*
X129108200Y-103581200D02*
X128524000Y-103581200D01*
X129108200Y-103581200D02*
X129108200Y-107213400D01*
X122326400Y-107238800D02*
X124079000Y-107238800D01*
X122326400Y-103581200D02*
X122326400Y-107238800D01*
X122326400Y-103581200D02*
X122936000Y-103581200D01*
%TO.C,D1*%
X120930000Y-117550000D02*
X129330000Y-117550000D01*
X120930000Y-111050000D02*
X129330000Y-111050000D01*
X120930000Y-111050000D02*
X120930000Y-117550000D01*
%TO.C,C4*%
X112113748Y-103230000D02*
X113536252Y-103230000D01*
X112113748Y-105050000D02*
X113536252Y-105050000D01*
%TO.C,C2*%
X113946252Y-120290000D02*
X112523748Y-120290000D01*
X113946252Y-118470000D02*
X112523748Y-118470000D01*
%TO.C,C1*%
X124813748Y-121010000D02*
X126236252Y-121010000D01*
X124813748Y-122830000D02*
X126236252Y-122830000D01*
%TD*%
M02*
