%TF.GenerationSoftware,KiCad,Pcbnew,(6.0.4)*%
%TF.CreationDate,2022-04-23T15:23:27-04:00*%
%TF.ProjectId,smart penetrometer,736d6172-7420-4706-956e-6574726f6d65,rev?*%
%TF.SameCoordinates,Original*%
%TF.FileFunction,Copper,L1,Top*%
%TF.FilePolarity,Positive*%
%FSLAX46Y46*%
G04 Gerber Fmt 4.6, Leading zero omitted, Abs format (unit mm)*
G04 Created by KiCad (PCBNEW (6.0.4)) date 2022-04-23 15:23:27*
%MOMM*%
%LPD*%
G01*
G04 APERTURE LIST*
G04 Aperture macros list*
%AMRoundRect*
0 Rectangle with rounded corners*
0 $1 Rounding radius*
0 $2 $3 $4 $5 $6 $7 $8 $9 X,Y pos of 4 corners*
0 Add a 4 corners polygon primitive as box body*
4,1,4,$2,$3,$4,$5,$6,$7,$8,$9,$2,$3,0*
0 Add four circle primitives for the rounded corners*
1,1,$1+$1,$2,$3*
1,1,$1+$1,$4,$5*
1,1,$1+$1,$6,$7*
1,1,$1+$1,$8,$9*
0 Add four rect primitives between the rounded corners*
20,1,$1+$1,$2,$3,$4,$5,0*
20,1,$1+$1,$4,$5,$6,$7,0*
20,1,$1+$1,$6,$7,$8,$9,0*
20,1,$1+$1,$8,$9,$2,$3,0*%
G04 Aperture macros list end*
%TA.AperFunction,ComponentPad*%
%ADD10O,1.700000X1.700000*%
%TD*%
%TA.AperFunction,ComponentPad*%
%ADD11R,1.700000X1.700000*%
%TD*%
%TA.AperFunction,ComponentPad*%
%ADD12R,2.000000X2.000000*%
%TD*%
%TA.AperFunction,ComponentPad*%
%ADD13C,2.000000*%
%TD*%
%TA.AperFunction,ComponentPad*%
%ADD14C,1.800000*%
%TD*%
%TA.AperFunction,ComponentPad*%
%ADD15O,1.424000X2.524000*%
%TD*%
%TA.AperFunction,ComponentPad*%
%ADD16C,1.324000*%
%TD*%
%TA.AperFunction,SMDPad,CuDef*%
%ADD17R,1.100000X0.250000*%
%TD*%
%TA.AperFunction,SMDPad,CuDef*%
%ADD18RoundRect,0.150000X-0.875000X-0.150000X0.875000X-0.150000X0.875000X0.150000X-0.875000X0.150000X0*%
%TD*%
%TA.AperFunction,SMDPad,CuDef*%
%ADD19RoundRect,0.250000X0.625000X-0.312500X0.625000X0.312500X-0.625000X0.312500X-0.625000X-0.312500X0*%
%TD*%
%TA.AperFunction,SMDPad,CuDef*%
%ADD20R,3.300000X2.500000*%
%TD*%
%TA.AperFunction,ComponentPad*%
%ADD21O,1.600000X1.600000*%
%TD*%
%TA.AperFunction,ComponentPad*%
%ADD22R,1.600000X1.600000*%
%TD*%
%TA.AperFunction,ViaPad*%
%ADD23C,0.800000*%
%TD*%
%TA.AperFunction,Conductor*%
%ADD24C,0.250000*%
%TD*%
%TA.AperFunction,Conductor*%
%ADD25C,0.254000*%
%TD*%
G04 APERTURE END LIST*
D10*
%TO.P,J2,11*%
%TO.N,Net-(A2-Pad19)*%
X138430000Y-148590000D03*
%TO.P,J2,10*%
%TO.N,Net-(A1-Pad1)*%
X135890000Y-148590000D03*
%TO.P,J2,9*%
%TO.N,GNDREF*%
X133350000Y-148590000D03*
%TO.P,J2,8*%
X130810000Y-148590000D03*
%TO.P,J2,7*%
%TO.N,Net-(A1-Pad1)*%
X128270000Y-148590000D03*
%TO.P,J2,6*%
X125730000Y-148590000D03*
%TO.P,J2,5*%
%TO.N,Net-(A2-Pad5)*%
X123190000Y-148590000D03*
%TO.P,J2,4*%
%TO.N,Net-(A2-Pad23)*%
X120650000Y-148590000D03*
%TO.P,J2,3*%
%TO.N,Net-(A2-Pad24)*%
X118110000Y-148590000D03*
%TO.P,J2,2*%
%TO.N,Net-(J2-Pad2)*%
X115570000Y-148590000D03*
D11*
%TO.P,J2,1*%
%TO.N,Net-(J2-Pad1)*%
X113030000Y-148590000D03*
%TD*%
D12*
%TO.P,U7,2*%
%TO.N,GND*%
X111760000Y-81280000D03*
D13*
%TO.P,U7,1*%
%TO.N,VCC*%
X119380000Y-81280000D03*
%TD*%
D14*
%TO.P,U4,13*%
%TO.N,Net-(A1-Pad1)*%
X138430000Y-132080000D03*
%TO.P,U4,10*%
%TO.N,GND*%
X138430000Y-134620000D03*
%TO.P,U4,11*%
%TO.N,Net-(A2-Pad24)*%
X138430000Y-137160000D03*
%TO.P,U4,12*%
%TO.N,Net-(A2-Pad23)*%
X138430000Y-139700000D03*
%TD*%
D12*
%TO.P,U3,2*%
%TO.N,GND*%
X132080000Y-81280000D03*
D13*
%TO.P,U3,1*%
%TO.N,VCC*%
X139700000Y-81280000D03*
%TD*%
D15*
%TO.P,J1,5*%
%TO.N,N/C*%
X121539000Y-78740000D03*
%TO.P,J1,4*%
X129921000Y-78740000D03*
D16*
%TO.P,J1,3*%
%TO.N,Net-(C1-Pad1)*%
X123698000Y-78740000D03*
%TO.P,J1,2*%
%TO.N,Net-(D2-Pad1)*%
X125730000Y-78740000D03*
%TO.P,J1,1*%
%TO.N,Net-(J1-Pad1)*%
X127762000Y-78740000D03*
%TD*%
D14*
%TO.P,A1,6*%
%TO.N,GND*%
X138430000Y-97790000D03*
%TO.P,A1,5*%
%TO.N,Net-(A1-Pad5)*%
X135890000Y-97790000D03*
%TO.P,A1,4*%
%TO.N,Net-(A1-Pad4)*%
X133350000Y-97790000D03*
%TO.P,A1,3*%
%TO.N,Net-(A1-Pad3)*%
X130810000Y-97790000D03*
%TO.P,A1,2*%
%TO.N,Net-(A1-Pad2)*%
X128270000Y-97790000D03*
%TO.P,A1,1*%
%TO.N,Net-(A1-Pad1)*%
X125730000Y-97790000D03*
%TD*%
D17*
%TO.P,U5,10*%
%TO.N,Net-(A2-Pad24)*%
X115680000Y-142120000D03*
%TO.P,U5,9*%
%TO.N,Net-(A2-Pad23)*%
X115680000Y-142620000D03*
%TO.P,U5,8*%
%TO.N,Net-(A1-Pad1)*%
X115680000Y-143120000D03*
%TO.P,U5,7*%
%TO.N,Net-(U5-Pad7)*%
X115680000Y-143620000D03*
%TO.P,U5,6*%
%TO.N,Net-(U5-Pad6)*%
X115680000Y-144120000D03*
%TO.P,U5,5*%
%TO.N,Net-(J2-Pad1)*%
X111380000Y-144120000D03*
%TO.P,U5,4*%
%TO.N,Net-(J2-Pad2)*%
X111380000Y-143620000D03*
%TO.P,U5,3*%
%TO.N,GNDS*%
X111380000Y-143120000D03*
%TO.P,U5,2*%
%TO.N,Net-(U5-Pad2)*%
X111380000Y-142620000D03*
%TO.P,U5,1*%
%TO.N,Net-(U5-Pad1)*%
X111380000Y-142120000D03*
%TD*%
D18*
%TO.P,U2,16*%
%TO.N,Net-(A2-Pad24)*%
X121490000Y-86995000D03*
%TO.P,U2,15*%
%TO.N,Net-(A2-Pad23)*%
X121490000Y-88265000D03*
%TO.P,U2,14*%
%TO.N,Net-(BT1-Pad1)*%
X121490000Y-89535000D03*
%TO.P,U2,13*%
%TO.N,GND*%
X121490000Y-90805000D03*
%TO.P,U2,12*%
X121490000Y-92075000D03*
%TO.P,U2,11*%
X121490000Y-93345000D03*
%TO.P,U2,10*%
X121490000Y-94615000D03*
%TO.P,U2,9*%
X121490000Y-95885000D03*
%TO.P,U2,8*%
X112190000Y-95885000D03*
%TO.P,U2,7*%
X112190000Y-94615000D03*
%TO.P,U2,6*%
X112190000Y-93345000D03*
%TO.P,U2,5*%
X112190000Y-92075000D03*
%TO.P,U2,4*%
%TO.N,Net-(U2-Pad4)*%
X112190000Y-90805000D03*
%TO.P,U2,3*%
%TO.N,Net-(U2-Pad3)*%
X112190000Y-89535000D03*
%TO.P,U2,2*%
%TO.N,Net-(A1-Pad1)*%
X112190000Y-88265000D03*
%TO.P,U2,1*%
%TO.N,Net-(U2-Pad1)*%
X112190000Y-86995000D03*
%TD*%
D19*
%TO.P,R6,2*%
%TO.N,Net-(A2-Pad24)*%
X138622500Y-117917500D03*
%TO.P,R6,1*%
%TO.N,Net-(A1-Pad1)*%
X138622500Y-120842500D03*
%TD*%
%TO.P,R5,2*%
%TO.N,Net-(A2-Pad23)*%
X138430000Y-102677500D03*
%TO.P,R5,1*%
%TO.N,Net-(A1-Pad1)*%
X138430000Y-105602500D03*
%TD*%
D20*
%TO.P,D3,2*%
%TO.N,VCC*%
X137160000Y-93570000D03*
%TO.P,D3,1*%
%TO.N,Net-(D2-Pad1)*%
X137160000Y-86770000D03*
%TD*%
%TO.P,D2,2*%
%TO.N,VCC*%
X128270000Y-93570000D03*
%TO.P,D2,1*%
%TO.N,Net-(D2-Pad1)*%
X128270000Y-86770000D03*
%TD*%
D21*
%TO.P,A2,16*%
%TO.N,Net-(A1-Pad4)*%
X133350000Y-139700000D03*
%TO.P,A2,15*%
%TO.N,Net-(A1-Pad5)*%
X118110000Y-139700000D03*
%TO.P,A2,30*%
%TO.N,Net-(A1-Pad1)*%
X133350000Y-104140000D03*
%TO.P,A2,14*%
%TO.N,Net-(A1-Pad3)*%
X118110000Y-137160000D03*
%TO.P,A2,29*%
%TO.N,GND*%
X133350000Y-106680000D03*
%TO.P,A2,13*%
%TO.N,Net-(A1-Pad2)*%
X118110000Y-134620000D03*
%TO.P,A2,28*%
%TO.N,Net-(A2-Pad28)*%
X133350000Y-109220000D03*
%TO.P,A2,12*%
%TO.N,Net-(A2-Pad12)*%
X118110000Y-132080000D03*
%TO.P,A2,27*%
%TO.N,Net-(A2-Pad27)*%
X133350000Y-111760000D03*
%TO.P,A2,11*%
%TO.N,Net-(A2-Pad11)*%
X118110000Y-129540000D03*
%TO.P,A2,26*%
%TO.N,Net-(A2-Pad26)*%
X133350000Y-114300000D03*
%TO.P,A2,10*%
%TO.N,Net-(A2-Pad10)*%
X118110000Y-127000000D03*
%TO.P,A2,25*%
%TO.N,Net-(A2-Pad25)*%
X133350000Y-116840000D03*
%TO.P,A2,9*%
%TO.N,Net-(A2-Pad9)*%
X118110000Y-124460000D03*
%TO.P,A2,24*%
%TO.N,Net-(A2-Pad24)*%
X133350000Y-119380000D03*
%TO.P,A2,8*%
%TO.N,Net-(A2-Pad8)*%
X118110000Y-121920000D03*
%TO.P,A2,23*%
%TO.N,Net-(A2-Pad23)*%
X133350000Y-121920000D03*
%TO.P,A2,7*%
%TO.N,Net-(A2-Pad7)*%
X118110000Y-119380000D03*
%TO.P,A2,22*%
%TO.N,Net-(A2-Pad22)*%
X133350000Y-124460000D03*
%TO.P,A2,6*%
%TO.N,Net-(A2-Pad6)*%
X118110000Y-116840000D03*
%TO.P,A2,21*%
%TO.N,Net-(A2-Pad21)*%
X133350000Y-127000000D03*
%TO.P,A2,5*%
%TO.N,Net-(A2-Pad5)*%
X118110000Y-114300000D03*
%TO.P,A2,20*%
%TO.N,Net-(A2-Pad20)*%
X133350000Y-129540000D03*
%TO.P,A2,4*%
%TO.N,GND*%
X118110000Y-111760000D03*
%TO.P,A2,19*%
%TO.N,Net-(A2-Pad19)*%
X133350000Y-132080000D03*
%TO.P,A2,3*%
%TO.N,Net-(A2-Pad3)*%
X118110000Y-109220000D03*
%TO.P,A2,18*%
%TO.N,Net-(A2-Pad18)*%
X133350000Y-134620000D03*
%TO.P,A2,2*%
%TO.N,Net-(A2-Pad2)*%
X118110000Y-106680000D03*
%TO.P,A2,17*%
%TO.N,Net-(A2-Pad17)*%
X133350000Y-137160000D03*
D22*
%TO.P,A2,1*%
%TO.N,Net-(A2-Pad1)*%
X118110000Y-104140000D03*
%TD*%
D23*
%TO.N,Net-(A1-Pad4)*%
X124460000Y-116840000D03*
X128270000Y-109220000D03*
%TO.N,Net-(A1-Pad1)*%
X137160000Y-107950000D03*
X139700000Y-142240000D03*
%TO.N,GND*%
X130810000Y-110490000D03*
X128270000Y-121920000D03*
X130810000Y-121920000D03*
%TO.N,Net-(A2-Pad5)*%
X118110000Y-144780000D03*
X115570000Y-139700000D03*
%TO.N,Net-(C1-Pad1)*%
X119380000Y-100330000D03*
X120650000Y-110490000D03*
%TO.N,Net-(BT1-Pad1)*%
X119380000Y-91440000D03*
X114300000Y-80065001D03*
%TO.N,GNDS*%
X110409980Y-138349980D03*
%TD*%
D24*
%TO.N,Net-(A1-Pad4)*%
X132809999Y-133205001D02*
X124460000Y-124855002D01*
X133600003Y-133205001D02*
X132809999Y-133205001D01*
X134620000Y-134224998D02*
X133600003Y-133205001D01*
X134620000Y-138430000D02*
X134620000Y-134224998D01*
X133350000Y-139700000D02*
X134620000Y-138430000D01*
X124460000Y-124855002D02*
X124460000Y-116840000D01*
X124460000Y-116840000D02*
X124460000Y-116840000D01*
X128270000Y-102870000D02*
X133350000Y-97790000D01*
X128270000Y-109220000D02*
X128270000Y-102870000D01*
%TO.N,Net-(A1-Pad1)*%
X138430000Y-105602500D02*
X138430000Y-114300000D01*
X138430000Y-114300000D02*
X140970000Y-116840000D01*
X140970000Y-118495000D02*
X138622500Y-120842500D01*
X140970000Y-116840000D02*
X140970000Y-118495000D01*
X138622500Y-131887500D02*
X138430000Y-132080000D01*
X138622500Y-120842500D02*
X138622500Y-131887500D01*
X115630001Y-143169999D02*
X115680000Y-143120000D01*
X120139990Y-96231758D02*
X121698232Y-97790000D01*
X120139990Y-95189990D02*
X120139990Y-96231758D01*
X121698232Y-97790000D02*
X125730000Y-97790000D01*
X113215000Y-88265000D02*
X120139990Y-95189990D01*
X112190000Y-88265000D02*
X113215000Y-88265000D01*
X138430000Y-132080000D02*
X139655001Y-133305001D01*
X128270000Y-148590000D02*
X125730000Y-148590000D01*
X138430000Y-105602500D02*
X138430000Y-106680000D01*
X138430000Y-106680000D02*
X137160000Y-107950000D01*
X137160000Y-107950000D02*
X137160000Y-107950000D01*
X120309999Y-143169999D02*
X117769999Y-143169999D01*
X125730000Y-148590000D02*
X120309999Y-143169999D01*
X117769999Y-143169999D02*
X115630001Y-143169999D01*
X128270000Y-148590000D02*
X129540000Y-147320000D01*
X134620000Y-147320000D02*
X135890000Y-148590000D01*
X129540000Y-147320000D02*
X134620000Y-147320000D01*
X139655001Y-142195001D02*
X139700000Y-142240000D01*
X139655001Y-139655001D02*
X139655001Y-142195001D01*
X139655001Y-133305001D02*
X139655001Y-139655001D01*
%TO.N,GND*%
X110839990Y-91749990D02*
X110839990Y-84740010D01*
X111165000Y-92075000D02*
X110839990Y-91749990D01*
X112190000Y-92075000D02*
X111165000Y-92075000D01*
X110839990Y-82200010D02*
X111760000Y-81280000D01*
X110839990Y-84740010D02*
X110839990Y-82200010D01*
X130810000Y-109220000D02*
X130810000Y-110490000D01*
X133350000Y-106680000D02*
X130810000Y-109220000D01*
X128270000Y-121920000D02*
X130810000Y-121920000D01*
X130810000Y-121920000D02*
X130810000Y-121920000D01*
%TO.N,Net-(A2-Pad24)*%
X132224999Y-120505001D02*
X133350000Y-119380000D01*
X132224999Y-122460001D02*
X132224999Y-120505001D01*
X132809999Y-123045001D02*
X132224999Y-122460001D01*
X134057499Y-123045001D02*
X132809999Y-123045001D01*
X138622500Y-118480000D02*
X134057499Y-123045001D01*
X138622500Y-117917500D02*
X138622500Y-118480000D01*
X138430000Y-136433002D02*
X134475001Y-132478003D01*
X134475001Y-123462503D02*
X134057499Y-123045001D01*
X134475001Y-132478003D02*
X134475001Y-123462503D01*
X138430000Y-137160000D02*
X138430000Y-136433002D01*
X122561758Y-88909990D02*
X125844989Y-92193221D01*
X125844989Y-96091987D02*
X127044999Y-97291997D01*
X120418242Y-88909990D02*
X122561758Y-88909990D01*
X127044999Y-113074999D02*
X133350000Y-119380000D01*
X120139990Y-89188242D02*
X120418242Y-88909990D01*
X127044999Y-97291997D02*
X127044999Y-113074999D01*
X120139990Y-87320010D02*
X120139990Y-89188242D01*
X125844989Y-92193221D02*
X125844989Y-96091987D01*
X120465000Y-86995000D02*
X120139990Y-87320010D01*
X121490000Y-86995000D02*
X120465000Y-86995000D01*
X115680000Y-142120000D02*
X114420000Y-142120000D01*
X114300000Y-144780000D02*
X118110000Y-148590000D01*
X113665000Y-144145000D02*
X114300000Y-144780000D01*
X113665000Y-142875000D02*
X113665000Y-144145000D01*
X114420000Y-142120000D02*
X113665000Y-142875000D01*
%TO.N,Net-(A2-Pad23)*%
X137229990Y-103877510D02*
X137229990Y-104070010D01*
X138430000Y-102677500D02*
X137229990Y-103877510D01*
X137229990Y-104070010D02*
X135890000Y-105410000D01*
X135890000Y-119380000D02*
X133350000Y-121920000D01*
X135890000Y-105410000D02*
X135890000Y-119380000D01*
X114804999Y-142734999D02*
X114969997Y-142570001D01*
X114804999Y-144505001D02*
X114804999Y-142734999D01*
X115630001Y-142570001D02*
X115680000Y-142620000D01*
X114969997Y-142570001D02*
X115630001Y-142570001D01*
X140970000Y-96520000D02*
X140970000Y-100137500D01*
X139700000Y-95250000D02*
X140970000Y-96520000D01*
X126294999Y-95080001D02*
X126464998Y-95250000D01*
X140970000Y-100137500D02*
X138430000Y-102677500D01*
X126294999Y-90734999D02*
X126294999Y-95080001D01*
X123825000Y-88265000D02*
X126294999Y-90734999D01*
X126464998Y-95250000D02*
X139700000Y-95250000D01*
X121490000Y-88265000D02*
X123825000Y-88265000D01*
X118228482Y-146168482D02*
X120650000Y-148590000D01*
X116468480Y-146168482D02*
X115959999Y-145660001D01*
X118228482Y-146168482D02*
X116468480Y-146168482D01*
X115959999Y-145660001D02*
X114804999Y-144505001D01*
X116231516Y-145931518D02*
X115959999Y-145660001D01*
%TO.N,Net-(A2-Pad5)*%
X123190000Y-148590000D02*
X119380000Y-144780000D01*
X119380000Y-144780000D02*
X118110000Y-144780000D01*
X118110000Y-144780000D02*
X118110000Y-144780000D01*
X118110000Y-114300000D02*
X115570000Y-116840000D01*
X115570000Y-116840000D02*
X115570000Y-139700000D01*
%TO.N,Net-(A2-Pad19)*%
X138430000Y-147320000D02*
X138430000Y-144780000D01*
X138430000Y-144780000D02*
X135890000Y-142240000D01*
X135890000Y-134620000D02*
X133350000Y-132080000D01*
X135890000Y-142240000D02*
X135890000Y-134620000D01*
X138430000Y-147320000D02*
X138430000Y-148590000D01*
%TO.N,GNDREF*%
X133350000Y-148590000D02*
X130810000Y-148590000D01*
%TO.N,Net-(C1-Pad1)*%
X119380000Y-100330000D02*
X119380000Y-109220000D01*
X119380000Y-109220000D02*
X120650000Y-110490000D01*
X120650000Y-110490000D02*
X120650000Y-110490000D01*
%TO.N,Net-(BT1-Pad1)*%
X119380000Y-90874315D02*
X119380000Y-91440000D01*
X120719315Y-89535000D02*
X121490000Y-89535000D01*
X119380000Y-90874315D02*
X120719315Y-89535000D01*
X120150338Y-89835000D02*
X114300000Y-83984662D01*
X121190000Y-89835000D02*
X120150338Y-89835000D01*
X114300000Y-83984662D02*
X114300000Y-80065001D01*
X121490000Y-89535000D02*
X121190000Y-89835000D01*
%TO.N,GNDS*%
X110580000Y-143120000D02*
X111380000Y-143120000D01*
X110409980Y-142949980D02*
X110580000Y-143120000D01*
X110409980Y-138349980D02*
X110409980Y-142949980D01*
%TO.N,VCC*%
X137160000Y-93570000D02*
X128270000Y-93570000D01*
X139700000Y-91030000D02*
X139700000Y-83820000D01*
X137160000Y-93570000D02*
X139700000Y-91030000D01*
X128270000Y-93570000D02*
X128270000Y-92070000D01*
X119380000Y-83180000D02*
X121605000Y-85405000D01*
X119380000Y-81280000D02*
X119380000Y-83180000D01*
X121605000Y-85405000D02*
X120020000Y-83820000D01*
X128270000Y-92070000D02*
X121605000Y-85405000D01*
X139700000Y-83820000D02*
X139700000Y-81280000D01*
%TO.N,Net-(D2-Pad1)*%
X137160000Y-86770000D02*
X128270000Y-86770000D01*
X128270000Y-81280000D02*
X125730000Y-78740000D01*
X128270000Y-86770000D02*
X128270000Y-81280000D01*
%TO.N,Net-(J2-Pad2)*%
X112140002Y-143620000D02*
X114300000Y-145779998D01*
X111380000Y-143620000D02*
X112140002Y-143620000D01*
X114300000Y-147320000D02*
X115570000Y-148590000D01*
X114300000Y-145779998D02*
X114300000Y-147320000D01*
%TO.N,Net-(J2-Pad1)*%
X113030000Y-145770000D02*
X111380000Y-144120000D01*
X113030000Y-147320000D02*
X113030000Y-145770000D01*
X113030000Y-147320000D02*
X113030000Y-148590000D01*
%TD*%
%TO.N,GND*%
D25*
X141580000Y-96065293D02*
X141510001Y-95979999D01*
X141481004Y-95956202D01*
X140263804Y-94739003D01*
X140240001Y-94709999D01*
X140124276Y-94615026D01*
X139992247Y-94544454D01*
X139848986Y-94500997D01*
X139737333Y-94490000D01*
X139737322Y-94490000D01*
X139700000Y-94486324D01*
X139662678Y-94490000D01*
X139448072Y-94490000D01*
X139448072Y-92356730D01*
X140211009Y-91593794D01*
X140240001Y-91570001D01*
X140263795Y-91541008D01*
X140263799Y-91541004D01*
X140334973Y-91454277D01*
X140334974Y-91454276D01*
X140405546Y-91322247D01*
X140449003Y-91178986D01*
X140460000Y-91067333D01*
X140460000Y-91067324D01*
X140463676Y-91030001D01*
X140460000Y-90992678D01*
X140460000Y-82734909D01*
X140474463Y-82728918D01*
X140742252Y-82549987D01*
X140969987Y-82322252D01*
X141148918Y-82054463D01*
X141272168Y-81756912D01*
X141335000Y-81441033D01*
X141335000Y-81118967D01*
X141272168Y-80803088D01*
X141148918Y-80505537D01*
X140969987Y-80237748D01*
X140742252Y-80010013D01*
X140474463Y-79831082D01*
X140176912Y-79707832D01*
X139861033Y-79645000D01*
X139538967Y-79645000D01*
X139223088Y-79707832D01*
X138925537Y-79831082D01*
X138657748Y-80010013D01*
X138430013Y-80237748D01*
X138251082Y-80505537D01*
X138127832Y-80803088D01*
X138065000Y-81118967D01*
X138065000Y-81441033D01*
X138127832Y-81756912D01*
X138251082Y-82054463D01*
X138430013Y-82322252D01*
X138657748Y-82549987D01*
X138925537Y-82728918D01*
X138940000Y-82734909D01*
X138940000Y-83857332D01*
X138940001Y-83857342D01*
X138940001Y-84895862D01*
X138934482Y-84894188D01*
X138810000Y-84881928D01*
X135510000Y-84881928D01*
X135385518Y-84894188D01*
X135265820Y-84930498D01*
X135155506Y-84989463D01*
X135058815Y-85068815D01*
X134979463Y-85165506D01*
X134920498Y-85275820D01*
X134884188Y-85395518D01*
X134871928Y-85520000D01*
X134871928Y-86010000D01*
X130558072Y-86010000D01*
X130558072Y-85520000D01*
X130545812Y-85395518D01*
X130509502Y-85275820D01*
X130450537Y-85165506D01*
X130371185Y-85068815D01*
X130274494Y-84989463D01*
X130164180Y-84930498D01*
X130044482Y-84894188D01*
X129920000Y-84881928D01*
X129030000Y-84881928D01*
X129030000Y-82280000D01*
X130441928Y-82280000D01*
X130454188Y-82404482D01*
X130490498Y-82524180D01*
X130549463Y-82634494D01*
X130628815Y-82731185D01*
X130725506Y-82810537D01*
X130835820Y-82869502D01*
X130955518Y-82905812D01*
X131080000Y-82918072D01*
X131794250Y-82915000D01*
X131953000Y-82756250D01*
X131953000Y-81407000D01*
X132207000Y-81407000D01*
X132207000Y-82756250D01*
X132365750Y-82915000D01*
X133080000Y-82918072D01*
X133204482Y-82905812D01*
X133324180Y-82869502D01*
X133434494Y-82810537D01*
X133531185Y-82731185D01*
X133610537Y-82634494D01*
X133669502Y-82524180D01*
X133705812Y-82404482D01*
X133718072Y-82280000D01*
X133715000Y-81565750D01*
X133556250Y-81407000D01*
X132207000Y-81407000D01*
X131953000Y-81407000D01*
X130603750Y-81407000D01*
X130445000Y-81565750D01*
X130441928Y-82280000D01*
X129030000Y-82280000D01*
X129030000Y-81317322D01*
X129033676Y-81279999D01*
X129030000Y-81242676D01*
X129030000Y-81242667D01*
X129019003Y-81131014D01*
X128975546Y-80987753D01*
X128904974Y-80855724D01*
X128861777Y-80803088D01*
X128833799Y-80768996D01*
X128833795Y-80768992D01*
X128810001Y-80739999D01*
X128781008Y-80716205D01*
X128066620Y-80001817D01*
X128140321Y-79987157D01*
X128376360Y-79889387D01*
X128588790Y-79747446D01*
X128637406Y-79698830D01*
X128670513Y-79807968D01*
X128795592Y-80041973D01*
X128963919Y-80247080D01*
X129169026Y-80415408D01*
X129403031Y-80540487D01*
X129656942Y-80617510D01*
X129921000Y-80643517D01*
X130185057Y-80617510D01*
X130438968Y-80540487D01*
X130443039Y-80538311D01*
X130445000Y-80994250D01*
X130603750Y-81153000D01*
X131953000Y-81153000D01*
X131953000Y-79803750D01*
X132207000Y-79803750D01*
X132207000Y-81153000D01*
X133556250Y-81153000D01*
X133715000Y-80994250D01*
X133718072Y-80280000D01*
X133705812Y-80155518D01*
X133669502Y-80035820D01*
X133610537Y-79925506D01*
X133531185Y-79828815D01*
X133434494Y-79749463D01*
X133324180Y-79690498D01*
X133204482Y-79654188D01*
X133080000Y-79641928D01*
X132365750Y-79645000D01*
X132207000Y-79803750D01*
X131953000Y-79803750D01*
X131794250Y-79645000D01*
X131221670Y-79642537D01*
X131248510Y-79554058D01*
X131268000Y-79356169D01*
X131268000Y-78123831D01*
X131248510Y-77925942D01*
X131171487Y-77672031D01*
X131046408Y-77438026D01*
X130878081Y-77232919D01*
X130672974Y-77064592D01*
X130438969Y-76939513D01*
X130185058Y-76862490D01*
X129921000Y-76836483D01*
X129656943Y-76862490D01*
X129403032Y-76939513D01*
X129169027Y-77064592D01*
X128963920Y-77232919D01*
X128795592Y-77438026D01*
X128670513Y-77672031D01*
X128637406Y-77781170D01*
X128588790Y-77732554D01*
X128376360Y-77590613D01*
X128140321Y-77492843D01*
X127889743Y-77443000D01*
X127634257Y-77443000D01*
X127383679Y-77492843D01*
X127147640Y-77590613D01*
X126935210Y-77732554D01*
X126754554Y-77913210D01*
X126746000Y-77926012D01*
X126737446Y-77913210D01*
X126556790Y-77732554D01*
X126344360Y-77590613D01*
X126108321Y-77492843D01*
X125857743Y-77443000D01*
X125602257Y-77443000D01*
X125351679Y-77492843D01*
X125115640Y-77590613D01*
X124903210Y-77732554D01*
X124722554Y-77913210D01*
X124714000Y-77926012D01*
X124705446Y-77913210D01*
X124524790Y-77732554D01*
X124312360Y-77590613D01*
X124076321Y-77492843D01*
X123825743Y-77443000D01*
X123570257Y-77443000D01*
X123319679Y-77492843D01*
X123083640Y-77590613D01*
X122871210Y-77732554D01*
X122822594Y-77781170D01*
X122789487Y-77672031D01*
X122664408Y-77438026D01*
X122496081Y-77232919D01*
X122290974Y-77064592D01*
X122056969Y-76939513D01*
X121803058Y-76862490D01*
X121539000Y-76836483D01*
X121274943Y-76862490D01*
X121021032Y-76939513D01*
X120787027Y-77064592D01*
X120581920Y-77232919D01*
X120413592Y-77438026D01*
X120288513Y-77672031D01*
X120211490Y-77925942D01*
X120192000Y-78123831D01*
X120192000Y-79356168D01*
X120211490Y-79554057D01*
X120288513Y-79807968D01*
X120382207Y-79983256D01*
X120154463Y-79831082D01*
X119856912Y-79707832D01*
X119541033Y-79645000D01*
X119218967Y-79645000D01*
X118903088Y-79707832D01*
X118605537Y-79831082D01*
X118337748Y-80010013D01*
X118110013Y-80237748D01*
X117931082Y-80505537D01*
X117807832Y-80803088D01*
X117745000Y-81118967D01*
X117745000Y-81441033D01*
X117807832Y-81756912D01*
X117931082Y-82054463D01*
X118110013Y-82322252D01*
X118337748Y-82549987D01*
X118605537Y-82728918D01*
X118620001Y-82734909D01*
X118620001Y-83142668D01*
X118616324Y-83180000D01*
X118630998Y-83328985D01*
X118674454Y-83472246D01*
X118745026Y-83604276D01*
X118799797Y-83671014D01*
X118840000Y-83720001D01*
X118868998Y-83743799D01*
X119456201Y-84331002D01*
X121093996Y-85968799D01*
X121094007Y-85968808D01*
X121182127Y-86056928D01*
X120615000Y-86056928D01*
X120461255Y-86072071D01*
X120313418Y-86116916D01*
X120177171Y-86189742D01*
X120057749Y-86287749D01*
X119959742Y-86407171D01*
X119941350Y-86441580D01*
X119924999Y-86454999D01*
X119901196Y-86484003D01*
X119628993Y-86756206D01*
X119599989Y-86780009D01*
X119546653Y-86845000D01*
X119505016Y-86895734D01*
X119451957Y-86995000D01*
X119434444Y-87027764D01*
X119390987Y-87171025D01*
X119379990Y-87282678D01*
X119379990Y-87282688D01*
X119376314Y-87320010D01*
X119379990Y-87357333D01*
X119379990Y-87989851D01*
X115060000Y-83669861D01*
X115060000Y-80768712D01*
X115103937Y-80724775D01*
X115217205Y-80555257D01*
X115295226Y-80366899D01*
X115335000Y-80166940D01*
X115335000Y-79963062D01*
X115295226Y-79763103D01*
X115217205Y-79574745D01*
X115103937Y-79405227D01*
X114959774Y-79261064D01*
X114790256Y-79147796D01*
X114601898Y-79069775D01*
X114401939Y-79030001D01*
X114198061Y-79030001D01*
X113998102Y-79069775D01*
X113809744Y-79147796D01*
X113640226Y-79261064D01*
X113496063Y-79405227D01*
X113382795Y-79574745D01*
X113304774Y-79763103D01*
X113275995Y-79907786D01*
X113211185Y-79828815D01*
X113114494Y-79749463D01*
X113004180Y-79690498D01*
X112884482Y-79654188D01*
X112760000Y-79641928D01*
X112045750Y-79645000D01*
X111887000Y-79803750D01*
X111887000Y-81153000D01*
X113236250Y-81153000D01*
X113395000Y-80994250D01*
X113396798Y-80576214D01*
X113496063Y-80724775D01*
X113540001Y-80768713D01*
X113540000Y-83947339D01*
X113536324Y-83984662D01*
X113540000Y-84021984D01*
X113540000Y-84021994D01*
X113550997Y-84133647D01*
X113594454Y-84276908D01*
X113665026Y-84408938D01*
X113702807Y-84454974D01*
X113759999Y-84524663D01*
X113789003Y-84548466D01*
X119210025Y-89969489D01*
X118869002Y-90310512D01*
X118839999Y-90334314D01*
X118802081Y-90380518D01*
X118745026Y-90450039D01*
X118715649Y-90505000D01*
X118674454Y-90582069D01*
X118631014Y-90725275D01*
X118576063Y-90780226D01*
X118462795Y-90949744D01*
X118384774Y-91138102D01*
X118345000Y-91338061D01*
X118345000Y-91541939D01*
X118384774Y-91741898D01*
X118462795Y-91930256D01*
X118576063Y-92099774D01*
X118720226Y-92243937D01*
X118889744Y-92357205D01*
X119078102Y-92435226D01*
X119278061Y-92475000D01*
X119481939Y-92475000D01*
X119681898Y-92435226D01*
X119826942Y-92375146D01*
X119839188Y-92499482D01*
X119875498Y-92619180D01*
X119924043Y-92710000D01*
X119875498Y-92800820D01*
X119839188Y-92920518D01*
X119826928Y-93045000D01*
X119830000Y-93059250D01*
X119988750Y-93218000D01*
X121363000Y-93218000D01*
X121363000Y-92202000D01*
X121617000Y-92202000D01*
X121617000Y-93218000D01*
X122991250Y-93218000D01*
X123150000Y-93059250D01*
X123153072Y-93045000D01*
X123140812Y-92920518D01*
X123104502Y-92800820D01*
X123055957Y-92710000D01*
X123104502Y-92619180D01*
X123140812Y-92499482D01*
X123153072Y-92375000D01*
X123150000Y-92360750D01*
X122991250Y-92202000D01*
X121617000Y-92202000D01*
X121363000Y-92202000D01*
X121343000Y-92202000D01*
X121343000Y-91948000D01*
X121363000Y-91948000D01*
X121363000Y-90932000D01*
X121617000Y-90932000D01*
X121617000Y-91948000D01*
X122991250Y-91948000D01*
X123150000Y-91789250D01*
X123153072Y-91775000D01*
X123140812Y-91650518D01*
X123104502Y-91530820D01*
X123055957Y-91440000D01*
X123104502Y-91349180D01*
X123140812Y-91229482D01*
X123153072Y-91105000D01*
X123150000Y-91090750D01*
X122991250Y-90932000D01*
X121617000Y-90932000D01*
X121363000Y-90932000D01*
X121343000Y-90932000D01*
X121343000Y-90678000D01*
X121363000Y-90678000D01*
X121363000Y-90658000D01*
X121617000Y-90658000D01*
X121617000Y-90678000D01*
X122991250Y-90678000D01*
X123123108Y-90546142D01*
X125084989Y-92508023D01*
X125084990Y-96054655D01*
X125081313Y-96091987D01*
X125095987Y-96240972D01*
X125136455Y-96374382D01*
X125002905Y-96429701D01*
X124751495Y-96597688D01*
X124537688Y-96811495D01*
X124391687Y-97030000D01*
X122013034Y-97030000D01*
X121803148Y-96820114D01*
X122515000Y-96823072D01*
X122639482Y-96810812D01*
X122759180Y-96774502D01*
X122869494Y-96715537D01*
X122966185Y-96636185D01*
X123045537Y-96539494D01*
X123104502Y-96429180D01*
X123140812Y-96309482D01*
X123153072Y-96185000D01*
X123150000Y-96170750D01*
X122991250Y-96012000D01*
X121617000Y-96012000D01*
X121617000Y-96032000D01*
X121363000Y-96032000D01*
X121363000Y-96012000D01*
X121343000Y-96012000D01*
X121343000Y-95758000D01*
X121363000Y-95758000D01*
X121363000Y-94742000D01*
X121617000Y-94742000D01*
X121617000Y-95758000D01*
X122991250Y-95758000D01*
X123150000Y-95599250D01*
X123153072Y-95585000D01*
X123140812Y-95460518D01*
X123104502Y-95340820D01*
X123055957Y-95250000D01*
X123104502Y-95159180D01*
X123140812Y-95039482D01*
X123153072Y-94915000D01*
X123150000Y-94900750D01*
X122991250Y-94742000D01*
X121617000Y-94742000D01*
X121363000Y-94742000D01*
X121343000Y-94742000D01*
X121343000Y-94488000D01*
X121363000Y-94488000D01*
X121363000Y-93472000D01*
X121617000Y-93472000D01*
X121617000Y-94488000D01*
X122991250Y-94488000D01*
X123150000Y-94329250D01*
X123153072Y-94315000D01*
X123140812Y-94190518D01*
X123104502Y-94070820D01*
X123055957Y-93980000D01*
X123104502Y-93889180D01*
X123140812Y-93769482D01*
X123153072Y-93645000D01*
X123150000Y-93630750D01*
X122991250Y-93472000D01*
X121617000Y-93472000D01*
X121363000Y-93472000D01*
X119988750Y-93472000D01*
X119830000Y-93630750D01*
X119826928Y-93645000D01*
X119839188Y-93769482D01*
X119858741Y-93833939D01*
X113778804Y-87754003D01*
X113755001Y-87724999D01*
X113738650Y-87711580D01*
X113720258Y-87677171D01*
X113681546Y-87630000D01*
X113720258Y-87582829D01*
X113793084Y-87446582D01*
X113837929Y-87298745D01*
X113853072Y-87145000D01*
X113853072Y-86845000D01*
X113837929Y-86691255D01*
X113793084Y-86543418D01*
X113720258Y-86407171D01*
X113622251Y-86287749D01*
X113502829Y-86189742D01*
X113366582Y-86116916D01*
X113218745Y-86072071D01*
X113065000Y-86056928D01*
X111315000Y-86056928D01*
X111161255Y-86072071D01*
X111013418Y-86116916D01*
X110877171Y-86189742D01*
X110757749Y-86287749D01*
X110659742Y-86407171D01*
X110586916Y-86543418D01*
X110542071Y-86691255D01*
X110526928Y-86845000D01*
X110526928Y-87145000D01*
X110542071Y-87298745D01*
X110586916Y-87446582D01*
X110659742Y-87582829D01*
X110698454Y-87630000D01*
X110659742Y-87677171D01*
X110586916Y-87813418D01*
X110542071Y-87961255D01*
X110526928Y-88115000D01*
X110526928Y-88415000D01*
X110542071Y-88568745D01*
X110586916Y-88716582D01*
X110659742Y-88852829D01*
X110698454Y-88900000D01*
X110659742Y-88947171D01*
X110586916Y-89083418D01*
X110542071Y-89231255D01*
X110526928Y-89385000D01*
X110526928Y-89685000D01*
X110542071Y-89838745D01*
X110586916Y-89986582D01*
X110659742Y-90122829D01*
X110698454Y-90170000D01*
X110659742Y-90217171D01*
X110586916Y-90353418D01*
X110542071Y-90501255D01*
X110526928Y-90655000D01*
X110526928Y-90955000D01*
X110542071Y-91108745D01*
X110586916Y-91256582D01*
X110658730Y-91390936D01*
X110634463Y-91420506D01*
X110575498Y-91530820D01*
X110539188Y-91650518D01*
X110526928Y-91775000D01*
X110530000Y-91789250D01*
X110688750Y-91948000D01*
X112063000Y-91948000D01*
X112063000Y-91928000D01*
X112317000Y-91928000D01*
X112317000Y-91948000D01*
X113691250Y-91948000D01*
X113850000Y-91789250D01*
X113853072Y-91775000D01*
X113840812Y-91650518D01*
X113804502Y-91530820D01*
X113745537Y-91420506D01*
X113721270Y-91390936D01*
X113793084Y-91256582D01*
X113837929Y-91108745D01*
X113853072Y-90955000D01*
X113853072Y-90655000D01*
X113837929Y-90501255D01*
X113793084Y-90353418D01*
X113720258Y-90217171D01*
X113681546Y-90170000D01*
X113720258Y-90122829D01*
X113793084Y-89986582D01*
X113809073Y-89933874D01*
X119379990Y-95504792D01*
X119379991Y-96194426D01*
X119376314Y-96231758D01*
X119379991Y-96269091D01*
X119390988Y-96380744D01*
X119392047Y-96384234D01*
X119434444Y-96524004D01*
X119505016Y-96656034D01*
X119562371Y-96725920D01*
X119599990Y-96771759D01*
X119628988Y-96795557D01*
X121134433Y-98301003D01*
X121158231Y-98330001D01*
X121187229Y-98353799D01*
X121273955Y-98424974D01*
X121304310Y-98441199D01*
X121405985Y-98495546D01*
X121549246Y-98539003D01*
X121660899Y-98550000D01*
X121660909Y-98550000D01*
X121698232Y-98553676D01*
X121735555Y-98550000D01*
X124391687Y-98550000D01*
X124537688Y-98768505D01*
X124751495Y-98982312D01*
X125002905Y-99150299D01*
X125282257Y-99266011D01*
X125578816Y-99325000D01*
X125881184Y-99325000D01*
X126177743Y-99266011D01*
X126284999Y-99221584D01*
X126285000Y-113037666D01*
X126281323Y-113074999D01*
X126295997Y-113223984D01*
X126339453Y-113367245D01*
X126410025Y-113499275D01*
X126481200Y-113586001D01*
X126504999Y-113615000D01*
X126533997Y-113638798D01*
X131951312Y-119056114D01*
X131915000Y-119238665D01*
X131915000Y-119521335D01*
X131951312Y-119703887D01*
X131713997Y-119941202D01*
X131684999Y-119965000D01*
X131661201Y-119993998D01*
X131661200Y-119993999D01*
X131590025Y-120080725D01*
X131519453Y-120212755D01*
X131475997Y-120356016D01*
X131461323Y-120505001D01*
X131465000Y-120542333D01*
X131464999Y-122422678D01*
X131461323Y-122460001D01*
X131464999Y-122497323D01*
X131464999Y-122497333D01*
X131475996Y-122608986D01*
X131519453Y-122752247D01*
X131590025Y-122884277D01*
X131621396Y-122922502D01*
X131684998Y-123000002D01*
X131714001Y-123023804D01*
X132235400Y-123545204D01*
X132235363Y-123545241D01*
X132078320Y-123780273D01*
X131970147Y-124041426D01*
X131915000Y-124318665D01*
X131915000Y-124601335D01*
X131970147Y-124878574D01*
X132078320Y-125139727D01*
X132235363Y-125374759D01*
X132435241Y-125574637D01*
X132667759Y-125730000D01*
X132435241Y-125885363D01*
X132235363Y-126085241D01*
X132078320Y-126320273D01*
X131970147Y-126581426D01*
X131915000Y-126858665D01*
X131915000Y-127141335D01*
X131970147Y-127418574D01*
X132078320Y-127679727D01*
X132235363Y-127914759D01*
X132435241Y-128114637D01*
X132667759Y-128270000D01*
X132435241Y-128425363D01*
X132235363Y-128625241D01*
X132078320Y-128860273D01*
X131970147Y-129121426D01*
X131915000Y-129398665D01*
X131915000Y-129681335D01*
X131970147Y-129958574D01*
X132078320Y-130219727D01*
X132235363Y-130454759D01*
X132435241Y-130654637D01*
X132667759Y-130810000D01*
X132435241Y-130965363D01*
X132235363Y-131165241D01*
X132079022Y-131399222D01*
X125220000Y-124540201D01*
X125220000Y-117543711D01*
X125263937Y-117499774D01*
X125377205Y-117330256D01*
X125455226Y-117141898D01*
X125495000Y-116941939D01*
X125495000Y-116738061D01*
X125455226Y-116538102D01*
X125377205Y-116349744D01*
X125263937Y-116180226D01*
X125119774Y-116036063D01*
X124950256Y-115922795D01*
X124761898Y-115844774D01*
X124561939Y-115805000D01*
X124358061Y-115805000D01*
X124158102Y-115844774D01*
X123969744Y-115922795D01*
X123800226Y-116036063D01*
X123656063Y-116180226D01*
X123542795Y-116349744D01*
X123464774Y-116538102D01*
X123425000Y-116738061D01*
X123425000Y-116941939D01*
X123464774Y-117141898D01*
X123542795Y-117330256D01*
X123656063Y-117499774D01*
X123700001Y-117543712D01*
X123700000Y-124817680D01*
X123696324Y-124855002D01*
X123700000Y-124892324D01*
X123700000Y-124892334D01*
X123710997Y-125003987D01*
X123752173Y-125139727D01*
X123754454Y-125147248D01*
X123825026Y-125279278D01*
X123864871Y-125327828D01*
X123919999Y-125395003D01*
X123949003Y-125418806D01*
X132235400Y-133705204D01*
X132235363Y-133705241D01*
X132078320Y-133940273D01*
X131970147Y-134201426D01*
X131915000Y-134478665D01*
X131915000Y-134761335D01*
X131970147Y-135038574D01*
X132078320Y-135299727D01*
X132235363Y-135534759D01*
X132435241Y-135734637D01*
X132667759Y-135890000D01*
X132435241Y-136045363D01*
X132235363Y-136245241D01*
X132078320Y-136480273D01*
X131970147Y-136741426D01*
X131915000Y-137018665D01*
X131915000Y-137301335D01*
X131970147Y-137578574D01*
X132078320Y-137839727D01*
X132235363Y-138074759D01*
X132435241Y-138274637D01*
X132667759Y-138430000D01*
X132435241Y-138585363D01*
X132235363Y-138785241D01*
X132078320Y-139020273D01*
X131970147Y-139281426D01*
X131915000Y-139558665D01*
X131915000Y-139841335D01*
X131970147Y-140118574D01*
X132078320Y-140379727D01*
X132235363Y-140614759D01*
X132435241Y-140814637D01*
X132670273Y-140971680D01*
X132931426Y-141079853D01*
X133208665Y-141135000D01*
X133491335Y-141135000D01*
X133768574Y-141079853D01*
X134029727Y-140971680D01*
X134264759Y-140814637D01*
X134464637Y-140614759D01*
X134621680Y-140379727D01*
X134729853Y-140118574D01*
X134785000Y-139841335D01*
X134785000Y-139558665D01*
X134748688Y-139376114D01*
X135130000Y-138994802D01*
X135130000Y-142202678D01*
X135126324Y-142240000D01*
X135130000Y-142277322D01*
X135130000Y-142277332D01*
X135140997Y-142388985D01*
X135173156Y-142495000D01*
X135184454Y-142532246D01*
X135255026Y-142664276D01*
X135282429Y-142697666D01*
X135349999Y-142780001D01*
X135379003Y-142803804D01*
X137670001Y-145094804D01*
X137670000Y-147282667D01*
X137670000Y-147311822D01*
X137483368Y-147436525D01*
X137276525Y-147643368D01*
X137160000Y-147817760D01*
X137043475Y-147643368D01*
X136836632Y-147436525D01*
X136593411Y-147274010D01*
X136323158Y-147162068D01*
X136036260Y-147105000D01*
X135743740Y-147105000D01*
X135523592Y-147148791D01*
X135183804Y-146809003D01*
X135160001Y-146779999D01*
X135044276Y-146685026D01*
X134912247Y-146614454D01*
X134768986Y-146570997D01*
X134657333Y-146560000D01*
X134657322Y-146560000D01*
X134620000Y-146556324D01*
X134582678Y-146560000D01*
X129577322Y-146560000D01*
X129539999Y-146556324D01*
X129502676Y-146560000D01*
X129502667Y-146560000D01*
X129391014Y-146570997D01*
X129247753Y-146614454D01*
X129115724Y-146685026D01*
X128999999Y-146779999D01*
X128976201Y-146808997D01*
X128636408Y-147148790D01*
X128416260Y-147105000D01*
X128123740Y-147105000D01*
X127836842Y-147162068D01*
X127566589Y-147274010D01*
X127323368Y-147436525D01*
X127116525Y-147643368D01*
X127000000Y-147817760D01*
X126883475Y-147643368D01*
X126676632Y-147436525D01*
X126433411Y-147274010D01*
X126163158Y-147162068D01*
X125876260Y-147105000D01*
X125583740Y-147105000D01*
X125363592Y-147148790D01*
X120873803Y-142659002D01*
X120850000Y-142629998D01*
X120734275Y-142535025D01*
X120602246Y-142464453D01*
X120458985Y-142420996D01*
X120347332Y-142409999D01*
X120347321Y-142409999D01*
X120309999Y-142406323D01*
X120272677Y-142409999D01*
X116859700Y-142409999D01*
X116855812Y-142370518D01*
X116855655Y-142370000D01*
X116855812Y-142369482D01*
X116868072Y-142245000D01*
X116868072Y-141995000D01*
X116855812Y-141870518D01*
X116819502Y-141750820D01*
X116760537Y-141640506D01*
X116681185Y-141543815D01*
X116584494Y-141464463D01*
X116474180Y-141405498D01*
X116354482Y-141369188D01*
X116230000Y-141356928D01*
X115130000Y-141356928D01*
X115098808Y-141360000D01*
X114457322Y-141360000D01*
X114419999Y-141356324D01*
X114382676Y-141360000D01*
X114382667Y-141360000D01*
X114271014Y-141370997D01*
X114127753Y-141414454D01*
X113995724Y-141485026D01*
X113879999Y-141579999D01*
X113856201Y-141608998D01*
X113154002Y-142311197D01*
X113124999Y-142334999D01*
X113069871Y-142402174D01*
X113030026Y-142450724D01*
X112980021Y-142544276D01*
X112959454Y-142582754D01*
X112915997Y-142726015D01*
X112905000Y-142837668D01*
X112905000Y-142837678D01*
X112901324Y-142875000D01*
X112905000Y-142912323D01*
X112905000Y-143310197D01*
X112703806Y-143109002D01*
X112680003Y-143079999D01*
X112567337Y-142987536D01*
X112555812Y-142870518D01*
X112555655Y-142870000D01*
X112555812Y-142869482D01*
X112568072Y-142745000D01*
X112568072Y-142495000D01*
X112555812Y-142370518D01*
X112555655Y-142370000D01*
X112555812Y-142369482D01*
X112568072Y-142245000D01*
X112568072Y-141995000D01*
X112555812Y-141870518D01*
X112519502Y-141750820D01*
X112460537Y-141640506D01*
X112381185Y-141543815D01*
X112284494Y-141464463D01*
X112174180Y-141405498D01*
X112054482Y-141369188D01*
X111930000Y-141356928D01*
X111169980Y-141356928D01*
X111169980Y-139598061D01*
X114535000Y-139598061D01*
X114535000Y-139801939D01*
X114574774Y-140001898D01*
X114652795Y-140190256D01*
X114766063Y-140359774D01*
X114910226Y-140503937D01*
X115079744Y-140617205D01*
X115268102Y-140695226D01*
X115468061Y-140735000D01*
X115671939Y-140735000D01*
X115871898Y-140695226D01*
X116060256Y-140617205D01*
X116229774Y-140503937D01*
X116373937Y-140359774D01*
X116487205Y-140190256D01*
X116565226Y-140001898D01*
X116605000Y-139801939D01*
X116605000Y-139598061D01*
X116565226Y-139398102D01*
X116487205Y-139209744D01*
X116373937Y-139040226D01*
X116330000Y-138996289D01*
X116330000Y-117154801D01*
X116675000Y-116809801D01*
X116675000Y-116981335D01*
X116730147Y-117258574D01*
X116838320Y-117519727D01*
X116995363Y-117754759D01*
X117195241Y-117954637D01*
X117427759Y-118110000D01*
X117195241Y-118265363D01*
X116995363Y-118465241D01*
X116838320Y-118700273D01*
X116730147Y-118961426D01*
X116675000Y-119238665D01*
X116675000Y-119521335D01*
X116730147Y-119798574D01*
X116838320Y-120059727D01*
X116995363Y-120294759D01*
X117195241Y-120494637D01*
X117427759Y-120650000D01*
X117195241Y-120805363D01*
X116995363Y-121005241D01*
X116838320Y-121240273D01*
X116730147Y-121501426D01*
X116675000Y-121778665D01*
X116675000Y-122061335D01*
X116730147Y-122338574D01*
X116838320Y-122599727D01*
X116995363Y-122834759D01*
X117195241Y-123034637D01*
X117427759Y-123190000D01*
X117195241Y-123345363D01*
X116995363Y-123545241D01*
X116838320Y-123780273D01*
X116730147Y-124041426D01*
X116675000Y-124318665D01*
X116675000Y-124601335D01*
X116730147Y-124878574D01*
X116838320Y-125139727D01*
X116995363Y-125374759D01*
X117195241Y-125574637D01*
X117427759Y-125730000D01*
X117195241Y-125885363D01*
X116995363Y-126085241D01*
X116838320Y-126320273D01*
X116730147Y-126581426D01*
X116675000Y-126858665D01*
X116675000Y-127141335D01*
X116730147Y-127418574D01*
X116838320Y-127679727D01*
X116995363Y-127914759D01*
X117195241Y-128114637D01*
X117427759Y-128270000D01*
X117195241Y-128425363D01*
X116995363Y-128625241D01*
X116838320Y-128860273D01*
X116730147Y-129121426D01*
X116675000Y-129398665D01*
X116675000Y-129681335D01*
X116730147Y-129958574D01*
X116838320Y-130219727D01*
X116995363Y-130454759D01*
X117195241Y-130654637D01*
X117427759Y-130810000D01*
X117195241Y-130965363D01*
X116995363Y-131165241D01*
X116838320Y-131400273D01*
X116730147Y-131661426D01*
X116675000Y-131938665D01*
X116675000Y-132221335D01*
X116730147Y-132498574D01*
X116838320Y-132759727D01*
X116995363Y-132994759D01*
X117195241Y-133194637D01*
X117427759Y-133350000D01*
X117195241Y-133505363D01*
X116995363Y-133705241D01*
X116838320Y-133940273D01*
X116730147Y-134201426D01*
X116675000Y-134478665D01*
X116675000Y-134761335D01*
X116730147Y-135038574D01*
X116838320Y-135299727D01*
X116995363Y-135534759D01*
X117195241Y-135734637D01*
X117427759Y-135890000D01*
X117195241Y-136045363D01*
X116995363Y-136245241D01*
X116838320Y-136480273D01*
X116730147Y-136741426D01*
X116675000Y-137018665D01*
X116675000Y-137301335D01*
X116730147Y-137578574D01*
X116838320Y-137839727D01*
X116995363Y-138074759D01*
X117195241Y-138274637D01*
X117427759Y-138430000D01*
X117195241Y-138585363D01*
X116995363Y-138785241D01*
X116838320Y-139020273D01*
X116730147Y-139281426D01*
X116675000Y-139558665D01*
X116675000Y-139841335D01*
X116730147Y-140118574D01*
X116838320Y-140379727D01*
X116995363Y-140614759D01*
X117195241Y-140814637D01*
X117430273Y-140971680D01*
X117691426Y-141079853D01*
X117968665Y-141135000D01*
X118251335Y-141135000D01*
X118528574Y-141079853D01*
X118789727Y-140971680D01*
X119024759Y-140814637D01*
X119224637Y-140614759D01*
X119381680Y-140379727D01*
X119489853Y-140118574D01*
X119545000Y-139841335D01*
X119545000Y-139558665D01*
X119489853Y-139281426D01*
X119381680Y-139020273D01*
X119224637Y-138785241D01*
X119024759Y-138585363D01*
X118792241Y-138430000D01*
X119024759Y-138274637D01*
X119224637Y-138074759D01*
X119381680Y-137839727D01*
X119489853Y-137578574D01*
X119545000Y-137301335D01*
X119545000Y-137018665D01*
X119489853Y-136741426D01*
X119381680Y-136480273D01*
X119224637Y-136245241D01*
X119024759Y-136045363D01*
X118792241Y-135890000D01*
X119024759Y-135734637D01*
X119224637Y-135534759D01*
X119381680Y-135299727D01*
X119489853Y-135038574D01*
X119545000Y-134761335D01*
X119545000Y-134478665D01*
X119489853Y-134201426D01*
X119381680Y-133940273D01*
X119224637Y-133705241D01*
X119024759Y-133505363D01*
X118792241Y-133350000D01*
X119024759Y-133194637D01*
X119224637Y-132994759D01*
X119381680Y-132759727D01*
X119489853Y-132498574D01*
X119545000Y-132221335D01*
X119545000Y-131938665D01*
X119489853Y-131661426D01*
X119381680Y-131400273D01*
X119224637Y-131165241D01*
X119024759Y-130965363D01*
X118792241Y-130810000D01*
X119024759Y-130654637D01*
X119224637Y-130454759D01*
X119381680Y-130219727D01*
X119489853Y-129958574D01*
X119545000Y-129681335D01*
X119545000Y-129398665D01*
X119489853Y-129121426D01*
X119381680Y-128860273D01*
X119224637Y-128625241D01*
X119024759Y-128425363D01*
X118792241Y-128270000D01*
X119024759Y-128114637D01*
X119224637Y-127914759D01*
X119381680Y-127679727D01*
X119489853Y-127418574D01*
X119545000Y-127141335D01*
X119545000Y-126858665D01*
X119489853Y-126581426D01*
X119381680Y-126320273D01*
X119224637Y-126085241D01*
X119024759Y-125885363D01*
X118792241Y-125730000D01*
X119024759Y-125574637D01*
X119224637Y-125374759D01*
X119381680Y-125139727D01*
X119489853Y-124878574D01*
X119545000Y-124601335D01*
X119545000Y-124318665D01*
X119489853Y-124041426D01*
X119381680Y-123780273D01*
X119224637Y-123545241D01*
X119024759Y-123345363D01*
X118792241Y-123190000D01*
X119024759Y-123034637D01*
X119224637Y-122834759D01*
X119381680Y-122599727D01*
X119489853Y-122338574D01*
X119545000Y-122061335D01*
X119545000Y-121778665D01*
X119489853Y-121501426D01*
X119381680Y-121240273D01*
X119224637Y-121005241D01*
X119024759Y-120805363D01*
X118792241Y-120650000D01*
X119024759Y-120494637D01*
X119224637Y-120294759D01*
X119381680Y-120059727D01*
X119489853Y-119798574D01*
X119545000Y-119521335D01*
X119545000Y-119238665D01*
X119489853Y-118961426D01*
X119381680Y-118700273D01*
X119224637Y-118465241D01*
X119024759Y-118265363D01*
X118792241Y-118110000D01*
X119024759Y-117954637D01*
X119224637Y-117754759D01*
X119381680Y-117519727D01*
X119489853Y-117258574D01*
X119545000Y-116981335D01*
X119545000Y-116698665D01*
X119489853Y-116421426D01*
X119381680Y-116160273D01*
X119224637Y-115925241D01*
X119024759Y-115725363D01*
X118792241Y-115570000D01*
X119024759Y-115414637D01*
X119224637Y-115214759D01*
X119381680Y-114979727D01*
X119489853Y-114718574D01*
X119545000Y-114441335D01*
X119545000Y-114158665D01*
X119489853Y-113881426D01*
X119381680Y-113620273D01*
X119224637Y-113385241D01*
X119024759Y-113185363D01*
X118789727Y-113028320D01*
X118779135Y-113023933D01*
X118965131Y-112912385D01*
X119173519Y-112723414D01*
X119341037Y-112497420D01*
X119461246Y-112243087D01*
X119501904Y-112109039D01*
X119379915Y-111887000D01*
X118237000Y-111887000D01*
X118237000Y-111907000D01*
X117983000Y-111907000D01*
X117983000Y-111887000D01*
X116840085Y-111887000D01*
X116718096Y-112109039D01*
X116758754Y-112243087D01*
X116878963Y-112497420D01*
X117046481Y-112723414D01*
X117254869Y-112912385D01*
X117440865Y-113023933D01*
X117430273Y-113028320D01*
X117195241Y-113185363D01*
X116995363Y-113385241D01*
X116838320Y-113620273D01*
X116730147Y-113881426D01*
X116675000Y-114158665D01*
X116675000Y-114441335D01*
X116711312Y-114623886D01*
X115059003Y-116276196D01*
X115029999Y-116299999D01*
X114989175Y-116349744D01*
X114935026Y-116415724D01*
X114869613Y-116538102D01*
X114864454Y-116547754D01*
X114820997Y-116691015D01*
X114810000Y-116802668D01*
X114810000Y-116802678D01*
X114806324Y-116840000D01*
X114810000Y-116877322D01*
X114810001Y-138996288D01*
X114766063Y-139040226D01*
X114652795Y-139209744D01*
X114574774Y-139398102D01*
X114535000Y-139598061D01*
X111169980Y-139598061D01*
X111169980Y-139053691D01*
X111213917Y-139009754D01*
X111327185Y-138840236D01*
X111405206Y-138651878D01*
X111444980Y-138451919D01*
X111444980Y-138248041D01*
X111405206Y-138048082D01*
X111327185Y-137859724D01*
X111213917Y-137690206D01*
X111069754Y-137546043D01*
X110900236Y-137432775D01*
X110711878Y-137354754D01*
X110511919Y-137314980D01*
X110308041Y-137314980D01*
X110108082Y-137354754D01*
X109919724Y-137432775D01*
X109880000Y-137459318D01*
X109880000Y-103340000D01*
X116671928Y-103340000D01*
X116671928Y-104940000D01*
X116684188Y-105064482D01*
X116720498Y-105184180D01*
X116779463Y-105294494D01*
X116858815Y-105391185D01*
X116955506Y-105470537D01*
X117065820Y-105529502D01*
X117185518Y-105565812D01*
X117193961Y-105566643D01*
X116995363Y-105765241D01*
X116838320Y-106000273D01*
X116730147Y-106261426D01*
X116675000Y-106538665D01*
X116675000Y-106821335D01*
X116730147Y-107098574D01*
X116838320Y-107359727D01*
X116995363Y-107594759D01*
X117195241Y-107794637D01*
X117427759Y-107950000D01*
X117195241Y-108105363D01*
X116995363Y-108305241D01*
X116838320Y-108540273D01*
X116730147Y-108801426D01*
X116675000Y-109078665D01*
X116675000Y-109361335D01*
X116730147Y-109638574D01*
X116838320Y-109899727D01*
X116995363Y-110134759D01*
X117195241Y-110334637D01*
X117430273Y-110491680D01*
X117440865Y-110496067D01*
X117254869Y-110607615D01*
X117046481Y-110796586D01*
X116878963Y-111022580D01*
X116758754Y-111276913D01*
X116718096Y-111410961D01*
X116840085Y-111633000D01*
X117983000Y-111633000D01*
X117983000Y-111613000D01*
X118237000Y-111613000D01*
X118237000Y-111633000D01*
X119379915Y-111633000D01*
X119501904Y-111410961D01*
X119461246Y-111276913D01*
X119341037Y-111022580D01*
X119173519Y-110796586D01*
X118965131Y-110607615D01*
X118779135Y-110496067D01*
X118789727Y-110491680D01*
X119024759Y-110334637D01*
X119222297Y-110137099D01*
X119615000Y-110529802D01*
X119615000Y-110591939D01*
X119654774Y-110791898D01*
X119732795Y-110980256D01*
X119846063Y-111149774D01*
X119990226Y-111293937D01*
X120159744Y-111407205D01*
X120348102Y-111485226D01*
X120548061Y-111525000D01*
X120751939Y-111525000D01*
X120951898Y-111485226D01*
X121140256Y-111407205D01*
X121309774Y-111293937D01*
X121453937Y-111149774D01*
X121567205Y-110980256D01*
X121645226Y-110791898D01*
X121685000Y-110591939D01*
X121685000Y-110388061D01*
X121645226Y-110188102D01*
X121567205Y-109999744D01*
X121453937Y-109830226D01*
X121309774Y-109686063D01*
X121140256Y-109572795D01*
X120951898Y-109494774D01*
X120751939Y-109455000D01*
X120689802Y-109455000D01*
X120140000Y-108905199D01*
X120140000Y-101033711D01*
X120183937Y-100989774D01*
X120297205Y-100820256D01*
X120375226Y-100631898D01*
X120415000Y-100431939D01*
X120415000Y-100228061D01*
X120375226Y-100028102D01*
X120297205Y-99839744D01*
X120183937Y-99670226D01*
X120039774Y-99526063D01*
X119870256Y-99412795D01*
X119681898Y-99334774D01*
X119481939Y-99295000D01*
X119278061Y-99295000D01*
X119078102Y-99334774D01*
X118889744Y-99412795D01*
X118720226Y-99526063D01*
X118576063Y-99670226D01*
X118462795Y-99839744D01*
X118384774Y-100028102D01*
X118345000Y-100228061D01*
X118345000Y-100431939D01*
X118384774Y-100631898D01*
X118462795Y-100820256D01*
X118576063Y-100989774D01*
X118620000Y-101033711D01*
X118620000Y-102701928D01*
X117310000Y-102701928D01*
X117185518Y-102714188D01*
X117065820Y-102750498D01*
X116955506Y-102809463D01*
X116858815Y-102888815D01*
X116779463Y-102985506D01*
X116720498Y-103095820D01*
X116684188Y-103215518D01*
X116671928Y-103340000D01*
X109880000Y-103340000D01*
X109880000Y-96185000D01*
X110526928Y-96185000D01*
X110539188Y-96309482D01*
X110575498Y-96429180D01*
X110634463Y-96539494D01*
X110713815Y-96636185D01*
X110810506Y-96715537D01*
X110920820Y-96774502D01*
X111040518Y-96810812D01*
X111165000Y-96823072D01*
X111904250Y-96820000D01*
X112063000Y-96661250D01*
X112063000Y-96012000D01*
X112317000Y-96012000D01*
X112317000Y-96661250D01*
X112475750Y-96820000D01*
X113215000Y-96823072D01*
X113339482Y-96810812D01*
X113459180Y-96774502D01*
X113569494Y-96715537D01*
X113666185Y-96636185D01*
X113745537Y-96539494D01*
X113804502Y-96429180D01*
X113840812Y-96309482D01*
X113853072Y-96185000D01*
X113850000Y-96170750D01*
X113691250Y-96012000D01*
X112317000Y-96012000D01*
X112063000Y-96012000D01*
X110688750Y-96012000D01*
X110530000Y-96170750D01*
X110526928Y-96185000D01*
X109880000Y-96185000D01*
X109880000Y-94915000D01*
X110526928Y-94915000D01*
X110539188Y-95039482D01*
X110575498Y-95159180D01*
X110624043Y-95250000D01*
X110575498Y-95340820D01*
X110539188Y-95460518D01*
X110526928Y-95585000D01*
X110530000Y-95599250D01*
X110688750Y-95758000D01*
X112063000Y-95758000D01*
X112063000Y-94742000D01*
X112317000Y-94742000D01*
X112317000Y-95758000D01*
X113691250Y-95758000D01*
X113850000Y-95599250D01*
X113853072Y-95585000D01*
X113840812Y-95460518D01*
X113804502Y-95340820D01*
X113755957Y-95250000D01*
X113804502Y-95159180D01*
X113840812Y-95039482D01*
X113853072Y-94915000D01*
X113850000Y-94900750D01*
X113691250Y-94742000D01*
X112317000Y-94742000D01*
X112063000Y-94742000D01*
X110688750Y-94742000D01*
X110530000Y-94900750D01*
X110526928Y-94915000D01*
X109880000Y-94915000D01*
X109880000Y-93645000D01*
X110526928Y-93645000D01*
X110539188Y-93769482D01*
X110575498Y-93889180D01*
X110624043Y-93980000D01*
X110575498Y-94070820D01*
X110539188Y-94190518D01*
X110526928Y-94315000D01*
X110530000Y-94329250D01*
X110688750Y-94488000D01*
X112063000Y-94488000D01*
X112063000Y-93472000D01*
X112317000Y-93472000D01*
X112317000Y-94488000D01*
X113691250Y-94488000D01*
X113850000Y-94329250D01*
X113853072Y-94315000D01*
X113840812Y-94190518D01*
X113804502Y-94070820D01*
X113755957Y-93980000D01*
X113804502Y-93889180D01*
X113840812Y-93769482D01*
X113853072Y-93645000D01*
X113850000Y-93630750D01*
X113691250Y-93472000D01*
X112317000Y-93472000D01*
X112063000Y-93472000D01*
X110688750Y-93472000D01*
X110530000Y-93630750D01*
X110526928Y-93645000D01*
X109880000Y-93645000D01*
X109880000Y-92375000D01*
X110526928Y-92375000D01*
X110539188Y-92499482D01*
X110575498Y-92619180D01*
X110624043Y-92710000D01*
X110575498Y-92800820D01*
X110539188Y-92920518D01*
X110526928Y-93045000D01*
X110530000Y-93059250D01*
X110688750Y-93218000D01*
X112063000Y-93218000D01*
X112063000Y-92202000D01*
X112317000Y-92202000D01*
X112317000Y-93218000D01*
X113691250Y-93218000D01*
X113850000Y-93059250D01*
X113853072Y-93045000D01*
X113840812Y-92920518D01*
X113804502Y-92800820D01*
X113755957Y-92710000D01*
X113804502Y-92619180D01*
X113840812Y-92499482D01*
X113853072Y-92375000D01*
X113850000Y-92360750D01*
X113691250Y-92202000D01*
X112317000Y-92202000D01*
X112063000Y-92202000D01*
X110688750Y-92202000D01*
X110530000Y-92360750D01*
X110526928Y-92375000D01*
X109880000Y-92375000D01*
X109880000Y-82280000D01*
X110121928Y-82280000D01*
X110134188Y-82404482D01*
X110170498Y-82524180D01*
X110229463Y-82634494D01*
X110308815Y-82731185D01*
X110405506Y-82810537D01*
X110515820Y-82869502D01*
X110635518Y-82905812D01*
X110760000Y-82918072D01*
X111474250Y-82915000D01*
X111633000Y-82756250D01*
X111633000Y-81407000D01*
X111887000Y-81407000D01*
X111887000Y-82756250D01*
X112045750Y-82915000D01*
X112760000Y-82918072D01*
X112884482Y-82905812D01*
X113004180Y-82869502D01*
X113114494Y-82810537D01*
X113211185Y-82731185D01*
X113290537Y-82634494D01*
X113349502Y-82524180D01*
X113385812Y-82404482D01*
X113398072Y-82280000D01*
X113395000Y-81565750D01*
X113236250Y-81407000D01*
X111887000Y-81407000D01*
X111633000Y-81407000D01*
X110283750Y-81407000D01*
X110125000Y-81565750D01*
X110121928Y-82280000D01*
X109880000Y-82280000D01*
X109880000Y-80280000D01*
X110121928Y-80280000D01*
X110125000Y-80994250D01*
X110283750Y-81153000D01*
X111633000Y-81153000D01*
X111633000Y-79803750D01*
X111474250Y-79645000D01*
X110760000Y-79641928D01*
X110635518Y-79654188D01*
X110515820Y-79690498D01*
X110405506Y-79749463D01*
X110308815Y-79828815D01*
X110229463Y-79925506D01*
X110170498Y-80035820D01*
X110134188Y-80155518D01*
X110121928Y-80280000D01*
X109880000Y-80280000D01*
X109880000Y-75590000D01*
X141580000Y-75590000D01*
X141580000Y-96065293D01*
X141580000Y-96065293D02*
X141580000Y-75590000D01*
%TA.AperFunction,Conductor*%
G36*
X141580000Y-96065293D02*
G01*
X141510001Y-95979999D01*
X141481004Y-95956202D01*
X140263804Y-94739003D01*
X140240001Y-94709999D01*
X140124276Y-94615026D01*
X139992247Y-94544454D01*
X139848986Y-94500997D01*
X139737333Y-94490000D01*
X139737322Y-94490000D01*
X139700000Y-94486324D01*
X139662678Y-94490000D01*
X139448072Y-94490000D01*
X139448072Y-92356730D01*
X140211009Y-91593794D01*
X140240001Y-91570001D01*
X140263795Y-91541008D01*
X140263799Y-91541004D01*
X140334973Y-91454277D01*
X140334974Y-91454276D01*
X140405546Y-91322247D01*
X140449003Y-91178986D01*
X140460000Y-91067333D01*
X140460000Y-91067324D01*
X140463676Y-91030001D01*
X140460000Y-90992678D01*
X140460000Y-82734909D01*
X140474463Y-82728918D01*
X140742252Y-82549987D01*
X140969987Y-82322252D01*
X141148918Y-82054463D01*
X141272168Y-81756912D01*
X141335000Y-81441033D01*
X141335000Y-81118967D01*
X141272168Y-80803088D01*
X141148918Y-80505537D01*
X140969987Y-80237748D01*
X140742252Y-80010013D01*
X140474463Y-79831082D01*
X140176912Y-79707832D01*
X139861033Y-79645000D01*
X139538967Y-79645000D01*
X139223088Y-79707832D01*
X138925537Y-79831082D01*
X138657748Y-80010013D01*
X138430013Y-80237748D01*
X138251082Y-80505537D01*
X138127832Y-80803088D01*
X138065000Y-81118967D01*
X138065000Y-81441033D01*
X138127832Y-81756912D01*
X138251082Y-82054463D01*
X138430013Y-82322252D01*
X138657748Y-82549987D01*
X138925537Y-82728918D01*
X138940000Y-82734909D01*
X138940000Y-83857332D01*
X138940001Y-83857342D01*
X138940001Y-84895862D01*
X138934482Y-84894188D01*
X138810000Y-84881928D01*
X135510000Y-84881928D01*
X135385518Y-84894188D01*
X135265820Y-84930498D01*
X135155506Y-84989463D01*
X135058815Y-85068815D01*
X134979463Y-85165506D01*
X134920498Y-85275820D01*
X134884188Y-85395518D01*
X134871928Y-85520000D01*
X134871928Y-86010000D01*
X130558072Y-86010000D01*
X130558072Y-85520000D01*
X130545812Y-85395518D01*
X130509502Y-85275820D01*
X130450537Y-85165506D01*
X130371185Y-85068815D01*
X130274494Y-84989463D01*
X130164180Y-84930498D01*
X130044482Y-84894188D01*
X129920000Y-84881928D01*
X129030000Y-84881928D01*
X129030000Y-82280000D01*
X130441928Y-82280000D01*
X130454188Y-82404482D01*
X130490498Y-82524180D01*
X130549463Y-82634494D01*
X130628815Y-82731185D01*
X130725506Y-82810537D01*
X130835820Y-82869502D01*
X130955518Y-82905812D01*
X131080000Y-82918072D01*
X131794250Y-82915000D01*
X131953000Y-82756250D01*
X131953000Y-81407000D01*
X132207000Y-81407000D01*
X132207000Y-82756250D01*
X132365750Y-82915000D01*
X133080000Y-82918072D01*
X133204482Y-82905812D01*
X133324180Y-82869502D01*
X133434494Y-82810537D01*
X133531185Y-82731185D01*
X133610537Y-82634494D01*
X133669502Y-82524180D01*
X133705812Y-82404482D01*
X133718072Y-82280000D01*
X133715000Y-81565750D01*
X133556250Y-81407000D01*
X132207000Y-81407000D01*
X131953000Y-81407000D01*
X130603750Y-81407000D01*
X130445000Y-81565750D01*
X130441928Y-82280000D01*
X129030000Y-82280000D01*
X129030000Y-81317322D01*
X129033676Y-81279999D01*
X129030000Y-81242676D01*
X129030000Y-81242667D01*
X129019003Y-81131014D01*
X128975546Y-80987753D01*
X128904974Y-80855724D01*
X128861777Y-80803088D01*
X128833799Y-80768996D01*
X128833795Y-80768992D01*
X128810001Y-80739999D01*
X128781008Y-80716205D01*
X128066620Y-80001817D01*
X128140321Y-79987157D01*
X128376360Y-79889387D01*
X128588790Y-79747446D01*
X128637406Y-79698830D01*
X128670513Y-79807968D01*
X128795592Y-80041973D01*
X128963919Y-80247080D01*
X129169026Y-80415408D01*
X129403031Y-80540487D01*
X129656942Y-80617510D01*
X129921000Y-80643517D01*
X130185057Y-80617510D01*
X130438968Y-80540487D01*
X130443039Y-80538311D01*
X130445000Y-80994250D01*
X130603750Y-81153000D01*
X131953000Y-81153000D01*
X131953000Y-79803750D01*
X132207000Y-79803750D01*
X132207000Y-81153000D01*
X133556250Y-81153000D01*
X133715000Y-80994250D01*
X133718072Y-80280000D01*
X133705812Y-80155518D01*
X133669502Y-80035820D01*
X133610537Y-79925506D01*
X133531185Y-79828815D01*
X133434494Y-79749463D01*
X133324180Y-79690498D01*
X133204482Y-79654188D01*
X133080000Y-79641928D01*
X132365750Y-79645000D01*
X132207000Y-79803750D01*
X131953000Y-79803750D01*
X131794250Y-79645000D01*
X131221670Y-79642537D01*
X131248510Y-79554058D01*
X131268000Y-79356169D01*
X131268000Y-78123831D01*
X131248510Y-77925942D01*
X131171487Y-77672031D01*
X131046408Y-77438026D01*
X130878081Y-77232919D01*
X130672974Y-77064592D01*
X130438969Y-76939513D01*
X130185058Y-76862490D01*
X129921000Y-76836483D01*
X129656943Y-76862490D01*
X129403032Y-76939513D01*
X129169027Y-77064592D01*
X128963920Y-77232919D01*
X128795592Y-77438026D01*
X128670513Y-77672031D01*
X128637406Y-77781170D01*
X128588790Y-77732554D01*
X128376360Y-77590613D01*
X128140321Y-77492843D01*
X127889743Y-77443000D01*
X127634257Y-77443000D01*
X127383679Y-77492843D01*
X127147640Y-77590613D01*
X126935210Y-77732554D01*
X126754554Y-77913210D01*
X126746000Y-77926012D01*
X126737446Y-77913210D01*
X126556790Y-77732554D01*
X126344360Y-77590613D01*
X126108321Y-77492843D01*
X125857743Y-77443000D01*
X125602257Y-77443000D01*
X125351679Y-77492843D01*
X125115640Y-77590613D01*
X124903210Y-77732554D01*
X124722554Y-77913210D01*
X124714000Y-77926012D01*
X124705446Y-77913210D01*
X124524790Y-77732554D01*
X124312360Y-77590613D01*
X124076321Y-77492843D01*
X123825743Y-77443000D01*
X123570257Y-77443000D01*
X123319679Y-77492843D01*
X123083640Y-77590613D01*
X122871210Y-77732554D01*
X122822594Y-77781170D01*
X122789487Y-77672031D01*
X122664408Y-77438026D01*
X122496081Y-77232919D01*
X122290974Y-77064592D01*
X122056969Y-76939513D01*
X121803058Y-76862490D01*
X121539000Y-76836483D01*
X121274943Y-76862490D01*
X121021032Y-76939513D01*
X120787027Y-77064592D01*
X120581920Y-77232919D01*
X120413592Y-77438026D01*
X120288513Y-77672031D01*
X120211490Y-77925942D01*
X120192000Y-78123831D01*
X120192000Y-79356168D01*
X120211490Y-79554057D01*
X120288513Y-79807968D01*
X120382207Y-79983256D01*
X120154463Y-79831082D01*
X119856912Y-79707832D01*
X119541033Y-79645000D01*
X119218967Y-79645000D01*
X118903088Y-79707832D01*
X118605537Y-79831082D01*
X118337748Y-80010013D01*
X118110013Y-80237748D01*
X117931082Y-80505537D01*
X117807832Y-80803088D01*
X117745000Y-81118967D01*
X117745000Y-81441033D01*
X117807832Y-81756912D01*
X117931082Y-82054463D01*
X118110013Y-82322252D01*
X118337748Y-82549987D01*
X118605537Y-82728918D01*
X118620001Y-82734909D01*
X118620001Y-83142668D01*
X118616324Y-83180000D01*
X118630998Y-83328985D01*
X118674454Y-83472246D01*
X118745026Y-83604276D01*
X118799797Y-83671014D01*
X118840000Y-83720001D01*
X118868998Y-83743799D01*
X119456201Y-84331002D01*
X121093996Y-85968799D01*
X121094007Y-85968808D01*
X121182127Y-86056928D01*
X120615000Y-86056928D01*
X120461255Y-86072071D01*
X120313418Y-86116916D01*
X120177171Y-86189742D01*
X120057749Y-86287749D01*
X119959742Y-86407171D01*
X119941350Y-86441580D01*
X119924999Y-86454999D01*
X119901196Y-86484003D01*
X119628993Y-86756206D01*
X119599989Y-86780009D01*
X119546653Y-86845000D01*
X119505016Y-86895734D01*
X119451957Y-86995000D01*
X119434444Y-87027764D01*
X119390987Y-87171025D01*
X119379990Y-87282678D01*
X119379990Y-87282688D01*
X119376314Y-87320010D01*
X119379990Y-87357333D01*
X119379990Y-87989851D01*
X115060000Y-83669861D01*
X115060000Y-80768712D01*
X115103937Y-80724775D01*
X115217205Y-80555257D01*
X115295226Y-80366899D01*
X115335000Y-80166940D01*
X115335000Y-79963062D01*
X115295226Y-79763103D01*
X115217205Y-79574745D01*
X115103937Y-79405227D01*
X114959774Y-79261064D01*
X114790256Y-79147796D01*
X114601898Y-79069775D01*
X114401939Y-79030001D01*
X114198061Y-79030001D01*
X113998102Y-79069775D01*
X113809744Y-79147796D01*
X113640226Y-79261064D01*
X113496063Y-79405227D01*
X113382795Y-79574745D01*
X113304774Y-79763103D01*
X113275995Y-79907786D01*
X113211185Y-79828815D01*
X113114494Y-79749463D01*
X113004180Y-79690498D01*
X112884482Y-79654188D01*
X112760000Y-79641928D01*
X112045750Y-79645000D01*
X111887000Y-79803750D01*
X111887000Y-81153000D01*
X113236250Y-81153000D01*
X113395000Y-80994250D01*
X113396798Y-80576214D01*
X113496063Y-80724775D01*
X113540001Y-80768713D01*
X113540000Y-83947339D01*
X113536324Y-83984662D01*
X113540000Y-84021984D01*
X113540000Y-84021994D01*
X113550997Y-84133647D01*
X113594454Y-84276908D01*
X113665026Y-84408938D01*
X113702807Y-84454974D01*
X113759999Y-84524663D01*
X113789003Y-84548466D01*
X119210025Y-89969489D01*
X118869002Y-90310512D01*
X118839999Y-90334314D01*
X118802081Y-90380518D01*
X118745026Y-90450039D01*
X118715649Y-90505000D01*
X118674454Y-90582069D01*
X118631014Y-90725275D01*
X118576063Y-90780226D01*
X118462795Y-90949744D01*
X118384774Y-91138102D01*
X118345000Y-91338061D01*
X118345000Y-91541939D01*
X118384774Y-91741898D01*
X118462795Y-91930256D01*
X118576063Y-92099774D01*
X118720226Y-92243937D01*
X118889744Y-92357205D01*
X119078102Y-92435226D01*
X119278061Y-92475000D01*
X119481939Y-92475000D01*
X119681898Y-92435226D01*
X119826942Y-92375146D01*
X119839188Y-92499482D01*
X119875498Y-92619180D01*
X119924043Y-92710000D01*
X119875498Y-92800820D01*
X119839188Y-92920518D01*
X119826928Y-93045000D01*
X119830000Y-93059250D01*
X119988750Y-93218000D01*
X121363000Y-93218000D01*
X121363000Y-92202000D01*
X121617000Y-92202000D01*
X121617000Y-93218000D01*
X122991250Y-93218000D01*
X123150000Y-93059250D01*
X123153072Y-93045000D01*
X123140812Y-92920518D01*
X123104502Y-92800820D01*
X123055957Y-92710000D01*
X123104502Y-92619180D01*
X123140812Y-92499482D01*
X123153072Y-92375000D01*
X123150000Y-92360750D01*
X122991250Y-92202000D01*
X121617000Y-92202000D01*
X121363000Y-92202000D01*
X121343000Y-92202000D01*
X121343000Y-91948000D01*
X121363000Y-91948000D01*
X121363000Y-90932000D01*
X121617000Y-90932000D01*
X121617000Y-91948000D01*
X122991250Y-91948000D01*
X123150000Y-91789250D01*
X123153072Y-91775000D01*
X123140812Y-91650518D01*
X123104502Y-91530820D01*
X123055957Y-91440000D01*
X123104502Y-91349180D01*
X123140812Y-91229482D01*
X123153072Y-91105000D01*
X123150000Y-91090750D01*
X122991250Y-90932000D01*
X121617000Y-90932000D01*
X121363000Y-90932000D01*
X121343000Y-90932000D01*
X121343000Y-90678000D01*
X121363000Y-90678000D01*
X121363000Y-90658000D01*
X121617000Y-90658000D01*
X121617000Y-90678000D01*
X122991250Y-90678000D01*
X123123108Y-90546142D01*
X125084989Y-92508023D01*
X125084990Y-96054655D01*
X125081313Y-96091987D01*
X125095987Y-96240972D01*
X125136455Y-96374382D01*
X125002905Y-96429701D01*
X124751495Y-96597688D01*
X124537688Y-96811495D01*
X124391687Y-97030000D01*
X122013034Y-97030000D01*
X121803148Y-96820114D01*
X122515000Y-96823072D01*
X122639482Y-96810812D01*
X122759180Y-96774502D01*
X122869494Y-96715537D01*
X122966185Y-96636185D01*
X123045537Y-96539494D01*
X123104502Y-96429180D01*
X123140812Y-96309482D01*
X123153072Y-96185000D01*
X123150000Y-96170750D01*
X122991250Y-96012000D01*
X121617000Y-96012000D01*
X121617000Y-96032000D01*
X121363000Y-96032000D01*
X121363000Y-96012000D01*
X121343000Y-96012000D01*
X121343000Y-95758000D01*
X121363000Y-95758000D01*
X121363000Y-94742000D01*
X121617000Y-94742000D01*
X121617000Y-95758000D01*
X122991250Y-95758000D01*
X123150000Y-95599250D01*
X123153072Y-95585000D01*
X123140812Y-95460518D01*
X123104502Y-95340820D01*
X123055957Y-95250000D01*
X123104502Y-95159180D01*
X123140812Y-95039482D01*
X123153072Y-94915000D01*
X123150000Y-94900750D01*
X122991250Y-94742000D01*
X121617000Y-94742000D01*
X121363000Y-94742000D01*
X121343000Y-94742000D01*
X121343000Y-94488000D01*
X121363000Y-94488000D01*
X121363000Y-93472000D01*
X121617000Y-93472000D01*
X121617000Y-94488000D01*
X122991250Y-94488000D01*
X123150000Y-94329250D01*
X123153072Y-94315000D01*
X123140812Y-94190518D01*
X123104502Y-94070820D01*
X123055957Y-93980000D01*
X123104502Y-93889180D01*
X123140812Y-93769482D01*
X123153072Y-93645000D01*
X123150000Y-93630750D01*
X122991250Y-93472000D01*
X121617000Y-93472000D01*
X121363000Y-93472000D01*
X119988750Y-93472000D01*
X119830000Y-93630750D01*
X119826928Y-93645000D01*
X119839188Y-93769482D01*
X119858741Y-93833939D01*
X113778804Y-87754003D01*
X113755001Y-87724999D01*
X113738650Y-87711580D01*
X113720258Y-87677171D01*
X113681546Y-87630000D01*
X113720258Y-87582829D01*
X113793084Y-87446582D01*
X113837929Y-87298745D01*
X113853072Y-87145000D01*
X113853072Y-86845000D01*
X113837929Y-86691255D01*
X113793084Y-86543418D01*
X113720258Y-86407171D01*
X113622251Y-86287749D01*
X113502829Y-86189742D01*
X113366582Y-86116916D01*
X113218745Y-86072071D01*
X113065000Y-86056928D01*
X111315000Y-86056928D01*
X111161255Y-86072071D01*
X111013418Y-86116916D01*
X110877171Y-86189742D01*
X110757749Y-86287749D01*
X110659742Y-86407171D01*
X110586916Y-86543418D01*
X110542071Y-86691255D01*
X110526928Y-86845000D01*
X110526928Y-87145000D01*
X110542071Y-87298745D01*
X110586916Y-87446582D01*
X110659742Y-87582829D01*
X110698454Y-87630000D01*
X110659742Y-87677171D01*
X110586916Y-87813418D01*
X110542071Y-87961255D01*
X110526928Y-88115000D01*
X110526928Y-88415000D01*
X110542071Y-88568745D01*
X110586916Y-88716582D01*
X110659742Y-88852829D01*
X110698454Y-88900000D01*
X110659742Y-88947171D01*
X110586916Y-89083418D01*
X110542071Y-89231255D01*
X110526928Y-89385000D01*
X110526928Y-89685000D01*
X110542071Y-89838745D01*
X110586916Y-89986582D01*
X110659742Y-90122829D01*
X110698454Y-90170000D01*
X110659742Y-90217171D01*
X110586916Y-90353418D01*
X110542071Y-90501255D01*
X110526928Y-90655000D01*
X110526928Y-90955000D01*
X110542071Y-91108745D01*
X110586916Y-91256582D01*
X110658730Y-91390936D01*
X110634463Y-91420506D01*
X110575498Y-91530820D01*
X110539188Y-91650518D01*
X110526928Y-91775000D01*
X110530000Y-91789250D01*
X110688750Y-91948000D01*
X112063000Y-91948000D01*
X112063000Y-91928000D01*
X112317000Y-91928000D01*
X112317000Y-91948000D01*
X113691250Y-91948000D01*
X113850000Y-91789250D01*
X113853072Y-91775000D01*
X113840812Y-91650518D01*
X113804502Y-91530820D01*
X113745537Y-91420506D01*
X113721270Y-91390936D01*
X113793084Y-91256582D01*
X113837929Y-91108745D01*
X113853072Y-90955000D01*
X113853072Y-90655000D01*
X113837929Y-90501255D01*
X113793084Y-90353418D01*
X113720258Y-90217171D01*
X113681546Y-90170000D01*
X113720258Y-90122829D01*
X113793084Y-89986582D01*
X113809073Y-89933874D01*
X119379990Y-95504792D01*
X119379991Y-96194426D01*
X119376314Y-96231758D01*
X119379991Y-96269091D01*
X119390988Y-96380744D01*
X119392047Y-96384234D01*
X119434444Y-96524004D01*
X119505016Y-96656034D01*
X119562371Y-96725920D01*
X119599990Y-96771759D01*
X119628988Y-96795557D01*
X121134433Y-98301003D01*
X121158231Y-98330001D01*
X121187229Y-98353799D01*
X121273955Y-98424974D01*
X121304310Y-98441199D01*
X121405985Y-98495546D01*
X121549246Y-98539003D01*
X121660899Y-98550000D01*
X121660909Y-98550000D01*
X121698232Y-98553676D01*
X121735555Y-98550000D01*
X124391687Y-98550000D01*
X124537688Y-98768505D01*
X124751495Y-98982312D01*
X125002905Y-99150299D01*
X125282257Y-99266011D01*
X125578816Y-99325000D01*
X125881184Y-99325000D01*
X126177743Y-99266011D01*
X126284999Y-99221584D01*
X126285000Y-113037666D01*
X126281323Y-113074999D01*
X126295997Y-113223984D01*
X126339453Y-113367245D01*
X126410025Y-113499275D01*
X126481200Y-113586001D01*
X126504999Y-113615000D01*
X126533997Y-113638798D01*
X131951312Y-119056114D01*
X131915000Y-119238665D01*
X131915000Y-119521335D01*
X131951312Y-119703887D01*
X131713997Y-119941202D01*
X131684999Y-119965000D01*
X131661201Y-119993998D01*
X131661200Y-119993999D01*
X131590025Y-120080725D01*
X131519453Y-120212755D01*
X131475997Y-120356016D01*
X131461323Y-120505001D01*
X131465000Y-120542333D01*
X131464999Y-122422678D01*
X131461323Y-122460001D01*
X131464999Y-122497323D01*
X131464999Y-122497333D01*
X131475996Y-122608986D01*
X131519453Y-122752247D01*
X131590025Y-122884277D01*
X131621396Y-122922502D01*
X131684998Y-123000002D01*
X131714001Y-123023804D01*
X132235400Y-123545204D01*
X132235363Y-123545241D01*
X132078320Y-123780273D01*
X131970147Y-124041426D01*
X131915000Y-124318665D01*
X131915000Y-124601335D01*
X131970147Y-124878574D01*
X132078320Y-125139727D01*
X132235363Y-125374759D01*
X132435241Y-125574637D01*
X132667759Y-125730000D01*
X132435241Y-125885363D01*
X132235363Y-126085241D01*
X132078320Y-126320273D01*
X131970147Y-126581426D01*
X131915000Y-126858665D01*
X131915000Y-127141335D01*
X131970147Y-127418574D01*
X132078320Y-127679727D01*
X132235363Y-127914759D01*
X132435241Y-128114637D01*
X132667759Y-128270000D01*
X132435241Y-128425363D01*
X132235363Y-128625241D01*
X132078320Y-128860273D01*
X131970147Y-129121426D01*
X131915000Y-129398665D01*
X131915000Y-129681335D01*
X131970147Y-129958574D01*
X132078320Y-130219727D01*
X132235363Y-130454759D01*
X132435241Y-130654637D01*
X132667759Y-130810000D01*
X132435241Y-130965363D01*
X132235363Y-131165241D01*
X132079022Y-131399222D01*
X125220000Y-124540201D01*
X125220000Y-117543711D01*
X125263937Y-117499774D01*
X125377205Y-117330256D01*
X125455226Y-117141898D01*
X125495000Y-116941939D01*
X125495000Y-116738061D01*
X125455226Y-116538102D01*
X125377205Y-116349744D01*
X125263937Y-116180226D01*
X125119774Y-116036063D01*
X124950256Y-115922795D01*
X124761898Y-115844774D01*
X124561939Y-115805000D01*
X124358061Y-115805000D01*
X124158102Y-115844774D01*
X123969744Y-115922795D01*
X123800226Y-116036063D01*
X123656063Y-116180226D01*
X123542795Y-116349744D01*
X123464774Y-116538102D01*
X123425000Y-116738061D01*
X123425000Y-116941939D01*
X123464774Y-117141898D01*
X123542795Y-117330256D01*
X123656063Y-117499774D01*
X123700001Y-117543712D01*
X123700000Y-124817680D01*
X123696324Y-124855002D01*
X123700000Y-124892324D01*
X123700000Y-124892334D01*
X123710997Y-125003987D01*
X123752173Y-125139727D01*
X123754454Y-125147248D01*
X123825026Y-125279278D01*
X123864871Y-125327828D01*
X123919999Y-125395003D01*
X123949003Y-125418806D01*
X132235400Y-133705204D01*
X132235363Y-133705241D01*
X132078320Y-133940273D01*
X131970147Y-134201426D01*
X131915000Y-134478665D01*
X131915000Y-134761335D01*
X131970147Y-135038574D01*
X132078320Y-135299727D01*
X132235363Y-135534759D01*
X132435241Y-135734637D01*
X132667759Y-135890000D01*
X132435241Y-136045363D01*
X132235363Y-136245241D01*
X132078320Y-136480273D01*
X131970147Y-136741426D01*
X131915000Y-137018665D01*
X131915000Y-137301335D01*
X131970147Y-137578574D01*
X132078320Y-137839727D01*
X132235363Y-138074759D01*
X132435241Y-138274637D01*
X132667759Y-138430000D01*
X132435241Y-138585363D01*
X132235363Y-138785241D01*
X132078320Y-139020273D01*
X131970147Y-139281426D01*
X131915000Y-139558665D01*
X131915000Y-139841335D01*
X131970147Y-140118574D01*
X132078320Y-140379727D01*
X132235363Y-140614759D01*
X132435241Y-140814637D01*
X132670273Y-140971680D01*
X132931426Y-141079853D01*
X133208665Y-141135000D01*
X133491335Y-141135000D01*
X133768574Y-141079853D01*
X134029727Y-140971680D01*
X134264759Y-140814637D01*
X134464637Y-140614759D01*
X134621680Y-140379727D01*
X134729853Y-140118574D01*
X134785000Y-139841335D01*
X134785000Y-139558665D01*
X134748688Y-139376114D01*
X135130000Y-138994802D01*
X135130000Y-142202678D01*
X135126324Y-142240000D01*
X135130000Y-142277322D01*
X135130000Y-142277332D01*
X135140997Y-142388985D01*
X135173156Y-142495000D01*
X135184454Y-142532246D01*
X135255026Y-142664276D01*
X135282429Y-142697666D01*
X135349999Y-142780001D01*
X135379003Y-142803804D01*
X137670001Y-145094804D01*
X137670000Y-147282667D01*
X137670000Y-147311822D01*
X137483368Y-147436525D01*
X137276525Y-147643368D01*
X137160000Y-147817760D01*
X137043475Y-147643368D01*
X136836632Y-147436525D01*
X136593411Y-147274010D01*
X136323158Y-147162068D01*
X136036260Y-147105000D01*
X135743740Y-147105000D01*
X135523592Y-147148791D01*
X135183804Y-146809003D01*
X135160001Y-146779999D01*
X135044276Y-146685026D01*
X134912247Y-146614454D01*
X134768986Y-146570997D01*
X134657333Y-146560000D01*
X134657322Y-146560000D01*
X134620000Y-146556324D01*
X134582678Y-146560000D01*
X129577322Y-146560000D01*
X129539999Y-146556324D01*
X129502676Y-146560000D01*
X129502667Y-146560000D01*
X129391014Y-146570997D01*
X129247753Y-146614454D01*
X129115724Y-146685026D01*
X128999999Y-146779999D01*
X128976201Y-146808997D01*
X128636408Y-147148790D01*
X128416260Y-147105000D01*
X128123740Y-147105000D01*
X127836842Y-147162068D01*
X127566589Y-147274010D01*
X127323368Y-147436525D01*
X127116525Y-147643368D01*
X127000000Y-147817760D01*
X126883475Y-147643368D01*
X126676632Y-147436525D01*
X126433411Y-147274010D01*
X126163158Y-147162068D01*
X125876260Y-147105000D01*
X125583740Y-147105000D01*
X125363592Y-147148790D01*
X120873803Y-142659002D01*
X120850000Y-142629998D01*
X120734275Y-142535025D01*
X120602246Y-142464453D01*
X120458985Y-142420996D01*
X120347332Y-142409999D01*
X120347321Y-142409999D01*
X120309999Y-142406323D01*
X120272677Y-142409999D01*
X116859700Y-142409999D01*
X116855812Y-142370518D01*
X116855655Y-142370000D01*
X116855812Y-142369482D01*
X116868072Y-142245000D01*
X116868072Y-141995000D01*
X116855812Y-141870518D01*
X116819502Y-141750820D01*
X116760537Y-141640506D01*
X116681185Y-141543815D01*
X116584494Y-141464463D01*
X116474180Y-141405498D01*
X116354482Y-141369188D01*
X116230000Y-141356928D01*
X115130000Y-141356928D01*
X115098808Y-141360000D01*
X114457322Y-141360000D01*
X114419999Y-141356324D01*
X114382676Y-141360000D01*
X114382667Y-141360000D01*
X114271014Y-141370997D01*
X114127753Y-141414454D01*
X113995724Y-141485026D01*
X113879999Y-141579999D01*
X113856201Y-141608998D01*
X113154002Y-142311197D01*
X113124999Y-142334999D01*
X113069871Y-142402174D01*
X113030026Y-142450724D01*
X112980021Y-142544276D01*
X112959454Y-142582754D01*
X112915997Y-142726015D01*
X112905000Y-142837668D01*
X112905000Y-142837678D01*
X112901324Y-142875000D01*
X112905000Y-142912323D01*
X112905000Y-143310197D01*
X112703806Y-143109002D01*
X112680003Y-143079999D01*
X112567337Y-142987536D01*
X112555812Y-142870518D01*
X112555655Y-142870000D01*
X112555812Y-142869482D01*
X112568072Y-142745000D01*
X112568072Y-142495000D01*
X112555812Y-142370518D01*
X112555655Y-142370000D01*
X112555812Y-142369482D01*
X112568072Y-142245000D01*
X112568072Y-141995000D01*
X112555812Y-141870518D01*
X112519502Y-141750820D01*
X112460537Y-141640506D01*
X112381185Y-141543815D01*
X112284494Y-141464463D01*
X112174180Y-141405498D01*
X112054482Y-141369188D01*
X111930000Y-141356928D01*
X111169980Y-141356928D01*
X111169980Y-139598061D01*
X114535000Y-139598061D01*
X114535000Y-139801939D01*
X114574774Y-140001898D01*
X114652795Y-140190256D01*
X114766063Y-140359774D01*
X114910226Y-140503937D01*
X115079744Y-140617205D01*
X115268102Y-140695226D01*
X115468061Y-140735000D01*
X115671939Y-140735000D01*
X115871898Y-140695226D01*
X116060256Y-140617205D01*
X116229774Y-140503937D01*
X116373937Y-140359774D01*
X116487205Y-140190256D01*
X116565226Y-140001898D01*
X116605000Y-139801939D01*
X116605000Y-139598061D01*
X116565226Y-139398102D01*
X116487205Y-139209744D01*
X116373937Y-139040226D01*
X116330000Y-138996289D01*
X116330000Y-117154801D01*
X116675000Y-116809801D01*
X116675000Y-116981335D01*
X116730147Y-117258574D01*
X116838320Y-117519727D01*
X116995363Y-117754759D01*
X117195241Y-117954637D01*
X117427759Y-118110000D01*
X117195241Y-118265363D01*
X116995363Y-118465241D01*
X116838320Y-118700273D01*
X116730147Y-118961426D01*
X116675000Y-119238665D01*
X116675000Y-119521335D01*
X116730147Y-119798574D01*
X116838320Y-120059727D01*
X116995363Y-120294759D01*
X117195241Y-120494637D01*
X117427759Y-120650000D01*
X117195241Y-120805363D01*
X116995363Y-121005241D01*
X116838320Y-121240273D01*
X116730147Y-121501426D01*
X116675000Y-121778665D01*
X116675000Y-122061335D01*
X116730147Y-122338574D01*
X116838320Y-122599727D01*
X116995363Y-122834759D01*
X117195241Y-123034637D01*
X117427759Y-123190000D01*
X117195241Y-123345363D01*
X116995363Y-123545241D01*
X116838320Y-123780273D01*
X116730147Y-124041426D01*
X116675000Y-124318665D01*
X116675000Y-124601335D01*
X116730147Y-124878574D01*
X116838320Y-125139727D01*
X116995363Y-125374759D01*
X117195241Y-125574637D01*
X117427759Y-125730000D01*
X117195241Y-125885363D01*
X116995363Y-126085241D01*
X116838320Y-126320273D01*
X116730147Y-126581426D01*
X116675000Y-126858665D01*
X116675000Y-127141335D01*
X116730147Y-127418574D01*
X116838320Y-127679727D01*
X116995363Y-127914759D01*
X117195241Y-128114637D01*
X117427759Y-128270000D01*
X117195241Y-128425363D01*
X116995363Y-128625241D01*
X116838320Y-128860273D01*
X116730147Y-129121426D01*
X116675000Y-129398665D01*
X116675000Y-129681335D01*
X116730147Y-129958574D01*
X116838320Y-130219727D01*
X116995363Y-130454759D01*
X117195241Y-130654637D01*
X117427759Y-130810000D01*
X117195241Y-130965363D01*
X116995363Y-131165241D01*
X116838320Y-131400273D01*
X116730147Y-131661426D01*
X116675000Y-131938665D01*
X116675000Y-132221335D01*
X116730147Y-132498574D01*
X116838320Y-132759727D01*
X116995363Y-132994759D01*
X117195241Y-133194637D01*
X117427759Y-133350000D01*
X117195241Y-133505363D01*
X116995363Y-133705241D01*
X116838320Y-133940273D01*
X116730147Y-134201426D01*
X116675000Y-134478665D01*
X116675000Y-134761335D01*
X116730147Y-135038574D01*
X116838320Y-135299727D01*
X116995363Y-135534759D01*
X117195241Y-135734637D01*
X117427759Y-135890000D01*
X117195241Y-136045363D01*
X116995363Y-136245241D01*
X116838320Y-136480273D01*
X116730147Y-136741426D01*
X116675000Y-137018665D01*
X116675000Y-137301335D01*
X116730147Y-137578574D01*
X116838320Y-137839727D01*
X116995363Y-138074759D01*
X117195241Y-138274637D01*
X117427759Y-138430000D01*
X117195241Y-138585363D01*
X116995363Y-138785241D01*
X116838320Y-139020273D01*
X116730147Y-139281426D01*
X116675000Y-139558665D01*
X116675000Y-139841335D01*
X116730147Y-140118574D01*
X116838320Y-140379727D01*
X116995363Y-140614759D01*
X117195241Y-140814637D01*
X117430273Y-140971680D01*
X117691426Y-141079853D01*
X117968665Y-141135000D01*
X118251335Y-141135000D01*
X118528574Y-141079853D01*
X118789727Y-140971680D01*
X119024759Y-140814637D01*
X119224637Y-140614759D01*
X119381680Y-140379727D01*
X119489853Y-140118574D01*
X119545000Y-139841335D01*
X119545000Y-139558665D01*
X119489853Y-139281426D01*
X119381680Y-139020273D01*
X119224637Y-138785241D01*
X119024759Y-138585363D01*
X118792241Y-138430000D01*
X119024759Y-138274637D01*
X119224637Y-138074759D01*
X119381680Y-137839727D01*
X119489853Y-137578574D01*
X119545000Y-137301335D01*
X119545000Y-137018665D01*
X119489853Y-136741426D01*
X119381680Y-136480273D01*
X119224637Y-136245241D01*
X119024759Y-136045363D01*
X118792241Y-135890000D01*
X119024759Y-135734637D01*
X119224637Y-135534759D01*
X119381680Y-135299727D01*
X119489853Y-135038574D01*
X119545000Y-134761335D01*
X119545000Y-134478665D01*
X119489853Y-134201426D01*
X119381680Y-133940273D01*
X119224637Y-133705241D01*
X119024759Y-133505363D01*
X118792241Y-133350000D01*
X119024759Y-133194637D01*
X119224637Y-132994759D01*
X119381680Y-132759727D01*
X119489853Y-132498574D01*
X119545000Y-132221335D01*
X119545000Y-131938665D01*
X119489853Y-131661426D01*
X119381680Y-131400273D01*
X119224637Y-131165241D01*
X119024759Y-130965363D01*
X118792241Y-130810000D01*
X119024759Y-130654637D01*
X119224637Y-130454759D01*
X119381680Y-130219727D01*
X119489853Y-129958574D01*
X119545000Y-129681335D01*
X119545000Y-129398665D01*
X119489853Y-129121426D01*
X119381680Y-128860273D01*
X119224637Y-128625241D01*
X119024759Y-128425363D01*
X118792241Y-128270000D01*
X119024759Y-128114637D01*
X119224637Y-127914759D01*
X119381680Y-127679727D01*
X119489853Y-127418574D01*
X119545000Y-127141335D01*
X119545000Y-126858665D01*
X119489853Y-126581426D01*
X119381680Y-126320273D01*
X119224637Y-126085241D01*
X119024759Y-125885363D01*
X118792241Y-125730000D01*
X119024759Y-125574637D01*
X119224637Y-125374759D01*
X119381680Y-125139727D01*
X119489853Y-124878574D01*
X119545000Y-124601335D01*
X119545000Y-124318665D01*
X119489853Y-124041426D01*
X119381680Y-123780273D01*
X119224637Y-123545241D01*
X119024759Y-123345363D01*
X118792241Y-123190000D01*
X119024759Y-123034637D01*
X119224637Y-122834759D01*
X119381680Y-122599727D01*
X119489853Y-122338574D01*
X119545000Y-122061335D01*
X119545000Y-121778665D01*
X119489853Y-121501426D01*
X119381680Y-121240273D01*
X119224637Y-121005241D01*
X119024759Y-120805363D01*
X118792241Y-120650000D01*
X119024759Y-120494637D01*
X119224637Y-120294759D01*
X119381680Y-120059727D01*
X119489853Y-119798574D01*
X119545000Y-119521335D01*
X119545000Y-119238665D01*
X119489853Y-118961426D01*
X119381680Y-118700273D01*
X119224637Y-118465241D01*
X119024759Y-118265363D01*
X118792241Y-118110000D01*
X119024759Y-117954637D01*
X119224637Y-117754759D01*
X119381680Y-117519727D01*
X119489853Y-117258574D01*
X119545000Y-116981335D01*
X119545000Y-116698665D01*
X119489853Y-116421426D01*
X119381680Y-116160273D01*
X119224637Y-115925241D01*
X119024759Y-115725363D01*
X118792241Y-115570000D01*
X119024759Y-115414637D01*
X119224637Y-115214759D01*
X119381680Y-114979727D01*
X119489853Y-114718574D01*
X119545000Y-114441335D01*
X119545000Y-114158665D01*
X119489853Y-113881426D01*
X119381680Y-113620273D01*
X119224637Y-113385241D01*
X119024759Y-113185363D01*
X118789727Y-113028320D01*
X118779135Y-113023933D01*
X118965131Y-112912385D01*
X119173519Y-112723414D01*
X119341037Y-112497420D01*
X119461246Y-112243087D01*
X119501904Y-112109039D01*
X119379915Y-111887000D01*
X118237000Y-111887000D01*
X118237000Y-111907000D01*
X117983000Y-111907000D01*
X117983000Y-111887000D01*
X116840085Y-111887000D01*
X116718096Y-112109039D01*
X116758754Y-112243087D01*
X116878963Y-112497420D01*
X117046481Y-112723414D01*
X117254869Y-112912385D01*
X117440865Y-113023933D01*
X117430273Y-113028320D01*
X117195241Y-113185363D01*
X116995363Y-113385241D01*
X116838320Y-113620273D01*
X116730147Y-113881426D01*
X116675000Y-114158665D01*
X116675000Y-114441335D01*
X116711312Y-114623886D01*
X115059003Y-116276196D01*
X115029999Y-116299999D01*
X114989175Y-116349744D01*
X114935026Y-116415724D01*
X114869613Y-116538102D01*
X114864454Y-116547754D01*
X114820997Y-116691015D01*
X114810000Y-116802668D01*
X114810000Y-116802678D01*
X114806324Y-116840000D01*
X114810000Y-116877322D01*
X114810001Y-138996288D01*
X114766063Y-139040226D01*
X114652795Y-139209744D01*
X114574774Y-139398102D01*
X114535000Y-139598061D01*
X111169980Y-139598061D01*
X111169980Y-139053691D01*
X111213917Y-139009754D01*
X111327185Y-138840236D01*
X111405206Y-138651878D01*
X111444980Y-138451919D01*
X111444980Y-138248041D01*
X111405206Y-138048082D01*
X111327185Y-137859724D01*
X111213917Y-137690206D01*
X111069754Y-137546043D01*
X110900236Y-137432775D01*
X110711878Y-137354754D01*
X110511919Y-137314980D01*
X110308041Y-137314980D01*
X110108082Y-137354754D01*
X109919724Y-137432775D01*
X109880000Y-137459318D01*
X109880000Y-103340000D01*
X116671928Y-103340000D01*
X116671928Y-104940000D01*
X116684188Y-105064482D01*
X116720498Y-105184180D01*
X116779463Y-105294494D01*
X116858815Y-105391185D01*
X116955506Y-105470537D01*
X117065820Y-105529502D01*
X117185518Y-105565812D01*
X117193961Y-105566643D01*
X116995363Y-105765241D01*
X116838320Y-106000273D01*
X116730147Y-106261426D01*
X116675000Y-106538665D01*
X116675000Y-106821335D01*
X116730147Y-107098574D01*
X116838320Y-107359727D01*
X116995363Y-107594759D01*
X117195241Y-107794637D01*
X117427759Y-107950000D01*
X117195241Y-108105363D01*
X116995363Y-108305241D01*
X116838320Y-108540273D01*
X116730147Y-108801426D01*
X116675000Y-109078665D01*
X116675000Y-109361335D01*
X116730147Y-109638574D01*
X116838320Y-109899727D01*
X116995363Y-110134759D01*
X117195241Y-110334637D01*
X117430273Y-110491680D01*
X117440865Y-110496067D01*
X117254869Y-110607615D01*
X117046481Y-110796586D01*
X116878963Y-111022580D01*
X116758754Y-111276913D01*
X116718096Y-111410961D01*
X116840085Y-111633000D01*
X117983000Y-111633000D01*
X117983000Y-111613000D01*
X118237000Y-111613000D01*
X118237000Y-111633000D01*
X119379915Y-111633000D01*
X119501904Y-111410961D01*
X119461246Y-111276913D01*
X119341037Y-111022580D01*
X119173519Y-110796586D01*
X118965131Y-110607615D01*
X118779135Y-110496067D01*
X118789727Y-110491680D01*
X119024759Y-110334637D01*
X119222297Y-110137099D01*
X119615000Y-110529802D01*
X119615000Y-110591939D01*
X119654774Y-110791898D01*
X119732795Y-110980256D01*
X119846063Y-111149774D01*
X119990226Y-111293937D01*
X120159744Y-111407205D01*
X120348102Y-111485226D01*
X120548061Y-111525000D01*
X120751939Y-111525000D01*
X120951898Y-111485226D01*
X121140256Y-111407205D01*
X121309774Y-111293937D01*
X121453937Y-111149774D01*
X121567205Y-110980256D01*
X121645226Y-110791898D01*
X121685000Y-110591939D01*
X121685000Y-110388061D01*
X121645226Y-110188102D01*
X121567205Y-109999744D01*
X121453937Y-109830226D01*
X121309774Y-109686063D01*
X121140256Y-109572795D01*
X120951898Y-109494774D01*
X120751939Y-109455000D01*
X120689802Y-109455000D01*
X120140000Y-108905199D01*
X120140000Y-101033711D01*
X120183937Y-100989774D01*
X120297205Y-100820256D01*
X120375226Y-100631898D01*
X120415000Y-100431939D01*
X120415000Y-100228061D01*
X120375226Y-100028102D01*
X120297205Y-99839744D01*
X120183937Y-99670226D01*
X120039774Y-99526063D01*
X119870256Y-99412795D01*
X119681898Y-99334774D01*
X119481939Y-99295000D01*
X119278061Y-99295000D01*
X119078102Y-99334774D01*
X118889744Y-99412795D01*
X118720226Y-99526063D01*
X118576063Y-99670226D01*
X118462795Y-99839744D01*
X118384774Y-100028102D01*
X118345000Y-100228061D01*
X118345000Y-100431939D01*
X118384774Y-100631898D01*
X118462795Y-100820256D01*
X118576063Y-100989774D01*
X118620000Y-101033711D01*
X118620000Y-102701928D01*
X117310000Y-102701928D01*
X117185518Y-102714188D01*
X117065820Y-102750498D01*
X116955506Y-102809463D01*
X116858815Y-102888815D01*
X116779463Y-102985506D01*
X116720498Y-103095820D01*
X116684188Y-103215518D01*
X116671928Y-103340000D01*
X109880000Y-103340000D01*
X109880000Y-96185000D01*
X110526928Y-96185000D01*
X110539188Y-96309482D01*
X110575498Y-96429180D01*
X110634463Y-96539494D01*
X110713815Y-96636185D01*
X110810506Y-96715537D01*
X110920820Y-96774502D01*
X111040518Y-96810812D01*
X111165000Y-96823072D01*
X111904250Y-96820000D01*
X112063000Y-96661250D01*
X112063000Y-96012000D01*
X112317000Y-96012000D01*
X112317000Y-96661250D01*
X112475750Y-96820000D01*
X113215000Y-96823072D01*
X113339482Y-96810812D01*
X113459180Y-96774502D01*
X113569494Y-96715537D01*
X113666185Y-96636185D01*
X113745537Y-96539494D01*
X113804502Y-96429180D01*
X113840812Y-96309482D01*
X113853072Y-96185000D01*
X113850000Y-96170750D01*
X113691250Y-96012000D01*
X112317000Y-96012000D01*
X112063000Y-96012000D01*
X110688750Y-96012000D01*
X110530000Y-96170750D01*
X110526928Y-96185000D01*
X109880000Y-96185000D01*
X109880000Y-94915000D01*
X110526928Y-94915000D01*
X110539188Y-95039482D01*
X110575498Y-95159180D01*
X110624043Y-95250000D01*
X110575498Y-95340820D01*
X110539188Y-95460518D01*
X110526928Y-95585000D01*
X110530000Y-95599250D01*
X110688750Y-95758000D01*
X112063000Y-95758000D01*
X112063000Y-94742000D01*
X112317000Y-94742000D01*
X112317000Y-95758000D01*
X113691250Y-95758000D01*
X113850000Y-95599250D01*
X113853072Y-95585000D01*
X113840812Y-95460518D01*
X113804502Y-95340820D01*
X113755957Y-95250000D01*
X113804502Y-95159180D01*
X113840812Y-95039482D01*
X113853072Y-94915000D01*
X113850000Y-94900750D01*
X113691250Y-94742000D01*
X112317000Y-94742000D01*
X112063000Y-94742000D01*
X110688750Y-94742000D01*
X110530000Y-94900750D01*
X110526928Y-94915000D01*
X109880000Y-94915000D01*
X109880000Y-93645000D01*
X110526928Y-93645000D01*
X110539188Y-93769482D01*
X110575498Y-93889180D01*
X110624043Y-93980000D01*
X110575498Y-94070820D01*
X110539188Y-94190518D01*
X110526928Y-94315000D01*
X110530000Y-94329250D01*
X110688750Y-94488000D01*
X112063000Y-94488000D01*
X112063000Y-93472000D01*
X112317000Y-93472000D01*
X112317000Y-94488000D01*
X113691250Y-94488000D01*
X113850000Y-94329250D01*
X113853072Y-94315000D01*
X113840812Y-94190518D01*
X113804502Y-94070820D01*
X113755957Y-93980000D01*
X113804502Y-93889180D01*
X113840812Y-93769482D01*
X113853072Y-93645000D01*
X113850000Y-93630750D01*
X113691250Y-93472000D01*
X112317000Y-93472000D01*
X112063000Y-93472000D01*
X110688750Y-93472000D01*
X110530000Y-93630750D01*
X110526928Y-93645000D01*
X109880000Y-93645000D01*
X109880000Y-92375000D01*
X110526928Y-92375000D01*
X110539188Y-92499482D01*
X110575498Y-92619180D01*
X110624043Y-92710000D01*
X110575498Y-92800820D01*
X110539188Y-92920518D01*
X110526928Y-93045000D01*
X110530000Y-93059250D01*
X110688750Y-93218000D01*
X112063000Y-93218000D01*
X112063000Y-92202000D01*
X112317000Y-92202000D01*
X112317000Y-93218000D01*
X113691250Y-93218000D01*
X113850000Y-93059250D01*
X113853072Y-93045000D01*
X113840812Y-92920518D01*
X113804502Y-92800820D01*
X113755957Y-92710000D01*
X113804502Y-92619180D01*
X113840812Y-92499482D01*
X113853072Y-92375000D01*
X113850000Y-92360750D01*
X113691250Y-92202000D01*
X112317000Y-92202000D01*
X112063000Y-92202000D01*
X110688750Y-92202000D01*
X110530000Y-92360750D01*
X110526928Y-92375000D01*
X109880000Y-92375000D01*
X109880000Y-82280000D01*
X110121928Y-82280000D01*
X110134188Y-82404482D01*
X110170498Y-82524180D01*
X110229463Y-82634494D01*
X110308815Y-82731185D01*
X110405506Y-82810537D01*
X110515820Y-82869502D01*
X110635518Y-82905812D01*
X110760000Y-82918072D01*
X111474250Y-82915000D01*
X111633000Y-82756250D01*
X111633000Y-81407000D01*
X111887000Y-81407000D01*
X111887000Y-82756250D01*
X112045750Y-82915000D01*
X112760000Y-82918072D01*
X112884482Y-82905812D01*
X113004180Y-82869502D01*
X113114494Y-82810537D01*
X113211185Y-82731185D01*
X113290537Y-82634494D01*
X113349502Y-82524180D01*
X113385812Y-82404482D01*
X113398072Y-82280000D01*
X113395000Y-81565750D01*
X113236250Y-81407000D01*
X111887000Y-81407000D01*
X111633000Y-81407000D01*
X110283750Y-81407000D01*
X110125000Y-81565750D01*
X110121928Y-82280000D01*
X109880000Y-82280000D01*
X109880000Y-80280000D01*
X110121928Y-80280000D01*
X110125000Y-80994250D01*
X110283750Y-81153000D01*
X111633000Y-81153000D01*
X111633000Y-79803750D01*
X111474250Y-79645000D01*
X110760000Y-79641928D01*
X110635518Y-79654188D01*
X110515820Y-79690498D01*
X110405506Y-79749463D01*
X110308815Y-79828815D01*
X110229463Y-79925506D01*
X110170498Y-80035820D01*
X110134188Y-80155518D01*
X110121928Y-80280000D01*
X109880000Y-80280000D01*
X109880000Y-75590000D01*
X141580000Y-75590000D01*
X141580000Y-96065293D01*
G37*
%TD.AperFunction*%
X137109428Y-121155001D02*
X137126492Y-121328255D01*
X137177028Y-121494851D01*
X137259095Y-121648387D01*
X137369538Y-121782962D01*
X137504113Y-121893405D01*
X137657649Y-121975472D01*
X137824245Y-122026008D01*
X137862500Y-122029776D01*
X137862501Y-130653594D01*
X137702905Y-130719701D01*
X137451495Y-130887688D01*
X137237688Y-131101495D01*
X137069701Y-131352905D01*
X136953989Y-131632257D01*
X136895000Y-131928816D01*
X136895000Y-132231184D01*
X136953989Y-132527743D01*
X137069701Y-132807095D01*
X137237688Y-133058505D01*
X137451495Y-133272312D01*
X137605105Y-133374951D01*
X137545525Y-133555920D01*
X138430000Y-134440395D01*
X138444143Y-134426253D01*
X138623748Y-134605858D01*
X138609605Y-134620000D01*
X138623748Y-134634143D01*
X138444143Y-134813748D01*
X138430000Y-134799605D01*
X138415858Y-134813748D01*
X138236253Y-134634143D01*
X138250395Y-134620000D01*
X137365920Y-133735525D01*
X137111739Y-133819208D01*
X137040126Y-133968327D01*
X135235001Y-132163202D01*
X135235001Y-123499825D01*
X135238677Y-123462503D01*
X135235001Y-123425180D01*
X135235001Y-123425170D01*
X135224004Y-123313517D01*
X135180547Y-123170256D01*
X135120111Y-123057190D01*
X137109428Y-121067874D01*
X137109428Y-121155001D01*
X137109428Y-121155001D02*
X137109428Y-121067874D01*
%TA.AperFunction,Conductor*%
G36*
X137109428Y-121155001D02*
G01*
X137126492Y-121328255D01*
X137177028Y-121494851D01*
X137259095Y-121648387D01*
X137369538Y-121782962D01*
X137504113Y-121893405D01*
X137657649Y-121975472D01*
X137824245Y-122026008D01*
X137862500Y-122029776D01*
X137862501Y-130653594D01*
X137702905Y-130719701D01*
X137451495Y-130887688D01*
X137237688Y-131101495D01*
X137069701Y-131352905D01*
X136953989Y-131632257D01*
X136895000Y-131928816D01*
X136895000Y-132231184D01*
X136953989Y-132527743D01*
X137069701Y-132807095D01*
X137237688Y-133058505D01*
X137451495Y-133272312D01*
X137605105Y-133374951D01*
X137545525Y-133555920D01*
X138430000Y-134440395D01*
X138444143Y-134426253D01*
X138623748Y-134605858D01*
X138609605Y-134620000D01*
X138623748Y-134634143D01*
X138444143Y-134813748D01*
X138430000Y-134799605D01*
X138415858Y-134813748D01*
X138236253Y-134634143D01*
X138250395Y-134620000D01*
X137365920Y-133735525D01*
X137111739Y-133819208D01*
X137040126Y-133968327D01*
X135235001Y-132163202D01*
X135235001Y-123499825D01*
X135238677Y-123462503D01*
X135235001Y-123425180D01*
X135235001Y-123425170D01*
X135224004Y-123313517D01*
X135180547Y-123170256D01*
X135120111Y-123057190D01*
X137109428Y-121067874D01*
X137109428Y-121155001D01*
G37*
%TD.AperFunction*%
X140210000Y-96834802D02*
X140210001Y-99822696D01*
X138555770Y-101476928D01*
X137804999Y-101476928D01*
X137631745Y-101493992D01*
X137465149Y-101544528D01*
X137311613Y-101626595D01*
X137177038Y-101737038D01*
X137066595Y-101871613D01*
X136984528Y-102025149D01*
X136933992Y-102191745D01*
X136916928Y-102364999D01*
X136916928Y-102990001D01*
X136928205Y-103104494D01*
X136718992Y-103313707D01*
X136689989Y-103337509D01*
X136652618Y-103383046D01*
X136595016Y-103453234D01*
X136566699Y-103506211D01*
X136524444Y-103585264D01*
X136480987Y-103728525D01*
X136479273Y-103745925D01*
X135379003Y-104846196D01*
X135349999Y-104869999D01*
X135294871Y-104937174D01*
X135255026Y-104985724D01*
X135218126Y-105054759D01*
X135184454Y-105117754D01*
X135140997Y-105261015D01*
X135130000Y-105372668D01*
X135130000Y-105372678D01*
X135126324Y-105410000D01*
X135130000Y-105447322D01*
X135130001Y-119065196D01*
X134785000Y-119410197D01*
X134785000Y-119238665D01*
X134729853Y-118961426D01*
X134621680Y-118700273D01*
X134464637Y-118465241D01*
X134264759Y-118265363D01*
X134032241Y-118110000D01*
X134264759Y-117954637D01*
X134464637Y-117754759D01*
X134621680Y-117519727D01*
X134729853Y-117258574D01*
X134785000Y-116981335D01*
X134785000Y-116698665D01*
X134729853Y-116421426D01*
X134621680Y-116160273D01*
X134464637Y-115925241D01*
X134264759Y-115725363D01*
X134032241Y-115570000D01*
X134264759Y-115414637D01*
X134464637Y-115214759D01*
X134621680Y-114979727D01*
X134729853Y-114718574D01*
X134785000Y-114441335D01*
X134785000Y-114158665D01*
X134729853Y-113881426D01*
X134621680Y-113620273D01*
X134464637Y-113385241D01*
X134264759Y-113185363D01*
X134032241Y-113030000D01*
X134264759Y-112874637D01*
X134464637Y-112674759D01*
X134621680Y-112439727D01*
X134729853Y-112178574D01*
X134785000Y-111901335D01*
X134785000Y-111618665D01*
X134729853Y-111341426D01*
X134621680Y-111080273D01*
X134464637Y-110845241D01*
X134264759Y-110645363D01*
X134032241Y-110490000D01*
X134264759Y-110334637D01*
X134464637Y-110134759D01*
X134621680Y-109899727D01*
X134729853Y-109638574D01*
X134785000Y-109361335D01*
X134785000Y-109078665D01*
X134729853Y-108801426D01*
X134621680Y-108540273D01*
X134464637Y-108305241D01*
X134264759Y-108105363D01*
X134029727Y-107948320D01*
X134019135Y-107943933D01*
X134205131Y-107832385D01*
X134413519Y-107643414D01*
X134581037Y-107417420D01*
X134701246Y-107163087D01*
X134741904Y-107029039D01*
X134619915Y-106807000D01*
X133477000Y-106807000D01*
X133477000Y-106827000D01*
X133223000Y-106827000D01*
X133223000Y-106807000D01*
X132080085Y-106807000D01*
X131958096Y-107029039D01*
X131998754Y-107163087D01*
X132118963Y-107417420D01*
X132286481Y-107643414D01*
X132494869Y-107832385D01*
X132680865Y-107943933D01*
X132670273Y-107948320D01*
X132435241Y-108105363D01*
X132235363Y-108305241D01*
X132078320Y-108540273D01*
X131970147Y-108801426D01*
X131915000Y-109078665D01*
X131915000Y-109361335D01*
X131970147Y-109638574D01*
X132078320Y-109899727D01*
X132235363Y-110134759D01*
X132435241Y-110334637D01*
X132667759Y-110490000D01*
X132435241Y-110645363D01*
X132235363Y-110845241D01*
X132078320Y-111080273D01*
X131970147Y-111341426D01*
X131915000Y-111618665D01*
X131915000Y-111901335D01*
X131970147Y-112178574D01*
X132078320Y-112439727D01*
X132235363Y-112674759D01*
X132435241Y-112874637D01*
X132667759Y-113030000D01*
X132435241Y-113185363D01*
X132235363Y-113385241D01*
X132078320Y-113620273D01*
X131970147Y-113881426D01*
X131915000Y-114158665D01*
X131915000Y-114441335D01*
X131970147Y-114718574D01*
X132078320Y-114979727D01*
X132235363Y-115214759D01*
X132435241Y-115414637D01*
X132667759Y-115570000D01*
X132435241Y-115725363D01*
X132235363Y-115925241D01*
X132078320Y-116160273D01*
X131970147Y-116421426D01*
X131915000Y-116698665D01*
X131915000Y-116870198D01*
X127804999Y-112760198D01*
X127804999Y-110147666D01*
X127968102Y-110215226D01*
X128168061Y-110255000D01*
X128371939Y-110255000D01*
X128571898Y-110215226D01*
X128760256Y-110137205D01*
X128929774Y-110023937D01*
X129073937Y-109879774D01*
X129187205Y-109710256D01*
X129265226Y-109521898D01*
X129305000Y-109321939D01*
X129305000Y-109118061D01*
X129265226Y-108918102D01*
X129187205Y-108729744D01*
X129073937Y-108560226D01*
X129030000Y-108516289D01*
X129030000Y-103998665D01*
X131915000Y-103998665D01*
X131915000Y-104281335D01*
X131970147Y-104558574D01*
X132078320Y-104819727D01*
X132235363Y-105054759D01*
X132435241Y-105254637D01*
X132670273Y-105411680D01*
X132680865Y-105416067D01*
X132494869Y-105527615D01*
X132286481Y-105716586D01*
X132118963Y-105942580D01*
X131998754Y-106196913D01*
X131958096Y-106330961D01*
X132080085Y-106553000D01*
X133223000Y-106553000D01*
X133223000Y-106533000D01*
X133477000Y-106533000D01*
X133477000Y-106553000D01*
X134619915Y-106553000D01*
X134741904Y-106330961D01*
X134701246Y-106196913D01*
X134581037Y-105942580D01*
X134413519Y-105716586D01*
X134205131Y-105527615D01*
X134019135Y-105416067D01*
X134029727Y-105411680D01*
X134264759Y-105254637D01*
X134464637Y-105054759D01*
X134621680Y-104819727D01*
X134729853Y-104558574D01*
X134785000Y-104281335D01*
X134785000Y-103998665D01*
X134729853Y-103721426D01*
X134621680Y-103460273D01*
X134464637Y-103225241D01*
X134264759Y-103025363D01*
X134029727Y-102868320D01*
X133768574Y-102760147D01*
X133491335Y-102705000D01*
X133208665Y-102705000D01*
X132931426Y-102760147D01*
X132670273Y-102868320D01*
X132435241Y-103025363D01*
X132235363Y-103225241D01*
X132078320Y-103460273D01*
X131970147Y-103721426D01*
X131915000Y-103998665D01*
X129030000Y-103998665D01*
X129030000Y-103184801D01*
X132941070Y-99273731D01*
X133198816Y-99325000D01*
X133501184Y-99325000D01*
X133797743Y-99266011D01*
X134077095Y-99150299D01*
X134328505Y-98982312D01*
X134542312Y-98768505D01*
X134620000Y-98652237D01*
X134697688Y-98768505D01*
X134911495Y-98982312D01*
X135162905Y-99150299D01*
X135442257Y-99266011D01*
X135738816Y-99325000D01*
X136041184Y-99325000D01*
X136337743Y-99266011D01*
X136617095Y-99150299D01*
X136868505Y-98982312D01*
X136996737Y-98854080D01*
X137545525Y-98854080D01*
X137629208Y-99108261D01*
X137901775Y-99239158D01*
X138194642Y-99314365D01*
X138496553Y-99330991D01*
X138795907Y-99288397D01*
X139081199Y-99188222D01*
X139230792Y-99108261D01*
X139314475Y-98854080D01*
X138430000Y-97969605D01*
X137545525Y-98854080D01*
X136996737Y-98854080D01*
X137082312Y-98768505D01*
X137184951Y-98614895D01*
X137365920Y-98674475D01*
X138250395Y-97790000D01*
X138609605Y-97790000D01*
X139494080Y-98674475D01*
X139748261Y-98590792D01*
X139879158Y-98318225D01*
X139954365Y-98025358D01*
X139970991Y-97723447D01*
X139928397Y-97424093D01*
X139828222Y-97138801D01*
X139748261Y-96989208D01*
X139494080Y-96905525D01*
X138609605Y-97790000D01*
X138250395Y-97790000D01*
X137365920Y-96905525D01*
X137184951Y-96965105D01*
X137082312Y-96811495D01*
X136996737Y-96725920D01*
X137545525Y-96725920D01*
X138430000Y-97610395D01*
X139314475Y-96725920D01*
X139230792Y-96471739D01*
X138958225Y-96340842D01*
X138665358Y-96265635D01*
X138363447Y-96249009D01*
X138064093Y-96291603D01*
X137778801Y-96391778D01*
X137629208Y-96471739D01*
X137545525Y-96725920D01*
X136996737Y-96725920D01*
X136868505Y-96597688D01*
X136617095Y-96429701D01*
X136337743Y-96313989D01*
X136041184Y-96255000D01*
X135738816Y-96255000D01*
X135442257Y-96313989D01*
X135162905Y-96429701D01*
X134911495Y-96597688D01*
X134697688Y-96811495D01*
X134620000Y-96927763D01*
X134542312Y-96811495D01*
X134328505Y-96597688D01*
X134077095Y-96429701D01*
X133797743Y-96313989D01*
X133501184Y-96255000D01*
X133198816Y-96255000D01*
X132902257Y-96313989D01*
X132622905Y-96429701D01*
X132371495Y-96597688D01*
X132157688Y-96811495D01*
X132080000Y-96927763D01*
X132002312Y-96811495D01*
X131788505Y-96597688D01*
X131537095Y-96429701D01*
X131257743Y-96313989D01*
X130961184Y-96255000D01*
X130658816Y-96255000D01*
X130362257Y-96313989D01*
X130082905Y-96429701D01*
X129831495Y-96597688D01*
X129617688Y-96811495D01*
X129540000Y-96927763D01*
X129462312Y-96811495D01*
X129248505Y-96597688D01*
X128997095Y-96429701D01*
X128717743Y-96313989D01*
X128421184Y-96255000D01*
X128118816Y-96255000D01*
X127822257Y-96313989D01*
X127542905Y-96429701D01*
X127371821Y-96544016D01*
X126837804Y-96010000D01*
X139385199Y-96010000D01*
X140210000Y-96834802D01*
X140210000Y-96834802D02*
X139385199Y-96010000D01*
%TA.AperFunction,Conductor*%
G36*
X140210000Y-96834802D02*
G01*
X140210001Y-99822696D01*
X138555770Y-101476928D01*
X137804999Y-101476928D01*
X137631745Y-101493992D01*
X137465149Y-101544528D01*
X137311613Y-101626595D01*
X137177038Y-101737038D01*
X137066595Y-101871613D01*
X136984528Y-102025149D01*
X136933992Y-102191745D01*
X136916928Y-102364999D01*
X136916928Y-102990001D01*
X136928205Y-103104494D01*
X136718992Y-103313707D01*
X136689989Y-103337509D01*
X136652618Y-103383046D01*
X136595016Y-103453234D01*
X136566699Y-103506211D01*
X136524444Y-103585264D01*
X136480987Y-103728525D01*
X136479273Y-103745925D01*
X135379003Y-104846196D01*
X135349999Y-104869999D01*
X135294871Y-104937174D01*
X135255026Y-104985724D01*
X135218126Y-105054759D01*
X135184454Y-105117754D01*
X135140997Y-105261015D01*
X135130000Y-105372668D01*
X135130000Y-105372678D01*
X135126324Y-105410000D01*
X135130000Y-105447322D01*
X135130001Y-119065196D01*
X134785000Y-119410197D01*
X134785000Y-119238665D01*
X134729853Y-118961426D01*
X134621680Y-118700273D01*
X134464637Y-118465241D01*
X134264759Y-118265363D01*
X134032241Y-118110000D01*
X134264759Y-117954637D01*
X134464637Y-117754759D01*
X134621680Y-117519727D01*
X134729853Y-117258574D01*
X134785000Y-116981335D01*
X134785000Y-116698665D01*
X134729853Y-116421426D01*
X134621680Y-116160273D01*
X134464637Y-115925241D01*
X134264759Y-115725363D01*
X134032241Y-115570000D01*
X134264759Y-115414637D01*
X134464637Y-115214759D01*
X134621680Y-114979727D01*
X134729853Y-114718574D01*
X134785000Y-114441335D01*
X134785000Y-114158665D01*
X134729853Y-113881426D01*
X134621680Y-113620273D01*
X134464637Y-113385241D01*
X134264759Y-113185363D01*
X134032241Y-113030000D01*
X134264759Y-112874637D01*
X134464637Y-112674759D01*
X134621680Y-112439727D01*
X134729853Y-112178574D01*
X134785000Y-111901335D01*
X134785000Y-111618665D01*
X134729853Y-111341426D01*
X134621680Y-111080273D01*
X134464637Y-110845241D01*
X134264759Y-110645363D01*
X134032241Y-110490000D01*
X134264759Y-110334637D01*
X134464637Y-110134759D01*
X134621680Y-109899727D01*
X134729853Y-109638574D01*
X134785000Y-109361335D01*
X134785000Y-109078665D01*
X134729853Y-108801426D01*
X134621680Y-108540273D01*
X134464637Y-108305241D01*
X134264759Y-108105363D01*
X134029727Y-107948320D01*
X134019135Y-107943933D01*
X134205131Y-107832385D01*
X134413519Y-107643414D01*
X134581037Y-107417420D01*
X134701246Y-107163087D01*
X134741904Y-107029039D01*
X134619915Y-106807000D01*
X133477000Y-106807000D01*
X133477000Y-106827000D01*
X133223000Y-106827000D01*
X133223000Y-106807000D01*
X132080085Y-106807000D01*
X131958096Y-107029039D01*
X131998754Y-107163087D01*
X132118963Y-107417420D01*
X132286481Y-107643414D01*
X132494869Y-107832385D01*
X132680865Y-107943933D01*
X132670273Y-107948320D01*
X132435241Y-108105363D01*
X132235363Y-108305241D01*
X132078320Y-108540273D01*
X131970147Y-108801426D01*
X131915000Y-109078665D01*
X131915000Y-109361335D01*
X131970147Y-109638574D01*
X132078320Y-109899727D01*
X132235363Y-110134759D01*
X132435241Y-110334637D01*
X132667759Y-110490000D01*
X132435241Y-110645363D01*
X132235363Y-110845241D01*
X132078320Y-111080273D01*
X131970147Y-111341426D01*
X131915000Y-111618665D01*
X131915000Y-111901335D01*
X131970147Y-112178574D01*
X132078320Y-112439727D01*
X132235363Y-112674759D01*
X132435241Y-112874637D01*
X132667759Y-113030000D01*
X132435241Y-113185363D01*
X132235363Y-113385241D01*
X132078320Y-113620273D01*
X131970147Y-113881426D01*
X131915000Y-114158665D01*
X131915000Y-114441335D01*
X131970147Y-114718574D01*
X132078320Y-114979727D01*
X132235363Y-115214759D01*
X132435241Y-115414637D01*
X132667759Y-115570000D01*
X132435241Y-115725363D01*
X132235363Y-115925241D01*
X132078320Y-116160273D01*
X131970147Y-116421426D01*
X131915000Y-116698665D01*
X131915000Y-116870198D01*
X127804999Y-112760198D01*
X127804999Y-110147666D01*
X127968102Y-110215226D01*
X128168061Y-110255000D01*
X128371939Y-110255000D01*
X128571898Y-110215226D01*
X128760256Y-110137205D01*
X128929774Y-110023937D01*
X129073937Y-109879774D01*
X129187205Y-109710256D01*
X129265226Y-109521898D01*
X129305000Y-109321939D01*
X129305000Y-109118061D01*
X129265226Y-108918102D01*
X129187205Y-108729744D01*
X129073937Y-108560226D01*
X129030000Y-108516289D01*
X129030000Y-103998665D01*
X131915000Y-103998665D01*
X131915000Y-104281335D01*
X131970147Y-104558574D01*
X132078320Y-104819727D01*
X132235363Y-105054759D01*
X132435241Y-105254637D01*
X132670273Y-105411680D01*
X132680865Y-105416067D01*
X132494869Y-105527615D01*
X132286481Y-105716586D01*
X132118963Y-105942580D01*
X131998754Y-106196913D01*
X131958096Y-106330961D01*
X132080085Y-106553000D01*
X133223000Y-106553000D01*
X133223000Y-106533000D01*
X133477000Y-106533000D01*
X133477000Y-106553000D01*
X134619915Y-106553000D01*
X134741904Y-106330961D01*
X134701246Y-106196913D01*
X134581037Y-105942580D01*
X134413519Y-105716586D01*
X134205131Y-105527615D01*
X134019135Y-105416067D01*
X134029727Y-105411680D01*
X134264759Y-105254637D01*
X134464637Y-105054759D01*
X134621680Y-104819727D01*
X134729853Y-104558574D01*
X134785000Y-104281335D01*
X134785000Y-103998665D01*
X134729853Y-103721426D01*
X134621680Y-103460273D01*
X134464637Y-103225241D01*
X134264759Y-103025363D01*
X134029727Y-102868320D01*
X133768574Y-102760147D01*
X133491335Y-102705000D01*
X133208665Y-102705000D01*
X132931426Y-102760147D01*
X132670273Y-102868320D01*
X132435241Y-103025363D01*
X132235363Y-103225241D01*
X132078320Y-103460273D01*
X131970147Y-103721426D01*
X131915000Y-103998665D01*
X129030000Y-103998665D01*
X129030000Y-103184801D01*
X132941070Y-99273731D01*
X133198816Y-99325000D01*
X133501184Y-99325000D01*
X133797743Y-99266011D01*
X134077095Y-99150299D01*
X134328505Y-98982312D01*
X134542312Y-98768505D01*
X134620000Y-98652237D01*
X134697688Y-98768505D01*
X134911495Y-98982312D01*
X135162905Y-99150299D01*
X135442257Y-99266011D01*
X135738816Y-99325000D01*
X136041184Y-99325000D01*
X136337743Y-99266011D01*
X136617095Y-99150299D01*
X136868505Y-98982312D01*
X136996737Y-98854080D01*
X137545525Y-98854080D01*
X137629208Y-99108261D01*
X137901775Y-99239158D01*
X138194642Y-99314365D01*
X138496553Y-99330991D01*
X138795907Y-99288397D01*
X139081199Y-99188222D01*
X139230792Y-99108261D01*
X139314475Y-98854080D01*
X138430000Y-97969605D01*
X137545525Y-98854080D01*
X136996737Y-98854080D01*
X137082312Y-98768505D01*
X137184951Y-98614895D01*
X137365920Y-98674475D01*
X138250395Y-97790000D01*
X138609605Y-97790000D01*
X139494080Y-98674475D01*
X139748261Y-98590792D01*
X139879158Y-98318225D01*
X139954365Y-98025358D01*
X139970991Y-97723447D01*
X139928397Y-97424093D01*
X139828222Y-97138801D01*
X139748261Y-96989208D01*
X139494080Y-96905525D01*
X138609605Y-97790000D01*
X138250395Y-97790000D01*
X137365920Y-96905525D01*
X137184951Y-96965105D01*
X137082312Y-96811495D01*
X136996737Y-96725920D01*
X137545525Y-96725920D01*
X138430000Y-97610395D01*
X139314475Y-96725920D01*
X139230792Y-96471739D01*
X138958225Y-96340842D01*
X138665358Y-96265635D01*
X138363447Y-96249009D01*
X138064093Y-96291603D01*
X137778801Y-96391778D01*
X137629208Y-96471739D01*
X137545525Y-96725920D01*
X136996737Y-96725920D01*
X136868505Y-96597688D01*
X136617095Y-96429701D01*
X136337743Y-96313989D01*
X136041184Y-96255000D01*
X135738816Y-96255000D01*
X135442257Y-96313989D01*
X135162905Y-96429701D01*
X134911495Y-96597688D01*
X134697688Y-96811495D01*
X134620000Y-96927763D01*
X134542312Y-96811495D01*
X134328505Y-96597688D01*
X134077095Y-96429701D01*
X133797743Y-96313989D01*
X133501184Y-96255000D01*
X133198816Y-96255000D01*
X132902257Y-96313989D01*
X132622905Y-96429701D01*
X132371495Y-96597688D01*
X132157688Y-96811495D01*
X132080000Y-96927763D01*
X132002312Y-96811495D01*
X131788505Y-96597688D01*
X131537095Y-96429701D01*
X131257743Y-96313989D01*
X130961184Y-96255000D01*
X130658816Y-96255000D01*
X130362257Y-96313989D01*
X130082905Y-96429701D01*
X129831495Y-96597688D01*
X129617688Y-96811495D01*
X129540000Y-96927763D01*
X129462312Y-96811495D01*
X129248505Y-96597688D01*
X128997095Y-96429701D01*
X128717743Y-96313989D01*
X128421184Y-96255000D01*
X128118816Y-96255000D01*
X127822257Y-96313989D01*
X127542905Y-96429701D01*
X127371821Y-96544016D01*
X126837804Y-96010000D01*
X139385199Y-96010000D01*
X140210000Y-96834802D01*
G37*
%TD.AperFunction*%
%TD*%
M02*
