%TF.GenerationSoftware,KiCad,Pcbnew,7.0.10-7.0.10~ubuntu20.04.1*%
%TF.CreationDate,2024-01-10T12:47:59-05:00*%
%TF.ProjectId,spike_PCB,7370696b-655f-4504-9342-2e6b69636164,0*%
%TF.SameCoordinates,Original*%
%TF.FileFunction,Soldermask,Bot*%
%TF.FilePolarity,Negative*%
%FSLAX46Y46*%
G04 Gerber Fmt 4.6, Leading zero omitted, Abs format (unit mm)*
G04 Created by KiCad (PCBNEW 7.0.10-7.0.10~ubuntu20.04.1) date 2024-01-10 12:47:59*
%MOMM*%
%LPD*%
G01*
G04 APERTURE LIST*
%ADD10C,1.600000*%
%ADD11O,1.600000X1.600000*%
%ADD12R,1.980000X3.960000*%
%ADD13O,1.980000X3.960000*%
%ADD14R,1.600000X1.600000*%
G04 APERTURE END LIST*
D10*
%TO.C,R1*%
X246380000Y-187960000D03*
D11*
X254000000Y-187960000D03*
%TD*%
D12*
%TO.C,J2*%
X233760000Y-185420000D03*
D13*
X238760000Y-185420000D03*
%TD*%
D12*
%TO.C,J1*%
X221060000Y-185420000D03*
D13*
X226060000Y-185420000D03*
%TD*%
D10*
%TO.C,SD_CARD1*%
X259080000Y-175260000D03*
X256540000Y-175260000D03*
X254000000Y-175260000D03*
X251460000Y-175260000D03*
X248920000Y-175260000D03*
D14*
X246380000Y-175260000D03*
%TD*%
%TO.C,RF1*%
X248920000Y-167640000D03*
D10*
X251460000Y-167640000D03*
X254000000Y-167640000D03*
X256540000Y-167640000D03*
X248920000Y-165100000D03*
X251460000Y-165100000D03*
X254000000Y-165100000D03*
X256540000Y-165100000D03*
%TD*%
D14*
%TO.C,A1*%
X236220000Y-172720000D03*
D11*
X236220000Y-170180000D03*
X236220000Y-167640000D03*
X236220000Y-165100000D03*
X236220000Y-162560000D03*
X236220000Y-160020000D03*
X236220000Y-157480000D03*
X236220000Y-154940000D03*
X236220000Y-152400000D03*
X236220000Y-149860000D03*
X236220000Y-147320000D03*
X236220000Y-144780000D03*
X236220000Y-142240000D03*
X236220000Y-139700000D03*
X236220000Y-137160000D03*
X220980000Y-137160000D03*
X220980000Y-139700000D03*
X220980000Y-142240000D03*
X220980000Y-144780000D03*
X220980000Y-147320000D03*
X220980000Y-149860000D03*
X220980000Y-152400000D03*
X220980000Y-154940000D03*
X220980000Y-157480000D03*
X220980000Y-160020000D03*
X220980000Y-162560000D03*
X220980000Y-165100000D03*
X220980000Y-167640000D03*
X220980000Y-170180000D03*
D10*
X220980000Y-172720000D03*
%TD*%
M02*
