%TF.GenerationSoftware,KiCad,Pcbnew,7.0.10-7.0.10~ubuntu20.04.1*%
%TF.CreationDate,2024-01-10T12:47:59-05:00*%
%TF.ProjectId,spike_PCB,7370696b-655f-4504-9342-2e6b69636164,0*%
%TF.SameCoordinates,Original*%
%TF.FileFunction,Legend,Bot*%
%TF.FilePolarity,Positive*%
%FSLAX46Y46*%
G04 Gerber Fmt 4.6, Leading zero omitted, Abs format (unit mm)*
G04 Created by KiCad (PCBNEW 7.0.10-7.0.10~ubuntu20.04.1) date 2024-01-10 12:47:59*
%MOMM*%
%LPD*%
G01*
G04 APERTURE LIST*
%ADD10C,0.150000*%
G04 APERTURE END LIST*
D10*
X216604580Y-156686665D02*
X216652200Y-156639046D01*
X216652200Y-156639046D02*
X216699819Y-156496189D01*
X216699819Y-156496189D02*
X216699819Y-156400951D01*
X216699819Y-156400951D02*
X216652200Y-156258094D01*
X216652200Y-156258094D02*
X216556961Y-156162856D01*
X216556961Y-156162856D02*
X216461723Y-156115237D01*
X216461723Y-156115237D02*
X216271247Y-156067618D01*
X216271247Y-156067618D02*
X216128390Y-156067618D01*
X216128390Y-156067618D02*
X215937914Y-156115237D01*
X215937914Y-156115237D02*
X215842676Y-156162856D01*
X215842676Y-156162856D02*
X215747438Y-156258094D01*
X215747438Y-156258094D02*
X215699819Y-156400951D01*
X215699819Y-156400951D02*
X215699819Y-156496189D01*
X215699819Y-156496189D02*
X215747438Y-156639046D01*
X215747438Y-156639046D02*
X215795057Y-156686665D01*
X216699819Y-157258094D02*
X216652200Y-157162856D01*
X216652200Y-157162856D02*
X216556961Y-157115237D01*
X216556961Y-157115237D02*
X215699819Y-157115237D01*
X216699819Y-158067618D02*
X216176009Y-158067618D01*
X216176009Y-158067618D02*
X216080771Y-158019999D01*
X216080771Y-158019999D02*
X216033152Y-157924761D01*
X216033152Y-157924761D02*
X216033152Y-157734285D01*
X216033152Y-157734285D02*
X216080771Y-157639047D01*
X216652200Y-158067618D02*
X216699819Y-157972380D01*
X216699819Y-157972380D02*
X216699819Y-157734285D01*
X216699819Y-157734285D02*
X216652200Y-157639047D01*
X216652200Y-157639047D02*
X216556961Y-157591428D01*
X216556961Y-157591428D02*
X216461723Y-157591428D01*
X216461723Y-157591428D02*
X216366485Y-157639047D01*
X216366485Y-157639047D02*
X216318866Y-157734285D01*
X216318866Y-157734285D02*
X216318866Y-157972380D01*
X216318866Y-157972380D02*
X216271247Y-158067618D01*
X216033152Y-158448571D02*
X216699819Y-158686666D01*
X216033152Y-158924761D02*
X216699819Y-158686666D01*
X216699819Y-158686666D02*
X216937914Y-158591428D01*
X216937914Y-158591428D02*
X216985533Y-158543809D01*
X216985533Y-158543809D02*
X217033152Y-158448571D01*
X216604580Y-160639047D02*
X216652200Y-160591428D01*
X216652200Y-160591428D02*
X216699819Y-160448571D01*
X216699819Y-160448571D02*
X216699819Y-160353333D01*
X216699819Y-160353333D02*
X216652200Y-160210476D01*
X216652200Y-160210476D02*
X216556961Y-160115238D01*
X216556961Y-160115238D02*
X216461723Y-160067619D01*
X216461723Y-160067619D02*
X216271247Y-160020000D01*
X216271247Y-160020000D02*
X216128390Y-160020000D01*
X216128390Y-160020000D02*
X215937914Y-160067619D01*
X215937914Y-160067619D02*
X215842676Y-160115238D01*
X215842676Y-160115238D02*
X215747438Y-160210476D01*
X215747438Y-160210476D02*
X215699819Y-160353333D01*
X215699819Y-160353333D02*
X215699819Y-160448571D01*
X215699819Y-160448571D02*
X215747438Y-160591428D01*
X215747438Y-160591428D02*
X215795057Y-160639047D01*
X216699819Y-161067619D02*
X216033152Y-161067619D01*
X216223628Y-161067619D02*
X216128390Y-161115238D01*
X216128390Y-161115238D02*
X216080771Y-161162857D01*
X216080771Y-161162857D02*
X216033152Y-161258095D01*
X216033152Y-161258095D02*
X216033152Y-161353333D01*
X216652200Y-162067619D02*
X216699819Y-161972381D01*
X216699819Y-161972381D02*
X216699819Y-161781905D01*
X216699819Y-161781905D02*
X216652200Y-161686667D01*
X216652200Y-161686667D02*
X216556961Y-161639048D01*
X216556961Y-161639048D02*
X216176009Y-161639048D01*
X216176009Y-161639048D02*
X216080771Y-161686667D01*
X216080771Y-161686667D02*
X216033152Y-161781905D01*
X216033152Y-161781905D02*
X216033152Y-161972381D01*
X216033152Y-161972381D02*
X216080771Y-162067619D01*
X216080771Y-162067619D02*
X216176009Y-162115238D01*
X216176009Y-162115238D02*
X216271247Y-162115238D01*
X216271247Y-162115238D02*
X216366485Y-161639048D01*
X216033152Y-162448572D02*
X216699819Y-162639048D01*
X216699819Y-162639048D02*
X216223628Y-162829524D01*
X216223628Y-162829524D02*
X216699819Y-163020000D01*
X216699819Y-163020000D02*
X216033152Y-163210476D01*
X216652200Y-163543810D02*
X216699819Y-163639048D01*
X216699819Y-163639048D02*
X216699819Y-163829524D01*
X216699819Y-163829524D02*
X216652200Y-163924762D01*
X216652200Y-163924762D02*
X216556961Y-163972381D01*
X216556961Y-163972381D02*
X216509342Y-163972381D01*
X216509342Y-163972381D02*
X216414104Y-163924762D01*
X216414104Y-163924762D02*
X216366485Y-163829524D01*
X216366485Y-163829524D02*
X216366485Y-163686667D01*
X216366485Y-163686667D02*
X216318866Y-163591429D01*
X216318866Y-163591429D02*
X216223628Y-163543810D01*
X216223628Y-163543810D02*
X216176009Y-163543810D01*
X216176009Y-163543810D02*
X216080771Y-163591429D01*
X216080771Y-163591429D02*
X216033152Y-163686667D01*
X216033152Y-163686667D02*
X216033152Y-163829524D01*
X216033152Y-163829524D02*
X216080771Y-163924762D01*
X217309819Y-158020000D02*
X217309819Y-158115238D01*
X217309819Y-158115238D02*
X217357438Y-158210476D01*
X217357438Y-158210476D02*
X217405057Y-158258095D01*
X217405057Y-158258095D02*
X217500295Y-158305714D01*
X217500295Y-158305714D02*
X217690771Y-158353333D01*
X217690771Y-158353333D02*
X217928866Y-158353333D01*
X217928866Y-158353333D02*
X218119342Y-158305714D01*
X218119342Y-158305714D02*
X218214580Y-158258095D01*
X218214580Y-158258095D02*
X218262200Y-158210476D01*
X218262200Y-158210476D02*
X218309819Y-158115238D01*
X218309819Y-158115238D02*
X218309819Y-158020000D01*
X218309819Y-158020000D02*
X218262200Y-157924762D01*
X218262200Y-157924762D02*
X218214580Y-157877143D01*
X218214580Y-157877143D02*
X218119342Y-157829524D01*
X218119342Y-157829524D02*
X217928866Y-157781905D01*
X217928866Y-157781905D02*
X217690771Y-157781905D01*
X217690771Y-157781905D02*
X217500295Y-157829524D01*
X217500295Y-157829524D02*
X217405057Y-157877143D01*
X217405057Y-157877143D02*
X217357438Y-157924762D01*
X217357438Y-157924762D02*
X217309819Y-158020000D01*
X218309819Y-159305714D02*
X218309819Y-158734286D01*
X218309819Y-159020000D02*
X217309819Y-159020000D01*
X217309819Y-159020000D02*
X217452676Y-158924762D01*
X217452676Y-158924762D02*
X217547914Y-158829524D01*
X217547914Y-158829524D02*
X217595533Y-158734286D01*
X217262200Y-160448571D02*
X218547914Y-159591429D01*
X217405057Y-160734286D02*
X217357438Y-160781905D01*
X217357438Y-160781905D02*
X217309819Y-160877143D01*
X217309819Y-160877143D02*
X217309819Y-161115238D01*
X217309819Y-161115238D02*
X217357438Y-161210476D01*
X217357438Y-161210476D02*
X217405057Y-161258095D01*
X217405057Y-161258095D02*
X217500295Y-161305714D01*
X217500295Y-161305714D02*
X217595533Y-161305714D01*
X217595533Y-161305714D02*
X217738390Y-161258095D01*
X217738390Y-161258095D02*
X218309819Y-160686667D01*
X218309819Y-160686667D02*
X218309819Y-161305714D01*
X217643152Y-162162857D02*
X218309819Y-162162857D01*
X217262200Y-161924762D02*
X217976485Y-161686667D01*
X217976485Y-161686667D02*
X217976485Y-162305714D01*
M02*
