%TF.GenerationSoftware,KiCad,Pcbnew,7.0.11-7.0.11~ubuntu20.04.1*%
%TF.CreationDate,2025-07-14T15:36:25-04:00*%
%TF.ProjectId,spike_PCB,7370696b-655f-4504-9342-2e6b69636164,0*%
%TF.SameCoordinates,Original*%
%TF.FileFunction,Copper,L1,Top*%
%TF.FilePolarity,Positive*%
%FSLAX46Y46*%
G04 Gerber Fmt 4.6, Leading zero omitted, Abs format (unit mm)*
G04 Created by KiCad (PCBNEW 7.0.11-7.0.11~ubuntu20.04.1) date 2025-07-14 15:36:25*
%MOMM*%
%LPD*%
G01*
G04 APERTURE LIST*
%TA.AperFunction,ComponentPad*%
%ADD10C,1.600000*%
%TD*%
%TA.AperFunction,ComponentPad*%
%ADD11R,1.600000X1.600000*%
%TD*%
%TA.AperFunction,ComponentPad*%
%ADD12O,1.600000X1.600000*%
%TD*%
%TA.AperFunction,ComponentPad*%
%ADD13R,1.980000X3.960000*%
%TD*%
%TA.AperFunction,ComponentPad*%
%ADD14O,1.980000X3.960000*%
%TD*%
%TA.AperFunction,Conductor*%
%ADD15C,0.250000*%
%TD*%
G04 APERTURE END LIST*
D10*
%TO.P,SD_CARD1,1,3V3*%
%TO.N,Net-(A1-3V3)*%
X259080000Y-175260000D03*
%TO.P,SD_CARD1,2,SD_CS*%
%TO.N,Net-(A1-D4)*%
X256540000Y-175260000D03*
%TO.P,SD_CARD1,3,MOSI*%
%TO.N,Net-(A1-MOSI)*%
X254000000Y-175260000D03*
%TO.P,SD_CARD1,4,CLK*%
%TO.N,Net-(A1-SCK)*%
X251460000Y-175260000D03*
%TO.P,SD_CARD1,5,MISO*%
%TO.N,Net-(A1-MISO)*%
X248920000Y-175260000D03*
D11*
%TO.P,SD_CARD1,6,GND*%
%TO.N,GND*%
X246380000Y-175260000D03*
%TD*%
%TO.P,A1,1,TX1*%
%TO.N,unconnected-(A1-TX1-Pad1)*%
X236220000Y-172720000D03*
D12*
%TO.P,A1,2,RX1*%
%TO.N,unconnected-(A1-RX1-Pad2)*%
X236220000Y-170180000D03*
%TO.P,A1,3,~{RESET}*%
%TO.N,unconnected-(A1-~{RESET}-Pad3)*%
X236220000Y-167640000D03*
%TO.P,A1,4,GND*%
%TO.N,GND*%
X236220000Y-165100000D03*
%TO.P,A1,5,D2*%
%TO.N,unconnected-(A1-D2-Pad5)*%
X236220000Y-162560000D03*
%TO.P,A1,6,D3*%
%TO.N,unconnected-(A1-D3-Pad6)*%
X236220000Y-160020000D03*
%TO.P,A1,7,D4*%
%TO.N,Net-(A1-D4)*%
X236220000Y-157480000D03*
%TO.P,A1,8,D5*%
%TO.N,unconnected-(A1-D5-Pad8)*%
X236220000Y-154940000D03*
%TO.P,A1,9,D6*%
%TO.N,unconnected-(A1-D6-Pad9)*%
X236220000Y-152400000D03*
%TO.P,A1,10,D7*%
%TO.N,unconnected-(A1-D7-Pad10)*%
X236220000Y-149860000D03*
%TO.P,A1,11,D8*%
%TO.N,unconnected-(A1-D8-Pad11)*%
X236220000Y-147320000D03*
%TO.P,A1,12,D9*%
%TO.N,Net-(A1-D9)*%
X236220000Y-144780000D03*
%TO.P,A1,13,D10*%
%TO.N,Net-(A1-D10)*%
X236220000Y-142240000D03*
%TO.P,A1,14,MOSI*%
%TO.N,Net-(A1-MOSI)*%
X236220000Y-139700000D03*
%TO.P,A1,15,MISO*%
%TO.N,Net-(A1-MISO)*%
X236220000Y-137160000D03*
%TO.P,A1,16,SCK*%
%TO.N,Net-(A1-SCK)*%
X220980000Y-137160000D03*
%TO.P,A1,17,3V3*%
%TO.N,Net-(A1-3V3)*%
X220980000Y-139700000D03*
%TO.P,A1,18,AREF*%
%TO.N,unconnected-(A1-AREF-Pad18)*%
X220980000Y-142240000D03*
%TO.P,A1,19,A0*%
%TO.N,unconnected-(A1-A0-Pad19)*%
X220980000Y-144780000D03*
%TO.P,A1,20,A1*%
%TO.N,unconnected-(A1-A1-Pad20)*%
X220980000Y-147320000D03*
%TO.P,A1,21,A2*%
%TO.N,unconnected-(A1-A2-Pad21)*%
X220980000Y-149860000D03*
%TO.P,A1,22,A3*%
%TO.N,Net-(A1-A3)*%
X220980000Y-152400000D03*
%TO.P,A1,23,SDA/A4*%
%TO.N,unconnected-(A1-SDA{slash}A4-Pad23)*%
X220980000Y-154940000D03*
%TO.P,A1,24,SCL/A5*%
%TO.N,unconnected-(A1-SCL{slash}A5-Pad24)*%
X220980000Y-157480000D03*
%TO.P,A1,25,A6*%
%TO.N,unconnected-(A1-A6-Pad25)*%
X220980000Y-160020000D03*
%TO.P,A1,26,A7*%
%TO.N,unconnected-(A1-A7-Pad26)*%
X220980000Y-162560000D03*
%TO.P,A1,27,+5V*%
%TO.N,unconnected-(A1-+5V-Pad27)*%
X220980000Y-165100000D03*
%TO.P,A1,28,~{RESET}*%
%TO.N,unconnected-(A1-~{RESET}-Pad28)*%
X220980000Y-167640000D03*
%TO.P,A1,29,GND*%
%TO.N,GND*%
X220980000Y-170180000D03*
D10*
%TO.P,A1,30,VIN*%
%TO.N,Net-(A1-VIN)*%
X220980000Y-172720000D03*
%TD*%
D13*
%TO.P,J1,1,Pin_1*%
%TO.N,Net-(A1-VIN)*%
X221060000Y-185420000D03*
D14*
%TO.P,J1,2,Pin_2*%
%TO.N,GND*%
X226060000Y-185420000D03*
%TD*%
D13*
%TO.P,J2,1,Pin_1*%
%TO.N,Net-(A1-3V3)*%
X233760000Y-185420000D03*
D14*
%TO.P,J2,2,Pin_2*%
%TO.N,Net-(A1-A3)*%
X238760000Y-185420000D03*
%TD*%
D10*
%TO.P,R1,1*%
%TO.N,Net-(A1-A3)*%
X246380000Y-187960000D03*
D12*
%TO.P,R1,2*%
%TO.N,GND*%
X254000000Y-187960000D03*
%TD*%
D11*
%TO.P,RF1,1,GND*%
%TO.N,GND*%
X248920000Y-167640000D03*
D10*
%TO.P,RF1,2,CE*%
%TO.N,Net-(A1-D9)*%
X251460000Y-167640000D03*
%TO.P,RF1,3,SCK*%
%TO.N,Net-(A1-SCK)*%
X254000000Y-167640000D03*
%TO.P,RF1,4,MISO*%
%TO.N,Net-(A1-MISO)*%
X256540000Y-167640000D03*
%TO.P,RF1,5,VCC*%
%TO.N,Net-(A1-3V3)*%
X248920000Y-165100000D03*
%TO.P,RF1,6,CNS*%
%TO.N,Net-(A1-D10)*%
X251460000Y-165100000D03*
%TO.P,RF1,7,MOSI*%
%TO.N,Net-(A1-MOSI)*%
X254000000Y-165100000D03*
%TO.P,RF1,8,IRQ*%
%TO.N,unconnected-(RF1-IRQ-Pad8)*%
X256540000Y-165100000D03*
%TD*%
D15*
%TO.N,Net-(A1-MISO)*%
X257683000Y-158623000D02*
X256540000Y-157480000D01*
X264610000Y-165550000D02*
X257683000Y-158623000D01*
X257683000Y-158623000D02*
X257683000Y-166497000D01*
X257683000Y-166497000D02*
X256540000Y-167640000D01*
%TO.N,GND*%
X254000000Y-187960000D02*
X254000000Y-182880000D01*
X254000000Y-182880000D02*
X246380000Y-175260000D01*
%TO.N,Net-(A1-D9)*%
X251460000Y-167640000D02*
X250045000Y-166225000D01*
X250045000Y-158605000D02*
X236220000Y-144780000D01*
X250045000Y-166225000D02*
X250045000Y-158605000D01*
%TO.N,Net-(A1-D10)*%
X251460000Y-165100000D02*
X251460000Y-157480000D01*
X251460000Y-157480000D02*
X236220000Y-142240000D01*
%TO.N,Net-(A1-MISO)*%
X248920000Y-176391370D02*
X253318630Y-180790000D01*
X264610000Y-180526396D02*
X264610000Y-165550000D01*
X256540000Y-157480000D02*
X236220000Y-137160000D01*
X248920000Y-175260000D02*
X248920000Y-176391370D01*
X264346396Y-180790000D02*
X264610000Y-180526396D01*
X253318630Y-180790000D02*
X264346396Y-180790000D01*
%TO.N,GND*%
X243840000Y-175260000D02*
X226060000Y-175260000D01*
X241300000Y-170180000D02*
X241300000Y-175260000D01*
X236220000Y-165100000D02*
X241300000Y-170180000D01*
X246380000Y-175260000D02*
X243840000Y-175260000D01*
X248920000Y-170180000D02*
X243840000Y-175260000D01*
X248920000Y-167640000D02*
X248920000Y-170180000D01*
X226060000Y-175260000D02*
X220980000Y-170180000D01*
X226060000Y-185420000D02*
X226060000Y-175260000D01*
%TO.N,Net-(A1-MOSI)*%
X264160000Y-176850991D02*
X255415000Y-168105991D01*
X254000000Y-180340000D02*
X264160000Y-180340000D01*
X255415000Y-158895000D02*
X236220000Y-139700000D01*
X255415000Y-163685000D02*
X255415000Y-162560000D01*
X254000000Y-175260000D02*
X254000000Y-180340000D01*
X264160000Y-180340000D02*
X264160000Y-176850991D01*
X255415000Y-162560000D02*
X255415000Y-158895000D01*
X255415000Y-168105991D02*
X255415000Y-162560000D01*
X254000000Y-165100000D02*
X255415000Y-163685000D01*
%TO.N,Net-(A1-SCK)*%
X252875000Y-173845000D02*
X252875000Y-166515000D01*
X236685991Y-140825000D02*
X224645000Y-140825000D01*
X224645000Y-140825000D02*
X220980000Y-137160000D01*
X252875000Y-166515000D02*
X252875000Y-157014009D01*
X254000000Y-167640000D02*
X252875000Y-166515000D01*
X252875000Y-157014009D02*
X236685991Y-140825000D01*
X251460000Y-175260000D02*
X252875000Y-173845000D01*
%TO.N,Net-(A1-VIN)*%
X221060000Y-185420000D02*
X221060000Y-172800000D01*
X221060000Y-172800000D02*
X220980000Y-172720000D01*
%TO.N,Net-(A1-A3)*%
X243840000Y-185420000D02*
X246380000Y-187960000D01*
X238760000Y-185420000D02*
X243840000Y-185420000D01*
%TD*%
M02*
