%TF.GenerationSoftware,KiCad,Pcbnew,7.0.11-7.0.11~ubuntu20.04.1*%
%TF.CreationDate,2025-07-14T15:36:25-04:00*%
%TF.ProjectId,spike_PCB,7370696b-655f-4504-9342-2e6b69636164,0*%
%TF.SameCoordinates,Original*%
%TF.FileFunction,Legend,Top*%
%TF.FilePolarity,Positive*%
%FSLAX46Y46*%
G04 Gerber Fmt 4.6, Leading zero omitted, Abs format (unit mm)*
G04 Created by KiCad (PCBNEW 7.0.11-7.0.11~ubuntu20.04.1) date 2025-07-14 15:36:25*
%MOMM*%
%LPD*%
G01*
G04 APERTURE LIST*
%ADD10C,0.000000*%
%ADD11C,0.150000*%
%ADD12C,0.100000*%
%ADD13C,0.120000*%
G04 APERTURE END LIST*
D10*
G36*
X229368737Y-166503111D02*
G01*
X230134436Y-166503111D01*
X230134436Y-166583227D01*
X229523084Y-167022646D01*
X229430004Y-167046194D01*
X230070872Y-167046194D01*
X230086171Y-166951949D01*
X230133256Y-166956659D01*
X230129785Y-167083871D01*
X230133256Y-167222883D01*
X230086171Y-167228778D01*
X230070872Y-167128639D01*
X229374648Y-167128639D01*
X229353439Y-167225264D01*
X229306332Y-167219391D01*
X229309825Y-167115674D01*
X229306332Y-167010847D01*
X229845834Y-166613866D01*
X229929485Y-166585608D01*
X229368737Y-166585608D01*
X229353439Y-166679853D01*
X229306332Y-166675144D01*
X229309825Y-166547878D01*
X229306332Y-166408866D01*
X229353439Y-166402993D01*
X229368737Y-166503111D01*
G37*
G36*
X232081923Y-171022442D02*
G01*
X232110593Y-171024487D01*
X232138869Y-171027918D01*
X232166741Y-171032754D01*
X232194198Y-171039014D01*
X232221230Y-171046717D01*
X232247826Y-171055881D01*
X232273977Y-171066526D01*
X232299670Y-171078671D01*
X232324896Y-171092333D01*
X232349645Y-171107533D01*
X232373905Y-171124288D01*
X232397666Y-171142619D01*
X232420917Y-171162543D01*
X232443649Y-171184079D01*
X232465850Y-171207247D01*
X232487510Y-171232065D01*
X232508618Y-171258552D01*
X232529164Y-171286727D01*
X232549138Y-171316609D01*
X232568528Y-171348217D01*
X232587324Y-171381569D01*
X232605517Y-171416684D01*
X232623094Y-171453582D01*
X232640046Y-171492281D01*
X232656361Y-171532800D01*
X232672031Y-171575157D01*
X232687043Y-171619372D01*
X232701388Y-171665464D01*
X232715055Y-171713451D01*
X232728033Y-171763352D01*
X232740311Y-171815187D01*
X232739363Y-171863883D01*
X232736556Y-171911201D01*
X232731948Y-171957180D01*
X232725597Y-172001859D01*
X232717560Y-172045278D01*
X232707894Y-172087478D01*
X232696658Y-172128498D01*
X232683909Y-172168377D01*
X232669704Y-172207157D01*
X232654102Y-172244876D01*
X232637158Y-172281575D01*
X232618932Y-172317293D01*
X232599480Y-172352071D01*
X232578861Y-172385947D01*
X232557132Y-172418962D01*
X232534349Y-172451156D01*
X232089230Y-172517777D01*
X232089230Y-172284592D01*
X232355714Y-172181612D01*
X232375887Y-172163313D01*
X232395465Y-172143661D01*
X232414351Y-172122722D01*
X232432448Y-172100563D01*
X232449658Y-172077250D01*
X232465884Y-172052850D01*
X232481027Y-172027429D01*
X232494991Y-172001054D01*
X232507677Y-171973792D01*
X232518989Y-171945708D01*
X232528827Y-171916871D01*
X232537096Y-171887345D01*
X232543698Y-171857198D01*
X232548534Y-171826496D01*
X232551507Y-171795305D01*
X232552264Y-171779548D01*
X232552520Y-171763693D01*
X232552096Y-171741817D01*
X232550836Y-171720483D01*
X232548753Y-171699701D01*
X232545861Y-171679481D01*
X232542176Y-171659833D01*
X232537712Y-171640768D01*
X232532482Y-171622295D01*
X232526501Y-171604423D01*
X232519784Y-171587164D01*
X232512345Y-171570527D01*
X232504199Y-171554522D01*
X232495359Y-171539160D01*
X232485841Y-171524449D01*
X232475658Y-171510400D01*
X232464826Y-171497023D01*
X232453357Y-171484328D01*
X232441268Y-171472326D01*
X232428571Y-171461025D01*
X232415283Y-171450436D01*
X232401416Y-171440570D01*
X232386985Y-171431435D01*
X232372005Y-171423042D01*
X232356491Y-171415401D01*
X232340456Y-171408522D01*
X232323914Y-171402415D01*
X232306881Y-171397089D01*
X232289371Y-171392556D01*
X232271398Y-171388824D01*
X232252976Y-171385905D01*
X232234120Y-171383807D01*
X232214845Y-171382541D01*
X232195164Y-171382117D01*
X232178600Y-171382452D01*
X232162404Y-171383454D01*
X232146569Y-171385111D01*
X232131089Y-171387417D01*
X232115960Y-171390361D01*
X232101176Y-171393936D01*
X232086731Y-171398131D01*
X232072620Y-171402939D01*
X232058836Y-171408351D01*
X232045376Y-171414356D01*
X232032232Y-171420948D01*
X232019400Y-171428116D01*
X232006874Y-171435852D01*
X231994649Y-171444147D01*
X231982719Y-171452992D01*
X231971077Y-171462378D01*
X231948641Y-171482739D01*
X231927297Y-171505158D01*
X231906999Y-171529565D01*
X231887704Y-171555888D01*
X231869368Y-171584057D01*
X231851946Y-171614000D01*
X231835393Y-171645647D01*
X231819667Y-171678926D01*
X231650064Y-172045351D01*
X231629711Y-172088336D01*
X231608315Y-172129738D01*
X231585756Y-172169391D01*
X231561915Y-172207133D01*
X231536672Y-172242799D01*
X231509907Y-172276224D01*
X231481501Y-172307245D01*
X231451333Y-172335698D01*
X231435551Y-172348910D01*
X231419284Y-172361418D01*
X231402517Y-172373202D01*
X231385235Y-172384241D01*
X231367423Y-172394515D01*
X231349065Y-172404003D01*
X231330148Y-172412685D01*
X231310656Y-172420541D01*
X231290573Y-172427548D01*
X231269886Y-172433689D01*
X231248579Y-172438940D01*
X231226637Y-172443283D01*
X231204045Y-172446697D01*
X231180789Y-172449160D01*
X231156852Y-172450654D01*
X231132221Y-172451156D01*
X231103557Y-172450377D01*
X231075479Y-172448045D01*
X231047989Y-172444169D01*
X231021087Y-172438759D01*
X230994776Y-172431823D01*
X230969055Y-172423369D01*
X230943927Y-172413408D01*
X230919392Y-172401947D01*
X230895451Y-172388995D01*
X230872106Y-172374562D01*
X230849357Y-172358656D01*
X230827206Y-172341286D01*
X230805653Y-172322462D01*
X230784701Y-172302191D01*
X230764350Y-172280482D01*
X230744600Y-172257346D01*
X230725454Y-172232790D01*
X230706913Y-172206823D01*
X230688976Y-172179454D01*
X230671646Y-172150692D01*
X230654924Y-172120546D01*
X230638811Y-172089025D01*
X230623307Y-172056138D01*
X230608415Y-172021893D01*
X230594134Y-171986300D01*
X230580467Y-171949367D01*
X230554977Y-171871517D01*
X230531952Y-171788414D01*
X230511403Y-171700130D01*
X230512178Y-171661856D01*
X230514478Y-171623213D01*
X230518270Y-171584331D01*
X230523516Y-171545339D01*
X230530182Y-171506364D01*
X230538231Y-171467537D01*
X230547630Y-171428984D01*
X230558341Y-171390835D01*
X230570330Y-171353219D01*
X230583560Y-171316265D01*
X230597998Y-171280100D01*
X230613606Y-171244854D01*
X230630350Y-171210655D01*
X230648194Y-171177632D01*
X230667102Y-171145913D01*
X230687039Y-171115628D01*
X231123131Y-171115628D01*
X231123131Y-171294307D01*
X230847530Y-171382116D01*
X230831826Y-171397179D01*
X230816556Y-171412879D01*
X230801801Y-171429289D01*
X230787640Y-171446479D01*
X230774153Y-171464521D01*
X230761420Y-171483485D01*
X230749521Y-171503443D01*
X230738535Y-171524465D01*
X230728543Y-171546623D01*
X230723944Y-171558150D01*
X230719624Y-171569987D01*
X230715591Y-171582144D01*
X230711858Y-171594629D01*
X230708432Y-171607451D01*
X230705325Y-171620619D01*
X230702545Y-171634143D01*
X230700104Y-171648030D01*
X230698012Y-171662289D01*
X230696277Y-171676931D01*
X230694910Y-171691962D01*
X230693922Y-171707394D01*
X230693321Y-171723233D01*
X230693119Y-171739489D01*
X230693481Y-171760780D01*
X230694557Y-171781497D01*
X230696335Y-171801633D01*
X230698803Y-171821181D01*
X230701946Y-171840135D01*
X230705754Y-171858488D01*
X230710212Y-171876233D01*
X230715309Y-171893364D01*
X230721031Y-171909874D01*
X230727366Y-171925757D01*
X230734301Y-171941005D01*
X230741824Y-171955612D01*
X230749920Y-171969572D01*
X230758579Y-171982877D01*
X230767786Y-171995521D01*
X230777530Y-172007498D01*
X230787797Y-172018801D01*
X230798575Y-172029422D01*
X230809851Y-172039356D01*
X230821612Y-172048596D01*
X230833846Y-172057135D01*
X230846540Y-172064966D01*
X230859680Y-172072083D01*
X230873255Y-172078480D01*
X230887252Y-172084148D01*
X230901657Y-172089083D01*
X230916459Y-172093276D01*
X230931644Y-172096722D01*
X230947199Y-172099414D01*
X230963112Y-172101345D01*
X230979371Y-172102509D01*
X230995961Y-172102898D01*
X231009996Y-172102589D01*
X231023717Y-172101669D01*
X231037130Y-172100148D01*
X231050241Y-172098036D01*
X231063054Y-172095342D01*
X231075577Y-172092078D01*
X231087813Y-172088252D01*
X231099769Y-172083875D01*
X231111450Y-172078957D01*
X231122862Y-172073508D01*
X231134010Y-172067537D01*
X231144899Y-172061055D01*
X231155536Y-172054072D01*
X231165926Y-172046598D01*
X231176074Y-172038642D01*
X231185986Y-172030215D01*
X231205123Y-172011987D01*
X231223381Y-171991994D01*
X231240805Y-171970315D01*
X231257439Y-171947030D01*
X231273328Y-171922220D01*
X231288514Y-171895964D01*
X231303043Y-171868341D01*
X231316959Y-171839433D01*
X231483540Y-171469964D01*
X231508764Y-171418482D01*
X231534582Y-171369715D01*
X231561163Y-171323752D01*
X231588675Y-171280683D01*
X231617287Y-171240594D01*
X231647168Y-171203576D01*
X231678487Y-171169717D01*
X231711411Y-171139105D01*
X231728528Y-171125044D01*
X231746110Y-171111829D01*
X231764178Y-171099470D01*
X231782753Y-171087979D01*
X231801856Y-171077365D01*
X231821508Y-171067642D01*
X231841731Y-171058818D01*
X231862544Y-171050907D01*
X231883970Y-171043918D01*
X231906030Y-171037863D01*
X231928744Y-171032753D01*
X231952134Y-171028599D01*
X231976220Y-171025412D01*
X232001025Y-171023203D01*
X232026568Y-171021984D01*
X232052871Y-171021765D01*
X232081923Y-171022442D01*
G37*
G36*
X230133256Y-163066913D02*
G01*
X230129785Y-163177668D01*
X230133256Y-163265986D01*
X229768089Y-163506333D01*
X229755130Y-163520462D01*
X229755130Y-163591159D01*
X229755129Y-163591160D01*
X230070872Y-163591160D01*
X230086171Y-163495751D01*
X230133256Y-163501624D01*
X230129785Y-163665348D01*
X230133256Y-163833834D01*
X230086171Y-163839708D01*
X230070872Y-163739590D01*
X229695063Y-163739590D01*
X229368737Y-163739590D01*
X229353439Y-163839708D01*
X229306333Y-163833834D01*
X229309825Y-163665348D01*
X229307171Y-163486279D01*
X229359307Y-163486279D01*
X229367558Y-163591160D01*
X229695063Y-163591160D01*
X229695063Y-163511043D01*
X229694857Y-163500981D01*
X229694244Y-163491120D01*
X229693229Y-163481468D01*
X229691821Y-163472032D01*
X229690025Y-163462820D01*
X229687848Y-163453840D01*
X229685297Y-163445100D01*
X229682379Y-163436608D01*
X229679100Y-163428371D01*
X229675468Y-163420397D01*
X229671488Y-163412694D01*
X229667167Y-163405270D01*
X229662512Y-163398132D01*
X229657531Y-163391288D01*
X229652229Y-163384746D01*
X229646613Y-163378514D01*
X229640690Y-163372599D01*
X229634466Y-163367010D01*
X229627949Y-163361754D01*
X229621145Y-163356838D01*
X229614061Y-163352271D01*
X229606703Y-163348061D01*
X229599078Y-163344214D01*
X229591193Y-163340740D01*
X229583055Y-163337645D01*
X229574669Y-163334938D01*
X229566044Y-163332625D01*
X229557185Y-163330716D01*
X229548099Y-163329218D01*
X229538794Y-163328138D01*
X229529275Y-163327484D01*
X229519549Y-163327264D01*
X229509767Y-163327467D01*
X229500294Y-163328067D01*
X229491132Y-163329057D01*
X229482280Y-163330427D01*
X229473737Y-163332168D01*
X229465503Y-163334271D01*
X229457579Y-163336727D01*
X229449964Y-163339527D01*
X229442657Y-163342662D01*
X229435659Y-163346122D01*
X229428969Y-163349899D01*
X229422587Y-163353984D01*
X229416513Y-163358367D01*
X229410747Y-163363039D01*
X229405288Y-163367992D01*
X229400136Y-163373216D01*
X229395291Y-163378702D01*
X229390753Y-163384441D01*
X229386521Y-163390424D01*
X229382596Y-163396642D01*
X229378977Y-163403086D01*
X229375664Y-163409747D01*
X229372656Y-163416615D01*
X229369954Y-163423682D01*
X229367557Y-163430939D01*
X229365465Y-163438376D01*
X229363678Y-163445984D01*
X229362196Y-163453755D01*
X229361018Y-163461679D01*
X229360144Y-163469747D01*
X229359307Y-163486279D01*
X229307171Y-163486279D01*
X229306333Y-163429763D01*
X229306919Y-163402325D01*
X229309136Y-163375757D01*
X229312984Y-163350184D01*
X229318463Y-163325728D01*
X229325572Y-163302514D01*
X229334310Y-163280668D01*
X229339291Y-163270296D01*
X229344678Y-163260312D01*
X229350474Y-163250732D01*
X229356676Y-163241571D01*
X229363286Y-163232846D01*
X229370303Y-163224570D01*
X229377727Y-163216761D01*
X229385558Y-163209433D01*
X229393796Y-163202602D01*
X229402442Y-163196283D01*
X229411494Y-163190493D01*
X229420954Y-163185246D01*
X229430821Y-163180558D01*
X229441094Y-163176445D01*
X229451774Y-163172922D01*
X229462862Y-163170005D01*
X229474356Y-163167709D01*
X229486257Y-163166050D01*
X229498565Y-163165043D01*
X229511279Y-163164704D01*
X229523349Y-163165056D01*
X229535045Y-163166098D01*
X229546371Y-163167809D01*
X229557333Y-163170168D01*
X229567937Y-163173155D01*
X229578186Y-163176748D01*
X229588088Y-163180927D01*
X229597645Y-163185670D01*
X229606865Y-163190956D01*
X229615751Y-163196766D01*
X229624310Y-163203077D01*
X229632546Y-163209869D01*
X229640464Y-163217121D01*
X229648070Y-163224811D01*
X229655369Y-163232920D01*
X229662366Y-163241427D01*
X229669065Y-163250309D01*
X229675474Y-163259547D01*
X229681595Y-163269119D01*
X229687436Y-163279004D01*
X229698293Y-163299633D01*
X229708087Y-163321264D01*
X229716858Y-163343730D01*
X229724649Y-163366865D01*
X229731501Y-163390501D01*
X229737455Y-163414470D01*
X229790478Y-163313135D01*
X230069655Y-163122317D01*
X230087325Y-163062203D01*
X230133256Y-163066913D01*
G37*
G36*
X232688821Y-154897380D02*
G01*
X232679726Y-155257743D01*
X232688821Y-155569686D01*
X232567691Y-155584873D01*
X232534349Y-155445544D01*
X231599275Y-155445544D01*
X231573503Y-155446287D01*
X231549556Y-155448507D01*
X231538259Y-155450167D01*
X231527411Y-155452192D01*
X231517008Y-155454579D01*
X231507047Y-155457327D01*
X231497525Y-155460434D01*
X231488440Y-155463899D01*
X231479788Y-155467720D01*
X231471568Y-155471895D01*
X231463776Y-155476422D01*
X231456410Y-155481301D01*
X231449466Y-155486528D01*
X231442942Y-155492104D01*
X231436835Y-155498025D01*
X231431142Y-155504290D01*
X231425861Y-155510898D01*
X231420988Y-155517846D01*
X231416522Y-155525134D01*
X231412458Y-155532760D01*
X231408795Y-155540721D01*
X231405529Y-155549016D01*
X231402658Y-155557644D01*
X231400179Y-155566602D01*
X231398088Y-155575890D01*
X231396385Y-155585505D01*
X231395064Y-155595446D01*
X231394125Y-155605711D01*
X231393376Y-155627206D01*
X231394105Y-155645914D01*
X231396231Y-155664555D01*
X231399659Y-155683135D01*
X231404298Y-155701657D01*
X231410055Y-155720125D01*
X231416835Y-155738545D01*
X231424547Y-155756920D01*
X231433097Y-155775254D01*
X231442393Y-155793553D01*
X231452341Y-155811820D01*
X231462848Y-155830059D01*
X231473821Y-155848276D01*
X231496795Y-155884658D01*
X231520519Y-155921000D01*
X231575028Y-155999739D01*
X232534349Y-155999739D01*
X232567691Y-155851308D01*
X232688821Y-155866495D01*
X232679726Y-156169283D01*
X232688821Y-156529696D01*
X232567691Y-156544831D01*
X232534349Y-156347981D01*
X231369130Y-156347981D01*
X231384259Y-156547848D01*
X231260074Y-156562983D01*
X231169263Y-156169283D01*
X231160172Y-156014872D01*
X231411527Y-156005771D01*
X231120792Y-155551534D01*
X231122207Y-155484982D01*
X231126577Y-155424812D01*
X231129928Y-155397031D01*
X231134087Y-155370738D01*
X231139079Y-155345895D01*
X231144925Y-155322469D01*
X231151650Y-155300422D01*
X231159276Y-155279719D01*
X231167827Y-155260323D01*
X231177327Y-155242198D01*
X231187798Y-155225309D01*
X231199264Y-155209619D01*
X231211747Y-155195092D01*
X231225272Y-155181693D01*
X231239862Y-155169385D01*
X231255540Y-155158132D01*
X231272328Y-155147899D01*
X231290251Y-155138648D01*
X231309332Y-155130345D01*
X231329594Y-155122953D01*
X231351060Y-155116435D01*
X231373754Y-155110757D01*
X231397699Y-155105882D01*
X231422918Y-155101774D01*
X231477271Y-155095714D01*
X231537000Y-155092289D01*
X231602291Y-155091212D01*
X232534349Y-155091212D01*
X232567691Y-154882245D01*
X232688821Y-154897380D01*
G37*
G36*
X225150474Y-161208799D02*
G01*
X225124677Y-161254776D01*
X225098235Y-161309913D01*
X225083321Y-161344838D01*
X225067924Y-161384409D01*
X225052526Y-161428430D01*
X225037613Y-161476707D01*
X225023666Y-161529045D01*
X225011171Y-161585251D01*
X225000610Y-161645129D01*
X224992468Y-161708486D01*
X224987228Y-161775126D01*
X224985374Y-161844856D01*
X224986969Y-161906936D01*
X224991620Y-161967840D01*
X224999123Y-162027516D01*
X225009273Y-162085910D01*
X225021868Y-162142972D01*
X225036703Y-162198648D01*
X225053576Y-162252888D01*
X225072281Y-162305638D01*
X225092616Y-162356848D01*
X225114377Y-162406463D01*
X225137360Y-162454434D01*
X225161361Y-162500707D01*
X225186177Y-162545230D01*
X225211604Y-162587952D01*
X225237439Y-162628820D01*
X225263477Y-162667783D01*
X225315350Y-162739782D01*
X225365593Y-162803533D01*
X225412578Y-162858619D01*
X225454673Y-162904624D01*
X225490251Y-162941131D01*
X225517681Y-162967723D01*
X225541581Y-162989497D01*
X225454673Y-163074369D01*
X225412578Y-163120374D01*
X225365593Y-163175460D01*
X225315350Y-163239211D01*
X225263477Y-163311210D01*
X225211604Y-163391040D01*
X225161361Y-163478286D01*
X225114377Y-163572529D01*
X225072281Y-163673354D01*
X225036703Y-163780344D01*
X225021868Y-163836021D01*
X225009273Y-163893082D01*
X224999123Y-163951477D01*
X224991620Y-164011152D01*
X224986969Y-164072056D01*
X224985374Y-164134137D01*
X224985374Y-164134138D01*
X224985847Y-164169381D01*
X224987228Y-164203876D01*
X224989455Y-164237598D01*
X224992468Y-164270523D01*
X224996207Y-164302626D01*
X225000610Y-164333884D01*
X225005618Y-164364272D01*
X225011171Y-164393765D01*
X225017207Y-164422340D01*
X225023666Y-164449972D01*
X225030488Y-164476637D01*
X225037613Y-164502311D01*
X225052526Y-164550587D01*
X225067924Y-164594606D01*
X225083321Y-164634173D01*
X225098235Y-164669096D01*
X225112182Y-164699178D01*
X225124677Y-164724227D01*
X225143380Y-164758445D01*
X225150474Y-164770197D01*
X224783603Y-164771307D01*
X224770216Y-164724899D01*
X224756495Y-164672534D01*
X224740767Y-164605744D01*
X224725038Y-164528294D01*
X224711317Y-164443945D01*
X224705837Y-164400359D01*
X224701612Y-164356461D01*
X224698893Y-164312719D01*
X224697931Y-164269604D01*
X224700061Y-164189792D01*
X224706271Y-164112615D01*
X224716289Y-164038064D01*
X224729843Y-163966135D01*
X224746660Y-163896821D01*
X224766470Y-163830114D01*
X224788999Y-163766008D01*
X224813975Y-163704497D01*
X224841128Y-163645574D01*
X224870184Y-163589233D01*
X224900873Y-163535466D01*
X224932921Y-163484268D01*
X224966057Y-163435631D01*
X225000009Y-163389550D01*
X225034505Y-163346017D01*
X225069273Y-163305026D01*
X225104041Y-163266570D01*
X225138538Y-163230643D01*
X225205626Y-163166350D01*
X225268362Y-163112092D01*
X225324572Y-163067817D01*
X225372077Y-163033473D01*
X225408704Y-163009007D01*
X225440616Y-162989497D01*
X225408704Y-162969987D01*
X225324572Y-162911177D01*
X225268362Y-162866903D01*
X225205626Y-162812645D01*
X225138538Y-162748351D01*
X225069273Y-162673968D01*
X225000009Y-162589445D01*
X224932921Y-162494727D01*
X224870184Y-162389762D01*
X224841128Y-162333420D01*
X224813975Y-162274498D01*
X224788999Y-162212987D01*
X224766470Y-162148881D01*
X224746660Y-162082174D01*
X224729843Y-162012859D01*
X224716289Y-161940930D01*
X224706271Y-161866380D01*
X224700061Y-161789203D01*
X224697931Y-161709391D01*
X224698893Y-161666277D01*
X224701612Y-161622536D01*
X224705837Y-161578640D01*
X224711317Y-161535058D01*
X224717801Y-161492261D01*
X224725038Y-161450718D01*
X224732777Y-161410900D01*
X224740767Y-161373277D01*
X224756495Y-161306497D01*
X224770216Y-161254140D01*
X224783603Y-161207740D01*
X225150474Y-161208799D01*
G37*
G36*
X228380804Y-160105961D02*
G01*
X228351145Y-160117074D01*
X228350420Y-160144167D01*
X228467932Y-160144167D01*
X228470514Y-160120832D01*
X228481266Y-160121890D01*
X228480542Y-160161154D01*
X228481266Y-160201213D01*
X228470514Y-160202377D01*
X228467932Y-160178246D01*
X228350420Y-160178246D01*
X228351145Y-160205657D01*
X228380804Y-160216399D01*
X228380804Y-160227881D01*
X228337809Y-160227881D01*
X228338598Y-160160094D01*
X228337809Y-160094848D01*
X228380804Y-160094848D01*
X228380804Y-160105961D01*
G37*
G36*
X231936433Y-169415373D02*
G01*
X231979068Y-169418079D01*
X232020596Y-169422554D01*
X232061013Y-169428766D01*
X232100317Y-169436687D01*
X232138506Y-169446285D01*
X232175577Y-169457532D01*
X232211526Y-169470396D01*
X232246353Y-169484849D01*
X232280053Y-169500860D01*
X232312624Y-169518399D01*
X232344064Y-169537436D01*
X232374370Y-169557942D01*
X232403539Y-169579886D01*
X232431569Y-169603238D01*
X232458458Y-169627969D01*
X232484201Y-169654048D01*
X232508797Y-169681446D01*
X232532244Y-169710133D01*
X232554538Y-169740078D01*
X232575677Y-169771252D01*
X232595658Y-169803625D01*
X232614479Y-169837166D01*
X232632137Y-169871846D01*
X232663953Y-169944504D01*
X232691086Y-170021357D01*
X232713514Y-170102166D01*
X232731216Y-170186692D01*
X232730205Y-170223542D01*
X232727206Y-170259687D01*
X232722269Y-170295096D01*
X232715444Y-170329740D01*
X232706782Y-170363588D01*
X232696333Y-170396609D01*
X232684147Y-170428774D01*
X232670275Y-170460050D01*
X232654767Y-170490408D01*
X232637674Y-170519818D01*
X232619045Y-170548248D01*
X232598931Y-170575669D01*
X232577382Y-170602049D01*
X232554450Y-170627359D01*
X232530183Y-170651567D01*
X232504633Y-170674644D01*
X232477849Y-170696558D01*
X232449883Y-170717280D01*
X232420784Y-170736779D01*
X232390602Y-170755023D01*
X232359389Y-170771984D01*
X232327194Y-170787630D01*
X232294068Y-170801930D01*
X232260061Y-170814855D01*
X232225223Y-170826373D01*
X232189605Y-170836454D01*
X232153257Y-170845069D01*
X232116230Y-170852185D01*
X232078573Y-170857773D01*
X232040337Y-170861802D01*
X232001573Y-170864242D01*
X231962331Y-170865062D01*
X231918060Y-170864154D01*
X231874960Y-170861447D01*
X231865430Y-170860430D01*
X231833032Y-170856973D01*
X231792272Y-170850760D01*
X231752681Y-170842840D01*
X231714256Y-170833242D01*
X231676998Y-170821996D01*
X231640903Y-170809132D01*
X231605972Y-170794680D01*
X231572203Y-170778669D01*
X231539595Y-170761130D01*
X231508146Y-170742093D01*
X231477855Y-170721587D01*
X231448722Y-170699643D01*
X231420744Y-170676291D01*
X231393922Y-170651560D01*
X231368252Y-170625480D01*
X231343735Y-170598081D01*
X231320369Y-170569394D01*
X231298152Y-170539448D01*
X231277084Y-170508273D01*
X231257164Y-170475900D01*
X231238389Y-170442357D01*
X231220759Y-170407675D01*
X231188930Y-170335014D01*
X231161665Y-170258156D01*
X231139882Y-170180639D01*
X231281298Y-170180639D01*
X231282029Y-170199661D01*
X231284199Y-170218114D01*
X231287778Y-170235994D01*
X231292735Y-170253299D01*
X231299040Y-170270028D01*
X231306660Y-170286178D01*
X231315566Y-170301746D01*
X231325726Y-170316732D01*
X231337109Y-170331131D01*
X231349685Y-170344943D01*
X231363423Y-170358164D01*
X231378291Y-170370794D01*
X231394258Y-170382828D01*
X231411294Y-170394267D01*
X231429369Y-170405106D01*
X231448449Y-170415344D01*
X231468506Y-170424979D01*
X231489508Y-170434008D01*
X231511424Y-170442429D01*
X231534223Y-170450240D01*
X231557874Y-170457440D01*
X231582346Y-170464025D01*
X231607608Y-170469993D01*
X231633630Y-170475342D01*
X231660380Y-170480070D01*
X231687828Y-170484175D01*
X231715943Y-170487655D01*
X231744692Y-170490507D01*
X231774047Y-170492729D01*
X231803975Y-170494319D01*
X231834446Y-170495274D01*
X231865430Y-170495593D01*
X231938232Y-170493700D01*
X232008773Y-170488116D01*
X232076717Y-170478983D01*
X232141727Y-170466443D01*
X232203467Y-170450638D01*
X232261603Y-170431710D01*
X232315796Y-170409801D01*
X232365712Y-170385053D01*
X232411013Y-170357608D01*
X232451365Y-170327608D01*
X232486431Y-170295195D01*
X232501877Y-170278127D01*
X232515875Y-170260510D01*
X232528384Y-170242361D01*
X232539361Y-170223697D01*
X232548765Y-170204537D01*
X232556553Y-170184897D01*
X232562683Y-170164796D01*
X232567114Y-170144252D01*
X232569804Y-170123282D01*
X232570709Y-170101904D01*
X232569979Y-170083149D01*
X232567809Y-170064929D01*
X232564230Y-170047250D01*
X232559273Y-170030115D01*
X232552968Y-170013528D01*
X232545348Y-169997492D01*
X232536442Y-169982012D01*
X232526282Y-169967091D01*
X232514898Y-169952734D01*
X232502323Y-169938944D01*
X232488585Y-169925726D01*
X232473717Y-169913082D01*
X232457749Y-169901017D01*
X232440713Y-169889535D01*
X232422638Y-169878640D01*
X232403557Y-169868335D01*
X232383500Y-169858625D01*
X232362498Y-169849513D01*
X232340582Y-169841003D01*
X232317782Y-169833099D01*
X232294130Y-169825806D01*
X232269658Y-169819126D01*
X232244394Y-169813064D01*
X232218371Y-169807623D01*
X232191620Y-169802808D01*
X232164171Y-169798623D01*
X232136056Y-169795070D01*
X232107305Y-169792155D01*
X232077949Y-169789881D01*
X232048019Y-169788252D01*
X232017546Y-169787272D01*
X231986561Y-169786944D01*
X231909273Y-169788903D01*
X231835402Y-169794668D01*
X231765166Y-169804071D01*
X231698781Y-169816943D01*
X231636464Y-169833115D01*
X231578430Y-169852419D01*
X231524896Y-169874687D01*
X231476079Y-169899749D01*
X231432194Y-169927438D01*
X231393459Y-169957584D01*
X231360089Y-169990020D01*
X231345484Y-170007044D01*
X231332302Y-170024576D01*
X231320569Y-170042597D01*
X231310312Y-170061085D01*
X231301560Y-170080019D01*
X231294338Y-170099377D01*
X231288674Y-170119140D01*
X231284594Y-170139285D01*
X231282127Y-170159791D01*
X231281298Y-170180639D01*
X231139882Y-170180639D01*
X231138955Y-170177341D01*
X231120791Y-170092807D01*
X231121802Y-170055958D01*
X231124802Y-170019814D01*
X231129741Y-169984405D01*
X231136569Y-169949762D01*
X231145237Y-169915915D01*
X231155694Y-169882895D01*
X231167892Y-169850731D01*
X231181779Y-169819456D01*
X231197307Y-169789099D01*
X231214426Y-169759690D01*
X231233085Y-169731261D01*
X231253236Y-169703842D01*
X231274827Y-169677462D01*
X231297810Y-169652154D01*
X231322135Y-169627947D01*
X231347752Y-169604871D01*
X231374610Y-169582958D01*
X231402661Y-169562237D01*
X231431855Y-169542739D01*
X231462141Y-169524496D01*
X231493471Y-169507536D01*
X231525793Y-169491892D01*
X231559059Y-169477592D01*
X231593219Y-169464668D01*
X231628222Y-169453151D01*
X231664020Y-169443070D01*
X231700562Y-169434456D01*
X231737798Y-169427340D01*
X231775679Y-169421752D01*
X231814155Y-169417724D01*
X231853176Y-169415284D01*
X231892692Y-169414464D01*
X231936433Y-169415373D01*
G37*
G36*
X229527794Y-157739847D02*
G01*
X229371113Y-157808162D01*
X229367557Y-158103860D01*
X229687972Y-158103860D01*
X229683258Y-157951883D01*
X229559586Y-157904788D01*
X229559586Y-157855310D01*
X229712732Y-157867058D01*
X229875287Y-157855310D01*
X229875287Y-157904788D01*
X229750414Y-157951883D01*
X229745704Y-158103860D01*
X230070872Y-158103860D01*
X230086171Y-157962521D01*
X230133256Y-157968395D01*
X230129784Y-158183976D01*
X230133256Y-158346536D01*
X230086171Y-158352411D01*
X230070872Y-158252293D01*
X229368737Y-158252293D01*
X229353439Y-158352411D01*
X229306332Y-158346536D01*
X229309825Y-158183976D01*
X229306332Y-157703335D01*
X229527794Y-157691588D01*
X229527794Y-157739847D01*
G37*
G36*
X232688821Y-156704483D02*
G01*
X232679726Y-157064844D01*
X232688821Y-157425205D01*
X232567692Y-157440393D01*
X232534349Y-157243543D01*
X231366113Y-157243543D01*
X231378247Y-157440393D01*
X231257052Y-157455527D01*
X231169263Y-157061828D01*
X231157151Y-156895247D01*
X232534349Y-156895247D01*
X232567691Y-156689295D01*
X232688821Y-156704483D01*
G37*
G36*
X229367557Y-164922489D02*
G01*
X230122673Y-165209932D01*
X230150951Y-165302960D01*
X229367557Y-165601040D01*
X229353439Y-165687029D01*
X229306332Y-165681103D01*
X229309825Y-165498540D01*
X229306332Y-165348945D01*
X229353439Y-165343071D01*
X229368737Y-165437263D01*
X229930643Y-165235810D01*
X230001335Y-165232317D01*
X229368737Y-165008479D01*
X229353439Y-165106269D01*
X229306332Y-165100343D01*
X229309825Y-164967256D01*
X229306332Y-164844754D01*
X229353439Y-164838828D01*
X229367557Y-164922489D01*
G37*
G36*
X230133256Y-165874144D02*
G01*
X230129785Y-166042630D01*
X230133256Y-166211063D01*
X230084949Y-166216937D01*
X230069655Y-166116818D01*
X229368737Y-166116818D01*
X229353439Y-166216937D01*
X229306332Y-166211063D01*
X229309825Y-166042630D01*
X229306332Y-165874144D01*
X229353439Y-165868270D01*
X229368737Y-165968388D01*
X230069655Y-165968388D01*
X230084949Y-165868270D01*
X230133256Y-165874144D01*
G37*
G36*
X232688821Y-157591841D02*
G01*
X232679726Y-157952203D01*
X232688821Y-158312565D01*
X232567691Y-158327699D01*
X232534349Y-158133918D01*
X230778590Y-158133918D01*
X230784670Y-158330714D01*
X230660480Y-158345849D01*
X230569612Y-157952203D01*
X230557499Y-157785621D01*
X232534349Y-157785621D01*
X232567691Y-157576653D01*
X232688821Y-157591841D01*
G37*
G36*
X228478393Y-160507337D02*
G01*
X227843102Y-160507337D01*
X227843102Y-160771496D01*
X228478393Y-160771496D01*
X228478393Y-160907280D01*
X227843102Y-160907280D01*
X227843102Y-161171441D01*
X228478393Y-161171441D01*
X228478393Y-161307171D01*
X227843102Y-161307171D01*
X227843102Y-161583449D01*
X228478393Y-161583449D01*
X228478393Y-161719179D01*
X227223855Y-161719179D01*
X227223855Y-162095100D01*
X228478393Y-162095100D01*
X228478393Y-162230832D01*
X227088124Y-162230832D01*
X227088124Y-161583447D01*
X227772447Y-161583447D01*
X227772447Y-161307170D01*
X227279576Y-161307170D01*
X227279576Y-161171438D01*
X227772447Y-161171438D01*
X227772447Y-160907279D01*
X227463240Y-160907279D01*
X227463240Y-160771495D01*
X227772447Y-160771495D01*
X227772447Y-160507335D01*
X227643548Y-160507335D01*
X227643548Y-160371606D01*
X228478393Y-160371606D01*
X228478393Y-160507337D01*
G37*
G36*
X226701490Y-161820731D02*
G01*
X226626092Y-161854453D01*
X226575718Y-161881004D01*
X226519494Y-161914544D01*
X226459371Y-161955471D01*
X226397297Y-162004184D01*
X226335223Y-162061078D01*
X226304796Y-162092718D01*
X226275099Y-162126553D01*
X226246378Y-162162632D01*
X226218876Y-162201006D01*
X226192835Y-162241723D01*
X226168502Y-162284833D01*
X226146118Y-162330387D01*
X226125927Y-162378433D01*
X226108175Y-162429023D01*
X226093103Y-162482204D01*
X226080957Y-162538027D01*
X226071979Y-162596542D01*
X226066413Y-162657799D01*
X226064504Y-162721846D01*
X226057136Y-162701322D01*
X226049627Y-162677033D01*
X226041081Y-162644607D01*
X226032632Y-162604956D01*
X226028798Y-162582706D01*
X226025414Y-162558990D01*
X226022621Y-162533924D01*
X226020560Y-162507621D01*
X226019375Y-162480194D01*
X226019207Y-162451759D01*
X226020389Y-162415036D01*
X226023141Y-162377769D01*
X226027727Y-162339976D01*
X226034412Y-162301680D01*
X226043460Y-162262899D01*
X226055136Y-162223654D01*
X226069704Y-162183967D01*
X226087430Y-162143856D01*
X226108577Y-162103344D01*
X226133411Y-162062449D01*
X226162196Y-162021192D01*
X226195196Y-161979594D01*
X226232677Y-161937675D01*
X226274903Y-161895456D01*
X226322138Y-161852956D01*
X226374648Y-161810197D01*
X226730090Y-161810197D01*
X226701490Y-161820731D01*
G37*
G36*
X226573192Y-161348078D02*
G01*
X226540193Y-161369734D01*
X226453195Y-161432702D01*
X226395071Y-161478740D01*
X226330198Y-161533983D01*
X226260825Y-161598054D01*
X226189202Y-161670578D01*
X226117579Y-161751182D01*
X226048206Y-161839489D01*
X225983333Y-161935126D01*
X225953287Y-161985576D01*
X225925209Y-162037717D01*
X225899382Y-162091503D01*
X225876085Y-162146888D01*
X225855602Y-162203823D01*
X225838212Y-162262263D01*
X225824196Y-162322160D01*
X225813837Y-162383467D01*
X225807415Y-162446139D01*
X225805212Y-162510127D01*
X225805881Y-162534422D01*
X225807831Y-162558441D01*
X225810977Y-162582151D01*
X225815233Y-162605520D01*
X225820514Y-162628514D01*
X225826734Y-162651103D01*
X225833808Y-162673252D01*
X225841650Y-162694931D01*
X225850176Y-162716106D01*
X225859300Y-162736745D01*
X225868936Y-162756815D01*
X225878999Y-162776285D01*
X225889404Y-162795121D01*
X225900065Y-162813291D01*
X225921814Y-162847504D01*
X225943563Y-162878664D01*
X225964629Y-162906512D01*
X225984328Y-162930787D01*
X226001978Y-162951232D01*
X226016895Y-162967584D01*
X226028395Y-162979586D01*
X226038416Y-162989499D01*
X226001978Y-163027767D01*
X225964629Y-163072487D01*
X225943563Y-163100334D01*
X225921814Y-163131495D01*
X225900065Y-163165707D01*
X225878999Y-163202714D01*
X225859300Y-163242253D01*
X225841650Y-163284067D01*
X225826734Y-163327896D01*
X225820514Y-163350484D01*
X225815233Y-163373479D01*
X225810977Y-163396847D01*
X225807831Y-163420557D01*
X225805881Y-163444576D01*
X225805212Y-163468871D01*
X225807415Y-163532860D01*
X225813837Y-163595531D01*
X225824196Y-163656839D01*
X225838212Y-163716736D01*
X225855602Y-163775175D01*
X225876085Y-163832111D01*
X225899382Y-163887495D01*
X225925209Y-163941281D01*
X225953287Y-163993423D01*
X225983333Y-164043872D01*
X226015066Y-164092583D01*
X226048206Y-164139509D01*
X226082471Y-164184602D01*
X226117579Y-164227817D01*
X226189202Y-164308420D01*
X226260825Y-164380945D01*
X226330198Y-164445016D01*
X226395071Y-164500258D01*
X226453195Y-164546297D01*
X226540193Y-164609265D01*
X226573192Y-164630920D01*
X226195737Y-164630920D01*
X226116668Y-164557136D01*
X226078369Y-164517153D01*
X226035622Y-164469285D01*
X225989911Y-164413897D01*
X225942716Y-164351355D01*
X225895522Y-164282023D01*
X225849810Y-164206267D01*
X225807064Y-164124451D01*
X225768765Y-164036940D01*
X225751746Y-163991163D01*
X225736396Y-163944100D01*
X225722898Y-163895795D01*
X225711440Y-163846295D01*
X225702205Y-163795645D01*
X225695379Y-163743891D01*
X225691147Y-163691078D01*
X225689696Y-163637252D01*
X225690443Y-163596374D01*
X225692621Y-163556891D01*
X225696135Y-163518798D01*
X225700889Y-163482087D01*
X225706788Y-163446752D01*
X225713737Y-163412787D01*
X225721639Y-163380185D01*
X225730400Y-163348941D01*
X225739924Y-163319046D01*
X225750116Y-163290496D01*
X225760881Y-163263284D01*
X225772122Y-163237403D01*
X225783745Y-163212847D01*
X225795654Y-163189609D01*
X225807754Y-163167684D01*
X225819950Y-163147064D01*
X225832145Y-163127744D01*
X225844245Y-163109716D01*
X225856155Y-163092975D01*
X225867778Y-163077514D01*
X225889783Y-163050407D01*
X225909500Y-163028343D01*
X225926163Y-163011272D01*
X225939010Y-162999141D01*
X225950204Y-162989498D01*
X225939010Y-162979855D01*
X225909500Y-162950653D01*
X225889783Y-162928590D01*
X225867778Y-162901482D01*
X225844245Y-162869281D01*
X225819950Y-162831933D01*
X225795654Y-162789387D01*
X225772122Y-162741594D01*
X225750116Y-162688501D01*
X225730400Y-162630056D01*
X225713737Y-162566210D01*
X225700889Y-162496910D01*
X225696135Y-162460199D01*
X225692621Y-162422106D01*
X225690443Y-162382623D01*
X225689696Y-162341746D01*
X225691147Y-162287919D01*
X225695379Y-162235106D01*
X225702205Y-162183352D01*
X225711440Y-162132702D01*
X225722898Y-162083202D01*
X225736396Y-162034897D01*
X225751746Y-161987834D01*
X225768765Y-161942057D01*
X225787266Y-161897613D01*
X225807064Y-161854546D01*
X225827974Y-161812904D01*
X225849810Y-161772730D01*
X225872388Y-161734072D01*
X225895522Y-161696974D01*
X225919027Y-161661482D01*
X225942716Y-161627642D01*
X225989911Y-161565100D01*
X226035622Y-161509712D01*
X226078369Y-161461845D01*
X226116668Y-161421862D01*
X226149037Y-161390128D01*
X226173993Y-161367010D01*
X226195737Y-161348077D01*
X226573192Y-161348077D01*
X226573192Y-161348078D01*
G37*
G36*
X232710050Y-168168753D02*
G01*
X232455615Y-168256557D01*
X232731216Y-168689627D01*
X232729701Y-168758343D01*
X232725058Y-168820473D01*
X232721517Y-168849161D01*
X232717140Y-168876314D01*
X232711907Y-168901968D01*
X232705801Y-168926162D01*
X232698804Y-168948932D01*
X232690896Y-168970316D01*
X232682061Y-168990350D01*
X232672278Y-169009071D01*
X232661531Y-169026518D01*
X232649801Y-169042726D01*
X232637070Y-169057733D01*
X232623318Y-169071577D01*
X232608529Y-169084294D01*
X232592684Y-169095921D01*
X232575765Y-169106496D01*
X232557752Y-169116055D01*
X232538629Y-169124637D01*
X232518376Y-169132277D01*
X232496976Y-169139014D01*
X232474409Y-169144883D01*
X232450659Y-169149923D01*
X232425706Y-169154171D01*
X232372121Y-169160437D01*
X232313506Y-169163979D01*
X232249716Y-169165094D01*
X231369130Y-169165094D01*
X231384259Y-169358922D01*
X231251020Y-169374030D01*
X231169263Y-168995490D01*
X231157151Y-168813796D01*
X232243638Y-168813796D01*
X232269973Y-168813082D01*
X232294480Y-168810921D01*
X232306054Y-168809291D01*
X232317177Y-168807288D01*
X232327852Y-168804911D01*
X232338082Y-168802156D01*
X232347868Y-168799019D01*
X232357212Y-168795497D01*
X232366118Y-168791588D01*
X232374586Y-168787286D01*
X232382620Y-168782590D01*
X232390221Y-168777496D01*
X232397392Y-168772000D01*
X232404135Y-168766099D01*
X232410452Y-168759791D01*
X232416346Y-168753070D01*
X232421818Y-168745935D01*
X232426871Y-168738382D01*
X232431506Y-168730407D01*
X232435728Y-168722007D01*
X232439536Y-168713180D01*
X232442934Y-168703920D01*
X232445925Y-168694226D01*
X232448509Y-168684094D01*
X232450689Y-168673521D01*
X232452469Y-168662502D01*
X232453848Y-168651036D01*
X232454831Y-168639118D01*
X232455615Y-168613914D01*
X232454919Y-168598342D01*
X232452884Y-168582309D01*
X232449590Y-168565849D01*
X232445117Y-168548999D01*
X232439544Y-168531795D01*
X232432951Y-168514270D01*
X232425417Y-168496462D01*
X232417023Y-168478405D01*
X232407848Y-168460135D01*
X232397972Y-168441687D01*
X232387474Y-168423097D01*
X232376434Y-168404401D01*
X232353048Y-168366830D01*
X232328451Y-168329259D01*
X232289094Y-168271713D01*
X231369130Y-168271713D01*
X231384259Y-168441294D01*
X231251020Y-168456444D01*
X231169263Y-168105146D01*
X231157151Y-167923430D01*
X232286013Y-167923430D01*
X232286013Y-167923431D01*
X232308433Y-167923255D01*
X232329189Y-167922733D01*
X232348392Y-167921875D01*
X232366152Y-167920688D01*
X232382581Y-167919183D01*
X232397788Y-167917366D01*
X232411886Y-167915249D01*
X232424984Y-167912838D01*
X232437194Y-167910144D01*
X232448627Y-167907174D01*
X232459393Y-167903939D01*
X232469604Y-167900446D01*
X232479370Y-167896704D01*
X232488801Y-167892723D01*
X232507106Y-167884077D01*
X232507106Y-167744779D01*
X232628235Y-167732666D01*
X232710050Y-168168753D01*
G37*
G36*
X232513142Y-162551664D02*
G01*
X232543770Y-162620155D01*
X232575891Y-162695803D01*
X232608441Y-162778070D01*
X232640354Y-162866413D01*
X232655738Y-162912695D01*
X232670563Y-162960293D01*
X232684696Y-163009140D01*
X232698003Y-163059169D01*
X232710351Y-163110311D01*
X232721608Y-163162499D01*
X232731639Y-163215666D01*
X232740311Y-163269744D01*
X232739213Y-163313160D01*
X232735922Y-163357045D01*
X232730449Y-163401280D01*
X232722803Y-163445742D01*
X232712991Y-163490311D01*
X232701023Y-163534865D01*
X232686908Y-163579283D01*
X232670655Y-163623444D01*
X232652273Y-163667226D01*
X232631770Y-163710508D01*
X232609155Y-163753170D01*
X232584438Y-163795090D01*
X232557626Y-163836146D01*
X232528730Y-163876218D01*
X232497758Y-163915185D01*
X232464718Y-163952924D01*
X232429621Y-163989315D01*
X232392473Y-164024237D01*
X232353286Y-164057568D01*
X232312066Y-164089188D01*
X232268824Y-164118974D01*
X232223568Y-164146807D01*
X232176307Y-164172564D01*
X232127050Y-164196124D01*
X232075805Y-164217367D01*
X232022583Y-164236170D01*
X231967390Y-164252413D01*
X231910237Y-164265975D01*
X231851133Y-164276734D01*
X231790086Y-164284569D01*
X231727104Y-164289359D01*
X231662198Y-164290982D01*
X231598222Y-164289537D01*
X231536119Y-164285249D01*
X231475882Y-164278191D01*
X231417505Y-164268436D01*
X231360982Y-164256055D01*
X231306306Y-164241121D01*
X231253469Y-164223707D01*
X231202466Y-164203885D01*
X231153291Y-164181728D01*
X231105936Y-164157307D01*
X231060394Y-164130696D01*
X231016660Y-164101966D01*
X230974727Y-164071190D01*
X230934588Y-164038441D01*
X230896237Y-164003790D01*
X230859667Y-163967311D01*
X230824871Y-163929075D01*
X230791843Y-163889156D01*
X230760577Y-163847625D01*
X230731065Y-163804555D01*
X230703301Y-163760018D01*
X230677279Y-163714087D01*
X230630434Y-163618331D01*
X230590476Y-163517867D01*
X230557354Y-163413275D01*
X230531013Y-163305132D01*
X230511403Y-163194020D01*
X230512854Y-163137616D01*
X230517052Y-163083124D01*
X230523761Y-163030543D01*
X230532746Y-162979875D01*
X230543772Y-162931120D01*
X230556603Y-162884280D01*
X230571005Y-162839354D01*
X230586742Y-162796345D01*
X230603579Y-162755252D01*
X230621282Y-162716077D01*
X230639614Y-162678820D01*
X230658341Y-162643483D01*
X230696039Y-162578569D01*
X230732494Y-162521343D01*
X231189748Y-162521343D01*
X231189748Y-162709144D01*
X230902097Y-162806035D01*
X230883706Y-162821252D01*
X230865023Y-162837469D01*
X230846252Y-162854828D01*
X230827596Y-162873469D01*
X230809261Y-162893534D01*
X230791450Y-162915164D01*
X230774366Y-162938498D01*
X230766161Y-162950850D01*
X230758215Y-162963680D01*
X230750552Y-162977007D01*
X230743199Y-162990849D01*
X230736181Y-163005222D01*
X230729524Y-163020146D01*
X230723252Y-163035637D01*
X230717393Y-163051713D01*
X230711970Y-163068391D01*
X230707010Y-163085690D01*
X230702537Y-163103627D01*
X230698579Y-163122219D01*
X230695159Y-163141484D01*
X230692304Y-163161440D01*
X230690039Y-163182105D01*
X230688390Y-163203495D01*
X230687381Y-163225629D01*
X230687039Y-163248524D01*
X230687969Y-163286817D01*
X230690751Y-163323906D01*
X230695374Y-163359791D01*
X230701826Y-163394471D01*
X230710098Y-163427946D01*
X230720177Y-163460214D01*
X230732053Y-163491275D01*
X230745714Y-163521128D01*
X230761150Y-163549771D01*
X230778349Y-163577205D01*
X230797300Y-163603429D01*
X230817993Y-163628441D01*
X230840416Y-163652241D01*
X230864557Y-163674828D01*
X230890407Y-163696201D01*
X230917954Y-163716360D01*
X230947186Y-163735303D01*
X230978093Y-163753030D01*
X231010664Y-163769540D01*
X231044887Y-163784832D01*
X231080751Y-163798905D01*
X231118246Y-163811759D01*
X231157360Y-163823393D01*
X231198083Y-163833805D01*
X231240402Y-163842996D01*
X231284308Y-163850963D01*
X231329788Y-163857708D01*
X231376832Y-163863227D01*
X231425429Y-163867522D01*
X231475568Y-163870590D01*
X231527237Y-163872432D01*
X231580426Y-163873046D01*
X231674255Y-163870710D01*
X231766789Y-163863612D01*
X231857371Y-163851622D01*
X231945345Y-163834610D01*
X232030054Y-163812443D01*
X232110842Y-163784991D01*
X232187052Y-163752123D01*
X232258027Y-163713708D01*
X232291346Y-163692379D01*
X232323111Y-163669614D01*
X232353239Y-163645397D01*
X232381647Y-163619711D01*
X232408255Y-163592540D01*
X232432979Y-163563867D01*
X232455739Y-163533676D01*
X232476451Y-163501951D01*
X232495033Y-163468676D01*
X232511405Y-163433833D01*
X232525482Y-163397407D01*
X232537185Y-163359381D01*
X232546429Y-163319739D01*
X232553134Y-163278464D01*
X232557217Y-163235540D01*
X232558596Y-163190951D01*
X232558307Y-163173638D01*
X232557454Y-163156889D01*
X232556057Y-163140686D01*
X232554138Y-163125008D01*
X232551718Y-163109836D01*
X232548818Y-163095152D01*
X232541661Y-163067167D01*
X232532837Y-163040900D01*
X232522513Y-163016195D01*
X232510859Y-162992899D01*
X232498042Y-162970857D01*
X232484231Y-162949915D01*
X232469594Y-162929920D01*
X232454299Y-162910715D01*
X232438516Y-162892149D01*
X232373863Y-162821169D01*
X232028646Y-162663690D01*
X232028646Y-162481973D01*
X232513142Y-162551664D01*
G37*
G36*
X231305524Y-167158113D02*
G01*
X232298147Y-167158113D01*
X232316198Y-167157609D01*
X232333919Y-167156067D01*
X232351195Y-167153443D01*
X232367910Y-167149692D01*
X232376022Y-167147380D01*
X232383951Y-167144770D01*
X232391682Y-167141856D01*
X232399201Y-167138632D01*
X232406493Y-167135094D01*
X232413545Y-167131235D01*
X232420341Y-167127050D01*
X232426868Y-167122533D01*
X232433111Y-167117679D01*
X232439055Y-167112483D01*
X232444687Y-167106938D01*
X232449991Y-167101039D01*
X232454954Y-167094781D01*
X232459561Y-167088158D01*
X232463797Y-167081164D01*
X232467649Y-167073794D01*
X232471101Y-167066043D01*
X232474140Y-167057905D01*
X232476751Y-167049374D01*
X232478919Y-167040444D01*
X232480631Y-167031111D01*
X232481871Y-167021368D01*
X232482626Y-167011211D01*
X232482881Y-167000633D01*
X232482651Y-166987541D01*
X232481972Y-166974737D01*
X232480857Y-166962192D01*
X232479322Y-166949875D01*
X232477380Y-166937758D01*
X232475046Y-166925811D01*
X232472335Y-166914004D01*
X232469261Y-166902307D01*
X232465838Y-166890692D01*
X232462082Y-166879129D01*
X232458005Y-166867588D01*
X232453623Y-166856039D01*
X232444002Y-166832802D01*
X232433333Y-166809180D01*
X232594378Y-166829024D01*
X232731216Y-167079373D01*
X232729920Y-167134576D01*
X232725958Y-167185542D01*
X232722943Y-167209465D01*
X232719219Y-167232365D01*
X232714774Y-167254251D01*
X232709593Y-167275137D01*
X232703662Y-167295033D01*
X232696967Y-167313951D01*
X232689495Y-167331904D01*
X232681232Y-167348902D01*
X232672164Y-167364957D01*
X232662276Y-167380081D01*
X232651556Y-167394286D01*
X232639989Y-167407583D01*
X232627562Y-167419984D01*
X232614260Y-167431501D01*
X232600070Y-167442145D01*
X232584977Y-167451927D01*
X232568969Y-167460860D01*
X232552030Y-167468955D01*
X232534148Y-167476224D01*
X232515308Y-167482678D01*
X232495497Y-167488329D01*
X232474700Y-167493189D01*
X232452904Y-167497269D01*
X232430095Y-167500582D01*
X232406259Y-167503138D01*
X232381382Y-167504949D01*
X232328451Y-167506384D01*
X231305524Y-167506384D01*
X231305524Y-167748991D01*
X231254036Y-167748991D01*
X231138942Y-167636941D01*
X231138942Y-167500325D01*
X230993585Y-167500325D01*
X230784670Y-167267164D01*
X230784670Y-167161130D01*
X231157151Y-167161130D01*
X231157151Y-166809180D01*
X231305524Y-166809180D01*
X231305524Y-167158113D01*
G37*
G36*
X231490261Y-159838364D02*
G01*
X231490261Y-160056698D01*
X231495030Y-160070741D01*
X231501336Y-160085541D01*
X231509079Y-160101006D01*
X231518163Y-160117042D01*
X231528490Y-160133557D01*
X231539963Y-160150457D01*
X231552484Y-160167650D01*
X231565954Y-160185041D01*
X231580278Y-160202539D01*
X231595357Y-160220049D01*
X231611093Y-160237479D01*
X231627388Y-160254737D01*
X231644147Y-160271727D01*
X231661269Y-160288359D01*
X231678659Y-160304538D01*
X231696218Y-160320171D01*
X231756744Y-160371659D01*
X232528335Y-160371659D01*
X232558596Y-160050666D01*
X232688821Y-160065801D01*
X232679726Y-160538241D01*
X232688821Y-160895588D01*
X232567691Y-160910722D01*
X232534349Y-160713873D01*
X231369130Y-160713873D01*
X231384259Y-160910722D01*
X231260074Y-160925857D01*
X231169263Y-160547343D01*
X231157151Y-160408014D01*
X231590157Y-160389864D01*
X231590157Y-160389861D01*
X231135926Y-160056698D01*
X231135926Y-159754226D01*
X231490261Y-159838364D01*
G37*
G36*
X224408044Y-161618747D02*
G01*
X224414957Y-161712727D01*
X224426108Y-161802940D01*
X224441195Y-161889433D01*
X224459915Y-161972252D01*
X224481966Y-162051443D01*
X224507044Y-162127054D01*
X224534847Y-162199131D01*
X224565071Y-162267720D01*
X224597416Y-162332867D01*
X224631576Y-162394620D01*
X224667251Y-162453024D01*
X224704136Y-162508126D01*
X224741930Y-162559972D01*
X224780329Y-162608610D01*
X224819031Y-162654085D01*
X224857733Y-162696444D01*
X224896132Y-162735733D01*
X224970811Y-162805289D01*
X225040646Y-162863124D01*
X225103215Y-162909610D01*
X225156096Y-162945118D01*
X225196866Y-162970021D01*
X225232389Y-162989497D01*
X225232389Y-162989498D01*
X225196866Y-163008974D01*
X225103215Y-163069385D01*
X225040646Y-163115871D01*
X224970811Y-163173706D01*
X224896132Y-163243262D01*
X224819031Y-163324910D01*
X224741930Y-163419023D01*
X224667251Y-163525971D01*
X224631576Y-163584376D01*
X224597416Y-163646128D01*
X224565071Y-163711276D01*
X224534847Y-163779864D01*
X224507044Y-163851941D01*
X224481966Y-163927552D01*
X224459915Y-164006744D01*
X224441195Y-164089563D01*
X224426108Y-164176056D01*
X224414957Y-164266269D01*
X224408044Y-164360249D01*
X224405672Y-164458041D01*
X224078965Y-164458041D01*
X224081908Y-164365356D01*
X224090486Y-164275835D01*
X224104323Y-164189465D01*
X224123044Y-164106230D01*
X224146273Y-164026116D01*
X224173635Y-163949108D01*
X224204753Y-163875193D01*
X224239253Y-163804354D01*
X224276758Y-163736579D01*
X224316892Y-163671851D01*
X224359281Y-163610157D01*
X224403548Y-163551482D01*
X224449318Y-163495811D01*
X224496214Y-163443130D01*
X224543862Y-163393424D01*
X224591886Y-163346679D01*
X224687558Y-163262012D01*
X224780224Y-163189012D01*
X224866880Y-163127563D01*
X224944520Y-163077549D01*
X225010137Y-163038851D01*
X225060728Y-163011355D01*
X225104808Y-162989498D01*
X225060728Y-162967641D01*
X224944520Y-162901447D01*
X224866880Y-162851432D01*
X224780224Y-162789983D01*
X224687558Y-162716984D01*
X224591886Y-162632317D01*
X224496214Y-162535866D01*
X224403548Y-162427514D01*
X224359281Y-162368839D01*
X224316892Y-162307145D01*
X224276758Y-162242417D01*
X224239253Y-162174642D01*
X224204753Y-162103803D01*
X224173635Y-162029888D01*
X224146273Y-161952880D01*
X224123044Y-161872766D01*
X224104323Y-161789531D01*
X224090486Y-161703161D01*
X224081908Y-161613640D01*
X224078965Y-161520955D01*
X224405672Y-161520955D01*
X224408044Y-161618747D01*
G37*
G36*
X232688821Y-165066952D02*
G01*
X232679726Y-165427314D01*
X232688821Y-165733173D01*
X232567691Y-165748359D01*
X232534349Y-165612046D01*
X231599275Y-165612046D01*
X231573503Y-165612823D01*
X231561303Y-165613787D01*
X231549556Y-165615130D01*
X231538259Y-165616848D01*
X231527411Y-165618938D01*
X231517008Y-165621395D01*
X231507047Y-165624215D01*
X231497525Y-165627394D01*
X231488440Y-165630929D01*
X231479788Y-165634816D01*
X231471568Y-165639050D01*
X231463776Y-165643628D01*
X231456410Y-165648547D01*
X231449466Y-165653801D01*
X231442942Y-165659387D01*
X231436835Y-165665301D01*
X231431142Y-165671540D01*
X231425861Y-165678099D01*
X231420988Y-165684975D01*
X231416522Y-165692163D01*
X231412458Y-165699660D01*
X231408795Y-165707461D01*
X231405529Y-165715564D01*
X231402658Y-165723963D01*
X231400179Y-165732656D01*
X231398088Y-165741637D01*
X231396385Y-165750904D01*
X231394125Y-165770278D01*
X231393376Y-165790746D01*
X231394105Y-165807423D01*
X231396231Y-165824494D01*
X231399659Y-165841927D01*
X231404298Y-165859691D01*
X231410055Y-165877757D01*
X231416835Y-165896092D01*
X231424547Y-165914666D01*
X231433097Y-165933449D01*
X231442393Y-165952409D01*
X231452341Y-165971515D01*
X231473821Y-166010044D01*
X231496795Y-166048789D01*
X231520519Y-166087503D01*
X231572012Y-166169311D01*
X232534349Y-166169311D01*
X232534349Y-166169312D01*
X232567691Y-166017865D01*
X232688821Y-166033000D01*
X232679726Y-166335841D01*
X232688821Y-166696203D01*
X232567691Y-166711390D01*
X232534349Y-166517557D01*
X230778590Y-166517557D01*
X230784670Y-166714407D01*
X230663497Y-166729541D01*
X230572628Y-166335841D01*
X230560515Y-166169312D01*
X231408505Y-166169312D01*
X231120792Y-165718039D01*
X231122347Y-165651521D01*
X231124323Y-165620697D01*
X231127127Y-165591448D01*
X231130780Y-165563736D01*
X231135305Y-165537525D01*
X231140723Y-165512776D01*
X231147055Y-165489452D01*
X231154323Y-165467518D01*
X231162549Y-165446934D01*
X231171755Y-165427665D01*
X231181961Y-165409673D01*
X231193190Y-165392921D01*
X231205463Y-165377371D01*
X231218802Y-165362987D01*
X231233228Y-165349732D01*
X231248764Y-165337567D01*
X231265430Y-165326457D01*
X231283249Y-165316364D01*
X231302242Y-165307250D01*
X231322430Y-165299080D01*
X231343836Y-165291814D01*
X231366480Y-165285417D01*
X231390386Y-165279851D01*
X231415573Y-165275079D01*
X231442064Y-165271064D01*
X231499044Y-165265155D01*
X231561499Y-165261828D01*
X231629601Y-165260785D01*
X232534349Y-165260785D01*
X232567691Y-165051818D01*
X232688821Y-165066952D01*
G37*
G36*
X228473572Y-163324406D02*
G01*
X228473572Y-163467598D01*
X228145325Y-163274770D01*
X228145325Y-163573274D01*
X228074676Y-163573274D01*
X228074676Y-163263870D01*
X227144321Y-163263870D01*
X227144321Y-163265087D01*
X226858254Y-163383038D01*
X226858254Y-163265087D01*
X226572186Y-163383038D01*
X226572186Y-163265087D01*
X226342369Y-163359808D01*
X226351226Y-163381647D01*
X226361417Y-163403052D01*
X226372834Y-163424004D01*
X226385372Y-163444487D01*
X226398926Y-163464484D01*
X226413389Y-163483978D01*
X226428656Y-163502952D01*
X226444620Y-163521390D01*
X226461177Y-163539274D01*
X226478219Y-163556587D01*
X226513339Y-163589434D01*
X226549133Y-163619796D01*
X226584754Y-163647536D01*
X226619355Y-163672520D01*
X226652091Y-163694612D01*
X226682113Y-163713677D01*
X226708575Y-163729579D01*
X226747434Y-163751354D01*
X226761892Y-163758853D01*
X226486196Y-163758853D01*
X226462148Y-163740291D01*
X226439980Y-163721100D01*
X226419620Y-163701361D01*
X226400994Y-163681153D01*
X226384030Y-163660556D01*
X226368652Y-163639651D01*
X226354789Y-163618516D01*
X226342367Y-163597233D01*
X226331313Y-163575879D01*
X226321554Y-163554537D01*
X226313016Y-163533284D01*
X226305625Y-163512202D01*
X226299310Y-163491370D01*
X226293996Y-163470868D01*
X226289610Y-163450775D01*
X226286079Y-163431172D01*
X226281289Y-163393755D01*
X226279039Y-163359253D01*
X226278744Y-163328307D01*
X226279817Y-163301556D01*
X226281672Y-163279637D01*
X226283722Y-163263189D01*
X226286066Y-163249265D01*
X226572186Y-163131313D01*
X226572186Y-163249265D01*
X226858254Y-163131313D01*
X226858254Y-163249265D01*
X227144321Y-163131313D01*
X227144321Y-163128138D01*
X228159528Y-163128138D01*
X228473572Y-163324406D01*
G37*
G36*
X228478393Y-163883894D02*
G01*
X227223855Y-163883894D01*
X227223855Y-164259814D01*
X228478393Y-164259814D01*
X228478393Y-164395598D01*
X227843102Y-164395598D01*
X227843102Y-164671823D01*
X228478393Y-164671823D01*
X228478393Y-164807607D01*
X227843102Y-164807607D01*
X227843102Y-165071714D01*
X228478393Y-165071714D01*
X228478393Y-165207499D01*
X227843102Y-165207499D01*
X227843102Y-165471659D01*
X228478393Y-165471659D01*
X228478393Y-165607390D01*
X227643547Y-165607390D01*
X227643547Y-165471659D01*
X227772447Y-165471659D01*
X227772447Y-165207499D01*
X227463239Y-165207499D01*
X227463239Y-165071715D01*
X227772447Y-165071715D01*
X227772447Y-164807608D01*
X227279576Y-164807608D01*
X227279576Y-164671823D01*
X227772447Y-164671823D01*
X227772447Y-164395599D01*
X227088124Y-164395599D01*
X227088124Y-163748162D01*
X228478393Y-163748162D01*
X228478393Y-163883894D01*
G37*
G36*
X231936433Y-158344693D02*
G01*
X231979068Y-158347400D01*
X232020596Y-158351874D01*
X232061013Y-158358087D01*
X232100317Y-158366008D01*
X232138506Y-158375606D01*
X232175577Y-158386853D01*
X232211526Y-158399718D01*
X232246353Y-158414171D01*
X232280053Y-158430182D01*
X232312624Y-158447722D01*
X232344064Y-158466760D01*
X232374370Y-158487266D01*
X232403539Y-158509211D01*
X232431569Y-158532564D01*
X232458458Y-158557296D01*
X232484201Y-158583377D01*
X232508797Y-158610776D01*
X232532244Y-158639464D01*
X232554538Y-158669410D01*
X232575677Y-158700586D01*
X232595658Y-158732960D01*
X232614479Y-158766503D01*
X232632137Y-158801185D01*
X232663953Y-158873846D01*
X232691086Y-158950704D01*
X232713514Y-159031518D01*
X232731216Y-159116050D01*
X232730205Y-159152900D01*
X232727206Y-159189045D01*
X232722269Y-159224454D01*
X232715444Y-159259098D01*
X232706782Y-159292946D01*
X232696333Y-159325966D01*
X232684147Y-159358129D01*
X232670275Y-159389405D01*
X232654767Y-159419762D01*
X232637674Y-159449170D01*
X232619045Y-159477599D01*
X232598931Y-159505019D01*
X232577382Y-159531398D01*
X232554450Y-159556706D01*
X232530183Y-159580913D01*
X232504633Y-159603988D01*
X232477849Y-159625901D01*
X232449883Y-159646621D01*
X232420784Y-159666118D01*
X232390602Y-159684361D01*
X232359389Y-159701320D01*
X232327194Y-159716964D01*
X232294068Y-159731263D01*
X232260061Y-159744187D01*
X232225223Y-159755704D01*
X232189605Y-159765784D01*
X232153257Y-159774398D01*
X232116230Y-159781513D01*
X232078573Y-159787101D01*
X232040337Y-159791129D01*
X232001573Y-159793569D01*
X231962331Y-159794389D01*
X231918060Y-159793480D01*
X231874960Y-159790774D01*
X231865430Y-159789757D01*
X231833032Y-159786300D01*
X231792272Y-159780088D01*
X231752681Y-159772169D01*
X231714256Y-159762572D01*
X231676998Y-159751327D01*
X231640903Y-159738464D01*
X231605972Y-159724012D01*
X231572203Y-159708003D01*
X231539595Y-159690466D01*
X231508146Y-159671430D01*
X231477855Y-159650926D01*
X231448722Y-159628983D01*
X231420744Y-159605633D01*
X231393922Y-159580903D01*
X231368252Y-159554825D01*
X231343735Y-159527428D01*
X231320369Y-159498743D01*
X231298152Y-159468799D01*
X231277084Y-159437626D01*
X231257164Y-159405254D01*
X231238389Y-159371713D01*
X231220759Y-159337032D01*
X231188930Y-159264375D01*
X231161665Y-159187520D01*
X231139871Y-159109965D01*
X231281298Y-159109965D01*
X231282029Y-159128988D01*
X231284199Y-159147442D01*
X231287778Y-159165323D01*
X231292735Y-159182629D01*
X231299040Y-159199358D01*
X231306660Y-159215509D01*
X231315566Y-159231078D01*
X231325726Y-159246063D01*
X231337109Y-159260463D01*
X231349685Y-159274275D01*
X231363423Y-159287497D01*
X231378291Y-159300126D01*
X231394258Y-159312161D01*
X231411294Y-159323599D01*
X231429369Y-159334438D01*
X231448449Y-159344676D01*
X231468506Y-159354311D01*
X231489508Y-159363340D01*
X231511424Y-159371762D01*
X231534223Y-159379573D01*
X231557874Y-159386772D01*
X231582346Y-159393357D01*
X231607608Y-159399325D01*
X231633630Y-159404674D01*
X231660380Y-159409402D01*
X231687828Y-159413507D01*
X231715943Y-159416987D01*
X231744692Y-159419838D01*
X231774047Y-159422060D01*
X231803975Y-159423650D01*
X231834446Y-159424606D01*
X231865430Y-159424925D01*
X231938232Y-159423032D01*
X232008773Y-159417449D01*
X232076717Y-159408318D01*
X232141727Y-159395779D01*
X232203467Y-159379976D01*
X232261603Y-159361050D01*
X232315796Y-159339142D01*
X232365712Y-159314395D01*
X232411013Y-159286951D01*
X232451365Y-159256951D01*
X232486431Y-159224537D01*
X232501877Y-159207469D01*
X232515875Y-159189851D01*
X232528384Y-159171701D01*
X232539361Y-159153036D01*
X232548765Y-159133873D01*
X232556553Y-159114232D01*
X232562683Y-159094128D01*
X232567114Y-159073581D01*
X232569804Y-159052608D01*
X232570709Y-159031226D01*
X232569979Y-159012473D01*
X232567809Y-158994255D01*
X232564230Y-158976578D01*
X232559273Y-158959445D01*
X232552968Y-158942860D01*
X232545348Y-158926827D01*
X232536442Y-158911349D01*
X232526282Y-158896431D01*
X232514898Y-158882076D01*
X232502323Y-158868288D01*
X232488585Y-158855071D01*
X232473717Y-158842430D01*
X232457749Y-158830367D01*
X232440713Y-158818887D01*
X232422638Y-158807994D01*
X232403557Y-158797691D01*
X232383500Y-158787983D01*
X232362498Y-158778873D01*
X232340582Y-158770365D01*
X232317782Y-158762463D01*
X232294130Y-158755171D01*
X232269658Y-158748493D01*
X232244394Y-158742432D01*
X232218371Y-158736993D01*
X232191620Y-158732179D01*
X232164171Y-158727995D01*
X232136056Y-158724443D01*
X232107305Y-158721529D01*
X232077949Y-158719255D01*
X232048019Y-158717627D01*
X232017546Y-158716647D01*
X231986561Y-158716319D01*
X231909273Y-158718278D01*
X231835402Y-158724042D01*
X231765166Y-158733443D01*
X231698781Y-158746312D01*
X231636464Y-158762481D01*
X231578430Y-158781782D01*
X231524896Y-158804046D01*
X231476079Y-158829104D01*
X231432194Y-158856789D01*
X231393459Y-158886931D01*
X231360089Y-158919363D01*
X231345484Y-158936385D01*
X231332302Y-158953915D01*
X231320569Y-158971934D01*
X231310312Y-158990420D01*
X231301560Y-159009352D01*
X231294338Y-159028709D01*
X231288674Y-159048470D01*
X231284594Y-159068613D01*
X231282127Y-159089119D01*
X231281298Y-159109965D01*
X231139871Y-159109965D01*
X231138955Y-159106707D01*
X231120791Y-159022176D01*
X231121802Y-158985326D01*
X231124802Y-158949181D01*
X231129741Y-158913770D01*
X231136569Y-158879125D01*
X231145237Y-158845277D01*
X231155694Y-158812255D01*
X231167892Y-158780090D01*
X231181779Y-158748813D01*
X231197307Y-158718454D01*
X231214426Y-158689043D01*
X231233085Y-158660612D01*
X231253236Y-158633190D01*
X231274827Y-158606809D01*
X231297810Y-158581498D01*
X231322135Y-158557289D01*
X231347752Y-158534211D01*
X231374610Y-158512296D01*
X231402661Y-158491573D01*
X231431855Y-158472074D01*
X231462141Y-158453829D01*
X231493471Y-158436867D01*
X231525793Y-158421221D01*
X231559059Y-158406920D01*
X231593219Y-158393995D01*
X231628222Y-158382476D01*
X231664020Y-158372394D01*
X231700562Y-158363779D01*
X231737798Y-158356662D01*
X231775679Y-158351074D01*
X231814155Y-158347044D01*
X231853176Y-158344604D01*
X231892692Y-158343784D01*
X231936433Y-158344693D01*
G37*
G36*
X226708575Y-162249417D02*
G01*
X226652090Y-162284384D01*
X226619355Y-162306476D01*
X226584753Y-162331460D01*
X226549132Y-162359200D01*
X226513339Y-162389561D01*
X226478219Y-162422408D01*
X226444620Y-162457605D01*
X226428656Y-162476043D01*
X226413389Y-162495017D01*
X226398926Y-162514511D01*
X226385372Y-162534508D01*
X226372834Y-162554991D01*
X226361417Y-162575943D01*
X226351226Y-162597348D01*
X226342369Y-162619187D01*
X226572186Y-162713909D01*
X226572186Y-162596009D01*
X226858254Y-162713909D01*
X226858254Y-162596009D01*
X227144321Y-162713909D01*
X227144321Y-162715125D01*
X228074676Y-162715124D01*
X228074676Y-162405721D01*
X228145325Y-162405721D01*
X228145325Y-162704223D01*
X228473572Y-162511396D01*
X228473572Y-162654589D01*
X228159528Y-162850857D01*
X227144321Y-162850857D01*
X227144321Y-162847682D01*
X226858254Y-162729730D01*
X226858254Y-162847682D01*
X226572186Y-162729730D01*
X226572186Y-162847682D01*
X226286066Y-162729730D01*
X226283722Y-162715806D01*
X226279817Y-162677439D01*
X226278744Y-162650687D01*
X226279039Y-162619741D01*
X226281289Y-162585240D01*
X226286079Y-162547823D01*
X226293995Y-162508127D01*
X226305625Y-162466793D01*
X226321553Y-162424458D01*
X226331313Y-162403116D01*
X226342367Y-162381763D01*
X226354789Y-162360479D01*
X226368652Y-162339345D01*
X226384029Y-162318439D01*
X226400994Y-162297843D01*
X226419620Y-162277635D01*
X226439980Y-162257896D01*
X226462148Y-162238705D01*
X226486196Y-162220143D01*
X226761892Y-162220143D01*
X226708575Y-162249417D01*
G37*
G36*
X223949426Y-162099805D02*
G01*
X223969796Y-162153892D01*
X223992861Y-162206440D01*
X224018411Y-162257434D01*
X224046235Y-162306858D01*
X224076122Y-162354694D01*
X224107860Y-162400929D01*
X224141240Y-162445545D01*
X224176049Y-162488528D01*
X224212077Y-162529860D01*
X224249113Y-162569526D01*
X224286945Y-162607510D01*
X224364158Y-162678369D01*
X224442026Y-162742310D01*
X224518863Y-162799205D01*
X224592979Y-162848927D01*
X224662689Y-162891349D01*
X224726303Y-162926343D01*
X224782134Y-162953782D01*
X224828494Y-162973539D01*
X224863695Y-162985486D01*
X224886050Y-162989497D01*
X224863695Y-162993508D01*
X224828494Y-163005455D01*
X224782134Y-163025212D01*
X224726303Y-163052652D01*
X224662689Y-163087646D01*
X224592979Y-163130067D01*
X224518863Y-163179789D01*
X224442026Y-163236684D01*
X224364158Y-163300625D01*
X224286945Y-163371484D01*
X224212077Y-163449135D01*
X224176049Y-163490467D01*
X224141240Y-163533449D01*
X224107860Y-163578066D01*
X224076122Y-163624300D01*
X224046235Y-163672137D01*
X224018411Y-163721561D01*
X223992861Y-163772555D01*
X223969796Y-163825103D01*
X223949426Y-163879191D01*
X223931963Y-163934801D01*
X223610388Y-163934801D01*
X223623011Y-163892399D01*
X223639214Y-163849843D01*
X223658796Y-163807232D01*
X223681554Y-163764663D01*
X223707285Y-163722235D01*
X223735787Y-163680047D01*
X223766858Y-163638197D01*
X223800295Y-163596783D01*
X223873458Y-163515657D01*
X223953657Y-163437457D01*
X224039273Y-163362969D01*
X224128686Y-163292981D01*
X224220279Y-163228279D01*
X224312430Y-163169651D01*
X224403522Y-163117883D01*
X224491934Y-163073763D01*
X224576048Y-163038077D01*
X224654244Y-163011613D01*
X224724904Y-162995157D01*
X224756902Y-162990929D01*
X224786408Y-162989497D01*
X224756902Y-162988066D01*
X224724904Y-162983837D01*
X224690617Y-162976909D01*
X224654244Y-162967381D01*
X224576048Y-162940917D01*
X224491934Y-162905231D01*
X224403522Y-162861111D01*
X224312430Y-162809343D01*
X224220279Y-162750715D01*
X224128686Y-162686013D01*
X224039273Y-162616025D01*
X223953657Y-162541537D01*
X223873458Y-162463337D01*
X223800295Y-162382212D01*
X223766858Y-162340798D01*
X223735787Y-162298947D01*
X223707285Y-162256759D01*
X223681554Y-162214332D01*
X223658796Y-162171763D01*
X223639214Y-162129152D01*
X223623011Y-162086596D01*
X223610388Y-162044195D01*
X223931963Y-162044195D01*
X223949426Y-162099805D01*
G37*
G36*
X229897174Y-162357988D02*
G01*
X229908329Y-162358783D01*
X229919331Y-162360117D01*
X229930176Y-162361998D01*
X229940859Y-162364432D01*
X229951377Y-162367427D01*
X229961725Y-162370991D01*
X229971900Y-162375130D01*
X229981897Y-162379853D01*
X229991712Y-162385166D01*
X230001340Y-162391077D01*
X230010779Y-162397593D01*
X230020024Y-162404722D01*
X230029070Y-162412471D01*
X230037914Y-162420847D01*
X230046552Y-162429857D01*
X230054979Y-162439510D01*
X230063191Y-162449812D01*
X230071185Y-162460770D01*
X230078955Y-162472393D01*
X230086499Y-162484687D01*
X230093811Y-162497659D01*
X230100889Y-162511318D01*
X230107727Y-162525670D01*
X230114322Y-162540723D01*
X230120669Y-162556485D01*
X230126765Y-162572961D01*
X230132605Y-162590161D01*
X230138185Y-162608091D01*
X230143502Y-162626758D01*
X230148550Y-162646171D01*
X230153326Y-162666335D01*
X230152957Y-162685280D01*
X230151865Y-162703687D01*
X230150072Y-162721573D01*
X230147601Y-162738952D01*
X230144474Y-162755840D01*
X230140713Y-162772254D01*
X230136342Y-162788209D01*
X230131382Y-162803720D01*
X230125855Y-162818803D01*
X230119785Y-162833474D01*
X230113194Y-162847749D01*
X230106104Y-162861642D01*
X230098538Y-162875170D01*
X230090518Y-162888349D01*
X230082066Y-162901194D01*
X230073206Y-162913720D01*
X229900009Y-162939650D01*
X229900009Y-162848950D01*
X230003736Y-162808893D01*
X230003737Y-162808893D01*
X230011578Y-162801766D01*
X230019189Y-162794114D01*
X230026530Y-162785963D01*
X230033565Y-162777339D01*
X230040255Y-162768267D01*
X230046562Y-162758774D01*
X230052448Y-162748885D01*
X230057876Y-162738626D01*
X230062808Y-162728023D01*
X230067204Y-162717101D01*
X230071029Y-162705887D01*
X230074243Y-162694407D01*
X230076809Y-162682685D01*
X230078689Y-162670749D01*
X230079845Y-162658623D01*
X230080139Y-162652497D01*
X230080238Y-162646333D01*
X230080074Y-162637821D01*
X230079583Y-162629519D01*
X230078773Y-162621433D01*
X230077649Y-162613565D01*
X230076216Y-162605921D01*
X230074479Y-162598503D01*
X230072445Y-162591316D01*
X230070120Y-162584364D01*
X230067507Y-162577649D01*
X230064615Y-162571177D01*
X230061447Y-162564951D01*
X230058009Y-162558976D01*
X230054308Y-162553253D01*
X230050348Y-162547789D01*
X230046136Y-162542586D01*
X230041676Y-162537649D01*
X230036975Y-162532980D01*
X230032038Y-162528585D01*
X230026871Y-162524467D01*
X230021479Y-162520630D01*
X230015868Y-162517078D01*
X230010044Y-162513814D01*
X230004011Y-162510843D01*
X229997777Y-162508168D01*
X229991345Y-162505793D01*
X229984723Y-162503723D01*
X229977915Y-162501960D01*
X229970927Y-162500509D01*
X229963765Y-162499374D01*
X229956435Y-162498558D01*
X229948941Y-162498066D01*
X229941290Y-162497901D01*
X229934843Y-162498032D01*
X229928539Y-162498421D01*
X229922376Y-162499066D01*
X229916351Y-162499963D01*
X229910463Y-162501108D01*
X229904709Y-162502498D01*
X229899087Y-162504130D01*
X229893596Y-162506000D01*
X229888232Y-162508104D01*
X229882994Y-162510440D01*
X229877879Y-162513004D01*
X229872886Y-162515791D01*
X229868012Y-162518800D01*
X229863255Y-162522026D01*
X229858613Y-162525465D01*
X229854084Y-162529115D01*
X229845355Y-162537033D01*
X229837051Y-162545751D01*
X229829155Y-162555241D01*
X229821649Y-162565477D01*
X229814517Y-162576429D01*
X229807740Y-162588071D01*
X229801303Y-162600375D01*
X229795186Y-162613313D01*
X229729189Y-162755871D01*
X229721274Y-162772590D01*
X229712953Y-162788694D01*
X229704181Y-162804118D01*
X229694910Y-162818798D01*
X229685095Y-162832671D01*
X229674687Y-162845673D01*
X229663640Y-162857740D01*
X229651909Y-162868807D01*
X229645772Y-162873947D01*
X229639446Y-162878812D01*
X229632925Y-162883396D01*
X229626204Y-162887690D01*
X229619277Y-162891687D01*
X229612137Y-162895378D01*
X229604780Y-162898755D01*
X229597199Y-162901811D01*
X229589388Y-162904537D01*
X229581342Y-162906925D01*
X229573054Y-162908968D01*
X229564520Y-162910658D01*
X229555732Y-162911985D01*
X229546686Y-162912944D01*
X229537375Y-162913525D01*
X229527794Y-162913720D01*
X229516641Y-162913417D01*
X229505716Y-162912510D01*
X229495021Y-162911002D01*
X229484555Y-162908898D01*
X229474318Y-162906199D01*
X229464311Y-162902911D01*
X229454535Y-162899036D01*
X229444990Y-162894578D01*
X229435676Y-162889539D01*
X229426594Y-162883925D01*
X229417744Y-162877737D01*
X229409127Y-162870981D01*
X229400743Y-162863658D01*
X229392592Y-162855772D01*
X229384675Y-162847328D01*
X229376992Y-162838327D01*
X229369544Y-162828775D01*
X229362332Y-162818674D01*
X229355355Y-162808027D01*
X229348613Y-162796839D01*
X229342109Y-162785112D01*
X229335841Y-162772850D01*
X229329810Y-162760057D01*
X229324017Y-162746735D01*
X229318463Y-162732889D01*
X229313146Y-162718522D01*
X229303231Y-162688238D01*
X229294275Y-162655910D01*
X229286282Y-162621567D01*
X229286583Y-162606685D01*
X229287478Y-162591658D01*
X229288953Y-162576536D01*
X229290994Y-162561370D01*
X229293587Y-162546211D01*
X229296718Y-162531107D01*
X229300374Y-162516109D01*
X229304541Y-162501268D01*
X229309204Y-162486633D01*
X229314350Y-162472255D01*
X229319966Y-162458184D01*
X229326036Y-162444469D01*
X229332549Y-162431162D01*
X229339489Y-162418312D01*
X229346843Y-162405970D01*
X229354597Y-162394185D01*
X229524237Y-162394185D01*
X229524237Y-162463718D01*
X229417039Y-162497901D01*
X229410931Y-162503752D01*
X229404993Y-162509852D01*
X229399254Y-162516228D01*
X229393746Y-162522910D01*
X229388499Y-162529924D01*
X229383546Y-162537297D01*
X229378917Y-162545057D01*
X229374643Y-162553232D01*
X229370756Y-162561849D01*
X229368967Y-162566332D01*
X229367286Y-162570936D01*
X229365717Y-162575664D01*
X229364264Y-162580520D01*
X229362932Y-162585507D01*
X229361723Y-162590628D01*
X229360641Y-162595888D01*
X229359691Y-162601289D01*
X229358877Y-162606835D01*
X229358202Y-162612530D01*
X229357670Y-162618376D01*
X229357286Y-162624377D01*
X229357052Y-162630538D01*
X229356973Y-162636860D01*
X229357114Y-162645143D01*
X229357533Y-162653203D01*
X229358225Y-162661037D01*
X229359186Y-162668642D01*
X229360409Y-162676016D01*
X229361891Y-162683157D01*
X229363627Y-162690061D01*
X229365610Y-162696726D01*
X229367837Y-162703150D01*
X229370302Y-162709329D01*
X229373001Y-162715262D01*
X229375928Y-162720945D01*
X229379079Y-162726376D01*
X229382448Y-162731553D01*
X229386031Y-162736473D01*
X229389822Y-162741133D01*
X229393816Y-162745531D01*
X229398010Y-162749664D01*
X229402396Y-162753529D01*
X229406972Y-162757124D01*
X229411731Y-162760447D01*
X229416669Y-162763494D01*
X229421780Y-162766263D01*
X229427060Y-162768752D01*
X229432504Y-162770958D01*
X229438106Y-162772878D01*
X229443863Y-162774510D01*
X229449768Y-162775851D01*
X229455817Y-162776898D01*
X229462004Y-162777650D01*
X229468326Y-162778103D01*
X229474776Y-162778254D01*
X229480236Y-162778134D01*
X229485573Y-162777776D01*
X229490791Y-162777185D01*
X229495891Y-162776363D01*
X229500876Y-162775316D01*
X229505747Y-162774046D01*
X229510507Y-162772558D01*
X229515158Y-162770856D01*
X229519702Y-162768943D01*
X229524141Y-162766823D01*
X229528478Y-162764501D01*
X229532714Y-162761980D01*
X229536852Y-162759263D01*
X229540894Y-162756356D01*
X229544842Y-162753261D01*
X229548698Y-162749983D01*
X229556142Y-162742892D01*
X229563245Y-162735114D01*
X229570023Y-162726680D01*
X229576494Y-162717621D01*
X229582674Y-162707968D01*
X229588581Y-162697752D01*
X229594232Y-162687003D01*
X229599644Y-162675754D01*
X229664425Y-162532032D01*
X229674242Y-162512010D01*
X229684290Y-162493043D01*
X229694634Y-162475167D01*
X229705339Y-162458414D01*
X229716471Y-162442822D01*
X229728096Y-162428423D01*
X229740280Y-162415252D01*
X229753087Y-162403345D01*
X229759745Y-162397877D01*
X229766583Y-162392736D01*
X229773610Y-162387929D01*
X229780834Y-162383460D01*
X229788264Y-162379332D01*
X229795906Y-162375551D01*
X229803771Y-162372119D01*
X229811864Y-162369043D01*
X229820196Y-162366326D01*
X229828774Y-162363972D01*
X229837607Y-162361986D01*
X229846701Y-162360372D01*
X229856067Y-162359135D01*
X229865711Y-162358278D01*
X229875643Y-162357807D01*
X229885870Y-162357725D01*
X229897174Y-162357988D01*
G37*
G36*
X229527794Y-161000889D02*
G01*
X229371112Y-161056294D01*
X229368737Y-161218852D01*
X230070872Y-161218852D01*
X230086171Y-161088096D01*
X230133256Y-161093970D01*
X230129785Y-161293042D01*
X230133256Y-161496825D01*
X230086171Y-161502751D01*
X230070872Y-161367285D01*
X229368737Y-161367285D01*
X229371112Y-161529844D01*
X229527794Y-161586413D01*
X229527794Y-161638218D01*
X229306332Y-161638218D01*
X229309824Y-161290714D01*
X229306332Y-160947919D01*
X229527794Y-160947919D01*
X229527794Y-161000889D01*
G37*
G36*
X228350832Y-159898792D02*
G01*
X228467932Y-159898792D01*
X228470514Y-159882494D01*
X228481266Y-159883605D01*
X228480541Y-159915090D01*
X228481266Y-159947686D01*
X228470514Y-159948850D01*
X228467932Y-159931758D01*
X228374502Y-159931758D01*
X228349695Y-159928477D01*
X228480912Y-159979595D01*
X228480912Y-160000337D01*
X228376359Y-160043358D01*
X228351144Y-160049654D01*
X228467932Y-160049654D01*
X228470514Y-160032933D01*
X228481266Y-160034097D01*
X228480541Y-160058174D01*
X228481266Y-160082251D01*
X228470514Y-160083367D01*
X228467932Y-160066699D01*
X228350832Y-160066699D01*
X228348250Y-160083738D01*
X228337809Y-160082627D01*
X228338598Y-160061831D01*
X228337809Y-160025583D01*
X228437547Y-159984042D01*
X228455697Y-159984042D01*
X228337809Y-159938057D01*
X228338598Y-159907683D01*
X228337809Y-159883235D01*
X228348250Y-159882124D01*
X228350832Y-159898792D01*
G37*
G36*
X232731216Y-161441313D02*
G01*
X232470746Y-161538258D01*
X232731216Y-161892587D01*
X232729456Y-161942169D01*
X232724231Y-161989741D01*
X232720346Y-162012723D01*
X232715626Y-162035140D01*
X232710082Y-162056973D01*
X232703725Y-162078201D01*
X232696565Y-162098804D01*
X232688612Y-162118760D01*
X232679878Y-162138051D01*
X232670372Y-162156654D01*
X232660105Y-162174549D01*
X232649088Y-162191717D01*
X232637332Y-162208136D01*
X232624846Y-162223786D01*
X232611641Y-162238646D01*
X232597728Y-162252697D01*
X232583118Y-162265917D01*
X232567820Y-162278285D01*
X232551846Y-162289782D01*
X232535205Y-162300387D01*
X232517910Y-162310079D01*
X232499969Y-162318839D01*
X232481393Y-162326644D01*
X232462194Y-162333475D01*
X232442382Y-162339312D01*
X232421966Y-162344133D01*
X232400958Y-162347919D01*
X232379368Y-162350648D01*
X232357207Y-162352301D01*
X232334486Y-162352857D01*
X232312688Y-162352329D01*
X232292112Y-162350804D01*
X232291562Y-162350764D01*
X232271066Y-162348188D01*
X232251160Y-162344627D01*
X232231805Y-162340109D01*
X232212960Y-162334659D01*
X232194586Y-162328305D01*
X232176642Y-162321073D01*
X232159088Y-162312989D01*
X232141885Y-162304081D01*
X232124991Y-162294374D01*
X232108368Y-162283896D01*
X232091974Y-162272673D01*
X232075771Y-162260731D01*
X232059718Y-162248097D01*
X232043774Y-162234798D01*
X231822684Y-161556408D01*
X231949890Y-161556408D01*
X232107380Y-161941007D01*
X232116711Y-161949212D01*
X232126502Y-161956790D01*
X232136719Y-161963756D01*
X232147325Y-161970121D01*
X232158286Y-161975901D01*
X232169565Y-161981108D01*
X232181128Y-161985755D01*
X232192940Y-161989856D01*
X232204964Y-161993424D01*
X232217165Y-161996473D01*
X232229508Y-161999017D01*
X232241958Y-162001067D01*
X232254478Y-162002639D01*
X232267034Y-162003745D01*
X232279591Y-162004399D01*
X232292112Y-162004614D01*
X232306022Y-162004368D01*
X232319372Y-162003643D01*
X232332171Y-162002454D01*
X232344425Y-162000818D01*
X232356142Y-161998751D01*
X232367330Y-161996272D01*
X232377998Y-161993395D01*
X232388151Y-161990138D01*
X232397800Y-161986517D01*
X232406950Y-161982549D01*
X232415611Y-161978251D01*
X232423789Y-161973639D01*
X232431492Y-161968730D01*
X232438729Y-161963540D01*
X232445506Y-161958086D01*
X232451833Y-161952385D01*
X232457716Y-161946453D01*
X232463163Y-161940307D01*
X232468182Y-161933964D01*
X232472781Y-161927440D01*
X232476967Y-161920751D01*
X232480748Y-161913916D01*
X232487128Y-161899868D01*
X232491983Y-161885429D01*
X232495373Y-161870733D01*
X232497362Y-161855912D01*
X232498011Y-161841100D01*
X232497528Y-161827047D01*
X232496136Y-161813295D01*
X232493919Y-161799863D01*
X232490961Y-161786769D01*
X232487346Y-161774029D01*
X232483160Y-161761662D01*
X232478485Y-161749686D01*
X232473408Y-161738118D01*
X232468010Y-161726976D01*
X232462378Y-161716278D01*
X232456595Y-161706041D01*
X232450746Y-161696284D01*
X232439186Y-161678277D01*
X232428372Y-161662401D01*
X232355714Y-161556408D01*
X231949890Y-161556408D01*
X231822684Y-161556408D01*
X231822684Y-161556407D01*
X231575028Y-161556407D01*
X231542100Y-161556780D01*
X231511424Y-161557974D01*
X231482982Y-161560099D01*
X231456756Y-161563266D01*
X231432729Y-161567587D01*
X231410884Y-161573173D01*
X231391202Y-161580133D01*
X231382168Y-161584164D01*
X231373667Y-161588580D01*
X231365699Y-161593396D01*
X231358261Y-161598625D01*
X231351350Y-161604281D01*
X231344965Y-161610378D01*
X231339104Y-161616929D01*
X231333764Y-161623950D01*
X231328943Y-161631453D01*
X231324638Y-161639453D01*
X231320849Y-161647963D01*
X231317571Y-161656997D01*
X231314804Y-161666569D01*
X231312545Y-161676694D01*
X231310792Y-161687384D01*
X231309542Y-161698654D01*
X231308545Y-161722989D01*
X231308824Y-161737276D01*
X231309640Y-161751729D01*
X231310962Y-161766299D01*
X231312759Y-161780936D01*
X231315000Y-161795593D01*
X231317653Y-161810220D01*
X231320688Y-161824767D01*
X231324073Y-161839187D01*
X231327778Y-161853430D01*
X231331770Y-161867448D01*
X231340495Y-161894610D01*
X231349999Y-161920283D01*
X231360033Y-161944075D01*
X231623500Y-161992494D01*
X231623500Y-162304437D01*
X231369130Y-162304437D01*
X231120792Y-161722989D01*
X231122039Y-161650795D01*
X231125944Y-161585091D01*
X231132751Y-161525625D01*
X231137318Y-161498153D01*
X231142703Y-161472145D01*
X231148934Y-161447570D01*
X231156044Y-161424397D01*
X231164062Y-161402594D01*
X231173018Y-161382129D01*
X231182944Y-161362970D01*
X231193870Y-161345087D01*
X231205826Y-161328446D01*
X231218843Y-161313018D01*
X231232951Y-161298769D01*
X231248181Y-161285669D01*
X231264563Y-161273686D01*
X231282128Y-161262788D01*
X231300906Y-161252944D01*
X231320928Y-161244121D01*
X231342224Y-161236289D01*
X231364824Y-161229416D01*
X231388760Y-161223470D01*
X231414062Y-161218419D01*
X231468884Y-161210877D01*
X231529535Y-161206537D01*
X231596258Y-161205147D01*
X232340522Y-161205147D01*
X232363504Y-161204935D01*
X232384817Y-161204306D01*
X232404569Y-161203268D01*
X232422865Y-161201830D01*
X232439813Y-161200001D01*
X232455518Y-161197791D01*
X232470087Y-161195208D01*
X232483627Y-161192262D01*
X232496243Y-161188961D01*
X232508043Y-161185314D01*
X232519132Y-161181330D01*
X232529618Y-161177019D01*
X232539606Y-161172388D01*
X232549203Y-161167449D01*
X232567650Y-161156675D01*
X232567650Y-161008297D01*
X232688821Y-160993110D01*
X232731216Y-161441313D01*
G37*
G36*
X229368737Y-167513533D02*
G01*
X229839939Y-167513533D01*
X229868279Y-167514292D01*
X229895435Y-167516674D01*
X229921412Y-167520841D01*
X229933959Y-167523644D01*
X229946212Y-167526953D01*
X229958172Y-167530789D01*
X229969839Y-167535170D01*
X229981213Y-167540118D01*
X229992296Y-167545653D01*
X230003087Y-167551794D01*
X230013588Y-167558562D01*
X230023797Y-167565976D01*
X230033717Y-167574058D01*
X230043347Y-167582825D01*
X230052687Y-167592300D01*
X230061739Y-167602501D01*
X230070502Y-167613450D01*
X230078977Y-167625165D01*
X230087165Y-167637667D01*
X230095066Y-167650976D01*
X230102680Y-167665113D01*
X230110008Y-167680096D01*
X230117050Y-167695947D01*
X230123807Y-167712685D01*
X230130279Y-167730330D01*
X230136466Y-167748903D01*
X230142370Y-167768423D01*
X230147990Y-167788910D01*
X230153327Y-167810385D01*
X230152960Y-167833111D01*
X230151866Y-167854910D01*
X230150057Y-167875798D01*
X230147545Y-167895787D01*
X230144342Y-167914891D01*
X230140460Y-167933123D01*
X230135910Y-167950497D01*
X230130705Y-167967025D01*
X230124856Y-167982722D01*
X230118375Y-167997600D01*
X230111275Y-168011673D01*
X230103566Y-168024955D01*
X230095260Y-168037458D01*
X230086371Y-168049197D01*
X230076909Y-168060184D01*
X230066886Y-168070432D01*
X230056314Y-168079956D01*
X230045205Y-168088769D01*
X230033572Y-168096884D01*
X230021424Y-168104314D01*
X230008776Y-168111072D01*
X229995638Y-168117173D01*
X229982022Y-168122629D01*
X229967940Y-168127455D01*
X229953404Y-168131662D01*
X229938427Y-168135265D01*
X229907192Y-168140712D01*
X229874331Y-168143901D01*
X229839939Y-168144940D01*
X229368737Y-168144940D01*
X229353439Y-168245085D01*
X229306332Y-168239196D01*
X229309825Y-168077800D01*
X229306332Y-167904646D01*
X229353439Y-167898751D01*
X229368737Y-167991810D01*
X229850523Y-167991810D01*
X229876762Y-167991090D01*
X229901559Y-167988922D01*
X229924879Y-167985294D01*
X229946688Y-167980194D01*
X229957015Y-167977089D01*
X229966951Y-167973610D01*
X229976492Y-167969758D01*
X229985634Y-167965530D01*
X229994372Y-167960926D01*
X230002701Y-167955942D01*
X230010619Y-167950579D01*
X230018119Y-167944834D01*
X230025198Y-167938706D01*
X230031853Y-167932194D01*
X230038077Y-167925295D01*
X230043867Y-167918009D01*
X230049219Y-167910334D01*
X230054128Y-167902269D01*
X230058590Y-167893811D01*
X230062601Y-167884960D01*
X230066156Y-167875714D01*
X230069252Y-167866071D01*
X230071883Y-167856030D01*
X230074045Y-167845590D01*
X230075734Y-167834748D01*
X230076946Y-167823504D01*
X230077676Y-167811856D01*
X230077921Y-167799802D01*
X230077676Y-167788589D01*
X230076945Y-167777703D01*
X230075731Y-167767144D01*
X230074038Y-167756916D01*
X230071869Y-167747020D01*
X230069229Y-167737459D01*
X230066120Y-167728233D01*
X230062547Y-167719345D01*
X230058513Y-167710797D01*
X230054022Y-167702591D01*
X230049077Y-167694729D01*
X230043683Y-167687212D01*
X230037843Y-167680044D01*
X230031560Y-167673225D01*
X230024839Y-167666757D01*
X230017682Y-167660643D01*
X230010095Y-167654885D01*
X230002080Y-167649484D01*
X229993640Y-167644442D01*
X229984781Y-167639762D01*
X229975505Y-167635445D01*
X229965816Y-167631493D01*
X229955718Y-167627908D01*
X229945214Y-167624693D01*
X229934309Y-167621848D01*
X229923005Y-167619376D01*
X229911307Y-167617280D01*
X229899219Y-167615560D01*
X229886743Y-167614219D01*
X229873883Y-167613258D01*
X229860644Y-167612681D01*
X229847029Y-167612488D01*
X229368737Y-167612488D01*
X229353439Y-167714993D01*
X229353439Y-167714992D01*
X229306332Y-167709081D01*
X229309825Y-167558306D01*
X229306332Y-167421654D01*
X229353439Y-167415743D01*
X229368737Y-167513533D01*
G37*
G36*
X225976246Y-161112072D02*
G01*
X225928660Y-161160993D01*
X225875515Y-161219482D01*
X225818642Y-161287063D01*
X225759869Y-161363261D01*
X225701028Y-161447599D01*
X225643947Y-161539603D01*
X225590459Y-161638797D01*
X225542391Y-161744704D01*
X225520962Y-161800027D01*
X225501575Y-161856850D01*
X225484458Y-161915113D01*
X225469840Y-161974758D01*
X225457950Y-162035725D01*
X225449016Y-162097954D01*
X225443268Y-162161386D01*
X225440934Y-162225961D01*
X225441808Y-162270421D01*
X225444622Y-162313708D01*
X225449246Y-162355809D01*
X225455552Y-162396705D01*
X225463411Y-162436383D01*
X225472693Y-162474826D01*
X225483269Y-162512019D01*
X225495012Y-162547945D01*
X225507791Y-162582590D01*
X225521477Y-162615937D01*
X225535942Y-162647971D01*
X225551056Y-162678675D01*
X225566691Y-162708035D01*
X225582717Y-162736035D01*
X225599005Y-162762659D01*
X225615427Y-162787890D01*
X225631853Y-162811715D01*
X225648155Y-162834116D01*
X225679867Y-162874585D01*
X225709533Y-162909174D01*
X225736120Y-162937755D01*
X225758595Y-162960203D01*
X225775927Y-162976394D01*
X225791031Y-162989497D01*
X225775927Y-163002600D01*
X225736120Y-163041238D01*
X225709533Y-163069819D01*
X225679867Y-163104408D01*
X225648154Y-163144877D01*
X225615427Y-163191102D01*
X225582716Y-163242958D01*
X225551056Y-163300317D01*
X225521477Y-163363056D01*
X225495012Y-163431047D01*
X225472693Y-163504166D01*
X225463410Y-163542609D01*
X225455552Y-163582287D01*
X225449246Y-163623184D01*
X225444622Y-163665284D01*
X225441808Y-163708572D01*
X225440934Y-163753030D01*
X225443268Y-163817605D01*
X225449016Y-163881037D01*
X225457950Y-163943266D01*
X225469840Y-164004232D01*
X225484458Y-164063877D01*
X225501575Y-164122141D01*
X225520962Y-164178964D01*
X225542391Y-164234287D01*
X225565633Y-164288050D01*
X225590459Y-164340194D01*
X225616640Y-164390660D01*
X225643947Y-164439387D01*
X225672153Y-164486318D01*
X225701028Y-164531391D01*
X225730343Y-164574548D01*
X225759869Y-164615730D01*
X225818642Y-164691927D01*
X225875515Y-164759508D01*
X225928660Y-164817997D01*
X225976246Y-164866918D01*
X226016443Y-164905796D01*
X226047421Y-164934155D01*
X226074399Y-164957412D01*
X225619051Y-164957412D01*
X225564357Y-164882557D01*
X225508295Y-164792107D01*
X225476675Y-164734537D01*
X225444029Y-164669083D01*
X225411384Y-164596005D01*
X225379763Y-164515564D01*
X225350194Y-164428018D01*
X225323702Y-164333629D01*
X225301311Y-164232657D01*
X225284048Y-164125360D01*
X225272938Y-164012000D01*
X225269007Y-163892835D01*
X225270248Y-163838449D01*
X225273864Y-163785676D01*
X225279697Y-163734524D01*
X225287588Y-163684999D01*
X225297380Y-163637111D01*
X225308915Y-163590865D01*
X225322032Y-163546269D01*
X225336575Y-163503332D01*
X225352385Y-163462059D01*
X225369303Y-163422460D01*
X225387172Y-163384540D01*
X225405832Y-163348308D01*
X225425126Y-163313771D01*
X225444895Y-163280936D01*
X225464981Y-163249811D01*
X225485225Y-163220404D01*
X225505469Y-163192721D01*
X225525554Y-163166770D01*
X225564617Y-163120095D01*
X225601146Y-163080437D01*
X225633874Y-163047857D01*
X225661535Y-163022413D01*
X225682861Y-163004165D01*
X225701442Y-162989495D01*
X225682861Y-162974826D01*
X225633874Y-162931134D01*
X225601146Y-162898554D01*
X225564617Y-162858896D01*
X225525554Y-162812221D01*
X225485225Y-162758587D01*
X225444895Y-162698055D01*
X225405832Y-162630683D01*
X225369303Y-162556531D01*
X225336575Y-162475659D01*
X225322032Y-162432722D01*
X225308915Y-162388126D01*
X225297380Y-162341880D01*
X225287588Y-162293991D01*
X225279697Y-162244467D01*
X225273864Y-162193315D01*
X225270248Y-162140542D01*
X225269007Y-162086155D01*
X225270011Y-162025864D01*
X225272938Y-161966991D01*
X225277660Y-161909569D01*
X225284048Y-161853631D01*
X225291975Y-161799208D01*
X225301311Y-161746334D01*
X225311929Y-161695041D01*
X225323702Y-161645361D01*
X225336499Y-161597327D01*
X225350194Y-161550972D01*
X225364658Y-161506328D01*
X225379763Y-161463427D01*
X225395381Y-161422302D01*
X225411384Y-161382985D01*
X225427642Y-161345510D01*
X225444029Y-161309908D01*
X225476675Y-161244454D01*
X225508295Y-161186883D01*
X225537864Y-161137457D01*
X225564357Y-161096434D01*
X225586747Y-161064074D01*
X225604010Y-161040638D01*
X225619051Y-161021578D01*
X226074399Y-161021578D01*
X225976246Y-161112072D01*
G37*
G36*
X226994567Y-161583450D02*
G01*
X226994567Y-162229668D01*
X226858836Y-162288194D01*
X226858836Y-161524923D01*
X226994567Y-161583450D01*
G37*
G36*
X230133256Y-164056562D02*
G01*
X230129785Y-164537204D01*
X230133256Y-164699763D01*
X230086171Y-164705637D01*
X230070872Y-164605518D01*
X229368737Y-164605518D01*
X229353439Y-164705637D01*
X229306333Y-164699763D01*
X229309825Y-164537204D01*
X229306333Y-164056562D01*
X229306332Y-164056562D01*
X229524238Y-164044815D01*
X229524238Y-164093074D01*
X229371113Y-164161390D01*
X229367557Y-164457089D01*
X229671516Y-164457089D01*
X229666805Y-164305165D01*
X229541912Y-164258016D01*
X229541912Y-164208539D01*
X229695063Y-164220340D01*
X229857613Y-164208539D01*
X229857613Y-164258016D01*
X229732746Y-164305165D01*
X229728031Y-164457089D01*
X230072053Y-164457089D01*
X230068497Y-164148479D01*
X229909477Y-164069527D01*
X229909477Y-164016504D01*
X230133256Y-164056562D01*
G37*
G36*
X226066414Y-163321245D02*
G01*
X226071979Y-163382497D01*
X226080957Y-163441008D01*
X226093104Y-163496827D01*
X226108175Y-163550005D01*
X226125928Y-163600591D01*
X226146118Y-163648634D01*
X226168502Y-163694185D01*
X226192836Y-163737293D01*
X226218876Y-163778007D01*
X226246379Y-163816378D01*
X226275100Y-163852456D01*
X226304796Y-163886288D01*
X226335224Y-163917927D01*
X226366139Y-163947420D01*
X226397297Y-163974819D01*
X226428456Y-164000172D01*
X226459371Y-164023529D01*
X226519495Y-164064454D01*
X226575719Y-164097993D01*
X226626093Y-164124543D01*
X226668667Y-164144501D01*
X226701491Y-164158264D01*
X226730090Y-164168798D01*
X226374649Y-164168798D01*
X226322139Y-164126038D01*
X226274904Y-164083539D01*
X226232678Y-164041320D01*
X226195197Y-163999401D01*
X226162196Y-163957803D01*
X226133411Y-163916546D01*
X226108578Y-163875652D01*
X226087430Y-163835139D01*
X226069705Y-163795028D01*
X226055136Y-163755341D01*
X226043461Y-163716096D01*
X226034413Y-163677315D01*
X226027728Y-163639019D01*
X226023142Y-163601226D01*
X226020390Y-163563959D01*
X226019207Y-163527236D01*
X226019156Y-163512899D01*
X226019376Y-163498801D01*
X226019850Y-163484955D01*
X226020561Y-163471376D01*
X226022621Y-163445076D01*
X226025415Y-163420013D01*
X226028799Y-163396302D01*
X226032633Y-163374056D01*
X226036775Y-163353389D01*
X226041082Y-163334415D01*
X226045414Y-163317247D01*
X226049628Y-163301999D01*
X226053583Y-163288785D01*
X226057137Y-163277718D01*
X226062473Y-163262483D01*
X226064504Y-163257202D01*
X226066414Y-163321245D01*
G37*
G36*
X223520000Y-162560000D02*
G01*
X223723683Y-162562036D01*
X223743704Y-162600210D01*
X223765313Y-162636042D01*
X223788364Y-162669605D01*
X223812711Y-162700974D01*
X223838209Y-162730223D01*
X223864711Y-162757427D01*
X223892072Y-162782658D01*
X223920145Y-162805992D01*
X223948786Y-162827502D01*
X223977848Y-162847264D01*
X224007186Y-162865350D01*
X224036653Y-162881834D01*
X224066104Y-162896792D01*
X224095393Y-162910298D01*
X224124375Y-162922424D01*
X224152903Y-162933247D01*
X224208015Y-162951274D01*
X224259563Y-162964974D01*
X224306381Y-162974939D01*
X224347302Y-162981761D01*
X224381160Y-162986035D01*
X224406788Y-162988354D01*
X224428691Y-162989497D01*
X224406788Y-162990640D01*
X224347302Y-162997233D01*
X224306381Y-163004056D01*
X224259563Y-163014020D01*
X224208015Y-163027720D01*
X224152903Y-163045748D01*
X224095393Y-163068697D01*
X224036653Y-163097160D01*
X224007186Y-163113645D01*
X223977848Y-163131731D01*
X223948786Y-163151492D01*
X223920145Y-163173002D01*
X223892072Y-163196336D01*
X223864711Y-163221568D01*
X223838209Y-163248771D01*
X223812711Y-163278020D01*
X223788364Y-163309389D01*
X223765313Y-163342952D01*
X223743704Y-163378784D01*
X223723683Y-163416958D01*
X223610260Y-163418304D01*
X223520000Y-163418995D01*
X223438833Y-163419286D01*
X223459474Y-163381506D01*
X223481948Y-163346004D01*
X223506092Y-163312711D01*
X223531744Y-163281555D01*
X223558739Y-163252465D01*
X223586914Y-163225371D01*
X223616107Y-163200202D01*
X223646154Y-163176887D01*
X223676892Y-163155355D01*
X223708157Y-163135535D01*
X223739787Y-163117358D01*
X223771618Y-163100751D01*
X223803488Y-163085645D01*
X223835232Y-163071968D01*
X223897692Y-163048618D01*
X223957694Y-163030137D01*
X224013931Y-163015957D01*
X224065098Y-163005512D01*
X224109890Y-162998237D01*
X224175125Y-162990927D01*
X224199191Y-162989497D01*
X224175125Y-162988067D01*
X224109890Y-162980758D01*
X224065099Y-162973482D01*
X224013931Y-162963037D01*
X223957694Y-162948858D01*
X223897692Y-162930376D01*
X223835232Y-162907027D01*
X223771618Y-162878243D01*
X223708157Y-162843459D01*
X223676892Y-162823640D01*
X223646154Y-162802108D01*
X223616107Y-162778793D01*
X223586914Y-162753624D01*
X223558739Y-162726530D01*
X223531744Y-162697440D01*
X223506093Y-162666284D01*
X223481948Y-162632990D01*
X223459474Y-162597489D01*
X223438833Y-162559709D01*
X223520000Y-162560000D01*
G37*
G36*
X230932360Y-156907363D02*
G01*
X230950511Y-157152633D01*
X230932360Y-157243543D01*
X230747628Y-157261694D01*
X230590159Y-157228354D01*
X230571987Y-156980016D01*
X230590159Y-156889160D01*
X230774870Y-156871008D01*
X230932360Y-156907363D01*
G37*
G36*
X232731216Y-153915984D02*
G01*
X232470746Y-154012927D01*
X232731216Y-154367204D01*
X232729456Y-154416795D01*
X232724231Y-154464375D01*
X232720346Y-154487360D01*
X232715626Y-154509781D01*
X232710082Y-154531617D01*
X232703725Y-154552848D01*
X232696565Y-154573453D01*
X232688612Y-154593412D01*
X232679878Y-154612705D01*
X232670372Y-154631310D01*
X232660105Y-154649207D01*
X232649088Y-154666376D01*
X232637332Y-154682797D01*
X232624846Y-154698448D01*
X232611641Y-154713310D01*
X232597728Y-154727361D01*
X232583118Y-154740582D01*
X232567820Y-154752951D01*
X232551846Y-154764449D01*
X232535205Y-154775054D01*
X232517910Y-154784747D01*
X232499969Y-154793506D01*
X232481393Y-154801312D01*
X232462194Y-154808143D01*
X232442382Y-154813980D01*
X232421966Y-154818802D01*
X232400958Y-154822587D01*
X232379368Y-154825317D01*
X232357207Y-154826970D01*
X232334486Y-154827525D01*
X232312688Y-154826997D01*
X232292112Y-154825473D01*
X232291562Y-154825432D01*
X232271066Y-154822856D01*
X232251160Y-154819295D01*
X232231805Y-154814776D01*
X232212960Y-154809325D01*
X232194586Y-154802970D01*
X232176642Y-154795736D01*
X232159088Y-154787649D01*
X232141885Y-154778738D01*
X232124991Y-154769027D01*
X232108368Y-154758543D01*
X232091974Y-154747314D01*
X232075771Y-154735365D01*
X232059718Y-154722723D01*
X232043774Y-154709415D01*
X231822684Y-154031077D01*
X231949890Y-154031077D01*
X232107380Y-154415674D01*
X232116711Y-154423871D01*
X232126502Y-154431443D01*
X232136719Y-154438404D01*
X232147325Y-154444767D01*
X232158286Y-154450546D01*
X232169565Y-154455752D01*
X232181128Y-154460401D01*
X232192940Y-154464504D01*
X232204964Y-154468075D01*
X232217165Y-154471127D01*
X232229508Y-154473674D01*
X232241958Y-154475728D01*
X232254478Y-154477302D01*
X232267034Y-154478410D01*
X232279591Y-154479066D01*
X232292112Y-154479281D01*
X232306022Y-154479036D01*
X232319372Y-154478309D01*
X232332171Y-154477120D01*
X232344425Y-154475483D01*
X232356142Y-154473415D01*
X232367330Y-154470934D01*
X232377998Y-154468056D01*
X232388151Y-154464797D01*
X232397800Y-154461174D01*
X232406950Y-154457204D01*
X232415611Y-154452904D01*
X232423789Y-154448289D01*
X232431492Y-154443378D01*
X232438729Y-154438185D01*
X232445506Y-154432729D01*
X232451833Y-154427025D01*
X232457716Y-154421091D01*
X232463163Y-154414943D01*
X232468182Y-154408597D01*
X232472781Y-154402071D01*
X232476967Y-154395380D01*
X232480748Y-154388542D01*
X232487128Y-154374491D01*
X232491983Y-154360049D01*
X232495373Y-154345350D01*
X232497362Y-154330528D01*
X232498011Y-154315716D01*
X232497528Y-154301671D01*
X232496136Y-154287928D01*
X232493919Y-154274503D01*
X232490961Y-154261414D01*
X232487346Y-154248680D01*
X232483160Y-154236317D01*
X232478485Y-154224344D01*
X232473408Y-154212779D01*
X232468010Y-154201639D01*
X232462378Y-154190942D01*
X232456595Y-154180707D01*
X232450746Y-154170950D01*
X232439186Y-154152945D01*
X232428372Y-154137069D01*
X232355714Y-154031077D01*
X231949890Y-154031077D01*
X231822684Y-154031077D01*
X231575028Y-154031077D01*
X231542100Y-154031450D01*
X231511424Y-154032644D01*
X231482982Y-154034768D01*
X231456756Y-154037935D01*
X231432729Y-154042256D01*
X231410884Y-154047840D01*
X231391202Y-154054799D01*
X231382168Y-154058828D01*
X231373667Y-154063244D01*
X231365699Y-154068058D01*
X231358261Y-154073285D01*
X231351350Y-154078940D01*
X231344965Y-154085035D01*
X231339104Y-154091584D01*
X231333764Y-154098603D01*
X231328943Y-154106103D01*
X231324638Y-154114100D01*
X231320849Y-154122607D01*
X231317571Y-154131638D01*
X231314804Y-154141207D01*
X231312545Y-154151328D01*
X231310792Y-154162014D01*
X231309542Y-154173280D01*
X231308545Y-154197604D01*
X231308824Y-154211901D01*
X231309640Y-154226361D01*
X231310962Y-154240935D01*
X231312759Y-154255576D01*
X231315000Y-154270233D01*
X231317653Y-154284860D01*
X231320688Y-154299406D01*
X231324073Y-154313824D01*
X231327778Y-154328064D01*
X231331770Y-154342078D01*
X231340495Y-154369234D01*
X231349999Y-154394902D01*
X231360033Y-154418692D01*
X231623500Y-154467162D01*
X231623500Y-154779054D01*
X231369130Y-154779054D01*
X231120792Y-154197604D01*
X231122039Y-154125418D01*
X231125944Y-154059721D01*
X231132751Y-154000260D01*
X231137318Y-153972789D01*
X231142703Y-153946782D01*
X231148934Y-153922208D01*
X231156044Y-153899036D01*
X231164062Y-153877232D01*
X231173018Y-153856767D01*
X231182944Y-153837608D01*
X231193870Y-153819724D01*
X231205826Y-153803083D01*
X231218843Y-153787653D01*
X231232951Y-153773403D01*
X231248181Y-153760302D01*
X231264563Y-153748317D01*
X231282128Y-153737418D01*
X231300906Y-153727572D01*
X231320928Y-153718748D01*
X231342224Y-153710914D01*
X231364824Y-153704039D01*
X231388760Y-153698091D01*
X231414062Y-153693039D01*
X231468884Y-153685495D01*
X231529535Y-153681154D01*
X231596258Y-153679763D01*
X232340522Y-153679763D01*
X232363504Y-153679552D01*
X232384817Y-153678924D01*
X232404569Y-153677888D01*
X232422865Y-153676454D01*
X232439813Y-153674629D01*
X232455518Y-153672423D01*
X232470087Y-153669845D01*
X232483627Y-153666904D01*
X232496243Y-153663607D01*
X232508043Y-153659965D01*
X232519132Y-153655986D01*
X232529618Y-153651678D01*
X232539606Y-153647052D01*
X232549203Y-153642115D01*
X232567650Y-153631344D01*
X232567650Y-153482913D01*
X232688821Y-153467779D01*
X232731216Y-153915984D01*
G37*
G36*
X229365239Y-160026902D02*
G01*
X229810527Y-160280216D01*
X229810527Y-160280217D01*
X230070872Y-160278999D01*
X230086171Y-160147079D01*
X230133256Y-160152953D01*
X230129785Y-160353243D01*
X230133256Y-160558190D01*
X230086171Y-160564116D01*
X230070872Y-160427433D01*
X229806993Y-160427433D01*
X229366398Y-160687782D01*
X229352259Y-160773772D01*
X229306332Y-160767898D01*
X229309825Y-160600628D01*
X229306332Y-160436851D01*
X229352259Y-160430977D01*
X229367557Y-160525221D01*
X229699774Y-160328477D01*
X229750415Y-160322603D01*
X229367557Y-160117656D01*
X229352259Y-160214230D01*
X229306332Y-160208302D01*
X229309825Y-160072888D01*
X229306332Y-159946788D01*
X229352259Y-159940914D01*
X229365239Y-160026902D01*
G37*
G36*
X230133256Y-161831046D02*
G01*
X230129785Y-161999479D01*
X230133256Y-162167966D01*
X230084949Y-162173840D01*
X230069655Y-162073668D01*
X229368737Y-162073668D01*
X229353439Y-162173840D01*
X229306332Y-162167966D01*
X229309825Y-161999479D01*
X229306332Y-161831046D01*
X229353439Y-161825172D01*
X229368737Y-161925290D01*
X230069655Y-161925290D01*
X230084949Y-161825120D01*
X230133256Y-161831046D01*
G37*
G36*
X229748333Y-158524608D02*
G01*
X229770984Y-158526549D01*
X229792943Y-158529279D01*
X229814217Y-158532808D01*
X229834813Y-158537143D01*
X229854737Y-158542292D01*
X229873996Y-158548263D01*
X229892595Y-158555064D01*
X229910541Y-158562704D01*
X229927842Y-158571189D01*
X229944502Y-158580528D01*
X229960530Y-158590729D01*
X229975930Y-158601800D01*
X229990711Y-158613749D01*
X230004877Y-158626584D01*
X230018436Y-158640312D01*
X230031394Y-158654943D01*
X230043758Y-158670484D01*
X230055533Y-158686942D01*
X230066727Y-158704326D01*
X230077346Y-158722644D01*
X230087396Y-158741904D01*
X230096884Y-158762113D01*
X230105817Y-158783281D01*
X230114200Y-158805414D01*
X230122040Y-158828521D01*
X230129344Y-158852609D01*
X230142369Y-158903764D01*
X230153326Y-158958941D01*
X230152812Y-158981775D01*
X230151283Y-159004112D01*
X230148761Y-159025936D01*
X230145267Y-159047233D01*
X230140822Y-159067987D01*
X230135447Y-159088184D01*
X230129163Y-159107809D01*
X230121992Y-159126847D01*
X230113954Y-159145282D01*
X230105072Y-159163101D01*
X230095365Y-159180289D01*
X230084856Y-159196829D01*
X230073565Y-159212708D01*
X230061513Y-159227910D01*
X230048722Y-159242421D01*
X230035213Y-159256226D01*
X230021007Y-159269309D01*
X230006126Y-159281657D01*
X229990589Y-159293253D01*
X229974420Y-159304084D01*
X229957638Y-159314133D01*
X229940264Y-159323387D01*
X229922321Y-159331831D01*
X229903829Y-159339449D01*
X229884810Y-159346226D01*
X229865284Y-159352148D01*
X229845272Y-159357200D01*
X229824797Y-159361367D01*
X229803878Y-159364634D01*
X229782538Y-159366986D01*
X229760797Y-159368408D01*
X229738677Y-159368885D01*
X229698614Y-159367581D01*
X229691272Y-159367342D01*
X229668620Y-159365402D01*
X229646659Y-159362671D01*
X229625384Y-159359142D01*
X229604787Y-159354807D01*
X229584863Y-159349658D01*
X229565604Y-159343687D01*
X229547005Y-159336886D01*
X229529058Y-159329247D01*
X229511758Y-159320762D01*
X229495097Y-159311423D01*
X229479070Y-159301222D01*
X229463670Y-159290151D01*
X229448890Y-159278202D01*
X229434724Y-159265367D01*
X229421165Y-159251639D01*
X229408208Y-159237008D01*
X229395845Y-159221468D01*
X229384070Y-159205010D01*
X229372877Y-159187625D01*
X229362258Y-159169307D01*
X229352209Y-159150048D01*
X229342721Y-159129838D01*
X229333790Y-159108671D01*
X229325407Y-159086538D01*
X229317567Y-159063431D01*
X229310263Y-159039342D01*
X229297239Y-158988188D01*
X229291893Y-158961268D01*
X229356973Y-158961268D01*
X229357405Y-158977000D01*
X229358687Y-158992170D01*
X229360802Y-159006782D01*
X229363729Y-159020841D01*
X229367450Y-159034350D01*
X229371945Y-159047314D01*
X229377197Y-159059736D01*
X229383185Y-159071622D01*
X229389892Y-159082974D01*
X229397297Y-159093797D01*
X229405382Y-159104095D01*
X229414128Y-159113872D01*
X229423516Y-159123132D01*
X229433527Y-159131880D01*
X229444142Y-159140119D01*
X229455342Y-159147853D01*
X229467108Y-159155087D01*
X229479421Y-159161825D01*
X229492262Y-159168071D01*
X229505613Y-159173828D01*
X229519453Y-159179101D01*
X229533765Y-159183894D01*
X229548528Y-159188212D01*
X229563725Y-159192057D01*
X229579336Y-159195435D01*
X229595342Y-159198349D01*
X229611724Y-159200804D01*
X229628464Y-159202803D01*
X229662938Y-159205451D01*
X229698614Y-159206326D01*
X229732236Y-159205404D01*
X229766178Y-159202595D01*
X229800097Y-159197836D01*
X229833649Y-159191062D01*
X229866491Y-159182210D01*
X229898279Y-159171216D01*
X229928669Y-159158017D01*
X229957319Y-159142549D01*
X229970884Y-159133944D01*
X229983885Y-159124748D01*
X229996279Y-159114952D01*
X230008023Y-159104550D01*
X230019075Y-159093533D01*
X230029390Y-159081892D01*
X230038927Y-159069620D01*
X230047642Y-159056710D01*
X230055493Y-159043152D01*
X230062436Y-159028940D01*
X230068429Y-159014065D01*
X230073429Y-158998519D01*
X230077392Y-158982294D01*
X230080276Y-158965382D01*
X230082038Y-158947776D01*
X230082635Y-158929466D01*
X230082200Y-158913738D01*
X230080908Y-158898578D01*
X230078778Y-158883983D01*
X230075829Y-158869946D01*
X230072081Y-158856464D01*
X230067554Y-158843533D01*
X230062267Y-158831148D01*
X230056239Y-158819303D01*
X230049490Y-158807996D01*
X230042038Y-158797221D01*
X230033905Y-158786973D01*
X230025108Y-158777248D01*
X230015667Y-158768042D01*
X230005603Y-158759350D01*
X229994933Y-158751168D01*
X229983678Y-158743490D01*
X229971857Y-158736313D01*
X229959490Y-158729632D01*
X229946595Y-158723442D01*
X229933193Y-158717739D01*
X229919303Y-158712519D01*
X229904943Y-158707776D01*
X229890134Y-158703506D01*
X229874895Y-158699705D01*
X229859245Y-158696368D01*
X229843204Y-158693491D01*
X229826792Y-158691069D01*
X229810027Y-158689097D01*
X229775517Y-158686488D01*
X229739831Y-158685626D01*
X229706989Y-158686522D01*
X229673654Y-158689257D01*
X229640184Y-158693905D01*
X229606942Y-158700537D01*
X229574287Y-158709226D01*
X229542581Y-158720044D01*
X229512183Y-158733064D01*
X229483454Y-158748358D01*
X229469828Y-158756881D01*
X229456754Y-158765999D01*
X229444278Y-158775722D01*
X229432445Y-158786058D01*
X229421299Y-158797018D01*
X229410886Y-158808609D01*
X229401251Y-158820842D01*
X229392439Y-158833724D01*
X229384495Y-158847266D01*
X229377464Y-158861475D01*
X229371390Y-158876362D01*
X229366320Y-158891934D01*
X229362299Y-158908202D01*
X229359370Y-158925175D01*
X229357580Y-158942860D01*
X229356973Y-158961268D01*
X229291893Y-158961268D01*
X229286282Y-158933011D01*
X229286796Y-158910172D01*
X229288324Y-158887831D01*
X229290846Y-158866003D01*
X229294339Y-158844703D01*
X229298783Y-158823947D01*
X229304156Y-158803748D01*
X229310438Y-158784121D01*
X229317608Y-158765082D01*
X229325643Y-158746646D01*
X229334524Y-158728826D01*
X229344229Y-158711639D01*
X229354736Y-158695099D01*
X229366025Y-158679220D01*
X229378075Y-158664019D01*
X229390864Y-158649509D01*
X229404371Y-158635705D01*
X229418576Y-158622623D01*
X229433456Y-158610277D01*
X229448992Y-158598682D01*
X229465161Y-158587853D01*
X229481943Y-158577805D01*
X229499316Y-158568552D01*
X229517260Y-158560110D01*
X229535753Y-158552494D01*
X229554774Y-158545718D01*
X229574301Y-158539797D01*
X229594315Y-158534747D01*
X229614794Y-158530581D01*
X229635715Y-158527315D01*
X229657060Y-158524964D01*
X229678805Y-158523542D01*
X229700931Y-158523065D01*
X229748333Y-158524608D01*
G37*
G36*
X226994567Y-163749328D02*
G01*
X226994567Y-164395546D01*
X226858836Y-164454071D01*
X226858836Y-163690801D01*
X226994567Y-163749328D01*
G37*
D11*
X225750762Y-144405104D02*
X226226952Y-144405104D01*
X225655524Y-144690819D02*
X225988857Y-143690819D01*
X225988857Y-143690819D02*
X226322190Y-144690819D01*
X226655524Y-144690819D02*
X226655524Y-144024152D01*
X226655524Y-144214628D02*
X226703143Y-144119390D01*
X226703143Y-144119390D02*
X226750762Y-144071771D01*
X226750762Y-144071771D02*
X226846000Y-144024152D01*
X226846000Y-144024152D02*
X226941238Y-144024152D01*
X227703143Y-144690819D02*
X227703143Y-143690819D01*
X227703143Y-144643200D02*
X227607905Y-144690819D01*
X227607905Y-144690819D02*
X227417429Y-144690819D01*
X227417429Y-144690819D02*
X227322191Y-144643200D01*
X227322191Y-144643200D02*
X227274572Y-144595580D01*
X227274572Y-144595580D02*
X227226953Y-144500342D01*
X227226953Y-144500342D02*
X227226953Y-144214628D01*
X227226953Y-144214628D02*
X227274572Y-144119390D01*
X227274572Y-144119390D02*
X227322191Y-144071771D01*
X227322191Y-144071771D02*
X227417429Y-144024152D01*
X227417429Y-144024152D02*
X227607905Y-144024152D01*
X227607905Y-144024152D02*
X227703143Y-144071771D01*
X228607905Y-144024152D02*
X228607905Y-144690819D01*
X228179334Y-144024152D02*
X228179334Y-144547961D01*
X228179334Y-144547961D02*
X228226953Y-144643200D01*
X228226953Y-144643200D02*
X228322191Y-144690819D01*
X228322191Y-144690819D02*
X228465048Y-144690819D01*
X228465048Y-144690819D02*
X228560286Y-144643200D01*
X228560286Y-144643200D02*
X228607905Y-144595580D01*
X229084096Y-144690819D02*
X229084096Y-144024152D01*
X229084096Y-143690819D02*
X229036477Y-143738438D01*
X229036477Y-143738438D02*
X229084096Y-143786057D01*
X229084096Y-143786057D02*
X229131715Y-143738438D01*
X229131715Y-143738438D02*
X229084096Y-143690819D01*
X229084096Y-143690819D02*
X229084096Y-143786057D01*
X229560286Y-144024152D02*
X229560286Y-144690819D01*
X229560286Y-144119390D02*
X229607905Y-144071771D01*
X229607905Y-144071771D02*
X229703143Y-144024152D01*
X229703143Y-144024152D02*
X229846000Y-144024152D01*
X229846000Y-144024152D02*
X229941238Y-144071771D01*
X229941238Y-144071771D02*
X229988857Y-144167009D01*
X229988857Y-144167009D02*
X229988857Y-144690819D01*
X230607905Y-144690819D02*
X230512667Y-144643200D01*
X230512667Y-144643200D02*
X230465048Y-144595580D01*
X230465048Y-144595580D02*
X230417429Y-144500342D01*
X230417429Y-144500342D02*
X230417429Y-144214628D01*
X230417429Y-144214628D02*
X230465048Y-144119390D01*
X230465048Y-144119390D02*
X230512667Y-144071771D01*
X230512667Y-144071771D02*
X230607905Y-144024152D01*
X230607905Y-144024152D02*
X230750762Y-144024152D01*
X230750762Y-144024152D02*
X230846000Y-144071771D01*
X230846000Y-144071771D02*
X230893619Y-144119390D01*
X230893619Y-144119390D02*
X230941238Y-144214628D01*
X230941238Y-144214628D02*
X230941238Y-144500342D01*
X230941238Y-144500342D02*
X230893619Y-144595580D01*
X230893619Y-144595580D02*
X230846000Y-144643200D01*
X230846000Y-144643200D02*
X230750762Y-144690819D01*
X230750762Y-144690819D02*
X230607905Y-144690819D01*
X226703143Y-146300819D02*
X226703143Y-145300819D01*
X226703143Y-145300819D02*
X227274571Y-146300819D01*
X227274571Y-146300819D02*
X227274571Y-145300819D01*
X228179333Y-146300819D02*
X228179333Y-145777009D01*
X228179333Y-145777009D02*
X228131714Y-145681771D01*
X228131714Y-145681771D02*
X228036476Y-145634152D01*
X228036476Y-145634152D02*
X227846000Y-145634152D01*
X227846000Y-145634152D02*
X227750762Y-145681771D01*
X228179333Y-146253200D02*
X228084095Y-146300819D01*
X228084095Y-146300819D02*
X227846000Y-146300819D01*
X227846000Y-146300819D02*
X227750762Y-146253200D01*
X227750762Y-146253200D02*
X227703143Y-146157961D01*
X227703143Y-146157961D02*
X227703143Y-146062723D01*
X227703143Y-146062723D02*
X227750762Y-145967485D01*
X227750762Y-145967485D02*
X227846000Y-145919866D01*
X227846000Y-145919866D02*
X228084095Y-145919866D01*
X228084095Y-145919866D02*
X228179333Y-145872247D01*
X228655524Y-145634152D02*
X228655524Y-146300819D01*
X228655524Y-145729390D02*
X228703143Y-145681771D01*
X228703143Y-145681771D02*
X228798381Y-145634152D01*
X228798381Y-145634152D02*
X228941238Y-145634152D01*
X228941238Y-145634152D02*
X229036476Y-145681771D01*
X229036476Y-145681771D02*
X229084095Y-145777009D01*
X229084095Y-145777009D02*
X229084095Y-146300819D01*
X229703143Y-146300819D02*
X229607905Y-146253200D01*
X229607905Y-146253200D02*
X229560286Y-146205580D01*
X229560286Y-146205580D02*
X229512667Y-146110342D01*
X229512667Y-146110342D02*
X229512667Y-145824628D01*
X229512667Y-145824628D02*
X229560286Y-145729390D01*
X229560286Y-145729390D02*
X229607905Y-145681771D01*
X229607905Y-145681771D02*
X229703143Y-145634152D01*
X229703143Y-145634152D02*
X229846000Y-145634152D01*
X229846000Y-145634152D02*
X229941238Y-145681771D01*
X229941238Y-145681771D02*
X229988857Y-145729390D01*
X229988857Y-145729390D02*
X230036476Y-145824628D01*
X230036476Y-145824628D02*
X230036476Y-146110342D01*
X230036476Y-146110342D02*
X229988857Y-146205580D01*
X229988857Y-146205580D02*
X229941238Y-146253200D01*
X229941238Y-146253200D02*
X229846000Y-146300819D01*
X229846000Y-146300819D02*
X229703143Y-146300819D01*
X230413160Y-193878200D02*
X230556017Y-193925819D01*
X230556017Y-193925819D02*
X230794112Y-193925819D01*
X230794112Y-193925819D02*
X230889350Y-193878200D01*
X230889350Y-193878200D02*
X230936969Y-193830580D01*
X230936969Y-193830580D02*
X230984588Y-193735342D01*
X230984588Y-193735342D02*
X230984588Y-193640104D01*
X230984588Y-193640104D02*
X230936969Y-193544866D01*
X230936969Y-193544866D02*
X230889350Y-193497247D01*
X230889350Y-193497247D02*
X230794112Y-193449628D01*
X230794112Y-193449628D02*
X230603636Y-193402009D01*
X230603636Y-193402009D02*
X230508398Y-193354390D01*
X230508398Y-193354390D02*
X230460779Y-193306771D01*
X230460779Y-193306771D02*
X230413160Y-193211533D01*
X230413160Y-193211533D02*
X230413160Y-193116295D01*
X230413160Y-193116295D02*
X230460779Y-193021057D01*
X230460779Y-193021057D02*
X230508398Y-192973438D01*
X230508398Y-192973438D02*
X230603636Y-192925819D01*
X230603636Y-192925819D02*
X230841731Y-192925819D01*
X230841731Y-192925819D02*
X230984588Y-192973438D01*
X231413160Y-193259152D02*
X231413160Y-194259152D01*
X231413160Y-193306771D02*
X231508398Y-193259152D01*
X231508398Y-193259152D02*
X231698874Y-193259152D01*
X231698874Y-193259152D02*
X231794112Y-193306771D01*
X231794112Y-193306771D02*
X231841731Y-193354390D01*
X231841731Y-193354390D02*
X231889350Y-193449628D01*
X231889350Y-193449628D02*
X231889350Y-193735342D01*
X231889350Y-193735342D02*
X231841731Y-193830580D01*
X231841731Y-193830580D02*
X231794112Y-193878200D01*
X231794112Y-193878200D02*
X231698874Y-193925819D01*
X231698874Y-193925819D02*
X231508398Y-193925819D01*
X231508398Y-193925819D02*
X231413160Y-193878200D01*
X232317922Y-193925819D02*
X232317922Y-193259152D01*
X232317922Y-192925819D02*
X232270303Y-192973438D01*
X232270303Y-192973438D02*
X232317922Y-193021057D01*
X232317922Y-193021057D02*
X232365541Y-192973438D01*
X232365541Y-192973438D02*
X232317922Y-192925819D01*
X232317922Y-192925819D02*
X232317922Y-193021057D01*
X232794112Y-193925819D02*
X232794112Y-192925819D01*
X232889350Y-193544866D02*
X233175064Y-193925819D01*
X233175064Y-193259152D02*
X232794112Y-193640104D01*
X233984588Y-193878200D02*
X233889350Y-193925819D01*
X233889350Y-193925819D02*
X233698874Y-193925819D01*
X233698874Y-193925819D02*
X233603636Y-193878200D01*
X233603636Y-193878200D02*
X233556017Y-193782961D01*
X233556017Y-193782961D02*
X233556017Y-193402009D01*
X233556017Y-193402009D02*
X233603636Y-193306771D01*
X233603636Y-193306771D02*
X233698874Y-193259152D01*
X233698874Y-193259152D02*
X233889350Y-193259152D01*
X233889350Y-193259152D02*
X233984588Y-193306771D01*
X233984588Y-193306771D02*
X234032207Y-193402009D01*
X234032207Y-193402009D02*
X234032207Y-193497247D01*
X234032207Y-193497247D02*
X233556017Y-193592485D01*
X235698874Y-193925819D02*
X235222684Y-193925819D01*
X235222684Y-193925819D02*
X235222684Y-192925819D01*
X236413160Y-193878200D02*
X236317922Y-193925819D01*
X236317922Y-193925819D02*
X236127446Y-193925819D01*
X236127446Y-193925819D02*
X236032208Y-193878200D01*
X236032208Y-193878200D02*
X235984589Y-193782961D01*
X235984589Y-193782961D02*
X235984589Y-193402009D01*
X235984589Y-193402009D02*
X236032208Y-193306771D01*
X236032208Y-193306771D02*
X236127446Y-193259152D01*
X236127446Y-193259152D02*
X236317922Y-193259152D01*
X236317922Y-193259152D02*
X236413160Y-193306771D01*
X236413160Y-193306771D02*
X236460779Y-193402009D01*
X236460779Y-193402009D02*
X236460779Y-193497247D01*
X236460779Y-193497247D02*
X235984589Y-193592485D01*
X237317922Y-193925819D02*
X237317922Y-193402009D01*
X237317922Y-193402009D02*
X237270303Y-193306771D01*
X237270303Y-193306771D02*
X237175065Y-193259152D01*
X237175065Y-193259152D02*
X236984589Y-193259152D01*
X236984589Y-193259152D02*
X236889351Y-193306771D01*
X237317922Y-193878200D02*
X237222684Y-193925819D01*
X237222684Y-193925819D02*
X236984589Y-193925819D01*
X236984589Y-193925819D02*
X236889351Y-193878200D01*
X236889351Y-193878200D02*
X236841732Y-193782961D01*
X236841732Y-193782961D02*
X236841732Y-193687723D01*
X236841732Y-193687723D02*
X236889351Y-193592485D01*
X236889351Y-193592485D02*
X236984589Y-193544866D01*
X236984589Y-193544866D02*
X237222684Y-193544866D01*
X237222684Y-193544866D02*
X237317922Y-193497247D01*
X238222684Y-193925819D02*
X238222684Y-192925819D01*
X238222684Y-193878200D02*
X238127446Y-193925819D01*
X238127446Y-193925819D02*
X237936970Y-193925819D01*
X237936970Y-193925819D02*
X237841732Y-193878200D01*
X237841732Y-193878200D02*
X237794113Y-193830580D01*
X237794113Y-193830580D02*
X237746494Y-193735342D01*
X237746494Y-193735342D02*
X237746494Y-193449628D01*
X237746494Y-193449628D02*
X237794113Y-193354390D01*
X237794113Y-193354390D02*
X237841732Y-193306771D01*
X237841732Y-193306771D02*
X237936970Y-193259152D01*
X237936970Y-193259152D02*
X238127446Y-193259152D01*
X238127446Y-193259152D02*
X238222684Y-193306771D01*
X238651256Y-193878200D02*
X238746494Y-193925819D01*
X238746494Y-193925819D02*
X238936970Y-193925819D01*
X238936970Y-193925819D02*
X239032208Y-193878200D01*
X239032208Y-193878200D02*
X239079827Y-193782961D01*
X239079827Y-193782961D02*
X239079827Y-193735342D01*
X239079827Y-193735342D02*
X239032208Y-193640104D01*
X239032208Y-193640104D02*
X238936970Y-193592485D01*
X238936970Y-193592485D02*
X238794113Y-193592485D01*
X238794113Y-193592485D02*
X238698875Y-193544866D01*
X238698875Y-193544866D02*
X238651256Y-193449628D01*
X238651256Y-193449628D02*
X238651256Y-193402009D01*
X238651256Y-193402009D02*
X238698875Y-193306771D01*
X238698875Y-193306771D02*
X238794113Y-193259152D01*
X238794113Y-193259152D02*
X238936970Y-193259152D01*
X238936970Y-193259152D02*
X239032208Y-193306771D01*
X222062922Y-193179819D02*
X222396255Y-194179819D01*
X222396255Y-194179819D02*
X222729588Y-193179819D01*
X223062922Y-194179819D02*
X223062922Y-193179819D01*
X223539112Y-194179819D02*
X223539112Y-193179819D01*
X223539112Y-193179819D02*
X224110540Y-194179819D01*
X224110540Y-194179819D02*
X224110540Y-193179819D01*
D12*
X261670200Y-170688571D02*
X261622580Y-170831428D01*
X261622580Y-170831428D02*
X261622580Y-171069523D01*
X261622580Y-171069523D02*
X261670200Y-171164761D01*
X261670200Y-171164761D02*
X261717819Y-171212380D01*
X261717819Y-171212380D02*
X261813057Y-171259999D01*
X261813057Y-171259999D02*
X261908295Y-171259999D01*
X261908295Y-171259999D02*
X262003533Y-171212380D01*
X262003533Y-171212380D02*
X262051152Y-171164761D01*
X262051152Y-171164761D02*
X262098771Y-171069523D01*
X262098771Y-171069523D02*
X262146390Y-170879047D01*
X262146390Y-170879047D02*
X262194009Y-170783809D01*
X262194009Y-170783809D02*
X262241628Y-170736190D01*
X262241628Y-170736190D02*
X262336866Y-170688571D01*
X262336866Y-170688571D02*
X262432104Y-170688571D01*
X262432104Y-170688571D02*
X262527342Y-170736190D01*
X262527342Y-170736190D02*
X262574961Y-170783809D01*
X262574961Y-170783809D02*
X262622580Y-170879047D01*
X262622580Y-170879047D02*
X262622580Y-171117142D01*
X262622580Y-171117142D02*
X262574961Y-171259999D01*
X261622580Y-171688571D02*
X262622580Y-171688571D01*
X262622580Y-171688571D02*
X262622580Y-171926666D01*
X262622580Y-171926666D02*
X262574961Y-172069523D01*
X262574961Y-172069523D02*
X262479723Y-172164761D01*
X262479723Y-172164761D02*
X262384485Y-172212380D01*
X262384485Y-172212380D02*
X262194009Y-172259999D01*
X262194009Y-172259999D02*
X262051152Y-172259999D01*
X262051152Y-172259999D02*
X261860676Y-172212380D01*
X261860676Y-172212380D02*
X261765438Y-172164761D01*
X261765438Y-172164761D02*
X261670200Y-172069523D01*
X261670200Y-172069523D02*
X261622580Y-171926666D01*
X261622580Y-171926666D02*
X261622580Y-171688571D01*
X261527342Y-172450476D02*
X261527342Y-173212380D01*
X261717819Y-174021904D02*
X261670200Y-173974285D01*
X261670200Y-173974285D02*
X261622580Y-173831428D01*
X261622580Y-173831428D02*
X261622580Y-173736190D01*
X261622580Y-173736190D02*
X261670200Y-173593333D01*
X261670200Y-173593333D02*
X261765438Y-173498095D01*
X261765438Y-173498095D02*
X261860676Y-173450476D01*
X261860676Y-173450476D02*
X262051152Y-173402857D01*
X262051152Y-173402857D02*
X262194009Y-173402857D01*
X262194009Y-173402857D02*
X262384485Y-173450476D01*
X262384485Y-173450476D02*
X262479723Y-173498095D01*
X262479723Y-173498095D02*
X262574961Y-173593333D01*
X262574961Y-173593333D02*
X262622580Y-173736190D01*
X262622580Y-173736190D02*
X262622580Y-173831428D01*
X262622580Y-173831428D02*
X262574961Y-173974285D01*
X262574961Y-173974285D02*
X262527342Y-174021904D01*
X261908295Y-174402857D02*
X261908295Y-174879047D01*
X261622580Y-174307619D02*
X262622580Y-174640952D01*
X262622580Y-174640952D02*
X261622580Y-174974285D01*
X261622580Y-175879047D02*
X262098771Y-175545714D01*
X261622580Y-175307619D02*
X262622580Y-175307619D01*
X262622580Y-175307619D02*
X262622580Y-175688571D01*
X262622580Y-175688571D02*
X262574961Y-175783809D01*
X262574961Y-175783809D02*
X262527342Y-175831428D01*
X262527342Y-175831428D02*
X262432104Y-175879047D01*
X262432104Y-175879047D02*
X262289247Y-175879047D01*
X262289247Y-175879047D02*
X262194009Y-175831428D01*
X262194009Y-175831428D02*
X262146390Y-175783809D01*
X262146390Y-175783809D02*
X262098771Y-175688571D01*
X262098771Y-175688571D02*
X262098771Y-175307619D01*
X261622580Y-176307619D02*
X262622580Y-176307619D01*
X262622580Y-176307619D02*
X262622580Y-176545714D01*
X262622580Y-176545714D02*
X262574961Y-176688571D01*
X262574961Y-176688571D02*
X262479723Y-176783809D01*
X262479723Y-176783809D02*
X262384485Y-176831428D01*
X262384485Y-176831428D02*
X262194009Y-176879047D01*
X262194009Y-176879047D02*
X262051152Y-176879047D01*
X262051152Y-176879047D02*
X261860676Y-176831428D01*
X261860676Y-176831428D02*
X261765438Y-176783809D01*
X261765438Y-176783809D02*
X261670200Y-176688571D01*
X261670200Y-176688571D02*
X261622580Y-176545714D01*
X261622580Y-176545714D02*
X261622580Y-176307619D01*
X261622580Y-177831428D02*
X261622580Y-177260000D01*
X261622580Y-177545714D02*
X262622580Y-177545714D01*
X262622580Y-177545714D02*
X262479723Y-177450476D01*
X262479723Y-177450476D02*
X262384485Y-177355238D01*
X262384485Y-177355238D02*
X262336866Y-177260000D01*
D11*
X227885714Y-177969104D02*
X228361904Y-177969104D01*
X227790476Y-178254819D02*
X228123809Y-177254819D01*
X228123809Y-177254819D02*
X228457142Y-178254819D01*
X229314285Y-178254819D02*
X228742857Y-178254819D01*
X229028571Y-178254819D02*
X229028571Y-177254819D01*
X229028571Y-177254819D02*
X228933333Y-177397676D01*
X228933333Y-177397676D02*
X228838095Y-177492914D01*
X228838095Y-177492914D02*
X228742857Y-177540533D01*
X229861904Y-137705180D02*
X229861904Y-136895657D01*
X229861904Y-136895657D02*
X229814285Y-136800419D01*
X229814285Y-136800419D02*
X229766666Y-136752800D01*
X229766666Y-136752800D02*
X229671428Y-136705180D01*
X229671428Y-136705180D02*
X229480952Y-136705180D01*
X229480952Y-136705180D02*
X229385714Y-136752800D01*
X229385714Y-136752800D02*
X229338095Y-136800419D01*
X229338095Y-136800419D02*
X229290476Y-136895657D01*
X229290476Y-136895657D02*
X229290476Y-137705180D01*
X228861904Y-136752800D02*
X228719047Y-136705180D01*
X228719047Y-136705180D02*
X228480952Y-136705180D01*
X228480952Y-136705180D02*
X228385714Y-136752800D01*
X228385714Y-136752800D02*
X228338095Y-136800419D01*
X228338095Y-136800419D02*
X228290476Y-136895657D01*
X228290476Y-136895657D02*
X228290476Y-136990895D01*
X228290476Y-136990895D02*
X228338095Y-137086133D01*
X228338095Y-137086133D02*
X228385714Y-137133752D01*
X228385714Y-137133752D02*
X228480952Y-137181371D01*
X228480952Y-137181371D02*
X228671428Y-137228990D01*
X228671428Y-137228990D02*
X228766666Y-137276609D01*
X228766666Y-137276609D02*
X228814285Y-137324228D01*
X228814285Y-137324228D02*
X228861904Y-137419466D01*
X228861904Y-137419466D02*
X228861904Y-137514704D01*
X228861904Y-137514704D02*
X228814285Y-137609942D01*
X228814285Y-137609942D02*
X228766666Y-137657561D01*
X228766666Y-137657561D02*
X228671428Y-137705180D01*
X228671428Y-137705180D02*
X228433333Y-137705180D01*
X228433333Y-137705180D02*
X228290476Y-137657561D01*
X227528571Y-137228990D02*
X227385714Y-137181371D01*
X227385714Y-137181371D02*
X227338095Y-137133752D01*
X227338095Y-137133752D02*
X227290476Y-137038514D01*
X227290476Y-137038514D02*
X227290476Y-136895657D01*
X227290476Y-136895657D02*
X227338095Y-136800419D01*
X227338095Y-136800419D02*
X227385714Y-136752800D01*
X227385714Y-136752800D02*
X227480952Y-136705180D01*
X227480952Y-136705180D02*
X227861904Y-136705180D01*
X227861904Y-136705180D02*
X227861904Y-137705180D01*
X227861904Y-137705180D02*
X227528571Y-137705180D01*
X227528571Y-137705180D02*
X227433333Y-137657561D01*
X227433333Y-137657561D02*
X227385714Y-137609942D01*
X227385714Y-137609942D02*
X227338095Y-137514704D01*
X227338095Y-137514704D02*
X227338095Y-137419466D01*
X227338095Y-137419466D02*
X227385714Y-137324228D01*
X227385714Y-137324228D02*
X227433333Y-137276609D01*
X227433333Y-137276609D02*
X227528571Y-137228990D01*
X227528571Y-137228990D02*
X227861904Y-137228990D01*
X218806666Y-177884819D02*
X218806666Y-178599104D01*
X218806666Y-178599104D02*
X218759047Y-178741961D01*
X218759047Y-178741961D02*
X218663809Y-178837200D01*
X218663809Y-178837200D02*
X218520952Y-178884819D01*
X218520952Y-178884819D02*
X218425714Y-178884819D01*
X219806666Y-178884819D02*
X219235238Y-178884819D01*
X219520952Y-178884819D02*
X219520952Y-177884819D01*
X219520952Y-177884819D02*
X219425714Y-178027676D01*
X219425714Y-178027676D02*
X219330476Y-178122914D01*
X219330476Y-178122914D02*
X219235238Y-178170533D01*
X231506666Y-177884819D02*
X231506666Y-178599104D01*
X231506666Y-178599104D02*
X231459047Y-178741961D01*
X231459047Y-178741961D02*
X231363809Y-178837200D01*
X231363809Y-178837200D02*
X231220952Y-178884819D01*
X231220952Y-178884819D02*
X231125714Y-178884819D01*
X231935238Y-177980057D02*
X231982857Y-177932438D01*
X231982857Y-177932438D02*
X232078095Y-177884819D01*
X232078095Y-177884819D02*
X232316190Y-177884819D01*
X232316190Y-177884819D02*
X232411428Y-177932438D01*
X232411428Y-177932438D02*
X232459047Y-177980057D01*
X232459047Y-177980057D02*
X232506666Y-178075295D01*
X232506666Y-178075295D02*
X232506666Y-178170533D01*
X232506666Y-178170533D02*
X232459047Y-178313390D01*
X232459047Y-178313390D02*
X231887619Y-178884819D01*
X231887619Y-178884819D02*
X232506666Y-178884819D01*
X250023333Y-186044819D02*
X249690000Y-185568628D01*
X249451905Y-186044819D02*
X249451905Y-185044819D01*
X249451905Y-185044819D02*
X249832857Y-185044819D01*
X249832857Y-185044819D02*
X249928095Y-185092438D01*
X249928095Y-185092438D02*
X249975714Y-185140057D01*
X249975714Y-185140057D02*
X250023333Y-185235295D01*
X250023333Y-185235295D02*
X250023333Y-185378152D01*
X250023333Y-185378152D02*
X249975714Y-185473390D01*
X249975714Y-185473390D02*
X249928095Y-185521009D01*
X249928095Y-185521009D02*
X249832857Y-185568628D01*
X249832857Y-185568628D02*
X249451905Y-185568628D01*
X250975714Y-186044819D02*
X250404286Y-186044819D01*
X250690000Y-186044819D02*
X250690000Y-185044819D01*
X250690000Y-185044819D02*
X250594762Y-185187676D01*
X250594762Y-185187676D02*
X250499524Y-185282914D01*
X250499524Y-185282914D02*
X250404286Y-185330533D01*
X249261428Y-189784819D02*
X249070952Y-189784819D01*
X249070952Y-189784819D02*
X248975714Y-189832438D01*
X248975714Y-189832438D02*
X248928095Y-189880057D01*
X248928095Y-189880057D02*
X248832857Y-190022914D01*
X248832857Y-190022914D02*
X248785238Y-190213390D01*
X248785238Y-190213390D02*
X248785238Y-190594342D01*
X248785238Y-190594342D02*
X248832857Y-190689580D01*
X248832857Y-190689580D02*
X248880476Y-190737200D01*
X248880476Y-190737200D02*
X248975714Y-190784819D01*
X248975714Y-190784819D02*
X249166190Y-190784819D01*
X249166190Y-190784819D02*
X249261428Y-190737200D01*
X249261428Y-190737200D02*
X249309047Y-190689580D01*
X249309047Y-190689580D02*
X249356666Y-190594342D01*
X249356666Y-190594342D02*
X249356666Y-190356247D01*
X249356666Y-190356247D02*
X249309047Y-190261009D01*
X249309047Y-190261009D02*
X249261428Y-190213390D01*
X249261428Y-190213390D02*
X249166190Y-190165771D01*
X249166190Y-190165771D02*
X248975714Y-190165771D01*
X248975714Y-190165771D02*
X248880476Y-190213390D01*
X248880476Y-190213390D02*
X248832857Y-190261009D01*
X248832857Y-190261009D02*
X248785238Y-190356247D01*
X249785238Y-190689580D02*
X249832857Y-190737200D01*
X249832857Y-190737200D02*
X249785238Y-190784819D01*
X249785238Y-190784819D02*
X249737619Y-190737200D01*
X249737619Y-190737200D02*
X249785238Y-190689580D01*
X249785238Y-190689580D02*
X249785238Y-190784819D01*
X250404285Y-190213390D02*
X250309047Y-190165771D01*
X250309047Y-190165771D02*
X250261428Y-190118152D01*
X250261428Y-190118152D02*
X250213809Y-190022914D01*
X250213809Y-190022914D02*
X250213809Y-189975295D01*
X250213809Y-189975295D02*
X250261428Y-189880057D01*
X250261428Y-189880057D02*
X250309047Y-189832438D01*
X250309047Y-189832438D02*
X250404285Y-189784819D01*
X250404285Y-189784819D02*
X250594761Y-189784819D01*
X250594761Y-189784819D02*
X250689999Y-189832438D01*
X250689999Y-189832438D02*
X250737618Y-189880057D01*
X250737618Y-189880057D02*
X250785237Y-189975295D01*
X250785237Y-189975295D02*
X250785237Y-190022914D01*
X250785237Y-190022914D02*
X250737618Y-190118152D01*
X250737618Y-190118152D02*
X250689999Y-190165771D01*
X250689999Y-190165771D02*
X250594761Y-190213390D01*
X250594761Y-190213390D02*
X250404285Y-190213390D01*
X250404285Y-190213390D02*
X250309047Y-190261009D01*
X250309047Y-190261009D02*
X250261428Y-190308628D01*
X250261428Y-190308628D02*
X250213809Y-190403866D01*
X250213809Y-190403866D02*
X250213809Y-190594342D01*
X250213809Y-190594342D02*
X250261428Y-190689580D01*
X250261428Y-190689580D02*
X250309047Y-190737200D01*
X250309047Y-190737200D02*
X250404285Y-190784819D01*
X250404285Y-190784819D02*
X250594761Y-190784819D01*
X250594761Y-190784819D02*
X250689999Y-190737200D01*
X250689999Y-190737200D02*
X250737618Y-190689580D01*
X250737618Y-190689580D02*
X250785237Y-190594342D01*
X250785237Y-190594342D02*
X250785237Y-190403866D01*
X250785237Y-190403866D02*
X250737618Y-190308628D01*
X250737618Y-190308628D02*
X250689999Y-190261009D01*
X250689999Y-190261009D02*
X250594761Y-190213390D01*
X251213809Y-190784819D02*
X251213809Y-189784819D01*
X251309047Y-190403866D02*
X251594761Y-190784819D01*
X251594761Y-190118152D02*
X251213809Y-190499104D01*
D12*
X246377419Y-168235238D02*
X245901228Y-168568571D01*
X246377419Y-168806666D02*
X245377419Y-168806666D01*
X245377419Y-168806666D02*
X245377419Y-168425714D01*
X245377419Y-168425714D02*
X245425038Y-168330476D01*
X245425038Y-168330476D02*
X245472657Y-168282857D01*
X245472657Y-168282857D02*
X245567895Y-168235238D01*
X245567895Y-168235238D02*
X245710752Y-168235238D01*
X245710752Y-168235238D02*
X245805990Y-168282857D01*
X245805990Y-168282857D02*
X245853609Y-168330476D01*
X245853609Y-168330476D02*
X245901228Y-168425714D01*
X245901228Y-168425714D02*
X245901228Y-168806666D01*
X245853609Y-167473333D02*
X245853609Y-167806666D01*
X246377419Y-167806666D02*
X245377419Y-167806666D01*
X245377419Y-167806666D02*
X245377419Y-167330476D01*
X246377419Y-166425714D02*
X246377419Y-166997142D01*
X246377419Y-166711428D02*
X245377419Y-166711428D01*
X245377419Y-166711428D02*
X245520276Y-166806666D01*
X245520276Y-166806666D02*
X245615514Y-166901904D01*
X245615514Y-166901904D02*
X245663133Y-166997142D01*
%TO.C,SD_CARD1*%
X261190000Y-172150000D02*
X243970000Y-172150000D01*
X243970000Y-172150000D02*
X243970000Y-178370000D01*
X243970000Y-178370000D02*
X261190000Y-178370000D01*
X261190000Y-178370000D02*
X261190000Y-172150000D01*
D13*
%TO.C,A1*%
X237620000Y-176660000D02*
X237620000Y-173990000D01*
X237620000Y-171450000D02*
X237620000Y-133220000D01*
X237620000Y-133220000D02*
X232540000Y-133220000D01*
X234950000Y-173990000D02*
X237620000Y-173990000D01*
X234950000Y-171450000D02*
X237620000Y-171450000D01*
X234950000Y-171450000D02*
X234950000Y-173990000D01*
X234950000Y-171450000D02*
X234950000Y-135890000D01*
X234950000Y-135890000D02*
X237620000Y-135890000D01*
X232540000Y-141100000D02*
X224660000Y-141100000D01*
X232540000Y-130680000D02*
X232540000Y-141100000D01*
X224660000Y-141100000D02*
X224660000Y-130680000D01*
X224660000Y-130680000D02*
X232540000Y-130680000D01*
X222250000Y-173990000D02*
X222250000Y-135890000D01*
X222250000Y-173990000D02*
X219580000Y-173990000D01*
X222250000Y-135890000D02*
X219580000Y-135890000D01*
X219580000Y-176660000D02*
X237620000Y-176660000D01*
X219580000Y-133220000D02*
X224660000Y-133220000D01*
X219580000Y-133220000D02*
X219580000Y-176660000D01*
%TO.C,J1*%
X218410000Y-179120000D02*
X218410000Y-191720000D01*
X218410000Y-191720000D02*
X228760000Y-191720000D01*
X228760000Y-183920000D02*
X229260000Y-184220000D01*
X228760000Y-189320000D02*
X228760000Y-183920000D01*
X228760000Y-190770000D02*
X229260000Y-191020000D01*
X228760000Y-191720000D02*
X228760000Y-190770000D01*
X229260000Y-179120000D02*
X218410000Y-179120000D01*
X229260000Y-184220000D02*
X229260000Y-179120000D01*
X229260000Y-189070000D02*
X228760000Y-189320000D01*
X229260000Y-189120000D02*
X229260000Y-189070000D01*
X229260000Y-191020000D02*
X229260000Y-189120000D01*
%TO.C,J2*%
X231110000Y-179120000D02*
X231110000Y-191720000D01*
X231110000Y-191720000D02*
X241460000Y-191720000D01*
X241460000Y-183920000D02*
X241960000Y-184220000D01*
X241460000Y-189320000D02*
X241460000Y-183920000D01*
X241460000Y-190770000D02*
X241960000Y-191020000D01*
X241460000Y-191720000D02*
X241460000Y-190770000D01*
X241960000Y-179120000D02*
X231110000Y-179120000D01*
X241960000Y-184220000D02*
X241960000Y-179120000D01*
X241960000Y-189070000D02*
X241460000Y-189320000D01*
X241960000Y-189120000D02*
X241960000Y-189070000D01*
X241960000Y-191020000D02*
X241960000Y-189120000D01*
%TO.C,R1*%
X246920000Y-186590000D02*
X253460000Y-186590000D01*
X246920000Y-186920000D02*
X246920000Y-186590000D01*
X246920000Y-189000000D02*
X246920000Y-189330000D01*
X246920000Y-189330000D02*
X253460000Y-189330000D01*
X253460000Y-186590000D02*
X253460000Y-186920000D01*
X253460000Y-189330000D02*
X253460000Y-189000000D01*
D12*
%TO.C,RF1*%
X246810000Y-169750000D02*
X259030000Y-169750000D01*
X259030000Y-169750000D02*
X259030000Y-163530000D01*
X259030000Y-163530000D02*
X246810000Y-163530000D01*
X246810000Y-163530000D02*
X246810000Y-169750000D01*
%TD*%
M02*
