M48
; DRILL file {KiCad (6.0.4)} date Sat Apr 23 15:23:21 2022
; FORMAT={-:-/ absolute / inch / decimal}
; #@! TF.CreationDate,2022-04-23T15:23:21-04:00
; #@! TF.GenerationSoftware,Kicad,Pcbnew,(6.0.4)
; #@! TF.FileFunction,Plated,1,2,PTH
FMAT,2
INCH
; #@! TA.AperFunction,Plated,PTH,ViaDrill
T1C0.0157
; #@! TA.AperFunction,Plated,PTH,ComponentDrill
T2C0.0360
; #@! TA.AperFunction,Plated,PTH,ComponentDrill
T3C0.0394
%
G90
G05
T1
X4.3468Y-5.4468
X4.5Y-3.1522
X4.55Y-5.5
X4.65Y-5.7
X4.7Y-3.6
X4.7Y-3.95
X4.75Y-4.35
X4.9Y-4.6
X5.05Y-4.3
X5.05Y-4.8
X5.15Y-4.35
X5.15Y-4.8
X5.4Y-4.25
X5.5Y-5.6
T2
X4.87Y-3.1
X4.95Y-3.1
X5.03Y-3.1
T3
X4.4Y-3.2
X4.45Y-5.85
X4.55Y-5.85
X4.65Y-4.1
X4.65Y-4.2
X4.65Y-4.3
X4.65Y-4.4
X4.65Y-4.5
X4.65Y-4.6
X4.65Y-4.7
X4.65Y-4.8
X4.65Y-4.9
X4.65Y-5.0
X4.65Y-5.1
X4.65Y-5.2
X4.65Y-5.3
X4.65Y-5.4
X4.65Y-5.5
X4.65Y-5.85
X4.7Y-3.2
X4.75Y-5.85
X4.85Y-5.85
X4.95Y-3.85
X4.95Y-5.85
X5.05Y-3.85
X5.05Y-5.85
X5.15Y-3.85
X5.15Y-5.85
X5.2Y-3.2
X5.25Y-3.85
X5.25Y-4.1
X5.25Y-4.2
X5.25Y-4.3
X5.25Y-4.4
X5.25Y-4.5
X5.25Y-4.6
X5.25Y-4.7
X5.25Y-4.8
X5.25Y-4.9
X5.25Y-5.0
X5.25Y-5.1
X5.25Y-5.2
X5.25Y-5.3
X5.25Y-5.4
X5.25Y-5.5
X5.25Y-5.85
X5.35Y-3.85
X5.35Y-5.85
X5.45Y-3.85
X5.45Y-5.2
X5.45Y-5.3
X5.45Y-5.4
X5.45Y-5.5
X5.45Y-5.85
X5.5Y-3.2
T2
G00X4.785Y-3.0833
M15
G01X4.785Y-3.1167
M16
G05
G00X5.115Y-3.0833
M15
G01X5.115Y-3.1167
M16
G05
T0
M30
