%TF.GenerationSoftware,KiCad,Pcbnew,7.0.1*%
%TF.CreationDate,2023-04-07T11:41:16-04:00*%
%TF.ProjectId,smart penetrometer update,736d6172-7420-4706-956e-6574726f6d65,rev?*%
%TF.SameCoordinates,Original*%
%TF.FileFunction,Paste,Top*%
%TF.FilePolarity,Positive*%
%FSLAX46Y46*%
G04 Gerber Fmt 4.6, Leading zero omitted, Abs format (unit mm)*
G04 Created by KiCad (PCBNEW 7.0.1) date 2023-04-07 11:41:16*
%MOMM*%
%LPD*%
G01*
G04 APERTURE LIST*
G04 Aperture macros list*
%AMRoundRect*
0 Rectangle with rounded corners*
0 $1 Rounding radius*
0 $2 $3 $4 $5 $6 $7 $8 $9 X,Y pos of 4 corners*
0 Add a 4 corners polygon primitive as box body*
4,1,4,$2,$3,$4,$5,$6,$7,$8,$9,$2,$3,0*
0 Add four circle primitives for the rounded corners*
1,1,$1+$1,$2,$3*
1,1,$1+$1,$4,$5*
1,1,$1+$1,$6,$7*
1,1,$1+$1,$8,$9*
0 Add four rect primitives between the rounded corners*
20,1,$1+$1,$2,$3,$4,$5,0*
20,1,$1+$1,$4,$5,$6,$7,0*
20,1,$1+$1,$6,$7,$8,$9,0*
20,1,$1+$1,$8,$9,$2,$3,0*%
G04 Aperture macros list end*
%ADD10R,3.300000X2.500000*%
%ADD11RoundRect,0.250000X0.625000X-0.312500X0.625000X0.312500X-0.625000X0.312500X-0.625000X-0.312500X0*%
%ADD12RoundRect,0.250000X0.312500X0.625000X-0.312500X0.625000X-0.312500X-0.625000X0.312500X-0.625000X0*%
%ADD13RoundRect,0.150000X-0.875000X-0.150000X0.875000X-0.150000X0.875000X0.150000X-0.875000X0.150000X0*%
%ADD14R,1.100000X0.250000*%
%ADD15RoundRect,0.250000X-0.325000X-0.650000X0.325000X-0.650000X0.325000X0.650000X-0.325000X0.650000X0*%
%ADD16R,0.550000X1.200000*%
%ADD17RoundRect,0.250000X0.650000X-0.325000X0.650000X0.325000X-0.650000X0.325000X-0.650000X-0.325000X0*%
%ADD18R,1.400000X2.100000*%
%ADD19RoundRect,0.250000X-0.275000X-0.700000X0.275000X-0.700000X0.275000X0.700000X-0.275000X0.700000X0*%
%ADD20RoundRect,0.250000X-0.312500X-0.625000X0.312500X-0.625000X0.312500X0.625000X-0.312500X0.625000X0*%
%ADD21RoundRect,0.100000X-0.637500X-0.100000X0.637500X-0.100000X0.637500X0.100000X-0.637500X0.100000X0*%
%ADD22R,1.981200X0.558800*%
G04 APERTURE END LIST*
D10*
%TO.C,D2*%
X128270000Y-86770000D03*
X128270000Y-93570000D03*
%TD*%
%TO.C,D3*%
X137160000Y-86770000D03*
X137160000Y-93570000D03*
%TD*%
D11*
%TO.C,R5*%
X138430000Y-105602500D03*
X138430000Y-102677500D03*
%TD*%
D12*
%TO.C,R6*%
X140085000Y-110682500D03*
X137160000Y-110682500D03*
%TD*%
D13*
%TO.C,U2*%
X112190000Y-86995000D03*
X112190000Y-88265000D03*
X112190000Y-89535000D03*
X112190000Y-90805000D03*
X112190000Y-92075000D03*
X112190000Y-93345000D03*
X112190000Y-94615000D03*
X112190000Y-95885000D03*
X121490000Y-95885000D03*
X121490000Y-94615000D03*
X121490000Y-93345000D03*
X121490000Y-92075000D03*
X121490000Y-90805000D03*
X121490000Y-89535000D03*
X121490000Y-88265000D03*
X121490000Y-86995000D03*
%TD*%
D14*
%TO.C,U5*%
X111380000Y-142120000D03*
X111380000Y-142620000D03*
X111380000Y-143120000D03*
X111380000Y-143620000D03*
X111380000Y-144120000D03*
X115680000Y-144120000D03*
X115680000Y-143620000D03*
X115680000Y-143120000D03*
X115680000Y-142620000D03*
X115680000Y-142120000D03*
%TD*%
D15*
%TO.C,C12*%
X111350000Y-118110000D03*
X114300000Y-118110000D03*
%TD*%
D12*
%TO.C,R10*%
X139892500Y-123382500D03*
X136967500Y-123382500D03*
%TD*%
D16*
%TO.C,U11*%
X112080000Y-127030000D03*
X113030000Y-127030000D03*
X113980000Y-127030000D03*
X113980000Y-124430000D03*
X113030000Y-124430000D03*
X112080000Y-124430000D03*
%TD*%
D12*
%TO.C,R9*%
X139892500Y-116647500D03*
X136967500Y-116647500D03*
%TD*%
D15*
%TO.C,C6*%
X111760000Y-100330000D03*
X114710000Y-100330000D03*
%TD*%
D17*
%TO.C,C7*%
X114300000Y-111965000D03*
X114300000Y-109015000D03*
%TD*%
D15*
%TO.C,C10*%
X125525000Y-144780000D03*
X128475000Y-144780000D03*
%TD*%
D18*
%TO.C,D4*%
X189570000Y-58420000D03*
X193970000Y-58420000D03*
%TD*%
D19*
%TO.C,L1*%
X121615000Y-102870000D03*
X124765000Y-102870000D03*
%TD*%
D20*
%TO.C,R2*%
X171065000Y-55880000D03*
X173990000Y-55880000D03*
%TD*%
%TO.C,R3*%
X121920000Y-107950000D03*
X124845000Y-107950000D03*
%TD*%
%TO.C,R4*%
X254885000Y-45720000D03*
X257810000Y-45720000D03*
%TD*%
D21*
%TO.C,U8*%
X121597500Y-129805000D03*
X121597500Y-130455000D03*
X121597500Y-131105000D03*
X121597500Y-131755000D03*
X121597500Y-132405000D03*
X121597500Y-133055000D03*
X121597500Y-133705000D03*
X121597500Y-134355000D03*
X127322500Y-134355000D03*
X127322500Y-133705000D03*
X127322500Y-133055000D03*
X127322500Y-132405000D03*
X127322500Y-131755000D03*
X127322500Y-131105000D03*
X127322500Y-130455000D03*
X127322500Y-129805000D03*
%TD*%
D22*
%TO.C,U9*%
X122097800Y-137795000D03*
X122097800Y-139065000D03*
X122097800Y-140335000D03*
X122097800Y-141605000D03*
X126822200Y-141605000D03*
X126822200Y-140335000D03*
X126822200Y-139065000D03*
X126822200Y-137795000D03*
%TD*%
M02*
