%TF.GenerationSoftware,KiCad,Pcbnew,7.0.1*%
%TF.CreationDate,2023-04-07T11:41:16-04:00*%
%TF.ProjectId,smart penetrometer update,736d6172-7420-4706-956e-6574726f6d65,rev?*%
%TF.SameCoordinates,Original*%
%TF.FileFunction,Paste,Bot*%
%TF.FilePolarity,Positive*%
%FSLAX46Y46*%
G04 Gerber Fmt 4.6, Leading zero omitted, Abs format (unit mm)*
G04 Created by KiCad (PCBNEW 7.0.1) date 2023-04-07 11:41:16*
%MOMM*%
%LPD*%
G01*
G04 APERTURE LIST*
G04 Aperture macros list*
%AMRoundRect*
0 Rectangle with rounded corners*
0 $1 Rounding radius*
0 $2 $3 $4 $5 $6 $7 $8 $9 X,Y pos of 4 corners*
0 Add a 4 corners polygon primitive as box body*
4,1,4,$2,$3,$4,$5,$6,$7,$8,$9,$2,$3,0*
0 Add four circle primitives for the rounded corners*
1,1,$1+$1,$2,$3*
1,1,$1+$1,$4,$5*
1,1,$1+$1,$6,$7*
1,1,$1+$1,$8,$9*
0 Add four rect primitives between the rounded corners*
20,1,$1+$1,$2,$3,$4,$5,0*
20,1,$1+$1,$4,$5,$6,$7,0*
20,1,$1+$1,$6,$7,$8,$9,0*
20,1,$1+$1,$8,$9,$2,$3,0*%
G04 Aperture macros list end*
%ADD10RoundRect,0.250000X-0.325000X-0.650000X0.325000X-0.650000X0.325000X0.650000X-0.325000X0.650000X0*%
%ADD11RoundRect,0.250000X0.325000X0.650000X-0.325000X0.650000X-0.325000X-0.650000X0.325000X-0.650000X0*%
%ADD12R,2.500000X3.300000*%
%ADD13R,0.710000X1.000000*%
%ADD14R,3.025000X1.780000*%
%ADD15RoundRect,0.020000X0.180000X-0.760000X0.180000X0.760000X-0.180000X0.760000X-0.180000X-0.760000X0*%
%ADD16RoundRect,0.250000X0.650000X-0.325000X0.650000X0.325000X-0.650000X0.325000X-0.650000X-0.325000X0*%
%ADD17RoundRect,0.250000X-0.312500X-0.625000X0.312500X-0.625000X0.312500X0.625000X-0.312500X0.625000X0*%
%ADD18RoundRect,0.250000X0.625000X-0.312500X0.625000X0.312500X-0.625000X0.312500X-0.625000X-0.312500X0*%
%ADD19R,0.610000X1.910000*%
%ADD20R,0.930000X0.723000*%
G04 APERTURE END LIST*
D10*
%TO.C,C1*%
X124050000Y-121920000D03*
X127000000Y-121920000D03*
%TD*%
D11*
%TO.C,C2*%
X115570000Y-110490000D03*
X112620000Y-110490000D03*
%TD*%
D10*
%TO.C,C4*%
X111350000Y-104140000D03*
X114300000Y-104140000D03*
%TD*%
D12*
%TO.C,D1*%
X122330000Y-114300000D03*
X129130000Y-114300000D03*
%TD*%
D13*
%TO.C,U6*%
X123430000Y-102415000D03*
X125730000Y-102415000D03*
X128030000Y-102415000D03*
D14*
X125730000Y-108015000D03*
%TD*%
D15*
%TO.C,U10*%
X115275000Y-122260000D03*
X114625000Y-122260000D03*
X113975000Y-122260000D03*
X113325000Y-122260000D03*
X113325000Y-116500000D03*
X113975000Y-116500000D03*
X114625000Y-116500000D03*
X115275000Y-116500000D03*
%TD*%
D11*
%TO.C,C3*%
X138635000Y-85090000D03*
X135685000Y-85090000D03*
%TD*%
D10*
%TO.C,C5*%
X125525000Y-90170000D03*
X128475000Y-90170000D03*
%TD*%
%TO.C,C8*%
X125525000Y-86360000D03*
X128475000Y-86360000D03*
%TD*%
%TO.C,C9*%
X155800000Y-41910000D03*
X158750000Y-41910000D03*
%TD*%
D16*
%TO.C,C11*%
X129540000Y-134825000D03*
X129540000Y-131875000D03*
%TD*%
D17*
%TO.C,R1*%
X136967500Y-113030000D03*
X139892500Y-113030000D03*
%TD*%
%TO.C,R7*%
X131887500Y-144780000D03*
X134812500Y-144780000D03*
%TD*%
D18*
%TO.C,R8*%
X113030000Y-144972500D03*
X113030000Y-142047500D03*
%TD*%
D19*
%TO.C,U1*%
X139065000Y-94220000D03*
X137795000Y-94220000D03*
X136525000Y-94220000D03*
X135255000Y-94220000D03*
X135255000Y-88660000D03*
X136525000Y-88660000D03*
X137795000Y-88660000D03*
X139065000Y-88660000D03*
D20*
X136385000Y-92042500D03*
X137935000Y-92042500D03*
X136385000Y-90837500D03*
X137935000Y-90837500D03*
%TD*%
M02*
